<mxfile host="65bd71144e">
    <diagram id="HE4RskX0ld8MXPSZCMKo" name="Page-1">
        <mxGraphModel dx="1151" dy="814" grid="1" gridSize="10" guides="1" tooltips="1" connect="1" arrows="1" fold="1" page="1" pageScale="1" pageWidth="827" pageHeight="1169" math="0" shadow="0">
            <root>
                <mxCell id="0"/>
                <mxCell id="1" parent="0"/>
                <mxCell id="2" value="" style="shape=image;verticalLabelPosition=bottom;labelBackgroundColor=default;verticalAlign=top;aspect=fixed;imageAspect=0;image=data:image/png,iVBORw0KGgoAAAANSUhEUgAABO8AAAFjCAYAAABlrC8sAAAABGdBTUEAALGPC/xhBQAAACBjSFJNAAB6JgAAgIQAAPoAAACA6AAAdTAAAOpgAAA6mAAAF3CculE8AAAAUGVYSWZNTQAqAAAACAACARIAAwAAAAEAAQAAh2kABAAAAAEAAAAmAAAAAAADoAEAAwAAAAEAAQAAoAIABAAAAAEAAATvoAMABAAAAAEAAAFjAAAAAEC09x4AAAIzaVRYdFhNTDpjb20uYWRvYmUueG1wAAAAAAA8eDp4bXBtZXRhIHhtbG5zOng9ImFkb2JlOm5zOm1ldGEvIiB4OnhtcHRrPSJYTVAgQ29yZSA2LjAuMCI+CiAgIDxyZGY6UkRGIHhtbG5zOnJkZj0iaHR0cDovL3d3dy53My5vcmcvMTk5OS8wMi8yMi1yZGYtc3ludGF4LW5zIyI+CiAgICAgIDxyZGY6RGVzY3JpcHRpb24gcmRmOmFib3V0PSIiCiAgICAgICAgICAgIHhtbG5zOmV4aWY9Imh0dHA6Ly9ucy5hZG9iZS5jb20vZXhpZi8xLjAvIgogICAgICAgICAgICB4bWxuczp0aWZmPSJodHRwOi8vbnMuYWRvYmUuY29tL3RpZmYvMS4wLyI+CiAgICAgICAgIDxleGlmOlBpeGVsWURpbWVuc2lvbj40MTE8L2V4aWY6UGl4ZWxZRGltZW5zaW9uPgogICAgICAgICA8ZXhpZjpQaXhlbFhEaW1lbnNpb24+MTI3MjwvZXhpZjpQaXhlbFhEaW1lbnNpb24+CiAgICAgICAgIDxleGlmOkNvbG9yU3BhY2U+MTwvZXhpZjpDb2xvclNwYWNlPgogICAgICAgICA8dGlmZjpPcmllbnRhdGlvbj4xPC90aWZmOk9yaWVudGF0aW9uPgogICAgICA8L3JkZjpEZXNjcmlwdGlvbj4KICAgPC9yZGY6UkRGPgo8L3g6eG1wbWV0YT4KHkSaRwAAQABJREFUeAHsXQd8FNX2/khvkJAEEgih9ya9igJPBUTE3sWKBZ9/xCd2lCd2xfJsKCKIWBAEFVRAqiBSBOm9h5IQ0iA9BP733M3ZzA67ySTZ3VDO/WVzZu6c274598zuN7dUOa0CJAgCgoAgIAgIAoKAICAICAKCgCAgCAgCgoAgIAgIAoLAWYeAz1lXI6mQICAICAKCgCAgCAgCgoAgIAgIAoKAICAICAKCgCAgCGgEhLwTQxAEBAFBQBAQBAQBQUAQEAQEAUFAEBAEBAFBQBAQBM5SBIS8O0tvjFRLEBAEBAFBQBAQBAQBQUAQEAQEAUFAEBAEBAFBQBAQ8k5sQBAQBAQBQUAQEAQEAUFAEBAEBAFBQBAQBAQBQUAQOEsR8DtL6+WRap06dUrny9IjhUimgoAgIAgIAoKAICAICAKCgCAgCAgCgoAgIAgIApWCgI+PbZway0qphJsLPS/JOybnWBJm+fkF6pOHwsKTyMnJ1TDScW5uHnx9fYvOC/VxYaFIwkRwEDsQO5B+IH5A/ID4AfED4gfED4gfED8gfkD8gPgB8QNnux8ICgrSvI6fTxX4BwYiICBI8zsBAf46nv4RmXeuEnpVTqtgb8k5fMBEHUki6nJyspCZmanJuZycnHO4ZVJ1QUAQEAQEAUFAEBAEBAFBQBAQBAQBQUAQEAQEgbIi4O/vj0BF5hG5FxxMn1BF7PnbSbxzhcw7p8k7I2FHRF1GRroi7LJQUFBQ1vsp+oKAICAICAKCgCAgCAgCgoAgIAgIAoKAICAICALnOQJE6IWHhyMsLEx/mMBjeTY2/5wl74i4O378uCbs0tLSLWHLjCspE+vqp26YBEFAEBAEBAFBQBAQBAQBQUAQEAQEAUFAEBAEBIFzG4GTaiBXbq5tmbS8vDxLA7uYyAsPj0BoaIh9RN7ZhsQ5R96dPHkSx1JSkJGerqbGup4OSzcgLCxUs6g01zkgIEDNd5bNdc82A5T6CAKCgCAgCAgCgoAgIAgIAoKAICAICAKCgCDgbgQKC08p3igbuYrIy8vNKXWmZnBwMKKjo9SovAj4+Z1dW0ScM2wWkXaJhw9h+/btSDl2zClxR0Me4+ProGnTZmjWrBni4upo0Gles5G446GQIh13YBE8BA9ylmIHYgdiB9IPxA+IHxA/IH5A/ID4AfED4gfED4gfONf9APFAxBNFR0Vpfoh4IuKLYmvV0vHUPmOgAWKJiUmad0pMSgLxUGdLOOtH3umRdkeTkFI0Nda4nh1di4iIQPXqEQr4ag4EnRFgcjo0zZal8ZocCwKCgCAgCAgCgoAgIAgIAoKAICAICAKCgCAgCJx/CJTEA9HIvLSUZGScyMSJEyccRtvRbE4KUdHRqFmjhn2QS2UhZKOSK6v0UspNV1Njd+/erYk7Iu2MxF20ArBZs+ZqpF1dPbrOOLKOsjW+JTBubGGMN+vJuSNugofgIf1F3raJHxA/IH5A/ID4AfED4gfED4gfED8gfkD8wLnqB5gPMtswtYd4pOiaMahfv4Hml2iUHo+2Yw6KZn7u2bMHxE9VZjgrR95lZ+cgOTnJ6XxkIu0iI6P01r7OgKMbwjfHeN1VvFFHjgUBQUAQEAQEAUFAEBAEBAFBQBAQBAQBQUAQEATOHwSc8UHO4mgkXn5+PpKSEhUflekAAG9sUaNGTQQGBjhc88aJjT72RkkWyiDSLSXlGPbu3QPaQdY40o6mxtLcZAIqIKB4l1gCnAJLyoOPjdJVvDGtUV/iizEVXBxtTPAQPMQ/iH8QPyB+QPyA+AHxA+IHxA+IHxA/IH5A/MC54QeIDzLfK2cckb+/H2jPBJrhWb9+fYd18YifysjIwL59eytlFN5ZM/IuLy9fjbY7qsEwkna82wetaUdAUmCQ+QboSPWPnKc5jq+JFAQEAUFAEBAEBAFBQBAQBAQBQUAQEAQEAUFAELjwECgLX8S6NBIvM/O43sTCyFPRKLwoNcCMptx6a1daG1VeyffthFocMDHxsJ244znGsTVr2Ne0I+KOiDkm51ga33ZQnPGcmiXn8jZE7ED6gfgB8QPiB8QPiB8QPyB+QPyA+AHxA+IHxA+IH7hw/YAzDsmVT2Bd4qHCwyNQt249vVEq6VMgIo82VT106CBoIJo3QqWPvKNF/46pBQB5PjERdzTaLjY2Ru8gy6QdgUEdjQk6o/QGUFKGICAICAKCgCAgCAgCgoAgIAgIAoKAICAICAKCwLmJAHNKVmpv1KXjgoKTTkfh0SYXMTGxqFo1zEq25dax0a7lTl6xhLS+XVISbUxRvBBgRISN1SR200jcUUnMfpolAUlBpOAgdiD9QPyA+AHxA+IHxA+IHxA/IH5A/ID4AfED4gfED4gfMPsB5pKs2IZRl455FF5cXJzDWnjEZ9EGFzSj1JOh0kbeEXGXmJjksCkF7yQbFBRoJ+oIVAKqNOlJkCRvQUAQEAQEAUFAEBAEBAFBQBAQBAQBQUAQEAQEgXMbAeaWSmuFMz2Ko5CVlY3U1GN6o1XOh/driIqK5ii3SlvJbs2y9MyMxB1Nk6XF/mh9O9pJ1kjcUU7MdpYmGUSRwq6T3YgdiB2IHUg/ED8gfkD8gPgB8QPiB8QPiB8QPyB+QPyA+AGjH2BuyRjnzEac6VEcfUJDQxR/FQMagMYhJydHD1AjvssTwesj78zEHbGTUarB0VFR9tF13FACk4CxKjmdSEFAEBAEBAFBQBAQBAQBQUAQEAQEAUFAEBAEBAFBwIwAc0zmeD7n6yw5niTHkaR18JKTj+p9HFhHD05Tezi4ewSejYbnUjwsnRF3tDGFmbgjECgw02lVcjqR8naF7EfsQOxA7ED6gfgB8QPiB8QPiB8QPyB+QPyA+AHxA+IHxA8Y/QBzTMY4o43wdZZGPY4jfVoHj2aQ0kxSIu0o0E60tEScu9fA89rIO9pV9tChQ7ohxh1laWMKAoIAYEkN5uOySkorQRAQBAQBQUAQEAQEAUFAEBAEBAFBQBAQBAQBQUAQcIYAc03maxxvlqzH8ebzYykpSDxyhKNBs0xr145z2y60Ngrenr1nDrKzc/SussRAUqBG0Ig7I3FH8cxgGsHgOKuS0lIQKTiIHUg/ED8gfkD8gPgB8QPiB8QPiB8QPyB+QPyA+AHxA+IHzH6AOSazbXC8WbIex/M551s9ovoZa+AdPnwIeXn5pFLh4PGRdzTKbvfu3aDF+zjE1qrlMFWWGk0AsGQ9Pi+r5PQiBQFBQBAQBAQBQUAQEAQEAUFAEBAEBAFBQBAQBAQBMwLMNXE8n1uVnI4kpaE18BITDzvsQlu9egTi4urAz8/PqF7mYxv9WuZk1hIQIZeYmOhA3NFuHOY17pi5ZAKPcmew6Nh43co5paUgUnAQO5B+IH5A/ID4AfED4gfED4gfED8gfkD8gPgB8QPiB8QPmP0Ac01sG3xuVXI6kpSG1sCLja0NIuw4pKWl49jRJD4tt/ToyDta527fvn32yoWFhSE+vq5uEIPBjWRpVy464PiySnM+ci4ICAKCgCAgCAgCgoAgIAgIAoKAICAICAKCgCAgCDACZeWazPrO8snNzUNCwgGHgWyNGjWu0Pp3NuqVS3OjpHm9tEEFB9p5w0jcUYMpMIlHkuOM0njdrF/SuTEP0pNzYdnFDqQfiB8QPyB+QPyA+AHxA+IHxA+IHxA/IH5A/ID4AfED7AfKyzlxOrYlPicZEOCvN6vgHWiprAMH9ldo/TuPjLyjde5oxF1mZibVUYf69euDRt4ZAzWSGsbSeM14zNfLKo15yLEgIAgIAoKAICAICAKCgCAgCAgCgoAgIAgIAoKAIGBEoKxck1mf8nIWl5GRrkbgHbQXRcvI1a5d2z64zH7BwoGNbrWgaFWFyDiqoJG4i61Zw4G4o0ZRMDKTHOdMGvXM6Uo6d5YX6Uu8sOxiB9IPxA+IHxA/IH5A/ID4AfED4gfED4gfED8gfkD8gPiB8nJOnI5siI9Zkm8JD49w2IH22LFjyMrKtuuSjtXg9pF3NF12166dapeNAl2H4OBgNGrU6Iz6cONYnqFgimC9skpTNnIqCAgCgoAgIAgIAoKAICAICAKCgCAgCAgCgoAgIAjYESgr12TWp4ycxRUWnjqDI2vSpIl9UJm9AqUc2CjWUpSsXqbpsmkpyXbijtLVrh1nT04NocANomNiJY3xfN0smb0sq7SSt7ksOZe3L2I3xX1V+oP0B+kP0h/ED4gfED8gfkD8gPgB8QPiB8QPiB84n/1AWbkmsz5hY4xjrHx9fRAXV8yL5eTkIC0t1a5L/cpKcOvIu+zsHOzdu8dO3tF83tjYWJf1MDbOpZLhAuuXVRqykENBQBAQBAQBQUAQEAQEAUFAEBAEBAFBQBAQBAQBQcABgbJyTWZ9yozjHDJWJ8Z9IWgji8aNmyAwMMCs5vLc9vrA5WXrF2jUXXJykp24o8rUqFHTngE1gIJREitpPDdfN58bWUy6ZvW8LGWYy/TUOdWJ60VlUODzypRUtp+fn3wEA0s2QPbCn7PFhqUeZ4cvkfsg96Eyn2Vif2J/Yn9nfu+WfiH9QvqF9AvxA+IHxA+U7Aesckyu9AhfumbGmfqecVYqLTNHs1Y5H7peWnDbyLsTJzKxe/cue3m0SUV0zRj7uTsOjEAwIFakO8p2Rx5Uf76J+/fv01nGx9e1x/GNY+mOMq3kQWQdlXk45QQ27ErDoaQMpOcUICk1x0py0blAEYiJDEbD2HDUjlRvDerWQI3qodqOvG2/Fyj80mxBQBAQBAQBQUAQEAQEAUFAEBAEBAE3IVBevsmczlwdvk7xhw4dVFNm07VKWUff+Y5WQaeswD8adZeRloJMtWsGBapEXJ14RUpV0edU2dOnT2uSqiKS0lIoq3RX+RXJp0qVKmqL4AP48IP/4drrrsOxYylYseIv3HXXXcjKzETNmBhQ6/Lz8xR+AW7HzlndqU702br3GL5ftAtzViZg75HjOHQsGxmZ+ThZeFo+goFLGyAbSUzLxtYDx7FudxISk7NRKyoEVUOD7G8QnNldRXyA5OceXyo4Co7SDyv+nUT6kfQj6UfSj8QPiB8QPyB+QPzA+eMHeBAK9evy8E6czmwTHE95EtdD691RoPL8/P0QEhKieRkdWcI/t4y8M+8wW9padyXUp8RLBAI1sKyyxEw9fJHrumDBfNx9973IzDyBDxSB16dPHwQqkvPzCRPw0cfjNOFJN/H555/D/fffj6ioaBAp6qlA9aIwZ+UBLFybgNy8QntR+SeLj+2RciAIuEAgwM9XXwkK9AWNxuvbrhY6tojzqP26qIpECwKCgCAgCAgCgoAgIAgIAoKAICAICALlQoD5m4pKLtycD8Ub174LDg5Go0aN9JJVnMaV9HN1wWo8kWmZmcfta91ROvNad+Uh3MyN5HPKn/Iri+S0lSX/+OMP3Hbb7UhNTcVHiri79dbb7QsTdu7SBZlvvqUwzMTrr7+Gfv36IzjYNv1QN1L980S9Kc9f/9pnJ+6IsCMSJqq6P+rG1EJYqBpBFVCI0NAwFc81EXmhI+AbGIScrFxkZWXiRL4vjivCefuh4ziela+h2X8kEwtxBFERIahfq7qdwPOEDbvTr0j9yvdiRHAT3KQflv2FovQb6TfSb6TfiB8QPyB+QPyA+IGz0w9Q36RQUcn315wP5R0TE6v4H9uSc7TzbE5OruJdQjTvQ9ddhQqPvKNRdzQdlMgnCtWrR4DWceNKuiq4PPEMQFllecpyRxpaSy4xKQkvjBqF8ePHo137jljx13I1ys62xhy14/ff59mJvZ9//glXXNEftJUwBW6nO+pizIPqtX5nEmYs24Ujybn6Uq0aQejaPE6tUxiNYFU/P1UHP0XmUR0o0BToU6doWLTICx2Hk4ropQ+Fk4VE3mdiy74UNf36qH0EZ71aYfjPzR084gd0wfJPEBAEBAFBQBAQBAQBQUAQEAQEAUFAEHATAsy/uEtStVzltXv3bkXa2fYY4JmrxNOUFGzMTEkapVzLz8+3E3e01l14eIQ9RTHxwwRQxSQTgmWV7q6H1fwIiMQjRzD5yykIDAjGoIED9Ig7rj/lk5KSqta5s41aCggI0MQe52/Uo7w4viKS0hLhumZ7MlLSCihbEHF3adt4NGkYjxoRYQgJDtTEHV2jOtCHyBqRggOTdkTs0odspWaNKHRpXQ+dW9cnk9GBNjv5Z/sRu81SZEXsVtILfmI/FXt+Cn6Cn/hR8aPiB8QPiB8QPyB+QPyA+AHXfoD5F3dJ6m/O8qL48Ihi3iwjI0NxQjZuhu6Pq1ChkXe0JtuxlBRNUFEBPF/XVWEVjefGl1VWtNzypifmdMWKFejevTsiIyMxadJEDBp0tcNUwl6X9MbyP5eiTZu2mDbtezRr1szhOt/s8tbBnI7qtGVPMqYu2aFH3dFU2a7t49GjdUOt6u7yzOXL+fmJAPXJLLWe4x9r92DD7hQ9BZtG3428tZPdns/PlkurBAFBQBAQBAQBQUAQEAQEAUFAEBAEzmUEysoxVVSfyLq9e/fYl5+Lj6+jZrFG2ge8OMPSRj07u2IhrpCmzJ04YdcMDQ11KIwaRMFdkomlskp3lV/WfKjt1atXR/PmLfToOmZTiUCjz+LFizVxR6PyHn/8sTOmG3M7y1puafr7krKQlW2by00ES92ocHWPaDqsLY7qLUEQKAsCZDvBIaGo07C2PRmNvsvOtg0FpsjS7FKuu9dfCp6Cp/Q78TviB8QPiB8QPyB+QPyA+AHxA+IHSvcDzIV4SwYFBapZmYHUPXWgde+4bI4zywqNvDtxIhO7d9sW2qMps3FxcahWrVqphZorYfWcjI4aVFZpNX9361E9s7Ky8c03X+OJJ57AxT17Ytyn4/TU4pUrV2DkyKeQnp6OB4beh4eHDdNMq/GGcTvdWS8iDb/8dTNWb0sGbVLRuWk0unVopqc/Gst2Z5mS14WBANlryvEsfD/nH732He0+e++A5mheP8pjPuHCQFZaKQgIAoKAICAICAKCgCAgCAgCgoAg4CkEmHvxpjyanGyfxUp8WoMGDRESEuyyiTYK0uXlki/k5+c6TIkLCwuz/0inRlNwp2RyqazSnXUoS5uonlWrhmHwNdeoHWZvxZy5czFnzlxMnToVfy77U0+Rfeml0Rj+2OMOxB3Xl9vJ5+6SJ3IKNHFHbQkKD0NQoL/9vlGcBEGgIgjERBY7HN6FlvJzl/1KPu73rXJ/xD6lX0m/Ej8gfkD8gPgB8QPiB8QPiB+4UP0Acy/ekoRztarV1J4H/nSop88WFto2hdQRTv6Ve+QdrXeXmJiIY8eO6WyJuGvcuLEDmeekvApFkTMhMMsqK1RoBRJTPQsKTmLjxg0YO/YdtfNsIkY9/zzS0tJQs2ZNNGnaFLExMboEwtMcuJ3m+PKec33Gz96i1yWjfP7VtSl6tItHbm7JhlLeMiXdhYMA2Zdx3btqoQG4/uJ4dG3jmd2nLxxkpaWCgCAgCAgCgoAgIAgIAoKAICAICAKeQoC5F29JageVtXPnTvuus7G1aiE6KkovseasnTZq2dmVUuJo/bbc3Fy7Vpga3scsJUVSRdwtOf+ySk/UxWrbEhIO4JFhj+C7775F/Xr10KFDB1x//fXo1auXJu6oLUbizlhXbqcxzmq5zvQo7nh2AXLyzyQK6ZoEQaAiCJC9VvEN0BvXcD5VfGxvEujcXXYs+bjft8r9EfuUfiX9SvyA+AHxA+IHxA+IHxA/IH7gQvUDzL14S3Jfo7XvOOTl5oD2lXAVyj3yjta7O3Bgvx7e54317qgB1EACs6zSVeM9HU/ry23fvh2XX34FiMSjMHToULRo0RwtW7ZEo0aN9WhFahMbibFO3E5jXEWOKb+UjBxMmrMVOxMydFYy8q4iiEpaIwJkX9k5eVi1aT9WbjoIGnl3wyUN0aVVLaf2bUwrx4KAICAICAKCgCAgCAgCgoAgIAgIAoJAZSDA3Iu3JLWRykpLS1UzWpM0rxYcHKw3MXW17p2NWi4HOoWFJ3UBnDQ4OMT+A50qQcHdkgmuskp316O0/IxtJyb17ruGoGHDRvozfvx4tbPsf3Dbbbdj1KgXMHfuHDWCMc8pVtzO0sqzel3fFPknCFQSAlbtVPQ84z8FV8GVur7YgdiB2IH0A/ED4gfED4gfED8gfkD8gKMfYO7FW5L7YEBAEN0KHWhGZknr3pV75F1KyjHs3btPz8clhrBJkyZ28o4Ld7ekBhKYZZXurkdp+XH9aNTdzBk/YPOWbWrE3f1q59lMzJgxE2vWrFXY7UFmZiYiIyPx448/okuXrmqxQj8HDDmf0sqzep3yk5F3VtESvbIiQPYlI+/KiproCwKCgCAgCAgCgoAgIAgIAoKAICAIVCYCzL14SxrbSrxRQUGBXk6N9pGIiIgwXrYf2yhn+6m1A2IEC/Ly7Avp+fr62t/mUw7UYE/I8rKgnqqPs3w5bt26dRg9+r9Yv2ET3n3vXfTt2xeDBl2NiRMnYtq07zHs4Yf1kMjU1FTMnDlTLVKYrTHjf5QPt5fzrKjkvEUKApWBQEXtV9J7xq8KroIr+QOxA7EDsQPpB+IHxA+IHxA/IH5A/MCF6geYe/GW5L5GS63RhwJJmuHKddCRhn/lGnmXl5eP5OSj9p1mo6OjUbt2bZeFGMqr0CE1kBpSVlmhQsuYmACnUYlvvvEmPv7kE/z000+auDNuSsE3Z9Kkibjnnntx99134+2330JUVPQZm1e4unFlrJZWJ9xk5F15kJM0VhAg+5KRd1aQEh1BQBAQBAQBQUAQEAQEAUFAEBAEBIGzBYGyckwV1ed2Uz579thmZVJcSTvO2qhlTlkGSYwgBdqsws+nikNKqgAFd0smssoq3V0PV/kxCGlp6dijphTXqROPls2bcbRdEpFHbejTpw8CA4I1hvaLRQdUBrfTVXlljTeXIeeCgDcRKKu9ir5n/KjgKrhSvxc7EDsQO5B+IH5A/ID4AfED4gfED4gfsPkB5l68JbnvEf60fBqHknactVkra1qU5kX0/AOLt7elLDzVYG5gWaWn6mPOl+Ej8MPCQtUad1nYdyBBR1OdjR9Ku3v3Hn2tX79+CA4OteNGkXSd22kup7znurAK/Dt5svCM1BRnjDefUwJncc7iXemdUagXIqguuXk07/zMNnuqeC6TyvVm4HI9XWZ57VbS2bYLFxwEB+qjYgdiB2IH0g/ED4gfED8gfkD8gPgB8QPu9QPMvXhLUh/msnx9i8k7uq+uQrnJu8zMLKd5cgU8IcvrpDxRF2q8s3ypjnFxddCtWzckJBzA2LHvIPHwIbUAIe3Oa/vQ7rJ///03nnn6Gdx628244op+oF1puX2cr/mc48srnd4wC5FE7qQcTUTCni3YsXmtw4fiDh/YpUku0qHjPdvXO+jQOcVnZGTYMcvJztL5GXXp+EhiooUaeVaF6rl43kzMnj5R19vPz9ezBarcibDbvmk1Jnz0mi43KMjzZfJ9/XXmFPzw9TiPt7G8divp5I0gGafYgdiB2IH0A/ED4gfED4gfED8gfkD8gPgBT/gB5l68JakNXFZwcJDT2Zhk68ZgjeIzpijlmCvgCckNLKv0RF0IBlf5Uv3uvHOIWgewFl4e8wqaNGuOIUPuRKsWLZCaloZVq//WKD751JMYPHiw/lHKeRnz5XbytYpKXWg5/6UkH8akT97C9OnTHHK48uobcdNtqq11G+N4ejJ279qO/735X2zbttWu1659R9x0x33oeulAta5fpIr3Qb4iMtes/guzZ3yL5X8u1bpdOnfB8KdfQnydOHtabx4QofjPqj/w+ugndf2pbVRnTwYi0IjY/GHqZEz9arwu6onnXvZkkZpozUhNxqLff8bnH41Vc+x34+HhT3m0TMq8ovYr6eUNo9iR9CPxA+IHxA+IHxA/IH5A/ID4AfED4gfc7QeYe/GWZBumdhgDDfgyz3Tl6zbqns/KIWnzBZryyYEaS8ETkhtYVumJupTURroWEOCPAQOuxKLFi/HPP/9g2LBHcGmfvrjxppvx2fjxmDFjhibuSJfbY66nq3izntVzKqs8gUaeNW3VAS+9NwVPv/CqPQsit/771jj06D1A7YziiwZN26D/1TfjtffGgwg7CiRHPv8K7rhP7a6rSDkiq6hd4eHhuObm+/DAo09qvR49e+H9CTPQuedl+tzb/+b/Oh2PP3gH3ntjNI4eTfJK8Qf2bMfbY57EiAdv1SQm7TwcEOA4Bd2dFSE7oVGFUyd/jHtuuhyTx3+giTtad9Ebwaqdip7nfCjdZ8FX8BU7kH4gfkD8gPgB8QPiB8QPiB8QPyB+oNgPMPfiLcnYUz80BiLuPEbeGQuiY082lhtYVunJOpXUZrpGJF79+vXRrFkz/WnUqBGio6Lokj1we8z1NMdzArOe1XNOXxHZ5qIO9uQR1asjQK3vx/XkCzGxcQgJCeFTp5LSnCw8hcOHbGsC3vPQCNSIre1U19ORNOKubr2GeP3DSRg7fgaat2jl6SL1NFkq5Pahj2PKT0tx3a13e7xMLqBV63aY+usKvP3RlxzlFWnVTkVP3qSRQYodiB2IHUg/ED8gfkD8gPgB8QPiB8QPiB/whh9gTsNbkttE9m012KhGq9oW9DzZWG5gWaUn60SQlJa/M9iMabg9xjhKw/E0ujEjIx2HDx/WWdE5B3Oa0s45XXkkja6LrhFTYtJTp04jtFokgkMiStTzUTsUZ2WkYNmSRaDpsj37DLS3t8SEHrgYHBKKhs0uQnVFRkZHRpRad3dUISjQX081ptGI/gFBCA4Kcke2JeZB9kQjHlt36IGq1aohMqpGifruvliabcr14jc/hL3gIXiIHUg/ED8gfkD8gPgB8QPiB8QPiB8QP+B5P8Dci7ck31Pq31aDDQWr2hb0PNlYbmBZpSfrRJCUlL+ruhrTsI4xjvLleDrOzMzEqFGjcGnvvlixYoWapuqnP+Y0pZ1TXhUJ1SKKCZ+kw0f02nXG/DQpl5OPwpOZOvrA/r04ojbs8K9i1LLtQLtp/Sr8sfA3DPvPKLVhR4CjQgXPjNhZycobm1KY60FllrWe5jzKc14ZbaV6lmabcl3erIqdSD8RPyB+QPyA+AHxA+IHxA+IHxA/IH7A236Af5d7S7KNUzutBreTd55sLDewLNKT9SGQS8vfVV2N6VjHGEd5czwdU6Bdamlzh4EDB6JPX0cSj9PaND33PzS8eMrvgt9n4WRejsKgmJkLVQPIFs+Zpjau2K0rQeu4JSTsh3EpNyKPaGfav5YtQdfufXBx34F6LTx31JpwoJ1bkxMP63X43JFnaXlQe2h3WP6Y9fm6O0kzyovzrRpsOzaWy9e8sWutsdySjtlGRXr+zRHdB8FZcBY7kH4gfkD8gPgB8QPiB8QPiB8QPyB+oHQ/wNyLtyTfE+qfVkPx/EurKUrR83RjqZFUhlXp6fqUlr+rehrTsY4xjmDmeDoOD49ArVqxdAgixBYvWoSb1OYXjRo3wkv//S969epl1+d8tLKb//n5+oA2l+AdYrPzaQOK07oUqu+BQ6l684WEhAP2kvPz8hQ5Zz/V+jTq7tefvsf/PvtG1buKiiu+Xt4jIqz27NiCz//3Mg4kHMTYT77V6+h5Eg/agGPzuhXYunkDdu3Yrqv+2LOvg6bFEh75+QVYvvg3/LFoPgZdeyNatetW3uY5pKN27ti2ERvX/4OM9DTcpTYEadT8It03iLDbsWWL3sE2vm493HD7Aw5pK+uE74NIeZNGNih2IHYgdiD9QPyA+AHxA+IHxA+IHxA/IH7gbPADzL14S3Kbyf6tBhsFaVXbgh41loKnJDfSqvRUPazm66qexvSsY4wjDDmejoODQxAWWryrL8URQUYk3t1336NH4i1cuFDjzlNqSccToXnr4k0rjh9LsNezakgVzP5hMuo3boEbbrgR8fF1dfFELqWk5+u6EbG0/0ACZk77Fq3adEKnHr3dMuqOiLsTx49j/pyf8N1332LN6r/x0/TJasOQ4lGB7sSC7hVtdPH77KnYvXO7Ju6+nvgZvv96AratX6GLovtHu8k+PuwufPHp+5g66SMkHDxU4RGBS37/GevWrEB6WipmTp2Mb778DIvm/4a0tDSEh/li6YK5eHb4Pfjk/Tf0jrKr/5yvRwW6s/3lycts33LuWV8p+Aq+1E/FDsQOxA6kH4gfED8gfkD8gPgB8QPiB0r2A8y9eEtyn6T7YjXIyLuiIV+eukl0UyhvszSXRzfMHMdpOJ5vamRkpN4RNeHAfk3g7dmzG/RJPJKI+vXqYuSTT6JDhw6IiLBtGnHSOOyNM6mArKo2PeBQoEaWUaC6Jh49jhnfTlQ7p96DyMgobNq0idWKdKqotfvysXLJL1i7ahnGfjRREVm0/p2DWrlOaAQcbTxBu+H27tMHIVWjcVn/wW7J21mF6J7QRhOtO12KYL9TulwaSZiYeARr//4L7br0wtdffIBAtRHFE8+9DLpXHTp11Rti8EhFZ/laiWvVpr1W8w+uhg2rl2qycvVff2HwDUOwfNmfWLVyOQZce6v+BAYGomGT1h7DwUp9WYftWKS8YSWbEDsQOxA7kH4gfkD8gPgB8QPiB8QPiB8QP3A2+AHmXrwluc1k/1aDjYK2qm1BjxpLwVOSG2lVeqoeVvN1VU9zemfQclrztdDQMNxw/TX4+uspGDbsYfsIt23btmLO3Ll47LERuPa66/DNN98gJeWYIshsm1uY8ynPOY1wi4+vZ0965HCCXmOORt39MvNr1Iyth85de6JW7Xj4+/trvXQ1Iiw94ziC1enhA7v0DrM06q5rryvUOn6F9rwqekCYtu/aB8+/8iEef3o0GjZt6ZZRfa7qRVg0qF8XsXXqo0HTNujbb5BWJSKNRrsl7N+Ha66/RU9bvXfYk3pHXSIYXd1XV+WY46k8+sTEROKSKwYjNrYWaP3BVcsXYvHCefr+3DxkGOhz1Q336KnDRG5WdjDbvLvPK7t9XL672yX5efaZIvgKvtR3xQ7EDsQOpB+IHxA/IH5A/ID4gQvXD/BvdG9JtjXyO1bDOTHyjhrGH6sNM+oxMJUljXUxHpvrY7xmPvb3L75VRIrFxMTqde6aNG2K/v37Y86cOZg16xc9Em/jxg06+YH9B/DV5Mm4+ZabMWjQIERFRSM00NYhzfmX5Tw8ojoCA4KRl5+DrCzbrrJJKbn4dtI49B1wDeo2boMj+7ehajXbCL28nFzk5GQjRw3SW7p4HrZtWosxb32kp7Tm5pal5JJ1qaMRoUakHQVvEFZcBkkaWUdTWFf+tUjvtjv0308hvmFLbbtRUZGKtDtdYeLOsV2+as3DZggJCdHtfW30U4qwG4pLr7gGYWEBar2906A9fNkBaaVK+Gfsu2abd/d5JTTPaZHULsZdpLxRJiMROxA7EDuQfiB+QPyA+AHxA+IHxA+IHzg7/QD/fvOWZF9A9mA1FDNCVlOUoufuxlJxWVnZ8PX1LaXkc/dyamqKGoGWi8JC56OjqO15atOHFKVHoaCgQBEzefo4NiZGEXNXo3OXrprEmzVrNhYsWKin0fJ02h07d2HGjJm45ZZb0KVLFwQH+CFAkVz55RyNVat2HV02/UtKStSbM/w87Uv4+vmjS9ceiAgPwlG/AEXOFZtXSIBtM4nVK5ajW69/uX3Unb1C6oAJNWOcp4+JNGzUpJkuJjMzE7XrNkHr9t0VBv76R3vR7Gy3VoPIwNg6DVUZRNFBT5PueXEfPSLPnSMay1vp3LxCnMzPRHZ2TnmzsJTu+InjyDxxwmX/sZSJm5Woz1avHqE+RNravqS42zdKfs6XJBBcBBfqc2IHYgdiB9IPxA+IHxA/IH5A/ID4gbL4AfpJSPrekGybujCL/4rZFYsJSlNzZ2NpumdiUhJmTPseq9estU/DLK0O59r1tLR0Rc6VPgRtpyLhzIHXszOSeP369cNcNX126dJloKm0TOJt3rxFr4UXVL0D8mo3Q0RINXN2ls6Dgos3zkhW5F3K0URM+eJjXHr5QDRt3VnnER4Vq9edo5Oc7HQkHt6nd2Q9nLAHw4Z/4vZRd5Yq7mGlOg1a2Evo2v1ivSYe9wf7BTceUN7VI6upkYat9X3u0LUX4us3OSvWt0vPPo7tv0xE0l9BmsRyY7PPyOrEiUz7CNAzLlZCREF+Pho2aoihQx/Qo13ZBkR650EoOAvO1O3FDsQOxA6kH4gfED8gfkD8gPgB8QNW/QCTad6SbJtUP6vB7eSduxrLDaARNbNm/6LXcuM4kWciYCTxrr/+elxxRT+8/947ePnl1/X0VkrBJF5k5AJ0uHwo0LzrmRlZiCFijkN+VhrmzJ6mpokWgEZ9Va9eXZNHgUG2qZykl52djXVrV2P7hlVo2bYjWl7UudS17mgkG21mwYE2tXDXtFPO093S2OYjhw+iID9XtaGY6HR3eZxfbK3a+nDfrq1IST6MuLpxlU7gncpMxYa/Z6kP1/LCkrSpTGpqutoJegj69euv7ocyYBXc5R8lH3mLSA98sQOxA7ED6QfiB8QPiB8QPyB+QPyA+IGK+wHCkIK3JPdbXajFfwZ6xGKKUtTc1VguhtZ6i69bFw0bNrJPD+RrF5o8ejRJEQKpTptNN58+FLZv345ff/0Fu/fsddANCwtD24vaI0KRb8F1mpR75B2t30br3VFYu3Ytli1bhrsfeBQNmrVVdaiiSbaQ4EBUC7GZ1/GMdPw0bQqiomtjxNMjNClX0g6zRNwlHT6ETetX6fXcQtQGHTGxcQirHgs/Xx+9rp1Dw86CE5qq+82Ed/XmEbTj7JxZP+D62x9EVdUWT03jDQryxYo/FmP/nj16DcIN6/8BkYZtO9pGP1YmLD5hkWrH4Ug1lbf6OdNvaS1JWqfRON27rBgGqSnMNE2diPLvvvtWjwgk8o6Du/yj5OPdh6vgLXhTHxY7EDsQO5B+IH5A/ID4AfED4gfOTz/AZJq3JNsR+RSrwe3knbsbGx4eoddqo6mgF2qgddPy8wsUGTAV06dPc4CB8GbMibRb8Ps8LFqy1EGPSLuWLVqqEUBX4MqBA/H3oSBs259e7jXviIxq06YtaGMMIiko/649LikadWdbty8qwhc+gVV1XUmHwr0PXmxp1N36v//EvN9mIU+tA9i4aTMQ+XdUTZ8ODArCFQMGoZmamksEn6tgw6SKx0gzZ+Vu37Qafyz4TW8YMe69t7DunzXISEnUmJA+1dedIwc1wZmUih9/+FatrdceO7at15uV7N65TY9qZAyobE+Rh5S3q0BTsjtd+wx6twxF03o1XamdVfHUz2rUqImqVW12W57KhYeH47XXXsXHH3+ik9PO0MbAfVWkvCGlB7bYgdiB2IH0A/ED4gfED4gfED8gfkD8QOX7AboHFLwlud8bfyuWdux28s7dja1WrRr69u1bWjsuiOvr162ztzMgIFAfE947d+7E4sWLMX/+gjNIu8ZqE4VBAweoHWdvQatWrdTaevlYundDuYk7rgDtKrtj+049Au++YY+rddfaFI26s2nQyLoaakdcDl06d8F1N91e6qi7A3u247VRjyMkLBSvvf+VGnEZh/lq/b4H77pBTUNVpKEaOdiqXTfO1qnMzslTxF+2Wm8s0mPEFZOHRMglJx7GtG8n4477HkH7TheDyDsKe3dvR92GzfQP9D07toCmG9O0Yu4jTitfQiSXSSq5ufmYMuF9jfG9D/0Hm/75R5N3RHJmZGToTSt27jqA02rDCNp919sEHm2I0q1nd1zeswU6NY0soVXn36VascV2b24d33uR3n04Ct6CN/VFsQOxA7ED6QfiB8QPiB8QPyB+QPyAMz/AZJq3JNsh1cVqsM2ztKptQY8aS8FdkvKi9aIu5A/dWCLdOND0Ptpt9uDBg5gy5SuMHDkSDz30kJ24o5FwNDJuxGOP4btvv8ZLY8Zo4o7SH88u4GwqJIPVKDgKVNbl/a5CcEioA0GUp8i71m3aoXlz2yYOHXv0QfM2nUpc644IpvlzfsKq1atw94OPI6pmLCifDDXyjsJDj41Ez94DShx1R5tnzJ4+URNbKSmpdjvUGZTyj6b8OgvGtffoem5eARIP7sOJ48c1cffdlM8QFBSMK666Sde5ZkwNnc1fy5bozTzmzf4es36cqkfimcugcyMpRwmJmPV3UpXEpGNqA5djutypkz/WhN3VN92HOrWr6dF3gQHBWLtqGfZu34AdW7Zg+lcfY92aFZow1RVy8Y+mQNMoR+qz3G9dqFqOpp2Ms7JP4WRejv7BfKH0XwKIRsm6CoyvSPc+JwRPwZP6nNiB2IHYgfQD8QPiB8QPiB8QPyB+oDx+gMk0b0m2U6qr1XDWj7wj8KhhF7I030zaAGLJkj/wyy+/2Qk70iEirU6deNx4w/UYctddaNy4sU5qXCzfnFd5z5u3bKNH3T302AuIb2AbXcaGznmGhIQoIiMfPXr2wvU3D1GkVBVF3vFV55JGjlGIrhFjV1i2ZCEyMzP1+mkUSaPdzIFshEiTVcsX4tn/DNNrwDVs2BiDbrhT6Zu1zzwn4jAnO0sRYn/haOJ+rZCupr0m7t8KHklFJBvpbVu/ApM+/xhNFDGZn5eHubOmY+b8tXYbve7Wu/H+my/hx2lf6am+s2d8i9ff++yMEXCUFxGBRw/twYH9+3SZmZkn1Ai6/UhOV5tdqPX9KFC5VLfP//eyPq8ZE4MP33kVn345HfF14pClMO3StQdm1amtp+t++sE7qB4ehMYt2+PKa+9QuDjiReXS6LzNG//R+dG/TWtVuw/v9/i6gudrX7YDWcoB9xGR8saPTEXsQOxA7ED6gfgB8QPiB8QPiB8QPyB+oPL9gLd/p3K/p3tvNdjYAavaFvSo0RTcKblhF6pkLBl+2hBh0qRJduKORlzRCDcaaTdr1s96pB0RdzzaidO5W9KGBDzqju+NsQzaaIJ2Qr2oUw80bdmyxFF3nC6+Xn1NvC1bMl+PWlu6YC4Wzp2Fdu07osfFvdWGAtXsP3g5DUkqn0iucLVBAuk2bdZEEYDW1lqjdIcP7MKfi3/DzG8nqE0GsvRmC4lHDmPBvN/wz8pFOJKYqIk72kF286Z1WDBntiboiLj7+sclul5cj/YdOiM+vq4mLr/45H944dX30LnnZaqOxSQalZmRmqyJQBqVt2LpAr3ZRYDa8GDuz9OwbMFPSNizBekZx3UzkxMPajLw64mf4d3Xx2D0a++jfdc+up/RFOWGTVqjQaOWGrsFv89CQGh1DL5hiBoRGOCAF5GFlO/qP3/H1198oMuMja2FAwkJmPrNROzeukZjQQSfuwM7RMbpfJLmPuoKO9YT6f7nBGEuuAquYgfSD8QPiB8QPyB+QPyA+AHxA+IHyuoHmM/wluT6ka1aDVVOq2BVmfVOnMjEgQP7UVBQgODgYE1UBAUFOpAErOsOSQ0jEC9kWVBwEq+8PAZjXraNviJcibSjKZr9+/fDc889i3qK+KLAI+30ieEf4ZeSkYNJc7ZiZ0KGvvKvrk3Ro128JWLNkBVobTqa4nrr3Y8gNKzqGfeeyCla523zhjWgUXpNWrbT5JcxD2fHNO31Pw/fijWr/1Y7047CpM8+QIcuF+Pxp0fr9eOcpTHHJR3cpXZdPYJul/S21C6q69/LF6vRaGl6d1t/f9t6gpRvQUEeaKQjEYGNWnREWGiQyjNfjVRbrkm8S664Dg3q1z2jbT9P+xLHkpPQ57IBaKDXA7TZMNeV8aF18WgatO1jK5fKpL5FIb5xWz26jo4J86WL5ylisoUmA7k/0DU6XrbwF2zbshG1atdBlx59EVM7zqFepJOlRvZt37RWtSnToUzKg+Ko3PDw6mjdoccZ03lJp6RA+dN6g6s27cfKTQdRLTQAN1zSEF1a1bLbB9f5fJOMi5+aY/3CqFH2fnrLLbfi22+/cdknOZ1IQUAQEAQEAUFAEBAEBAFBQBAQBASBykHA279PuZVUblpaKhITk+z8Wm31O75qVceND0nf7dNmPdVoqqy3WNCzrRzC1BiMpN2wYcPQrl07fdkVaWdM667j+o1b4IH/s22EwHgZ86aRW6RDmyXQiDOrI7myMjPU+nkReHr0q6gTXw9fz16hyTHK22oeteo2RVz9ZpaIO863U4/edOgyUBuonVQHIt5Inz6u2nbdrffa86I0ZowojvGxKzo54HLpklHfnCflf8llV+kP6TqrF+nQ2oSltZXSU/7uDuwbKF/G43yRxraVhBvriZQXMmT7YgdiB2IH0g/ED4gfED8gfkD8gPgB8QOV7wfoHnjzdyr3+5J+O5qvuZ2880SjuWEXqmRM6eYRcTfkrjtQEmlnxsl8091xTnUqsm+X2VnRMSYmwoimkNK0z8DgILRq3Q7RkRF6pBsRZlZDWculfMtKVpWmX9p1KrOs9SxN30qZ5WkrpXFHoPqbbfN8Oae2WQmsJ9K7D0fBW/Cm/il2IHYgdiD9QPyA+AHxA+IHxA+IH3DmB7z9u5TtkOpiNTgO6bKaqgQ9ajQFd0pu2IUqCUva+OHKgQOxWG3eMG7cOLRt21YRTrZdePl2MOZmnDie9c5m2ay5bd22X9W6bzdd3QdDb74ci+fN1Bs2nEvtOJsxrqy60f0z2+b5cm7VNllPpPufE2TXgqvgKnYg/UD8gPgB8QPiB8QPiB8QPyB+oKx+wNu/S7l+ZKtWg61nW9W2oOeJRnPDLlRJJF2wGonWqVMn/SGMGWe6JYwLx/E5S463cPsqTYU2Upg6+WPQzrK/Lt+GmXOWYfiTL2DL1i0Ydu8t+P2X6Xo3WW5TpVVUCi43AmSHfP/ON2m1j7GeSHnjRx1J7EDsQOxA+oH4AfED4gfED4gfED8gfqDy/YC3f59yv6d7bzW4nbzzRKO5YReqLA1TxoX1+Jwlx1s1Cm/r0XRP2l319dHP4qkX39IbNLRq1w2PPP4CvvtpIcLCwpCQsF/tApvp7apJeW5EgOyQbfJ8k1b7GOuJlDfC1LXEDsQOxA6kH4gfED8gfkD8gPgB8QPiByrfD3j79yn3e7r3VoOtp1jVtqDniUZzwy5UWRqmjAvr8TlLjrdw+ypF5WThKRSoacHX33onqlar5lCHzl07K/KuKoKDghDg7/YlGh3KkhPPIkB2yDZ5vkmrfYz1RMobVupt7rYDypP6lrvztZpfZZdvtZ6iJ/2PbFXsQOzgfLcDeR5IPxc/J37ufPdz7myft3+fcv+kNlgNbifvPNFobtiFKkvDlHFhPT5nyfFWjcLben6+NjP85svPsGX9agQF+eoP1fuH76eiQ5eLcfGll+mdUrlN3q6jlFdxBOh+8v0736TVPsZ6Iq29YWWrc4UXXXd17UKL9/Pzw9HkZDVK+YDDEgPewIHKyMnJ1WXTVvdUFw7eKF/sQPqB2Jk1n+opnLi/S188O/oi+eBC9WJ869atyMzMrJTn5NHEI/qZRDbnKburaL5st67yEXs+O+xZ7oPcB1d91N3x3v59yvVnX2RFup2880SjuWEXqiwJUyMmrGeMIyPgeCsGURk6tJNsjz4D8fYHE/DLzz/g8ftvwthXX8TYV55Buvoh+PjTo9Gw2UWVUTUp040IkB2abfN8Obfax1hPpLU3oWx+rvCi666uXUjx9ENtxYoVuOeuu7Bhwwb4+hbvzu0tHAICAjBnzlw89NAwrFu3zk7geat8KcdanxKcBCdP+E321Z7IW2y2bDZL36v279+HV14eg6nffYeAgED77fEWllTgvgMJuPXWW/HLL7P1c5qeU94q32o5DIwrfbru6prEl80uBS/B61zoT97+Xcr9gn2RFel28s4TjeaGXYiyNDzNmJC+szgrxlCZOuHh4bji6tsw5L5H8fDTb+OWOx7Qx5dfdTPqNmymfggW/xitzHpK2eVHwJltmm31XD3nfloaOqwn0vkoEcLPR33Bpy/5Zfkwnjq98oEVlcayOW8r0lh31ndWF11B9c9YDh0bA6cvSdI1Svfxhx/gP088iZtvuRk9evSAv1pigPtSSempPHdcp7KozMHXXKPK74Znnn5ak4nGNrmjHHfVV/Jxz30XHC9cHPnem32Y+Zz7PelzoDijnjGejjnNOStNz6+ytM/ZM6QsOBCumzdvxiuvvIq8vDwM+/e/FXnn79XnAbWXnglt216E1159FR9/9DE+G/cJsrNz9H0vCx6kW5b2W9U32p+VY6qDJ+phtb7nix5haMRbMK3499XzxTbOlnbwd2dvSe4D1H6rwfHXgtVUJeh5qrHUOMr7QpOl4WnGwxlGnEcJt+2suBQSHIiw0DiHupw6ddr+pcPhgpyccwg4s02z/Z6r51b7GOuJPPMNJN17H598nNwyCy8OexTzsh19gdngc0/HoPvA69F/8ABc0rImIgN9QDtzVwRbXYcqqfjjpZswfGE8bnvwUdx+cyfEqu9XJeVL6VCYiaMrp+HhJz7BwfBe+N+kt9A50lZrc1pu6645H+GTj6dhYdg1eGjk/XiwfYRuA6Uyp3F2Tl+Cibgb/8WXGP5/j+Caa65FNbVuKOlSGSSdpbOaf1n1YmNiMGTIEEqGV9WPtmeffRbdunWr8H0paz1E35r9CE6CU3n9A5FMPshFyu4NWPbbT/hh1nJsTD5BJoXoppdh8I234Koe9VC/VnUdx+WQXyrMS8OWb5/E7Z8k45b3JuDxTuEOLxxY91yUhEvh3oV4+ZVxmJndRfv1ocqvK0dcoi/WzwTkIPGv72zPkP7v4qfneqEmSk5H4DJOlAcRdy+//Ir2uS+88ALIJ9Nz0ZvPAy4rKCgQXbp0wbPPPYfbb79D28Hd996PkJDgSnsm0P0pSNuOvyaNxf9NXKnX09YVc/HvVHQP3HXfXbi8fxs0CfVVNl+MN+Mu8szvcwSnGRcNcU4SdswZh3veXYT8fq9gwfMXI6zou4qzNOY85Nwa1oJT+XFi/+UtyfdK9w+L/9xO3nmqsdy4C0laxZIdHuubMeJ4izZRaWpUb/Un4TxFwGiHZhs918+NbSvp9rGeSMeXMXbMThUiszAXazckYVXaIXu0q4PtG+Zj7ndd0PmW4RgxbBC61/TTPwpInzF2lZbjz9ArPIFje49h4/JD2HnlEFazJP0y92HN6nU4GHIRDmedBCJLfsTmHt6AhUtWY3v9JkjNLnAog+tllqxExN2sWT9j1Iujcf9992HQoEGIiDiT/DOn99Q51Yt+JEZFReO6665Tay1tU4TicPyk6sg/IEnHU+VLvo59SvAQPOi56m470H1Y+R6fk3sx47VX8OmUX7F171EkFBTSJVv4Zw3W/j4e4xv2ROcHXsRL93VEbT/byxVSOHUyCzuWKr+3YRe2HFSEnyLvOJjry/GeluZyXZ0b62HW4Wu+QalYOWMm1p+qitRHHP066ziTpwoLwc+QjFZpOJFTiJrFM15d3kvKi54H27dvxzPPPIOEg4cx/rNxqFOnjv15yN+xzHX21DnVie2vV69eGDFiOMa++z7i69XDgAFXumyLp+rD+VK9KKQmJ2Djxg22kxL/r8LBf6bi+bp34P3XR+Da3rEOZBPny9KYFceVJsuThvPktHzuSrJeeWR58jSn0eUqko5CfsZB9T3pbwS2TNPn/M9pGnXRHO/q3FU+rvQlXp6R7KOMkn2ltyTbIduvFVnyLwsrOZh0PNFYbtiFJq1iybiwPp+z5HjTrZJTQcCrCJAdsk2eb9JqH2M9kY5vxZwZYkC13hg+Zji6xhXqaT9mHZ+Mw9j0ywR89MMy/PRuFUSEVEPkI73RJNj2hYQxNqczn7vS8w2ujVPV1YgJD4favqew3UkZXC+zZNXEpCQ899woNG/RCvcq8q569Uj7m27S4T5mTu+pc2N59erVxy233KLIxdl4YOhQ/Pzzz1xtex09VQ/J17FvCR6CB2gu26EAAEAASURBVHU+d9kB9XNN3L0wDGM+Woj0Wt1x5bOvoXuLKESG2LBO2L8fO5bPw5Jf5uKrJ07g+KH/w3svXKtGMNt8s39QBC59/nN8dV026qlR075q0zJX9bM7Dg8fuCrfHG+shtNr9Aa6Wk+8+uMM3JHbBN0aVyXw7e0zpi/rsbk8PifiLj09HV9MmKDWG12Pp598Ap06dXIo0+ifqVxO6ylpLI+OH3zwYUz/4Ue88+57aNiwEVq1aqXr4KnyXeVrxDwwIBjVLhuDCQ81MUY7HCdtWo4V33yOCavewsi3YxAecSeubl/TPgLPXI4xsfmaq/PypOG8OC2fu5KsVx5ZnjzNaayU6yqNOd7VOZfh6rrEy7OQbKQ0O2Df5S3J9WH7tSLdTt55qrFWAGcAzgdZURyNeHFeVgxCdAQBTyFgtMPzoY8STtwOY9tKwo/1RDq+8XOGWUGVhug6qD+ubxDk7LKOu6JnUyWfUgTeUnz/w1x0vLwjmqkpSnxfSImwpo+zQHpGXWc6lRlnthOuC/1Y+/yzT/XIgXHjxqF+/Qb6EreF01EkH7PkPFxJ1iur5LJJUtqLLmqrFiu/Be+++y7mzp2Dfv3620eBlDVv0XfsL4KH4MH9zJtS+wzVtwtXz8WnP6xXI4Zvw5svDMdN/duhZqjRo6jptAO64pIWMRjz9leYPbM+2l9+MZ7pWcPmb33DENWoC25sZEtDbaAPB7Jv5UQ0QcJxLEnL6M15SqhOU6TEmHAallyObcovxxZLvl4cYzuivI35G6+b0+iyQ2vhoksGgbdZozoag+v8Sl7bmdLp/IukMc+VK1dg8ldT0LBRY9ysNomgQLoUOJ3x2BinlUr5x/pWpbFsaj9NlR1y5+16KYWZM35AXFycw0hxq/mWV89V8+p164KBg3o52JSD7lU9cEnTQBwZ+irm/v4ZZl/TG10uqolYgxLVyZW9kpr5/nNSSqfTcoRBEn6MoSFa67tKQ3rO0tH3BQ46TyqXI4okp3NVJ77OyazmSfq6TE5oQZalf5rrS2UZ8eF6UxxfE3n+DqRw13022i3ZiyfPuc4WuoZdpbhH26MqduCpRnLjLhRZERzNGHFeFbuzkloQqBgCZIdm2zxfzq32MdYT6fgwLMmySvri69+gB6694Ur8MXcdFuUm48D+I4Ai7+x2pb600pfUrGObsXHOdHzxxyG9tlKVRjfh7qvaokPTSH2d70dJ9aiMa1wvllyHXbt24bPxE/Rp7969HdaLokijPh+TJFzoU1pg/Ix5GfMxx7M+S9KlkYD9+l2hybvX33hTk3dcbkl5mfOW8+L7Kbg5+g3Bw7t4UP+mde42bV6NrXt80OqFe/VaYETc0b3g++HjE6DJuUF3ZGLnlvV47oflmLFwGx7pEa2nHNKad3uWTME7c47goruexn1twop9dpGPIp89/7tvsH7dTuz06YC2fS7D1Ve3R52cbTr+t2NNccOQwbisoXpZk3UEu5Z+j9d+3IvGdz6nScICte7cxHFf4+80X7WSXENcdfvtGHBJHVRTzwTWn75gm1qn7xTiOgzADQMvQ6dGqh7K4XA7yPfYiITitf1+2ZCs/W1hja64+/rL0LJ1bd0m9lOkXyV1FT7/dAb+zmuh69hX1VFlSio2kudUFhJ+X4y5fy/Fqr2pCKleCx37D0G/bnG6fJvimf+5XixJg0fd0ejmxMQjGHr/fXrpAqOOs2OOM5IwZ5boGENpOF1p0vgs4FwGDhyI9957H2+8qdaDVWvh0QsdDqXlV9HrXI4zmXn6NMLUh8sw6vj4RaNJn4Ho0HYCFvyVgPUbdmP/sYtQWy3RQfq6TyibLchJwcbVy7H6zz+xaHsaasTE6nvau0MjxIfbdI35a7tSdpCyezNmfj8D/xw8rjf0CKzXW6/j27ddDW2rxu8/lIbsiPrG+hXrMOnnJbqqtFkUfacZOqgF2jSJsduwrb/mgNbWHb/wEJr2vg83DmiKYNU3vvhuHv7ckYST/s3Q7sbrcM8lTfW6wTh9TNnmSvw2fwZWZlSFf2x7uw1z3/DzO6nWZvwSb07bjLgBD2HoZU1QsHuVXvuS+gf1t67q3g6+rJ1quw1NY9uN+BqPGUvunx/P24/MzEz41O6Jyy/tgct7N7b13yI71HgU9f0PF6WixS0j8GC7k9g9bR6mrVqKEz3/D08Nbo4QVQiXL9K7z4xzEW/2Xd6SjJGxL5R27HbyzlON5cZdCLKiGJox4vxKMwa5Lgh4EgGjHZpt9Fw/N7atJAxZT6TjW9CSMCv5WhAiqxX9KDIp6i/H6ovorrlf46V3f8TGFcux7ni+1vL1X4A/f+6Gnlffg0cf7KWn2pqSnxWnbCfmyqxatQoJCQfQrn1HxKgFyV3pcTq6Th8KRPxR+r///hv+9GPAScjMysQ777xnJwU5f1fSWf+lH4U0IjA+vi7++nOFms61Tu0+2Nb+g4fSuMpP4h37h+AheJwN/UW7itOZer06Or4oNgRVg22jxdgHULw+Vv7GP74BunZpD78ZU7AjIQ2Zp6sgDIokUWveHV71E774ZAVu7P4A7m4ZYidByNYT/5qAzybMxcxpPxX57GnwnTQRK//vSfStn421n36Kb3wGof1gRd6p8gryj9vy+3QROsVdjxtPfIORY77S64/SWnw0PXLTjq3Y8NjTeLzNCfygRi3/8ONvmLdDvexRwfebxfh9xVA8/eDNuPHS+GICjXymIgdWzPwMb3wyy54fpQkMmIS/frkMXW8cjv/o5Rqq2H3s6bwDeqrlFwmDUe/yK9G3IaVQQeVHmyXM+XoyPv5gIpbsS0defo6+VP+nJZil1m59vLFzn2xLbusHOoHh39q1a7F06Z96OmrnLp31FeP9YP9hSGLf9ZWWX1i/7h/8uexPvTutUYeOC9SouUi1fER/tU4dTcU1kkl0nfM2Sy6f4+mc1uCrVrWqJmToedC7d1/7M6akvDiPikoqo8xB1btKtRpo3yAS/msyHJJTfehDRPGsKd/o9R/ZpkiR7unFl/TXxDHZFRFvFHQ6tWbk4g9ew/vT1+K3v7fY7SAwYKq2q+V33os7r+mPNnWDNOaUhmxxjyKpzd9nKE/6TrNtTjN0HfYG/jOgBaqp5Th0qJKj+8bY9w7hupDuiE1dpJcbeXHGZnuZP6zcjiMP3KtIuJo48utYvDZutr1vUN9Zs2od7n/lRQy9qJotT/X/2Nblahfhb9Gm+rXonrda9alPMG3OCvval99PnYvFQ+/AHbcPsk8ztid2daDaeHLLTLz6zrf4c+kyQx2m6LWNO151Jx4adr3qT+oFbVEeVfISsOGPOfjw3T24u/HV6LPnZzz6/HidtlrGAE3eEXZkfyIFByt2wL7LW5Lt0lW3cBbv+inhTNtCnCcayw27UGRFMTTjxPnR7QvyO23hLoqKIFB2BIx25iw1XTfb5vlyXlrbGQ/WE+n49o/xKZOkL7NqFEhiwmF7srAa0bZjdc2niLh7ZPgbWLC3KvpcNwKjmvjr635Htqsvh79j3NMrkFv1G7w5pCMi/J2TgPbMK+GA7YSLpv5SUHAS4z//XEfdcvMNaj3AQNuPZVYySR5ZQaQdbXCxaNFi/KlGB6Smppo0i0+JcHvrrbH6hxXFUj2obArcZ+mY442S4jmEVw1D165dMevn2XrqbLt27XQabpdIx34geAge1HfOVjvgfh3dQPnZKlvw84+LMeCyVnppA/Yz9voTUeFTEy2634kPR0cirb4aoVZFff9Uf/4+Nj988rQiNEyBfrx/9MyLeG15KNr0uAXDu9ZHtYBTOL57HRbO+x92KP30DDXUz7aJrSm1mqK44HOMnLMZ+/xb4boRAxF4Ogcnty3HO7MmY3uaDxJi92Hp/tNo3H4Ihl8TiNhTR7Fy+WrMmj4eb0fVRd0WtfTGR9oSFVmyShF3L475FIsTm+GOe/+NuBpVNcmVd3CrXtPvi+e3Iz37dYwZebV6CVTFoT5B9Wz2rCPpmaQIG9rldPToL7Exp756Jg1Bd/VMysvLA+W3cMZo/KdaOI5WCYBhnwp7nmwXHME+efmfy/QSCr379NEvS/g6S3M6ulcnTmTihx+mYcmSP7BixUps27aV1c+QsbFqGrDy3RSoTC6Xzjlvs+TnhDGe4jp17ohVq1eplzkb9Auoxo0bu8zDmLaksqzqUR5lCbqdqs6n05PxjxohmZNXGw2i/BEZWkXXma7rEZ5vvYNnpv6FnDpX4+HhMYiu6o/MrCwc2/wPFk96HnMP+cOv7iO4tl6ALZ0am7bjp0kYoezgVNN+uPfhy3Qaqpvtu8kyvD/qBNJzq2L0E/9Sm73QT3X1XWfDr3h95Bh8vyNb9avivsH2M2P6r1ieFIWwGm/qHZx1/YsaXPt0Fg7Nfxdv/+GHkKoNVJn/0mVmrV+kSLev8MGz+7BjblXs27cfgY1uxqibwrRdUt+ZNucDjKpSB20nDkfnyKIMlQgNC0b+z29hxKwk5Ic0x1XDLtZ5huQe031q0cQnsT+vKmJGXVfcp4qTOxxRXWmX5nfGvIpXFbHYovuNeHhALXt+u+ZMw6T/vanze23EFbYRtyqH/Cq2oX3BgYex5uv/YXhQElJV/Z++pSaiL26uy7BqH6Inz18yGLJFsgVvSbY7bawW/7mdvPNUY6k93MDzWboLPyNenCfFBQcHITjA8babluMgNQmCQJkRIDs7XZiPnBzbm2TK4PSp4p3WjHZ4vvVhY9tKAo71RDo+HEvCzPij0FEvV31xXo5fft+ABVn+aHPJAPRuYvtFR1O70jf9ji9ff0sTd9c9a/tx1Sy0aE0hA7H3zYcfonOnd3Fru3A9dcaxjMo9YzvhWlC/SUtJxuJFi3QUjborKXD633+fh48++liRd7O0Oi0Y3qVzZ2zeslURdP7417/66h9znNcNN1yvNwmh8igP+tCIC5rCEhwc4jBawtyXOQ+S/oGB6sdkHf2Gf8YPM/HUU0/bL3PdRDr2BcFD8OB+dzZJ7rinTkeiZfeeaBO2VK8B9vojB7Gy/6Xo17kpGtWvhZCIYNRU3zNtIRQx3XrhfvWhwL7Cdu3M/z5VUrFs+geauGv/4Bjwj3StWTRS6a0xE7Ex7SSCXZB3W/+aBr8HJuHjIsKA0p468AEy9m7DhA2TMHVfb9ylNvqh0XL8PKCRflEPPIVv/vgNi3f2UURDDTWyx0aWfP7GB1gaNAhPfPmkHsVTrUoRQafqs+K7yRjzfy9j+nuz9Zp+elrwmc2yxShfmrh6IaZ8MUMTd/RM+u/QgWgRF6Cvn1ZTbZd8+TmGPPUF8mi0oKt8TPHkl3fv2atjq4aFqeUKSt5kiZ6nKSnH8Morr+LLL7/UL3HoZU3/fv2wb/8BnU/r1q0RFhaK3Nw87fc7dVLTltWoaQp0D48mJyMvNweBQcF6J3F+PtB19l98r/mcrlHo2fNi9Rz6BfPmzcVtt90CIu84sK6nJJdjlmHqnvrQRz3nzIGmcG7+8VPM/icZp0L6oWvPVqgVop6JZAfKBmjE3cufz0Fh+8fx7rhnMbR98agwJvZeHv8uXp/SBd2f64WaUASJIoy/+mAC1le5A6+89zqeUmtB2ktW3012zPgAN9/7un0d3wdVnjh5BNsUyTpvezqCVFnPT3zJYT3gPDWi85L6J3Hb2Klqivq9uK9DZxS9ytRNigpJViNH1dTS61/Cv1/5tz0tkeUhxx/Fy0sW49c5TUH9bsrr19v7Bl9/c9ls1TeGoHPX4o4XeiIDG/6ehfAuI/HGu8Vtp3t/fPNUjH10JN6c/AkmtFUblNzfQZH3juQ2Y036fkjAjy89hhdn7NJ1fHHkEMOIPfV9bsglqFWU3/fxUWhJpKYdNOjvJhuXr4Cfqf6UN1PonrIryff8emaz7/KWZPvh/mBFOrI4VlKUouOpxnLjznfpDvzMGBnzNP8Qzj+Vrx7OhaXcVbksCFhDIPeUD5KPZyHAz0aSBATY3rBTarJDs22eL+fcx0pDifVEOr7hc4ab/+k9+P3LqThRn796OWqdVKPntv61DL/uzLJ9Ib2uF7rSOjRKzUd90V03fxG+XJ6IyMvf0KMi6IcaT/mhdWwaX3E/xj61Ae0eWobVf+/Gtc1boRr96HRenGPhXjpjOzEWd/CwbaoXx/n6FhGSHFEkqW/RhzaLGDnyKT0yg6bADLr6KgwZcoeeYjX1u++wVI3CGz58OJo1a4b8fBvZznnS8yI7O0ePkPj111/0D61evS5R5F3x9BlzH+ZqUN0DAoLQuGEDHbV+/Ua9I2KY+oFJgdsm0rEvCB6Cx9nWP7iPk23ScXQfRQ6MOIKTU37FvN/ew8YFn2Jagy7o0a2ZXuurYcPGiK5REw2ad0Tr+CBUVSNwKS2n1w7A/E/le+rIYkyetkH57Gfw9ONX4zK1WRGn8/NrgEvvuh+pyQlYMHaJObX9PD/4Vp22e9GaZHTBp/ZVuLLTeExRI5baDHnYTtxR3qpBiGnWBk1aN0Dhr/uw5eAJlaIG8tL228iSbUF6bb8x17Qgp4WThbbvyz6qPt1ufwT3LfgBC775VhEmd+POFt1RLdL2DLJXqOjA51RRfop8ofaNGDYILYx1jFTkzt3heG/DClw/aaM5udNzuheHDx9WxEWWvh4aGobISCNlc2Yymib75htv6LVI6SotvTDyiccVqdZDLaWwBp+PH49rr70GgwZdrfx3AAqL2kvf5fbv34df1Aug1WvWamKP7mvHjh0xeNBViK0dp5+vGlOVr9FmjLUIVC906IURjfym0eDGwGk9JY1l8fHO2bPwaZ3DCK6SzVEOMnHzKiz6+TfbCLkHhuGqHo1ABC55qVM71uGfBXOQFNwLTzxzD4hko7qfVB9qv3+Dvrh/VCpWLX0IX4xV06zv6IzB8co+ktfgSEouonu21C8cmYPS7faJRr2+t2H0KydB6zpGR9iI8FN5QQiqEYfL1ejP2P734FrTRl6B1Zvhkj6dUPPt3/UU9bRT/g7kXUpOoRoddwceG3q7Tmsrywd+TduhfY82CPwrVe28+4DuO/xdidpQGN8Rl/dtqgj1Q7a+YSDvCKiAar0x6uX79ctP3T+o7ep7Q0Srq3HzkPmK9JyCNepl45Hb2mlC0ObdHSDWJ+lbV2DCT1uRHzwEzyty8Wpqnx3LAES0uRXDn9uCVf+egB+XrEO/G3vaCUjKwLZz8AP4nyLtuf5citkWPWVfku/58exme/GWZLthe7Ui3U7eeaqx3LjzWboLOzNGxnzJKKoG+2tyJV+RdhmpJ5CTnaWGP1fVDx0rRiM6goArBArz1MLOacWj7aIiaKlYW2A7pDOzjZ7r58a2FTXXqWA9kY5v6pyBlX98MT79r/o4u2iIC257N8bcczWu7a32f1Nf9ujH2OnjyUhVP4IOoxFuHXKt/S2yw8sLn1C0VAsq9wubjGmrD2Gk+nJJP3v4i7ShiLPmsLDwlB41YaVCZGPbt28HbRaxceMGNZIiTO3+eiteeOEFvfYQ5XH7HXdo8m706P9i9OgX0apVK50190f6sbZ79x588sk4TJ8+DU+OHIkePXrYf5iRMuuy1BkY/uUV2PyBf4Avjh07putBl6UPOPYBwUPwoD50ttoBd2ndzxVxdd3zr6Nt5zb4cPJ8rD6QgRPH07Bw7iy9aQLp+vqrUTyXXYmBveqhXf/bQAvwhymfVFJI3bQe8xRZVu+mLmhd0/bij/2KxiaiFZo2ro1/hRbANvbYMTf6AR9402B0r1dM+hGe8K0Kmup78nQeLlKjgKrDV/stxtsxF9uZT/ohrFz1Dw6G9sNzV7XRzwUiZTicoikrPpG45LbBqPn1a9i/YhW23d4GtSPPHPlGrS5I2Kvzo2dSe7XDaasaxXXgPH2CotG0l1qzziJ5R+kyMjKQeeK4ziIoKBD84oXzZEk40Ei6L9XagbQDOIU2bdrik48/RLdu3fR5vXr18eFHH+Gjj8eBSLYBap072iWWAj0LJnw+Qb0Mmoec3Fwdt3fvHoxXZN/27SPw3HPP6k2KjPdLK5n+0S6zoaG2rYnz8/P1fWCbJ1U+drc0VUOf0nqDeavewrBVzq4Wx2lbfvAO3Df4IjRRLwFtdpOPLStmY+2GJLQc+Jgi9ZroBFRv+nDwie2NITe2xVdj92DHYUUMx1dHlcC6qBUVhAw1mm3ipHYIGNQcMdFhqF0jXNsZEXGD//0KBhdlQi8dfYJj0O2OF9XHFnmq4DgSU4tmuRSeRNKutZjzxRy95lyNQzvVOpCKjAy24cx1qar6RtNWtlF+mmAsuhBZIx41T0UipmG8ve9wmtJk+MVX4aJGNW2j6tSmHzro72GhqNP5MlzVfi7Gbt6MxTtOoBmNIHQSfE5n4+Dq+XoGRcfn78bl9QNt38NMWEZ1HIS+HeZg5Z4kHEsnG7QRm5QlTcGnnYP1C1xDP2U7Ih0+FinPWvb9zqTZh3n6nO2RbNRqcDt554lGcsPOd+ku7Mw4GfOla03jQrEnKR1Hkgv1KKm0E/moWo3WcLBqNqInCJyJANlZWkYmiBSmkXehampBzXDbl2jSputm2zxfzrmPnYmKYwzribQ5G8bBESXbGX1h7tolBtXCiglgo16u+uIfcGgbFqiFk6dM/BmNoounWaQf2q3XqPENboK8reuxcOE+tVacbbMKYx7hybZ13wLVl93ULPXF0/G7rlG10o+pr9jIu+K16mi9O2eBdOkL/9dTpujNIkjnqqsG2Yk7ukZEJk277dWzJ8a8/LJa3yYX06ZNVz/+bD88KI9t27YpsjAVmzZt0sXQDzpzMPdh83VX53zvRTr2BcFD8KA+czbZgbmPa+KKRi/3H4731Kdg/07syMxXU1PXYf6PP2HRnmPIVqPBjsz/AP/9rRDhPx7G+6+PwJ19atlesDhxCnqaqlq/NCmkCa5QG2Ewweagql64RLfogVpxPzlEm09obb1T6kWHMRzbe8x4WupxVmYSMo8cQbVmfdA2zjZy0FmiyGY11RTiKvjtzy3IqBKkNuVQO5c6UeT86JnUvGmcbfQWkx1F+r5+/oiNr414f19kOMnDWZTDCylnCkVxZE87dmzHm2qnVwo0VfYztXEHEXd0jT6U19D778ejjz6KESMe11NneUfYOXPmYueu3Xjt9ddw0UVt9TTFGTNmqGfKi2rjgnF6M4vbbrvNbrdFxZ4hqAxqJ4UsZSO0hivtlsrBU3bP+ZsljRzr2/3M5xrrpaam4ci6NTj2+8d6+medmzqqHVTVM1Jt3JJ6cC8OF6rRa4ro3btsAY6HFpFXnFhJIiiPJIagMGenfeRaleoN1ai0fnpU2uRRg7D61xtxqVrbsVnzlqhbryEa1K+P+rFhCCLiVN0XDvTcLjyxG9s27sA+9XJyyR4beUfLWRyaPlGTX6SbF2cjEjmdlqdj0TTQRrra49UzvqIzDais2Oq+DuS2vocq79CwGITVUn0+DUjNLn6pby+fD/KzNJb69OgRLFGjIWnUpzlULUjRfTI/NxkH9h/BKRdkoDEd2xP7MLrGcSLlWevMHthWvCXZDo12W9pxsccsTdPidU81lornBp6P0t24GfEy5x1fuzrCttAXmVxF4OVi18EU1IyqZl/jiNJKEATKggDZWFpaGjbvK/6CXE+9RaS3tvSFgwLbIR2fb33Y2DZqn6vAeiId3/w5w+tUyMV4e8aneqFjZ9f1As5/fY3n1VpFk9Ri4980bYQWTa9Wo+wKkJuZrael0Oi9aWr03jTnGdhja9iPKucgIKgGIkNsP2jKUgOatuQskH3RDoQ0SoJGF9AIC1pfiHb74/5IfdDX1w/VI21r2MybO19Pj23YsKHun3Sdf7jRzrYvvvCSs6LO6MtOlZxESh9w7AOCh+BBfe5stQPqwlw/qiOfk/St1wSt6ECN3O1x1e14QR1mHduM+d99g1lqZ9gp6z7EyLdj1Kif4egabUtL6g6hiAyhuJgaIYpIcrhqPwlSL3No1BIRAp4M/AwJqFvyuqLwr6XIxHCoJbt0cLWuF+fnq4iZlnWqal3C0xuB7ldWVjYmT55s36hoxIjh6NKli93Xcz1atmyJuLg6erT2arUrOT0DaHprtpqhQ8+Qvn37atWoqGjcf/8DSFPkFr382bPbcQos51dW6Sn7d1YPGqnZ5omX8Nso25qMznRoLcKZb7+Ix9R01OmfT1Xr4zayrWtXeALbFClH01ET1NTx29WnpEAvIznQupGthzyPdzN89W6za/Ysxgw1LZV2Ria9Ptddix79BqF/12bo3FStoafun49PPtL2bsAPY1/CJ1//rndhpo1EKISEhKBa29vwbOMcvDjBxbedKolcvPskEYJqJGG4j/OZW37htAZjDAr3FU9Hd1Y47RZN5Dp9V/n7w5tx9YfOtIrjgm3LLxZHuDgy2xKpmePkXJ67/FwzSrIV9s+elmyDVKbV4OLxaDX5mXqeaiQ37nyV7sTNjJExb7pWO6oq6kSFYf8R2yipA0lqKtOuELRtHKO+MKk3KEqH05x5hyVGELAhQHZCgWwlRa1zt3FXMnYmZOhRd1HV/dGtZYyDHZEe29b5Jq32F9YT6fjGz2ZRZ/4/nHVSkU1nxlOMj18QYrsNVlNSvsaasX9i547d2HS0AM2K1oKhH3j05TyuTm37NB3nOan1UtR0kar+9Bbb9qPKlV5J8T5q7bmTYfX1KIyDZfhNRm/uA6LVDnVFa9u4KoNtJiqqeLu3lJQUvSaRceQCp1+69A/sKvpB1atXT7UpxeV8yS4L1XQbGhlAgaa1mvMhoo9GSjh7C86ZmPsyx5cmuT0iHfuC4CF4UN852+yA6kR9vTAvDVv3JCLXJwLx9aMQHah20FR+wujySC84upWe+nfppa2B2x7FV0UL3tNmEEZdyrcsgUkw27y6sqQsn27+saSSExYcwZFDVsfJwYHIYN9ZcgEVv0rlpKYew7fffqczi4yMxI033mS3MWMJJ06cUKPheKkD2+in9PR0NdqunRql112nIdvU91itEdu5i5rmq4K/k5FSxnyNx4Unbfn/P3vXASZF0bQLkHAc4cg5Z5AkOUlQoiTBT8FfwQBmBfQDcwJUEBX9FAygkhRUxAAooAJKUoIkSSo5IwcIHEfm77eXd+jt29ndu9s7Dph+nt2a7q6u7q6uSTXVVaZPZNanlNyTfiB4GNaS6se+TZz0yhdh54fvlve/XClz1y/RFl9HVXAreH3NG+PzfwiFW+WKF7Zwmu15nC5zCX+lbfoS0qzfB9Kg1zZZt/GAbJ2voqlOnCmr9hySDVNekzlTvpLvVPAF+HBrkF+5AjngU9w98uFsOZelobS6+wa558EGUuSE2uVSuIZULZ5FWQc+q5R37DH1IJ7RQskyFdahRgWL0JiYwNtr0Rayma1IjIqoCycnwRPXk9AcI8s86N1vIUWmHFBOUguy7+DS7F8bceVdSk2Wk7scYaR5ZvLIpo06vIw1qVlIYo8cl1UbY7X1XdyxLRKnIgeVKV5Qcsf4rDmuOr99yl9kvJzHAeVf4vyWlHi15SE+7rgsXrPFUdxlyZxBSheIkYrqwZ6ySDlk/nKDnF8o2SCeB/2/9oXiW8B6dS2T9MpBd9FSUjjDPFnybzoHDdYZSOkr3iIDxgzXjqSdSpcDLZOgmdSUPoPkL5lTW2Fk3LbJ55OlWDb3h1plafLn37v0l/siOc9J4ejQt2NsaS1atJjfCN18HM2ZM1dbWeDrPCL8mVawIAAZPH7ihGzbtk3Ty6b8nsIvHs9Nv06CZIhPGATVTznonQP+54DHD48fOIfSqhzo81pdMzL886kMaPKoLCjXT4bq6JpZtB7NPP/1Ma6l6lkTW+cQDEJ8lxn3y0M637X8TPx82fvPMVGPFRKTwBj5uBzetc2nLPO/DLrTTWKNY+GnvungI1L6/BdcgJAk5nlowz5ZffSc5G1ZWXKe8/fDRTzAvDlz+ywGFR8yK/+AbneaPWrr8L50mcKONgv/cdmyQ5WkbNGVT7uTJ084fupQBnnCR5ht27Y7/gg7duwohQsXDnitX7hwgezb51NYxsT4rLJr164NUhrfXGe4cWCQo2AfeHTj83+HDx92lIPR6n6TGcpf476bUvJvjiFRx2ps8FFXt1B6mauM1yCbR8+lkxzwo5jlhNo+W1Bq3jdIvnnrZr/op259YC0wR84zY/biUqMGfjW0shtRY5dPnyTPD3pf5qnox9MWVpUGnUvJX3OmyzeTZirFXWMV+XikvIQAKkbSPvCU7KRmOpjlXymgtrkeP44PgAm3uZ7Zs1M27DgkURUbSvnC7h9GM2bKoX1SQgnadNj3Mv6W0mFNw+0cYmPymJByxrwHvXsuZMKWA8pJakH2T7kNB4Z+WwiHioGTEpPlxC5XGEme2TwyabMON4+iaktj7fL5tM87BBg4fuKM/Lp2r/z+536B1VQ25fi2YG73i62x5N7hFciBk+qD44F/j8he5TD3cJzyPaYsNhlhtkKRHNLtOn+fG5RDyuDlBjm/UKJAPA/6HrvIh1B8S2w9fa2cXLhQRk9brba5NMGbR4KXBFiRxB48LhmiYiRXduUkWT1UJzWdPZvJcUSd7s/fdL//qdxEYtL7P2LqPlQ/5w5skuULV+ugGvXVlt/c0fA76o8baCx5csVoi0JsMUFCNEDTYg4fZ44cOaocVvss6kqXKav8GwV+092jfDpNmvSZpte9ezfBVijcHxKT7HPZbGta9kE5WKRIUaeac/Wg/7ng8cPjB06StCYHzol7fpto/HkrpD3VY6SgU3nhANcFXE0Pn/cdJ+L/THAB03eE6yf8vRU+FycrV22Uo+1UkIichmIH12YVRXzXNvVT1sopmSCBOYuUkWKVa0j8J0t8gQaURTevdez7qgyHZO2iBXq7Y23lLL98jqw+RSYRzkPQy1CwiPb/dWbhLj2/v+JqSLmoCx+cgHrq+CHt+wvXdncvbOeJKgAZyaei+uZS9wSkQwcPyM6dOwNaLtGaDtboTZte68iXbqj+9H1JwUmfTdYffTp06CDNmjXT1W73BFht7929S0W4zS3Nm7dIQFM3tv62bduqtvD6ouPmyuVTDmIe5G1Kyb01jORnz0XpD4dVs8+TBYuXyqKtHXX0U5NXnNO//x6SIyczSKHc0dqn7JmTR2WfChZ4OmM25S8uGsx3eJdRBatAFOOnN/0sPT/dLNtOKEk4qyLF/rtDyz0CRCA4BvhEXqEfWDPCB19qplwn4mXrpu2y88QxqaCUd5wvoBqcHNr5u/KDuV4yFb8x+MfJTNGal2dOzZFvf/pDNrQvoc8Nzg9z0jTPgG/xcjp9FsmXI0oyKsVvsMT2gObYzHK09/LePdeUA1tWUjpP+Qsmy3ZdxJV3KTVJk7Gc6OUAI80vkyc2bdahHDeY+lWLSFSWq2TW0u16Cy2VL1DmxcopXWYLjJf3OGBzgHIDizso7nq0raSVCZA3NxmkLF4ukPO0eWPniedB/y9+Np/Cz6uts+qF73Q+f691GYuVkhtaVpNJ303QUQB/29dA+1oC35Egd6fidshfX7woDfp8LhUHfCdfP9RQiuTCQ2fC3tkuYY2vhLJ+OqqMdkQ9+OeP1FbeMfKFilJ4e4XMgiiATMC9Kt0BmTt2tHJY/Y+czdpaytWoqKPY4YGXyZYRlKMsV5580qFjex39dd3adVp5xzaAoB+ltjNxG1PhQgUlf/78Joq2vo6N3S/Tpn6rX9RKly4jffo84jzE+iGHyKA/JEKiY6zHlZ+kFStW6aIOHdrrfvlyY8/Py/ufEx4/PH7gnEorcqBPYoynoC965qzBv6hIo99JnRJ5pH3V3HqcPPcJTxzZpqNI4joXVfFWaVbOp6xhvR9U14vcV1eXVhWPy0fjZ8riLk2kSOGCToRaHdBiyWyZ8NEU7e9LufJP0XQuczFpWLuAVP5kggx/eZx0+byvVihgPZCwNof++EHGfbFKEPSgVdW8ygLOXZmAIAX16taUqt+NlTXKomrKiubyZCPjvqUUEwcVvaFvzgt7XhgDLNdq1aol48ZOUIrSYxIf7/uoYxPJmPGCGWOePHnsar1+M2fOkNj9/+i6LsrvWrlyPiVRAmRVAD7s3btHRStfJD179pRq1ar53QMot3bbEydOKuXdUWnWvLmyNqvpVPP+wXaRhk5HSThIlyOf1Cyl3FUsNxqr4CkV67eXa6rNlB+XL5Hvf1wjLXtd48irxlRrenT9dHnz4f7y0orW8sXyEdKpmFJqr/xU2rbqIzsbvyzT/nev1C6jLPRJWq2pnD2ifcDlyF6SpRoWznBWNqtt3LQEZSWUgXF/z9KyyLLUgoiYO2dVO6mmdtvkVScl1k39ySllQfjLnKW+6NHNVCTYvO7qhrPpsmpetss1Tr7//BuZ0rOB3Fs7n5/lLXz+7f9pmPR86EP5LeY2+XDSQKUsDT5LW4aAndJyZvfp5S/N+7gpK5SZlIKUkeDS7F/rXC/8i5OeS8nJYVSY5OUEI8kvmzc2bdazHC9R1csVkPvaV5QuTUtrizvNXO/P40AiOAClXcUSMXJX24pyd8eqjuIOJChrhJTByw1yfqHYRjwPBlb4hOJfsHr4Jtp/CNuWlNxdVUoqNP8/6daumhz+8Vl5ZNAUmb3lsN5WBMfd/279Xaa/OVDa3TdW4jLcLL2Uki17jO8hg32cid8l6Q+qL+bKIfWxY/Ha4Tfa2j9sVWJKlzGnVOl8rzzTtIic+/cj6XdHPxnxzRrZFXtEtwNu7NJFMuXp26XH4x/J6viSclPf9tKjZfnAW88wFzzMn084xtbZG2/srEsWL12qti355mziwPqubh3fVqddu/foYDKsx7mHF6iFyipxxMj3dNTBkSPfkRIlSvr1RfxwIM9nG/eE8k+zfsOfejsulHf2XIDPMg/6nxMePzx+pKXzg2M5my6vNO79gLSqECP/fPdfebFffxk0/jf5c/shfX3FNQ4WzRtX/SJjH39Abu83QV/nyqlo11XyZXDOd9DzS+raBsVgu9qFpeixsSrAxafy/S87ZL+6Vkn8Xvl7xvty/3/flQ//iPVrllKZ9NG5pGid66V9zXz6HnLbE1/63UOOrvtC3n/5DT2eLLf0k+5Niyplg7KGchsQ+Na6rb4nnV3/mQx9dJiMnYMthyfk9P59sumnj2XEk8/LdweDWz4HutbWq1dPGjSqL9uVVdvWrVv9RoDrCNoUQtTP8wm+Us2E+h07dsgDDzykgxaNePt/cvPN3XQ7XodsfNwTZ834XhYsWCCDB79kVuvjQO1QMW78J/qDUV21FbdYsQuW2JwX20UaJhhgEgrwTGCmqyo10R/rrs8wXz595x15f9Iy2XXorF5TfBxc/NlweV0p7oYtOiC1bm8tDUr4/OKlL3eNlqsDP3wgr43/QZZuVMo39WwBWYg/sE6mvPKS9P3pX0lf7lrpXLewevGN1rJ4TbUCcnT5NzLkjW9l3c6TAqUd8JdNHi7/VX4leW5k3vmXHDmV0uptHycQFGz486/Kq2Pmyba9/+rowQc3Lpbpw/rKoBGz5XirfvLEo2qbtnp1dzs3sPbg5dDXekim+In63Ji+cKPE/hvv8OTXCUPl/5Tibu6eCnJz1wu8NNfDPrZliDIGaNd5ee9+C/mBHJhygrKUzlP20Fe4yV0VHi4FC48nRaQhJ3c5wZTkkRttLJdZBwUerDSa1Swqja4uqLbRxsuOPUflGPZFqrR97xH1chj8YUIjen9XDAdy58wqhXP7vuLCj1bhvNkkT84ofdHj+QlmmHKGcuZRR7zLBZpzw/zcEvE86P81zo1f4ZYXy3RSO5NesnSjdK+hvn4r59MZS9STe596VJF4Q55QEcxavpOQWrqcd8mwLx5XbXLqNiZGYdkoox6/Xv3MUv9jbEHKUuMh+X7qy8qyz1d3Jsc18tzH40Tu7CGDfx4jA25VP/9mOgf/LjWVQ+p+D3RQEXJVsAt1LWZykw/Wt27dSm91nTtnjmzevEVy5kzo4PnGLl3lJ+X3btGCX+Xnn+cqy4jq2hcSXrq+/vorefbZ56SOUvC98sorKkhkFb/+2U+4kOcx8Tn+jRs3yYrlywR+9xAww8Qjjgf9zwWPHx4/cJ6kVTlAcIr0hW6S1z5VQQeUwmDCoi9kxc/jZCBPfgvCKu2OEa/JwLtrqWus2+u7rxGicN74+mjZHzVQBo9+XLop5aCZajTtIf36XStrlE+w8O3TTArhH2Mbb0zVG+Wxt1UbpYAZ7HIPyVm3v3z4ZCspl9VnWODWA9b0qspt1T3puBzdrej9PEzuaKF+5xvgXpLj+kGyaPxRufmuQfKvCyHzGkqUSpUqS+VKFQX3g8mTv5SuXbs68kOcwoWLCJRyDz78iLyrPtp07nyj/qgCOfvrr7+kb58+OjDRJ598outgLW7ek0gH+Eg//fSDfKGCKvzwwyw/f6q23JrtYO197Ngx3W/jJo393DRwXnb7SOc5nqRAPBN8+/Vc5RamjBQuHSNQZCNqbH8VNVYGfRzwXo91rXrPGBn3RGe1vdyn3D0XU1v6PH2nTLvpVfnixS7ql3A0UdXukD53dpQb1XZtnDUxlerLdZ3aKWv9sToia2XjeYZ97P7giNx9w33ynTpvGpVfK+/OeV16X+1uDZqw10SWKH9/re7uKy3iPpMR/ZrL6w/53htJBXMY1LeDbw5K/pVQsioBPH0mRsrdOEA+VX6Ab339Hemhzg074VrSqd8j8tiDzYIqA9nOlh3KGKFd7+W9ey9kg/KRWpByR7kNB0ZceZcSk+XELjcYSV7ZvAlEmzhmnVkGiw74X9A+GMKRHg/H48B5DlCmkDVlCnnWAbLucoOcI+YbLBHPgxe+8lEWgvEtVN32k5kEX4BXfjVBfri+ynnfM5klR5VbpO/Ia6TpDZNk9NC3nS/TUNqNGN5Kal17g1QvmkkyKL9xGBHGEomUrti1MujHedJ2xkKZ98mb8vyUNUIfdXgA7dD7Nrnt/zpIw/L51VaTswlektzkg2ODsu6N14fqFzFEla1QoaKKqJvVOdfw0gWF3PA33pCRI0dqywj4Mmp1fQtZt369JgNru3r16kuOHDkS9M9+kgrBR0QoXLJksVYyvqIsCRgwg+vtNkev/MK5Af57/PD4kZbkQI9FXV9wbf3g12by8LKl8tuk9+XdT37Q21lRjw8TVW/qLc+r7W+Fy1aX2qVwbfJFpA12jYWsp1eKjV7DRkmLjp/LkP6DZMKfx+T0uWJyXY/e0v+pXlLyz7Ey5AflZzdLvpARujGW5CQq8J6YXE2uG/+WDFMKGlrGQWk3eMCt0rJNVSmT+ZzuRo8/yD3EjR7uR4PevV+6X19Osqx4LeCQed0kJBKu9dg627XrTTJv3gLZtn2H/P3331K2bFm/aweUcXfc1Us3gwKvdavW0qhxIzl69KgKZLFHOt94o9xwww3qQ0tBZy7sw4Tof968eYKASO+8/ba691Twu3/Y1yu2RTtYe2/bull69LhdRamtxyoNOS+7faTzfp0mIYNtopN+aiaVS9byKeNU1NhrH3pNalzfXFtijvhyufaBiOBPFe/4UF64sZTUbFZH8kP+ocBSCTBvy6dlxsxWsuDbl6Xn2/P1OqCOCqoBtzaV8thmrnB1O/Rzz4vyRaUqSvn6hbwxdYG+t1bqOlCe6d1JWjYrqyLgxirrtYWyWu0o2AFiqZAOqI+kXbt3Vs9Yn+ggG7P+3O03h2vKq+3G5+eANQ6WMmQvI51f/Ey2dPhCW6HCYhHPTW7PTOnVDoNgyeQ35cuGaG/ieXmPH7aMpHSe8hdMlu26dOdUsgtD5eEMG05H4QA1KipKb7vBjQEDSKlJhhrTpVYfaT6Z83ejTRy7HuWByojvQY8DwTjgJjt2OfPBaF2qdZwbtis+9+yzMmjwYD2Vbt26y8SJnzoPt8TzoP8XPnvd4+N9W0FhFRwq+SLeqa1VKiHyaqZMGZ3rGduaOCxDdDx8sAiUzp1WW1hOBa6z8dmnXY48+k2vIhDatAL1Ha5MsB84wW7X9gaJP35cpk79Rt+HAz0EYAz//LNP9u/fr+/XefPmURCOszP4zd/un/1ApocPf0OefOIZGTDgMenTt4+fxQTxTIg2S9WW3ttv7yElSxSXqdOmJVgTuz8v739OePzw+JGSz9TJlS/zfA90vfRdX3zXGPYVqI15LQQefkhQSiGSKQLyIAEvc+az8ueXr0i/3i/LkgZD5JuP+0iD/FdpXI7B7XrMerM/Tfj8H/tyq7fvIeb8TDo85j0sXHomHtq6zYP0TZ7yeMCAATJyxHv6w84DDz3sPHewDSDnsXHj37o4b9682nLb7N/EN49xXZ89e7bMnDFDeig/d7bF9n4VpTa/srK270NcV1h/I1jFqFEfSIsWLTReINyUlHvOh/IQis82PvJuvCJNtgmHtt0mGH3Spawib/fB9TXpsA8bl/TCree8r7rqtPzx0YPS7t6ZUuC5ifLl/fWkeN6zKlDWhd0DxGUfJuQY3cYDXHOOyAejx/HbODwvCEHHTqzzoHe/Na87tpykZN6UvYMq6NCePXsd/RosprNnz5ag++Bq6wTooQt4IY40NCdnMvhSLY8kf2weBKJt42Alicc6ljHvQe9iFs65RjkKhEuZIrxcZYo8wDyDJeJ58MIX6EAyASsyJPIJx4HwUI9Iq2a0VZSZ7dDWxkEZko3nK1UPxJmySXQidpu40lHKwfTpA9Oy2zAfCpIPsL57ZcgrajvqdeqFbaQ8+dRTOsogXnrNhLnDmoIWFagjDRPP7tesS8wxXvD27N0rI0aMkH3qZW7y5C+cQBXslxB07X69/IVzw+OPJx9p9Xwwrwlu10t77G5tgAcrmnO/vSetewyUA7d9JhMebajcCfjcceh2Sql3QjnB/2PZYll9pICUKF3ML0K3OQb2a15nAtWb47GDCpl1OE7sPYT3MLTleHDMFIie5oOaJ9syHwiSJueI6y6CDu1WPk7fHvGuNGzcRAWEqJFAgcd+r776ag7FUZiSplNhHFBx9+WXk6VNmzZacYdqlCNt3bpFPhz9oQwcNCjBfDHG999/X+MNGjRQ6tdvoHGCzYtjiSQkrzCQQPLAehva+MhzXDhmMmmyzMQjXdYBBmqDcrMd8kygYcoqyk1cri/xUWf2YeISJ1C9OdZA9WwLeCad72EpOtp372JdoL5QZ47RDceeI9q54drj49iJT8hyG5q0ievBK/c5xJaPlM5T1iCH4abwTAvCpabwMEmkSENO7nKAKckbN9o230w81rGMeQ9euRcvnMPhrD9lhtBuw3JCu/5yyXN+4FuwRDwPXrhPBJIBlLGcvGI+ECQ+69iG0Kw3j7FWxDGhiRPOsRsdlLu1D9bGHIuNB3osu/baawU+it566x3l5+Y7HYiCbTWS+iM+84AsI64b5IvZyZMnfdtXlFVjpkznnW6fv9ebdIEPn3pjx3wsM2bMVL71vpZKlSo5L5Dsl9CtX6/8wvkB/nr88PiRluUA53OgX7Axm/jAUwQkXfG8Av+lq157ToZ9ukJ2qUsdZB8/RK9cNOZ1+fC9H2V/5ZbSpVtz7StUt9XNL4wBZWhjXmfs/uxzKjH1oXDZN/E4HhOyzoSoD5RnuQk5fuCzHEGHHnvsUSmoIozfe8+9Ah9zvIZrJPVH+syzLemQLiHqQWPFihUy7NVXleXdXL0tF9bYQ4cO0b/u3W9VlnTXS8tWrRyekz7aIortf//7X7nzzp7Srl07rXxifzZkvykB2Rdo45g/jJVlOCYeIeuIb5azLduZODaenXdrY+ORF274wcZgtzFxSdccM+vNMdj1wAmUTDyzPXDZl81Lu455m1Zi6LnhstyG5tjYvwf91+xK4octHymdp/yBx+GmS8Lyjif75QIjKQg2T9xoB8NjHdry2IOe1V048mDKm5vM4GJEPDecS72c8wt14SWeBy+8cIRae/AqFI5db/LXrrPzJm5yZDUQHbsvOx+ojTmGQPWkgTocw9cR0sMPP6zhzTff7GrpxraEgeiDCGnDt9EPs2bJ8Dff1LQ/HjNODqgIvDcq/0g1atT087OHlzS41Bg/9mPlOH2ujBnzkTRq1Ei3wx/7tCHqgo3Dq/f448nHhetlWjsf7PPZzrutnY2HeaUv1F4GvPCgLLtriEx4qInMGpRPXWOiUaW3W+7b+4/yf1dautzYUXo2yKevG6Rv00M5y8xjswx0g7VnPdu4QdIwoY1r1oGuXZ/YPOmxHfPXXHONvPLyy/LiCy9otwrfTP1WChYo4HxAIb4bJB1CXNfhQ++ll15WPtpmYujy6KOPaWj+1ahZS2rVqu3wE3VoO1X1P2Toa/K2CpaBIBnwsUrabmNAW+JEErI/0OQxYaAysw5jYp7QHhvLbUg8ltt5ltuQeIB2nZ0PB4dtTLpu87JxmQd+sEQ8QruvQOMMBycYPYyH9TZEXaA+3fCI78GUOQcvBb7aspHSeco/eBNu8nzehcupCOFFWgjMYYWiHQwXdWxv4nnHHgfcOEB5IUwunlv7S6GcPMDDqufzLvSDJvlFGGyNw8Gx27MNoV1v5oljQxMnnGO7PfPB2hInsRA0zTanTp2WuXNny6RJn0n79u2lbVt/6wa3MZg0Aj3gwpk5fOv9889+TQLyDUfc8JMEyIRybJX9RlnabdqoIv7eeqtgWxbpEy8QJI4HvQ9GgWTQk4u0LReBzmmzzG39TBweA/fMiYOydslC+W361zJ4+Fjt/B/1CIKBoBW3dmkrzeuWk6K5r3IUPGxvQvaLMvOYOCwjZDkhywlZHggSx4YmbrA6Ey/cY9IjPvOEGzZskHFjx+oAFh988IHfhxa2CQTZ3oTHj5+Q7du3ycGDB50PQ2ZbXP9jYmKkdOnSzpqg/dy5c2Wa8neK6OhNmjT1s7gjfZMOj1kXaWjTZx6QfZllPHarYzkh8W1o1vOY0MY188QhNOvs43Bw2Ia4hCwnNMvNY9bD590vA9tJq5d+larPzJRJ9zWWMvnSOQpi4gGyvQ0Ti0N8mw7zrLdhqHriE8+Daft+k1rrQ7lIDWjOKVyfdxFX3qXURM3JXcoPeJHkj82TcGizjYlrlzHvQe8iFuxcCyRDbjJDXLf6S72c8wulvCOeBy9wINTaAzMUjl1/gXrotiaueWzTDJU32/I4KW3Y1g2SJup5DIi0atUqrViDfzvWoZzHNkRdsAR8/OyE6wJ+TMCJizsme/fu0f5sihUrrquIY/dr50nHgx4HPA5cOhywz2O3vD2jYHjwfZdejsuJI/tk9YZ9cvjwYd08U84iUqBQUSmVP7NWIPEaFJSWui65XYNCjcmsd+uD5SYuj1lHyHJClicV2nSQN2khv2/PbtmybbvUrHmNE5zIxAFv7Dza2Qk4+IVKtr/VnTt3CBR/JUuW0vcFroVJx+6feRMnUscmbR4Tsg/mbYj6QGVsF6ie+GZdOPhmO+KzzA2afbjhsJw0CVlOaNIyj836E4c2yO/rDkjOotWlQuEszvoSh5B9mJB1hGadecx6G5o4OLbrk5q36Xr5K5MDSZWfpLYjl9H+oinvkjr4UO04ueRCvFwnN9k3qMTQCzXPxNabfdttw5kr54K2+AVLfFgKhpNadaHmxoeSYOMx5xOMHnkUjFZq1AUbY7D+U2L8tqwF6x91xA+Fd6nWc35YI8/yLuELAfnjBt3Wnfhu9W7lbEfohody4tgwWJtAdXZ75gPhsow4iYVozzY8JjSva2YZju1EGqGg3Y55tjPzKEvsNYd0POh9MOK924OJv46m9vnD8z4UtMcVDr66wCklXsJkX98SYvhK2Cdy5jHxWUbIckKWE7I8ECSODU3cYHUmXrjHpEf8QHmUIYXLM+CSjg1RF05iO+Limcjsn/WExLMh61MKmv3ZfZh1PCYO84AsIzTrzGOznseEJp59TBxCu97Mh4MmzHL/AABAAElEQVRDfOISspzQLDePWQ/oU7L7Ssz1NXE0npJB1JMOoYnHMhuaOOZxuHhmm3CObbpePvDaXe58CUdWIolj8vOiKe8iOSHSMicW6CIQbj1uImvWrFFm3FNl27Ztygx8hwo973O+feLEcTmlnHIHShkzIUR9FsmVK0aefvopgVNYvpyE2zfxAtFPahlpEpp0UDZu3Fi1hWmTrFu/wanCPPPkySNlSpeS61u20l/kMmfOpB3brly5SoeAh/VGtuw5/Np069ZNm74jwiH7u1gQ64hw9aNGjZZDKqwyx4ry4sWKSuMmjZWJ/rWyf/9+7W9j3br1Spt9yJlP/vx5pYpyon7HXb20GT/m8euvv8rKlSs1jI2N1bjR0dmkd+9e0kKFtE/qekeKRxjQTz/9KFu2bJXp06c7covyo0cOy3FLdmuqKGPYqlC7dm213nmBpucQyfFoouovXJrADxf3UsMjLyCDwZR3xPOgPwfc1ptYbvVu5WxnwsTgop0bvlu52Zd9nJQ2No3E5tmn2Y5lhGZdsGPi2xBtWGa3Z3m40G7v5T0OeBxIuxwI97wmnjkTlrlBE9ft2K0ty0O1s+vZjtCuR551NgyEyzLiMk/I8qRCm45bnuWEofojng1DtWM924XKA484bpC0Ig3t/kz6dh3zwOExodkuUL0bXnLakaYNTZp2nZ03cQON264PFycxeCZuOP25zcEuT24+0Fi8siuLA8mVocS2J3fRLlzlXfLN0NjreZjYQYeLD/JQ3CUHom3OnDmlTp26KmJeJqXYma79OKC8ripr1qypnDp9GlmdMqoX8aNxR2XpkmWyeMliadioCascmNgxhTvfcPEwEI7BbIPyMmXKSqFChWTeggXKgfgcFEnmTFEqnPxDUqduXVVXUJehPSIIFilSRKorpc/ipUtlxuQvdB3+Bg18UfuyYJRB9nexIMaEsWK9RowYKatX+5zoVqxYSW66qatgy1amTJmVUi+7VK5cWQ4eOKgUfaPQTKc33nhdKlauorYRZGCR3mpWvXp1rbybOnWqFCxYSHr3uluKF/dt/yLixZxz0aLFJGvWaD3GMWPGcEjSoUMHada8mZZpzBW+p5aryGBz5v6i/JDkkI4d2qsoX3dpnyRUQiZnHqacgU64tNgOAw+3zaWCZ87NWZgAB8TzoP8XvUDrbPMoMXKTmLY2LvOBxhRsDGxnw6S0sWmEmzdFjuNn20DjMOtQz7wNScuGxAvU1sYNlSctD/qfGx4/PH7g3ElrchDqfLbr7fEHuh6xjY1r54O1DUXDrZ7lhInp08Zl3hwnywjZT1KhTcctjzEg2fVu/RLPhm74djnbsdwtz3KMjbg2JE6kodmPTdusM8dGvEBlrAvVlng2DLed2bfdhjSD4bANcQlZTshywkA0UWYm4pIGIcttiLaJwSEuIekxHylIuh68su+7pnxGSrbc6FDWzPMp1HHElXdug0tOOSeWXAjFRdGiRfUva9asMnjwS5o/UNQMeHyAjqAHx99mio8/pqydtuiw621bX+/npBt4iR1TcviA/sz2dt9mHXCbNPEpG7/99lulgFwicD7eo+dt0u+xx3T0KeCAJ2gXHZ1VKlSooH1TwDEtlH1Q9HXo2F6eefY5oGo84Nr9pnYeY8ZY8YNz9NWrV+nxwUF6165dnbFmzVpACrZuIxUrVpRBgwfrcvz16NFDW6NhLvyVLVtW8Fu0aKHkzp1bK+6efuZZZeGWybG6Q9vUniv7Q99VqlQBUArn7TJ58mS9nlWrVpOBAweqyI81dB3+Dh06JL///ru2TJw0aaIsWvCr7Nm9Rx5+5BEt+1TgkXZiIXiGRBhue+CHi3up4ZEXmjFB/ojnwQsy5LbWJo/ccFCOX6DEcsJAOCwjjg1ZHy602zMfrD1xIgUD9UXa4dSB7ybv0QbtUWZD4rEcuIHwWB8Ksr0HL1xfyWMPXrhmePJxceUj1HnsVs91c6tneSBZRx1/oBNOAj6SDdnWrTzceuIB2rSYD4Zj1iXl2O4jsXk8C6KNec12472JY7ex85gLy0jPztvlrLchaBE3EtCmb9O065knHvJIblBXBvhzw2d5gCa6iPWEbngoDweH7YlLyHJClhOyPBh0w2W5DU1a4C95TAh8HKc2xLg4Bg9eeffd1JY3yph5PoQ6jrjyLqUmHYmTCTRws8LWtk2bNsmBAwc0fzJmzCiNGjfWF4iMGf1ZkjlzjFaMNGrcSCopay1Yn5mM5nG40OaPHkAYf3Y75tGUfbOMkHNduGixVvQAt1mzZpI/Xz7dhu1IA+327Nkl689vs82VO0YpNDuj2k+BxXYXC3I8WMfSZcpohSoUk9gSbI4Jx8DBVl9Y5a1fv07PBVtoUWYmtpszZ65UUxZ4HTt1SqC4Az7xUhuib67nSmVVd+rkGRTJzf/pqhSuJfUxH8QQ9auF2uoLq0GUTVZWlG+99Y7Geenll50bYVLmQNmyIYgHo0f8YDihaKTles4PYwyWiOdB/4cy8MyUDZs/Zh35i3Mbac+unbJj125ZtmyZ7Nyxg9UeDJMD0dmi9T0Olr3Fi5eQ7Nl9UWTBc/y4FiBnrgPLCVHPYxPPbhcsz/Ye9D8/PH54/DDPxYstD8k9v0O1N+fH6wpgbOx+2bx5i/z555+C56DMmTOj2EthciBTpox6102BAgX1cyOeFZGwHlwTk/coY5544UCzDY/d6LPcDbJ9pKDZjxvNQHMELhIgnqt37dql3pf2yB9/rNbuiXSl9xc2B/Dc0bRpM73rCfLI5w7wFolrg2NzzVIjz749eGXedy+WvEG2w03+mqpwWwXBS4lJR/IEwtBPnDipo+JxGlUqV9KWaLxooBx9IqEML4nFlC81WHBFRfl85OlK9ZfYsZn8MR1+gh7qWI88aHMcyCOxHtDu26wDLuqxhXLb1s3IaosyhHJHuTlXXXn+b6PykffTT7N1DtaJtWrVMqsT9GmPIUFe8c7HSR8ZjJHjRAnw8WMy6xPQUnhmW7QpV66clC1XQVYsX6Z9FiLiIW4CxAPMkOEq/XJK5d2JEyfYnQPRF/zebd+xS3rcfqvGJw23cQQqRxkT2pMGy+w15zoEooW2djnwZ/04W06cjNckS6ut0VFRWZ1+2CfawZIQytf58+erh4zdMvnLKdJebbGFRSbHZdMPlWc7G4bbLhTepVpPfnCd3SDxPOj/Nc9ed5M/dh2uxzgPFi9erC1lV61arSxLdyvXBkucDzJu/PfKA3OgRs1aUqxoYX3NgJ/MRo0aat+uwOZa2OvAckK7Pql5s0/S9qD/+eLxw+PHxTpPknpesx3GzWM3SPlm/QqlqFs4f56sUNf67cpf9QrlnxnPNF5KPAewW6NI4ULqw3dpdZ1vLHWVCx08KyLhvkrem5DrEC5EW+KSjp23y1lvQ+JFAoZD28Yx83h3XL78d/nxh1myZu167XPbe+5IvAyyBVxRFVbum/B+3Vy5/mnYsKHfrijgmfyHDKRWHn1HQuY8OpceH1NLxtgP5QyyEm6KuPKOg4k0xIQ4weRAvPj9888++fvvvzWPsEWyQ/sbEvCLfbBfBECAnzXmATlHs4zt3KDZJn7/Gpk7Y55sjIuW6g3aSv0KOfzCbaeXePlrxRKZ/dsGSV+gvjRrcLWUK+B7cQ3UJ2mbcOWK5UDVqWPHjnrbJPMmRBukv/76y/EDWLBQYeU3r4zDd9S7zcsuBy5oco7rD2WSSrVaSOP6JSSbKgc+6jHH2I1rZPKPy+VwjlrSsWNNKXP+Y6pNk3nQZoKCEX7dmOKOxTlfcFCGNnv37tEv+sTZqxSa2HLLxLl/9NFHUrFCeWnVqrVW2FKxxn5DQYnfKwvnzJbVO49K1vLXyw0Ny0hMRt8Y9FzVfGM3LpZfF/0uu6WAVGvQUmqXUVYuaoyhaLMeW7jXrVmrh54tWzYpX768IzOcDyDw0WcL5Rewg/J5B59/O5Vicvz48c52auKFC0GPdANBNzp2Oze8S7mcc8QcgiXiedBflijfgeTKrMP1e+vWLTJd+aX8ZNIXsnDBvGDs9urC5AA+fuCHhHsi7hXdut2irhVNdVAfrIG5Dm7yi/YmXlLybrS9cv9zxuOHxw+ca6ktB5E6v4NdGzAn/GBV/c3UaTLps88cv81o56WkcwBuZuhqZty48dK+fQe5444eSnHSWLvP4fracoUeWRcKsi3a8JhtmCdkuRskXqSgOQ83miYOxoXnDgY7/Hbqd95zBxgUgWQ+v33zzbfSqVNHufnmm7VCmWvjJhcpXc7+PXhl3mch3iktY6RPGUvMKRVx5R0HE2nIySUXgjkwdV6x8g/Np5iYXFK3fgM/nqEP+H07fvyEo7yCNQLmhB/HYB6zLBQkX9Bh5n1/yldDn5EP/4iVHL2/kQVDm0vlXJl8lmpqDKc2/ybj+vaQwT/vlBrdh8nVDatIOWOkdl+kTQjU2cqK7uT5SKTVqlVN4LOP5EALWxLgQw4JiqHrmjf1U2Kh3O7TLU9czPHX0YP1HPK1e03efedB6VrqgvXiuUNr5OfBveS+MasF9Y2vq+Eo74LRBn2kvHnzSt7z0VQPHz0msSrCbMECBXQd2mMNv/xystom7ZsXKrD+Z86cdZRewIPVHSwOBwzorxV7Jg/dxsFy3Zn6O3XysOz5cqieS866/SXrpIFyYwm1noq++lOfNTfLzx8+L31f+0EO13xUhlZpLrXZWEHSc4NARURcpjZt2krRYsWcdiw3YXT2nA4/YK23ZOnv2vIU28M5R7f+7HLiu0Ebn3kTn2WXG+QcTd4HOiaeBy9YztiyYPOG9XyAHjlyhIwc+a7DXlyrSpUqLXny5pHs6hiRwYHrpdAcwAcKRKvGtXPP7l36Ogl3EgiIs2Llarnv3t5y663/57zUcS3sNWKe9cmFGDlpevDCueLxxZOLi3k+JPe8Tkx7fGAf9cEHMvLddx23L/DDXKp0SSmorHW8a33o67uJYV7rD6hnfexEgbsZ+EWGZePDD94vt3TvLrly5XbedXi9Scy6QT7xYxvKq523y1lvQ+JFAoZD28bBs8SGDRvkhRde1C5oyFN85Cqrdr5kVds/IYvR0T53E6z3YGAOQA7h4uiUei/Fc8f2bVv1+zbe0YYPHy6/LV4qzz37lFx33fWODNlrklp5zCAScufRSbt8xNrwfQFyBflMLfliP5QxjCXcFPE3HA4m0pCTSw7EmJDgL2PZkqX6ODo6WkUk9QUC4ALCNPqtt/6nzXhLliyltl36bzPlGDhHEGJZKGi2SV+xkwx543dZdtOrsvaz4TKxXTl5rG0lyZ3Zp+j5etQwGbtwj0ARdF//XtIg/wWFS6A+SZsQY8EWS9ygkRB5lT4uOFddcf5v//5Y2aT8iSDlz19A+QFspI/5R7rIh5on66+q3FZ6PtFfdscOkvHzp8n3PzaTlr2ukRxqLc7G7ZY1X78vg6ZskKhqd6igEndLvbw+LX+wPjgewCxZsihFY7QuOn3yhMTH+7aTEmfz5k3ywQej/XzenVR4TJzTy8oXXJUqlaVZs2YJFJacixskrYw5y0nnl5+Tu5feJ2OWfyNDJnSQqx9tKOWiMyiF7HH585sx8uF7P8reqCby3yfvlO41coKRYfMSY12gIgczNWxYX6JV9FmOi+WEKEdUZfg5YTpz+pRSXu7SW+LYLhxIPoWC6MekZ+ObdTbupZLHnJBsqAtd/ogbqBo8sfl0peXBl2B8wPUKLgDMB2gq7dq2aS2t27SRyhUrSH4VfCgYrwPx/0ovQ4CbnTt3qpe59fLOiBE6uA1e7GCJ99RTm5Ulc3bp3PlGxwIP/HKTz0id3270vfIr8yu4t+5pY90jdX4Ho8Nr/auvvqp3DOB6w2t9kyaNtFVwlSpXS8GCBZ2XLuB4KTQHjhw5qny17VTvQBtk5IiRsmXrNq3Ew/X+8Sef0gRu73mn3r2Cl1gknns4DrZuZr3Zhsdsyzwhy90g8SIFA43Tpk0cyCIUd8+o4HXwHY0EpV3xEqWk2y03SWsVEK9goULOB3KN4P2FxQE+dyxZsljGKgvQbUoWocCDNd4TTz4j/3srWho0aJAk+XOTpcSW23Lh5dPGfShS6wBBPXz4sBxXO/ZOnDolCFgK12KJlZPk4nM+YZ0455F8b6GJaRECN7mTCNQeE0OKBMTNa/26dY7PMFhrZM0apa3OYHmGLVkTJ36ibmzvSR3l7w2KOya7f4zVLguV5/xIM+/1feTZB1tIgfh56kHlO/l95yFddWbZTHn/y5Va0XNTr1u0ogdtzfZ2X6wDRB2Ccvz91wZ2pYM0HDumtqmqedo/KCz/+OMPHaUUDXKogA7Va9R02uKAdHFs923niX9WskjZ6zvKbXd10XP89J13ZOKKf1EthzfNlc/GzZTV8SXl1ocekt41Y4LOj33oxuf/EHgiV65cOhd//LieFzK46cL/3axZM3Xd4MGDNMTfDhWt9cwZX8AH0Jw7d64sUcrcLl1uVE58SzljYH+hIAlr/hRqrxSy90th2SjLXh8jU1YckKPnzsm5A6tk/NsfysyjpaVTv0ekR8vykiNdOqcv0AjVD6wIv/9+hiO71avXSOCDkWNxg3FxcbJt23anOlSfrDdlC43d8sQnNPFYdqlDXODdfg5jzx/wAdgNH+WwAjX5FIy/lyseZcJtfuDjSHXtmPrtNM1ZPED36HG7ulZ/KkPVS16LFi2kYOEizjlkr4OXd+cAPuggkjUidc+ZPVvefPMNgQ88JFjhPauija9du0bLaLB1Yl0koJsceOWeFR7k0pOD1JeDSJzXWLtQdLC2uNZPnDgR6Fpxx2v9CKVwgsKkaNGinuJOcydxf/AHDZcxHTp0lO9nzJARI94R+B1Dwkf+Ia++JgsXznesT1CO9Qi1Zna92YbnKnGYJ2S5GyReJKDdRyCaJg7el8wPhnju6Ne3j/J5N0Mef/wJ7RubO33AKy+FzwE+d9xxx536uePVV4cqxUkZTQAfDp948mmBmyAmc11Qlhr5QPKBvr3y1L//RJrv0BH8++8hmTfvF2Xd/Z689NLLMnXqt45cob/UkDFzXjgON10ylneYUHJPGNDAV6d156Op4kJcTjlqHTxooNpaegrVug5fWHr37i15lfUZFg/9EgKH4whUxjo3mKDNVXnVPv9OWlH30w8fyOeTa0jNrtnly7HTZN2m9FLtvvvl7k7VtaLn9HmFE8aAZPdh0kY9HLoz4WXs888/l++mT2eRH0TknwULFjrbSwvmz6u/JrEPIJv0We4GHeKKd3JVKalxfXPp2fA7eWXhQhn90Sxp89+6svWrUdqyMHfLodL/1hqYkNMMB6Foox6WZRnVSYgExVRsrC+CMPLblDn2pImfqS1276iHvWIo0mm32jZrpjfffFPq1KktjRs38Ysw69a/XW7SOns2k+Sp1UHN9WO1VfgjGTK2k7QufrVk+uF9Z6639GwrFZQ1HumwPfNuEC/QDLqB7SOIJosLEBVEpBMMgl9RUVEOiltfZjnXPVwI4mhv45s0iXOpQfD7l19my8GDBzH0BAlWoLy+oHLX7j0yc+YM9WAclwAXBcCHXzF+JLB5dqXkA8mLOfdVq1bJcHWeMlALtrf37fuoPl8DMtYrTDIH8HKM4Ext2rTT1xt8DR+hLPJeeWmwVpDyPDbXB2UsjxS06Xt5/2cRjx8eP3CupZYcROq8DkYH99elS5fKqNEfOjtGHrj/fnnyqaecXSNJvrB5DRNwoIX66FVZfbhp2/YGbWkNd0GjR3+k3AWV1UEsgq0ViLnVUyaBw2PiMk/IcjdIvEhBc9xuNDnuzz+fJF9N+RpZwTM3dujg3RDtvBRZDuDjIZ6He/e+V2+jhQUeXB498MBDfpagbnKSUuVuMuKVX9r3X0pvbGysekebpVxSrZaPPh7NYg1TSqZsupQlv85DZCKuvLMHFak8J5dUSD5s2bJZW5ghD3938P01YuR7Cvq2FsbF+baYwsk/kjl+u2/U2WWh8qSnifs6kAx1bpfXH18it/ebIBM+mSBZV+yXn6crv2jX9JGn72qVYLusWx827QUL5iu/Aj4Ls9j9/yiz7y+dbu0DzDvuqG/LaUG19axV61YaxZwj6bv1b5f7pudTyMVc3VJuf/hu+X3Vy/LjuHdl4KmFsufzebK/0u0yXG2XhTLLVELZtOw8x585cyYnQMWhQwedKMIwyYbV3X51YrZs2Urw8s8Eayck0Jw3b562unv99ddUxKPiznqz3py/PQY7jzYaP3ddeUH5MlzcY6DMVduhJ2SrKRvGjPNtl+3dTlqWzKzxyM9w+gIOQtIzPfDgfdrfn0mDdYQYX3z8MYG1KRPkHH7yzGTPw86zj3Ah25v4LLvUIfg2bdo07ZvD5KHbMR5A4JvQLXXr1l379mC9yTOUXQl5yoTbXMGHUaM+cK5l4FmvXr08xR0Yk0KpRImSKrjNOGXl0lpb38EHHgJYmB+0zPXiGkYaYnpmP17e44cnD75nqtTkQ6TPazd6OL8//vgjpbg7gkNlIdZBHnjwAU9xp7mRMn+wHHtXfeC++eZbtNIExgs33thZK+/c1ilUOWSTOJRTO2+Xs96GxIsEDIc2cfA+8q56N+QHwz59HpJbbrnFU9yljBhqqvhwOGTIK3LXnb0038eo9yYEVMHOACSuTWpD9B0J+fPopB0+4vzOo/zlt2nVSinvfpBtakde9erVsUROSi05o2w5HYdxEPHPB5gsUqQhJ5dUyPHAMSutl4qXKK4sCkbKbuWoG1Za+H366SfaTL9O3Xp+7OMiopBjCFTGOjfIcZA48M5KlFTpfK90a1dN8q4bL29NnCZrpaH06tFBOlT3bSUlPbN/lhGatLFlFE7deeP5/vvvnDlyrib85ZdflI+/a/Ww8uXLp3wNNOQQ/eYbrH+Og5AEkD+bLq+Ua36D3H3f9ZLu+G/y0ftv6S2kVW66y9kSTPxw+jBxopWzWCRs8ZqlNOhIcHb8rYpShi1g4Av8UjAhMAW3zQ4bNky6d+8mLa67TisDzLHzOFxI+ophWiH79P9VlMqyUCt6forLKNV63C/tG5ZLsF0W7YL1gfFja+X06d87XSD4SKZMmZ282wEi69KPIXCy58gpuZTSmv2hjMdukHIVLgQdG9eN9qVY3qfPI9qHIniXnATL32eeedohYfPsSslTBtzmC2uAD0ePca5liIyHm66XUpYDCNLUooW6LiqLAyTcO7G1iuuEMh5zDSMNST8tQ4zN+3k8SIwMmOdOWpZtjjPS53UgeuAD/JpOnTrdsbrr1q2b9s+LcXgp5ThQv3599RGxhXOtX6mu9VgLymag9cJo3MrRjnU2DeYJiecGiRcJaPcRiCZwUL5o0SJZu26tw/Qbu3TxlMgON1LuANFm8xfIpzvAu/r8+fMF25exJvb6pVY+kJxggF55yuh7EstXrgXahdtWC5j6+2vjJmWQMVWg94CSmDKFeh6nNOSYOaZw4BVjeQfmwM/btm3bNF/w4tzmvHWZafGFl0Jo+vOrhcSCoR2geWyWkcksCwVNOmyry5S11n/73i2zfx8o2//cLTkbt5cG7epIYXVuqO79klsfoMO0YcN6fSOG8q5Z8+aSJ1eMrjLnSlxsVYDT0PnngyFAwVOuXFlW+/EAhezfPGaZDR0iamzpcleTFt17SP+Fq2XYogOSpUYneeK2Ogm2BNs03PKkXVZtfa5YsZJWymZU20KRfvrpR9n490Zp2NCnhMyS+YKii5FnEWF2zpw58qD6sps3Tx69xmgbqr9Q9Xod0kdJk4eGSPvZXWSdmmv6irdIl27NpUq+hNtl3eixHPQOKqtCOszFGGsof4QIRGGuOcrtBD+Gv/32my6GzHfs0M7ZGkz6oSD7CAeSlonLsssFwirpPzd11ds4ocxAgkNtbEkOlhD1mfhQiGCbAG4WPCdNnoHOlZC3ZcKeN+qXLl0mGTNlUMo70deyKlWuDsZmry6CHOjV6y6ZMeN7zXu4VcDLNIMeca3sNYx0nv2kVYgPK/wYFEHWe6QuQw5kyJBBz4puEpC5VK7zkT6vA9FbuWK58ifrc2HTRln91q1b9zKUgrQ5pbvuuks9N8/W1neL1dblPbt3O4EYAq0V5Nat3KyjfBOXeUKWu0HiRQLafbjRxAqtXrnCWahnn3lGu5JwCsI4wHMdfGpd6SkqKlr7lQ+XD3gfHTjwBXn44Uf08/KqVSvl8KEDklX5NMZ62WuYWnmM301evHKf7uFi8QEyAJ/weA7DPdZ8N3YbE9rgHF27dq2Ws86dOmoRBX5qyRT74RjDPUeAF3HlHQcTacjJJRVistu375BNSsuKVKRIUeXn7MKDAcaL7ZSIPIIts3Y/nA/asg7HTCwLBU06bIuy9Of2yy8zP5d1m/fp4qM7/pAtf2+Ts6XKE82Bbn2YtM0tlk0aNZIsWQNHJcWFEl81Vq1a7SgW8uSO0ZYtdj+kz3IMiMdu0Bm0mqOc3i07lvwo05b/o14GT8q59Uvkz11qe0SpLA5aODTZFxvly5dfcp+3xEH48dmzZ8vcOXPliQH/deYBKzVswZg6dapuFqeiy7z++hva6T0Cc4APoZQo7I/925D1hLHLpjpzzaQcr25cu02ONsgn2eQcUTS06dh5vBzioZYJ/guLFSvqXGBYbkKuK6LTwnIJCRGyYJbOZPfjlue6hwtB38ZFmRv9S60cc+nRs6d8obah04p34MAXpU+fvnreqA+UIJfXKQtPpOhsUcqXxwMOT2x+XSl5e+3teYNXsALg9n98cEGQGi+lDgdwbaRSGtfO/v37+1nCcL0wGnstI5VnH2kNHjxyQjbuUJF69x+TA/8ek0Pxp2TvgXg5HKe0zF7yOGBwoFC+LJIvR7RkzpBOyhTLJeWL51T5KMfXKVDTmnzb44nU+exGBzzwWff6tsw2atRQuwZBuZdSngNVq1aV6Oho3dFc9VEbL7U1atTQebc1cyun7KAxj4nLPCHL3SDxIgUxJvYVjOacn+c570QVK1VSvqKzomnYCZZ71157bdj4lysifAR+8MEHiZoejDH43LF23Xo5qt5Rmbh2qQ2DyQrG4tX7DJ1Smw+QC+hu4J9yyZIl2hd8z9tvl/zK/RdlhLJjQozz4MEDSie0UUeQrlO3jlPNdqkFyTNnAGEcRFx5l1KT5eSSCsGLFUoBYlqXlSlT2mERxo2vofXrN3DKcMD+OC+/SpWBYgXJ/JKKPNvZMCAdJUSn186TcV+sku2nfD7qzq7/TCZ8XEWql+kl15dOGIUVdILRnjLlK2ebWXV1Aw5240EQj93KsT4Sov3AugLJHqudx9zteeuG1h/GqVR3cmjdrzL9h1Wy4rDv5QbbZ4c+OkyaTX1Z6uW9YBKN5vbc7LzZRfbs2QUKR6Q9+/Zrn2R//vW33NK9u98cYKHHNFFtj4YlG6xKTKs71rvBcOaMsaY7tFQ+/GiG/K0CWIiclJOH58rk0Z9JndpldFRd8MPkpz0/M48+8VDLhBD1+JoVKv366yJZMH+BRoPVHdrhYczs16RhyzLHQPxwIduBNtowf7lAKHkhS6b1HbZoN2lyrWCrIZXA5C0UqXvUOQbnu0i0usNaEDdc3l5ueLZM2PMDvxAAhNv/K1eurGTfX9kPHC+lDAfgD8ncnr9v3z4ts1y31Di/bZm42Hkd9fu3HTJn+c6ATM90lc+6KmClV3hFciD24CmJPXhIz33lpoNy8vQZKVcsp7SqXUwqFvf5Xr7Ych2qf57zKQXBHHx0pXV6PhUwLthz6xUpSCk4aVhU0/c3ujl0INbvWo+ycNceskRcypWdt8tZb0PiRQKGSxtzxbsBU8GCBRPlY9f8UEsaVyocNWqUtqb9+OOPw2ZByeLFnOcOKJJ3KytQ8/3NXsfUymMCkZBDj07k+Ij7xYABA5Rf7FGOfK1X7wxPP/20lCxZ0ikLdLB/f6x6v1iv4x9UqlTZQUkteWI/lClnAGEcQIcQ0YTBIEUacnJJgRgLXpLXrV3nPBhA2YPtb6RHJsDcEj8m1nM+KMcxFB3wI/fS4EHy5JNPyAfvvSsbNmzQUWtRz3Y2NOmQVvrTm+XbYc/LrPVZpPbAX2TR+BekackYWasiw34+eZnsUvpBs51Nk3niIEgDLczQByIHZlSBOYiHMjNt3Pi3rFmzRhdBkYUX5GBpo9JUI8DDc88+IwNffFFvUQ1qHq74ceLgBpk9cZyMmLxbanQfpm+M/RvkluMr3pFH3l8kR9OlC2uOgeaACEV51LiREGJ84sRJ6mTu71jdcS7Zzn9VRP7RRx+TO+64QytbzPUiLiHqEIkYX9GGvPKynvPbb/9PR0SLjz/uN2anjcTLmq/flxFfLpeoa1+QFT9/K880LaLniki7v+07naAd52VD0MR2SzzUMkHpw+03LDMhlEUI2DFp0iRZrLZDI9WtU0dHbcIx+8AxEuRlwoTxem6QZUQl3r9vr8ajTCUGkj7bMH+5QM4L1nelSpXWPMQDxgx1PTih9nayHhU8XrJsmfZBibJc6tpjWt2ZeMS/UqAtE4HmbT5E82sseOal1OFAjerVnI5OnMDWBN8HKxRivew1jHQ+kEyw79SGew7GydDPfndV3GE8XvI4EIoDUPBu3X1URnz1h/z0+y695YdyjrY8Tksw0ue1TQ/zXqOe0ZnwUTacj8PE92BkOXBCbV82r/Wgbq+ZWx5yyzrKsJ23y1lvQ+JFAoZLe8eOHX7MLFKkiF8+VMZUgobC9eoTcqCg2iJrJm6lZ5m9jqmVj4QMYg4encjoiXbu3KF2z/VwFHfYlQbjCARY633PPfo93eQ35Ydw586dAtdZOdRuntKlSzvXrNSSJ/ZDeeC4woGXhOUdJoZJJgfu27Nb9v3zj+YJoorecMMN+thkXrA+iAfFCC7sXbt0lfjjx1VAhOHSQoVbf+7ZZ+Xqq6+WqlWryfPPP6f9WUFhaI+ZdLg46dOflD/GDJa+n6yV/ZVvl6fbV5X6VYvKvWt/lXWv/SBf/7xCarWsJffW9FmWme3daJtbLLFVtGDBAs442C8g2iPBOmv1al801ty5cwk00GY/wGFf33zzjfzfrbfLiwOfk+dfeFEFiYiVpk2bCfzI3XTTf+QVpeDCFxJaFKEdtgRvnf2pfPjej7I3a2O5/eYbpHWrfFJkZ2sZu3CsLHt9jExU8+5dPQe6chL7dINEzJwlyu+LYcFChdVYurJaQyi7YPpuptuVaW2wLXhUgj399FNqK+5cHfziuuuu10rbBg0aaFNbKAkff/wJv/meWTJeHv/vONklZeSOzs2kUJ0qOtLutOVDZNn4mTLtuqpSpVNFyWY84HBcnCvzWAcEFpkxcyaLpEyZsvqh1l4jIGDM4P3777+nLL180YXh8/A9lc+ePZszThKDIrbH7T2keo3qMvCF5yU6e065+T83yb333qsV3cuXL9fWelxP9hkMcg7EYf5ygZgXfpBz+EnYvHmT5tVPSsHapm07rRA2547rxYwZMzTLcWNp06a1H09RQfwrDdoyYc+fckpYoEBBLePMezDlOdCseTNtsU6LGLNHrJe9hpHO2zJxsfK7Yo/IqGl/KAsqn08u8qFiiRjJlzePFMzlC+zBcg96HDA5EBd3VGIPn5C/d+13ZAhKvK/nbdRozaoXkCxZ/CPRXyxZD9RvpM9rm57JKxwXK1bMu9bbTEnh/H339JJBL70ie9T7UqBkr5lbHvLDOsqSnbfLWW9D4kUChkv7uHq381La4cCePXv0h3HTCMVey9TKgyuRkEWPTtL4yHXGbrQHH3jQMVB577339Hv/3Lk/yz1KcQeDCkTQHjHibaXvae9cj8B30li/do12yYNdaSjjey7rUwtSnjC2cFPElXcpNVlMiBNMLERbRBT58y/fQ1IhZQJdq1YtFDspFE0HUR288cYbWmBGKAssKO6QaK1Xq9Y1WnHnRk8jn//TvNqtIqIO/8an6HnoIWmntsjKVTHS+eG7ZbkK7PDKDx/I6NLFpNmQrlIh2j/Ygd0HyOJLmbnFEn5DMmXK4vDO7v/IkaM6qhTKoVioVq2aE9DAxEVfUPRAcdegUX1txYUHTTjqP3bsmPYnN1hZIUJ7bZ4AmOOh1T/I+Lc/1NFla957vzzYUSnR0omOsPvmvCVy66cTZcC7naTZ8BukXNSFL3b2/Ow8xoeyHNlzOI51C6p97vfd21tb3XEc5jx4DKu7a665xjmJWU6IcSO98frr2mJqgPL1RH9xtP5ppHwJmoo74GO77NfvjRREl6157yDpe1N5yau2+eXvdIc8++Bi6fvaWPWVoLJcU72UdFW+/jgntEUy8xgD9vIzwAbqoSCFAkPLjpo7E/L4YT3fUhF2h7/5lo6+C6fPb7/zjrYyNfkBJR8CuMCH1cqVq+XLKV9KXrVNBeWIzIsXdVgbQh7Mduw3FMS4iMM5XS6Q88Ic/++222SqigIMi0/cLL5Vym1YRgKHCQFDEPkZCVZ3Dz74IKs0JL0rFYIJlA2bB36MUhlcb7yUdjjA9cKIuIaRhuzjYkJch79fsMVRumDbY5M6JaVGmSJylXK3gXSVt11W88H7c+NALiml5Kb21aVkX+xhmb1sg5YnKPC+W7RFCsRklFqVfE7ZQeFiyjvOYbv/SJ/XNj03rnnlqceBDBmDB92y18wtT9nByHlMXOYJWe4GiRcpiDGxLzeawIlkgtuaXbt2S3z8sSSRxXPPhx9+KPfdd5/THoYicAUFP+3JSTly5JC33npT70YiHVgwLf99qd7Bw7JwIbZf33nnndr6Kdw2ScHjGqY2dJMZrzz5RlZYy2B8hJwAB7se/3NTN+1OB+/Ejz8+QO0YrKL1MJ06ddKGVK+rd/dxYydIx46dZJDySf7oY/114BS8z6IPRNNes26dficz4x+wj9SEnDP6DDddeMMMt0UIvJQ4kTAxpKRAtvlh1ixZuGCepgPrslKlSupj1oeCQAYOtiPOmfuLNGzURBo2bqJpIODDbvVlwEzkg02XOChPf3arfP3UQJm14ZDkbnmPdLuujBTJ6RPO9IXayy09WkvrbJtk1bh3ZdinK+TwuXMOD0iHEPSgeEG0lcGDX2KxirbaKIGPKN33eZ4iKu1ff/+t8UuVLil169XTxxw3MjiGUnCZ2voH31O9e/XSNFG+RQViOHnyhFL4ZdHObs12qqGcO7BYb5cdu3CPZKvZSXrd1ep8BF0VfTamijS8p49cF31K4sb0l8HTtuq++UdaoaC51bm4+lrbqXNnktAQa4HtF+XLXwj+0adPH60I4Dr5NTifwRZInOCw1GxxXQtdirXessV/nGyb/twxvV0WVpQno7rruRaPUcoG1f/Zq0oJLiqtKsTIAaWQ/Wzs97Ih7kzQL8uYN9Zz/rz57EJKlyrp8B7rzR/8MMHS7noVEOHZ557X+IiQNWr0aD9zYFSALi5gfym/gNhe3aPnbVK4cGHdBgq9GTN8Vn558+Z15I1rQH4FgzYu85cL5NzBwwoVKkiHG9o6SqV5KkDIUhWpDXPFD77uZs/+SfOWVne2XzzSuxKhLRM2DzTjvL80ywGsl72Gkc7bMnEx8rsPxAl8lTFdV6+81C5fTLJkzqiVdp7ijpzxYDAOQE7wK1wgl9xwbXXJk8vnogXK4D82H5J/1LZs3NORLoacB+s30ue1TU9P2vtL0xyw18wtb94XKMfEZZ6Q5W6QeJGAdh9uNFNiETJnzqQjtUO5ldgfrglobyfMJ7G0bHzQyKoCGpqJfltt3HDyoJM1a8pbodtrmVp5N5nxyn3GJCnFB6wvPqLCbRUUctBFwNpu1KgPtMEEjImQgFemTBl59dVX5ZNPx+v3d7wT9+//mH4f4/01dv9+QTCUfPnyKfzSui3/UkuW2A95xv7DgRFX3nEwkYScWGIg+sdC46vEp59+qiNDkiFbtm6ThQsXasVMXNwxvdihaKMtaJ45c1qOq68np5XCin4N/vxzgyxdskwHe8BWTDPZdFmH8v1zPtLbZfdGNZHevdvJNUWU1R0UPfhJFm2Zdm3rGk6wg4kr/tVjIG9JCxDzgM89CKi5vQlKS5SjHgltcYwtxDNnzpD+ytEjLIaQNm/aohUNfytlHuoD9QM8OLLlCQAaBw4cUErC+noLKueLtip4s/w1Z7reLostpDf1ukW618jpm5+eY5TkqthYHu/bRM6c+lM+ufclGbXywlck0goGUYexRKsvU1CO9Oxxm7bCM63FMGYkjrlfv35KkVfBdX7AxfihOLN9LcTHx8mvv/6q++rduxdQL6T9s7QV5b50maTWY3dI+5LZJZtSuOrxq3FmqHuT3HZXFyksG+Wb4f9zVcj6+j4rWIevv/5KXh02zOkDx/A3OHXqt/o3fPgb0r37rdqv4U033SSHjxwRKO1mqm22Tzz5lKOUIw9BCMfog/zgHJGH4glbJvA1I1cuJY/nE9ujHVIwaOMyf7lAzv08a+QWFeCl8nlnpziXvpoyxbFWnK1MuGl1l79APr0dme1C8fFKqLdlgrwlNHnlHac9DmCd7DWMdJ6ycDEg+tQfrtbvd5hfolA2qVwqn7p+ZnDKvAOPA4nlQB4VfbZexSJKAeyTo9WbD8iu/Uf9yFwMmccAAvUb6fPapuc3cS+TJjlgr5lbHvLDOsqSnbfLWW9D4kUChks7TTLfG5QfB+y1TIk8ZM6mGwk5xEQ8OqHfJcknvJtu3bpF7rjjDnnyiWf0+yl2ht2uXD7BchTJXieUt2/fQVvp9VYRj8eNGy933nW34wdv5cqVWveRPUfOBPEPbFopnacs6ImE+RfxbbMpNUmeROFCzB/Kl9WrV2vLsHuULwc4/kfCtkdsL4RvuCpVrlYWY74Q4G60dSP1B4VQnjx5pWOH9jJamTDDjBmWN++9P0oO/3tIBg0aKI0aNXaECO1smqQFmL1+b/l2cVc5kzmfFCuZR3JkOK3ansdQB+lyV5Oer38trR//5zyOb5sleWzSQsCIP/74Q6oov25DhrziVMXE5FLbIlcqy6BoKVKkqB5P3JF/Za2KxhIbe0DPpU3rVgnw8+fPr5Vg6As/WK5hC27dOnXl2edfkALKrxwsiqCYwInRpUsXzUeOzQczSckm98ur826WgemVXyCl4XaUWapHTTd7GanXb4ws73hA4tPFSMkSOBF9TLB555bH4LG2sBzEONwStoMi3X333dq8lmNFGWnjGAlrja9HLVu2lF9+mSdDhr6qLe5+/PEnPe9XhgyWtsq/mUnjTExzGTxhtvRTL3XZC5STAtnPKUpqf7BKGi99bmnQ6xn5vlUfOXw6WvkiLChZlYyqzjWO+Qfz+sWLF2vZhclvRiWzTFhTyC8SvpjVrVtbbeltqUJkl1BrXERtqy2gLcFwwQukxCSdUqVK6rWDxR4i9Rw6dFBbbcJP4gvK/x38AXJ+5A/zwaCNy/zlAjF3zgXHVapUUfxvpb7irNWK88VKAYpzEZGOFizwWU1CsXydst6sX7++35oE4yPW6XKvJx8J7fmCB15KuxzAenHtUgraMpGaecwJ95ZVW/Y5i1C8sPJNpizuvORxIDkcgBwXK1JQCmzZL4fjTuoffOKZ51RqyjrmEqy/lDq/STc5vPTapg4HuFahYCAZZhtbxljuBm385OTtPtxopQ43vV6SwwF7LSORx3hAx0zMQ1YoLzR8YJ/AZ50HI2uBB97ifXfbtu36XbdZs6Z6dx2Ca5r8B56ZsA7wkVhJ6UQGDhqk3tFaa//x2F2G3/bt2zR629bXa2jS4nFqQcqMOf5QxxFX3qXUZDm5xEBsp6xataraC+0LVJAhg2+6sJ5jioq6YC7sRpu4hIhi8u3UaSp89R6tvIOPterVq2tFoOlQE/g2TfIHdRmzF1fmnsVxqPGIy7xSM0p+FXWHkXdQb+Lohuf/cufOI40aN5aMSnHEeaIKcz2ltmTALxwS2ufKk0+NN7NUVkoHN3yUm31h3FD+det+i7zzzkh1Mh3WDvsnT54s9dRWWyii7IT2V+UvKFXUDwl5kybKQDd9Aj6gJiHv2NaGwO3c+Ua9RTi/8nnnprDKpZReGG/ZsuXQxC+Rpl+hykBhWaVKZa24Q/Sz5k2bSK9ed6m+GmvLNbOvDJlzScHqynH5eSKoM+niGGuu2K4T8vydb+KUR0VlVVt1r0uwPkAw5ZftIMemqTrommMjngmhnOvatYsTqSe7isY7VAUcadWmrVY8mbIKekgsCwVNXLa9XCDnjjliTsh36dpVfprzs96aD+u7KUohWrpMaflw9BigSZGiheWuu+7Sx/wjnSsdgh+UDZsX5JUH0yYHuF4YHdcw0pB9XAyIeR0/nU52/3NcuJWoVNFcKPaSx4FkcyBbdBaJynSVli1snT2olHfYMYLnSKSLIfO8pwWCGFOkz2/SA20vpW0OcK1CQcotZsNjtmGekOVukHiRghgT+3KjCRwvpW0OcA0jBSELUBItXDhfBTkYqV1Bwehl7Zq1cv8D96ngB930OxZcZ2FHFNwqId1yyy2O2xw3efLKk+cPDwZX1OXwXRfrzrWnpJLPzKMeZQWVQQus8I4ePaxjAMDYadu2bXpLbdNmzfUuzImffiL9+j2q35tJN7WgPW6OPxiMuPIuJSbLiSUWYuIwnUS7QMkcayjaaA8cnLAvvfSS9n0HiydENYU1HhMVJm700CfrzkK5w4YBoB4fBDRAHWkQYr931qwFAmD6ikCLPzwY5sqV25UvaEFcEkQeWyo/+GC0VmY1aNBQCz4VRraiiuOK5BxJ04boG3vc8TOTjQfrQfidYzlweewGp6gtkEuWLFUBOdpLC6Xxh3IQuEhca51RfzbPWG7CQPwI1Dfa4IITbmLfgHYifbscYbb79n1UR0guWbKENGnSVEe7Iz5o8ZiQ9ENB4qNPHl8ukHPnfJBHkIrrmjeVVSuXa+u7UaM/VOdjVu2XgVZ3TZo08bvZkM6VDMlDQpsXtsx6+bTFAawX1y6loC0TqZ2HNZSZsme5YAVtlnvHHgeSwoGc2aKUJecRgfLu37gTcvjYKcmXK5Pf80Rqy3yg/lLq/CbdpPDOa5O6HOBahYKQH+JQluy8Xc56GxIvEjBc2qnLVa+3xHLAXsfk5NE32sMF1JvD35TDR4/pZ/lmzZtr11iTJk1Uu+peUkq9Rcpl0Rvy+++/y2OP/Vf5GswlNynjBzOIWiRkFOPx6PjeY8EHrA0SdTkos9+9uf7kG/DNMpRD70FdDXz9r1j5h+TJm09Z4G2Xacr3O/3am21JI6WhOW70H04KrNUKp6ULDiaJFEnIiSUWkuFY6EA/0AuXJqcLp6GxsbHaL9jw4W/JQw89ogMFQBtvJje6HBNwk8OjQPQDzZFlxGf/yLMuECQ+x4l2WbJkkfXr18kcZVl01929lePIt7RCD7icC/HZnuVJgaQRCoI2f8RFnseE4eAQl/PYvn2HXmtsLb3nvvu1ldqOHTtQ7STQRUoqZJ82DLQubmVoy/b2OOxyjhU3Hfg5/HPDX8pX4uMyRFndzZ0716EDPLYltGm75U18Hl8ukHO25wPru2rVa4JtWmYYJRjbuekLk21I40qH5AehzQ/NTO8vzXIA68W1Syloy0Rq50+cPOXwH/7JPF93Dju8g0hwQFneMZ1RCrwT6nnVTKkt7279pdT5TbrmnL3jtMkBrlUoCBkiDuXJztvlrLch8SIBw6WdNrnvjYocsNcxqXnSe//99/U70IqVq5QrqXbSp28fadGihTJogD/6e6R4ieLKx/g09a7/hfaTBj/vO3fsku633uq894FWJGTUo+PPR64t+IL3X+bJa5SHUwYctEfCTsHixYrKiuXLdFDHxk0aS7NmLRw6pJda0JyLHmAYfxFX3qXEZDmxxEKOJbHt3PBBD0qcShUr6qAA8GE1a9ZM7URx4MCBOjCEuRce/LdpgQbLOL6kQNJILGRf4bajDO1TQQxGjhypzEr7aT9pCNjx/HMD1VbAu2X69GmCaKekmdpzRH/8BRqDWWaPjXWBIL7EnDhxXB544H61vbSrrFHm0wjV3r//AHW8xgn4AJpISYWB+ga9pJbb4yAdlkNGETV38uQv5e5ed8iAAY9JkcKFZNDgwfpG9d7IEX7raY6FNEJBs08eXy4Qc7fngjJY38F/AiztmHDcRN0YGjVq5MgH6kLx70qpD8RHkz/koweTz4ExYz6WoUOHOA8wyafok2N7DSOdv1jnQiD+FMh94dwOVO+VeRyINAculvzb/Ub6vLbpRZpvlxI9PI/BDxOCy5k/lKelZK+ZWx6ywzrKkZ23y1lvQ+JFAoZLOy3x3BtLQg7Y65ic/A8/zNLbZFevXqV8pndWbpF6aQstKnrgu7qJen5HID9Y4I0ZO04/4+PdCc/8lEuMksceTN47sck/ri3L7Dz4Hk6ZiQPlXZ8+jwj8yT/04IPSqlUbHc3Z7oNtUhqyX8wl3HThk1+4LULgYZIYSKQhuuUEw4UcQ7j4wfCg8EDU2pUrVkh75dC/Ro2aEncsTu2jVsErlLN/OPwvUCC/PP74E5pDbrQ4JiDxOKkQNNz6cStnX271djnwd+3aJW//7396Gye+SMCn3t8qEuq333wjI5RCb8aMGVKnbj29bTdQe5Sx38TCcOZo00QblpntWcYxMm/ioA5rjWiumFcjFYCkQ4eOeq3hH2706I9UNNGv9fbSjz/+GE11Iq2kQhDhuJIL7TGQHvpAHR4SobjDQyL2+BcoUFA78oR/v8+/+FIGvfSKNG3eQvtzRBsk0rBpu+WBzzq2vVwg52XyhfNtr2TlpzlznQjO5SuU01Z3Zhu0Y/5Kh7ZM2PwAr7yUfA7g3vXkk0/LwQM+C/GHH+6j/bcklzLXC3TstYxUnn2kNgzEG/gn85LHgdTkQGrLvVt/kTqf3eikJk8vdl/YqbN+/XodTG7ZsmXa1xaUBfvVs1mWTBe25b/9zjtSunRp/bxwsceM/t3Wzi6nDKENj4nDPCHL3SDxIgXNebjRBI6X0i4H3GQlMeV4z8MuKmyVheIOwRgRvRRbK0068D+eK7fPzy130+TOnVu/O5kccpOltFKOsWIs+LklzJtzTyvjtseDfKB5cLzExxyxxkwsZ/u6devqAIKoRxmVtcynJuTY0We46cLMwm0RAs9kEFAjkefEEgvZd2LbBcKHr7shQ4bKgw8+oCKe1NNa2uzZs2mLLET47PNIH9m790JEukA0MB78WMfxJQWSRmKh2X+4bTdv3izjxk9QETRXOXvGa9euLfjFHojVVlynT13YWoR1J+2kzI1yQxqhoNkHcQPNk3gmjjlWlLPvceMm6Ai97dq1E6wzfgVbt5GKyuoSadmy3zXkH2knBXI8kYLmGALR3L59h7z66jAdHbls2bJ6CoiYil++/AW0dWF8fLyzhjYNNDD7sPPEJw7zlws054U5malSpcrKX0YzR3kHnpYrX17fGHAjMfFBh7SuVGjLhM0Hk7fecdI4AIu75557QX85BoW5Srl87733RUR5h/Wy1zDSeVsmUiufNG57rTwORJYDqSXvofqJ9Hlt04ss19IeNVjRrVq1UhYtWiiLFy+Vbeo5bNPGv53rcqARHz16NFDxRSuz18wtD1liHeXKztvlrLch8SIBw6V90RjsdRwWB+x1TGyenXzyyQSZv2CBzvbscZt+p4WcUdZQAV/pZoK7oZ49e+qAjRdT4cMxBoPgC3+cA65Dh1XAyaNHjrBI8ubNqwI5wG9+VJp7R+HaYp48xk6/zZs3CZSp8+fN1/PAFuarr75aH+NdC2vz1VdfacOUJk2u1b7d4fcOdExaOGYi/dSG5hg4llAw4sq7lJo0JsIJhgs5lnDx3fDQN07guLg4FajiILJ+CZFLqteorrfGscKNFscEPB4nFYKGWz9u5ewrnLbAQTqmLAxhMrx/f6yjvEM5FJoHlCVHjRrVHHXXfwAAQABJREFUJCoqizMW1LF/9pdUaNIiTRvatNGGZWZ7lrG9nUc5y9Du6NE4OX7C31n5wYOHVLCPGLnzzp5AcRLbJRWCEMeVXGiPwaSNY1zUjh07JifV1mc7Ya3hqLWo2kbLZI/Hpm/nic9y5i8XiHnhh4Qv6LBCxdfzTRs36rJ16os6bvCnTp7RZTDNzpw5i+RWclOpchV9gylWrLijPOEDAPl1pUEwjbJhz10z1PtLMgdgcQfF3fbt2zSNho2ayAPqAxSc/0Yicb1Ai2sYacg+UhtGgj8eDY8DyeVAasu9W3+RPq9tesnlU1ptj/v7okWLtFP0+Qt/lWVLlupAVvZ4K1asJFmUlU9MTA7Jrp4fkPAckZaSvWZuecoQxs5j4jJPyHI3SLxIQYyJfbnRBI6X0i4HuH5JhVh3PLtP+fIrHWAOz+NVq9fQllp8HsfsgRcXd0ziDCV6ZfWB/umnn/JjjpscXcxy9I2ECLoI0PDHH6vV+8gmx+AG77dM+fPn9UXXjY5Wu+jqKGvfMlKqVOk0846CcXI+J5UP4mXLlupAE/j48eqwYXoai1VAzclffK51FFBQvvH6MBn+5ltKR3FABRb9j7zwwvPaQMWWGdJGuV2XWnnKiZ5ImH8RV96lxGQ5scRCjiWx7Wx80IEm97F+fWTFqtUCSwZE58yYMZM6sY/qrbQNGzaQZioaKZNNg3nQMo+Bz3EmBpJGYqHZf6i2HE/JkqXU1tEO8smECUpJWUMpr3LpeeMkKlSooA7BnDNnDKeuIWmTRlIgaYSCJm3ioozHhMRzy7Mca92t2y0q+tBMGavWGn4NsNanTp2UjX/9pbcP9+p1j7NuSV1DtmO/kYKcZyAeoM+ixYrJgyr0OaInIRUvXkLDgwcP6pvUsFdflVx58uky/NnjMumj3s4TP1D/rLtUIWQDCeb206dP11uPl6ut9HNVEJdAafGSxYIfEx4S6tWrp/xmVtBK0muuuUY9rMdoHtp8vBLythzYcybfPJh4DkBx98QTT/op7p579ilprSyII5VS4xy3ZSK18pHikUfH40ByOJBa8h6qH/taHel8cniUVtvu2bVTpkyZIqM+Gqudo5vjrFGzlhQrWliio7Np5+lwmp5JbZnFtj08EyAVLlzEeWk1216s43DXHLJEXMqVnbfLWW9D4kUChkv7YvHX6zd8DthrGW4ePQB39erVyvp1u+6wu3rfww6ZQAnusQ4oow0kbJft0vVGfY6aSr5IyCboR4IO31H27N0rC+bPlwXKsnDd2rXqPWSJVmShn2AJHxHKlSurffsjAit22DFKK+cciXFiDOHQ4boCF8dIGTNmlPJqvapXr64tmOG2DO9ge/bs1WMdP36cmvdCadHiOmVheFiK/T971wEvRZH0646cMzzJIogikkEUkCigCCpBEU5MgIoZEfVUzAnzqZjzJ+IpqAQFFEURFEQFVDCBShJUjMSH3H3973f/obeZ2Zndnd03C9s/eDVVXV1dXd0z21PTXa0OpzATZRJSD+KZhqzf1NHvOnTnXboajYawgUEhdQnK78UHORi0Z486Vy/DXLH8c9mlHDml1VcxODzaqr3TnTp11l5qv8FNndAeXicLU7FJkLLQC6lRo0byyEMP6kkI2g7nD9qNWGljL7tMO7NgO9qP7UFZXicLIYNyvaAt26zXLE8+yrFx0gGPO+44qV69unJwzZfl6sEHhyVWGtapV09OOfV0vY2WfU05yUKzXlPfZOm2HqZM6Fy1ShU5Z9Qo5ZycrU8LRj7ahlV3g08eopeDo26v+m35Ns5ypJv1My/bINqAH0XEC5ymjhWH4xM/GHbCjzsSvvYg4ct5dbUV+ccfN+ovfFgBxVVQL6q4g4MGDpBj+vTRP5CQH9aYou2jDu1xYOurjZj7k7AF4Li75JIxzpYsrLgL23EHpdhfuLb7MiycdWQaok25lLNAYVsg0+Peq76w7mcvOYVt57Dr//777+Tee/8lEx54yFlph/lAm7ZtpaX6IIx42U1UWI3q1ao5L6Vh6xC2PK++s+kcQ6if1+QhTki6FyRfWBA6sS4vmeDJpWhbgH2YKGSr8F7H3Uf16taR8uXKO+OCPIBff/WVvPnmHE1qp+7dU085xcx2xrfXWMokHXXRaYfFJzNnznLeN6g0nkG1a9dRbc8nSUO+o3zxxQoVj3OFfs+Zqk7YPfro3vpZ1b794TE+jky1i/3L+kqWLOHEqoPiiEX/zNP/p5+xG5XDEv/nzn1H/nnllfq0YNijTOkyMe/slElI2cQzDVl/TIf4IKE779LRaDYsUUhdEi1n81NOwUAZgNGyh1nBwxdvZNoyiIPPvAYv5ScCKSNRaNbvV5b6QMc89QVw1Hnn43KPxHZTnlkHZSQDKc8PmrLJa+pg0qC8F27ScY1jwvHfTpDNNiPPrD8ZnPWGBU19vGTiS8oQFSMA/+3EtnmVNeW7tZflyEc8myHaiROGX5g0SZ/KS5vxhzBPrUBFoOmevXrqeDaTJj2vWZo1bymXXzZGPlz0oXyov3z9Kj9s2KB/UPEDiRN+4URFvI3+g07cwxFOG+6t0B4Tdjtp5xwMbgGciJ4Jxx00Qn/ZfRg2bo+JTOHBLZ7jzFkgfRbI1Hj3qyfs+9qWlz4LZl7yBx98oB13ONxsR/42/RGvYaPG0rfP0TLyrLPUy3PsSpDMa5hcjXafeeEYS8zjuLJxm858G5IvDBhUdnLWyZXKpAXsvgyKU0czBFbFylX0IYTMA8THdCxqeGP2bH2gRV7efnp+j3dhjEV+bA9jXKK+VOSg7Uh4R3nm6aflsccfdxYQgI5tsHn71ZSa6j2lebOmOnwP6GbCYZx4R/lj81ZZs/p75x0F7ylwXp49crg6jbe/9gVA11T0Rb1By7NfTX5eQ84BBzR0Po5MnvySavdvctppw/TZBMjPq1EDIOadnTIJKY94piHr14oG/BO68y5djUZ72MAg0NYj0fImP2WhXtaNfDuRjxD55AcknTTiyUJbvh/Oeli/HyQ/IB06qMMtkRd5btekJQohL56etjzyks7yxL0g+QDJQ1mguSXypQpZTxjQ1sVLZiL9acqw5QfFYT9TTrbgbN+7774r2E48U33NYsIPYu/ePdX/3nLEEUc4S8tvvOF6sujtMDitGP+RcMIvAlY/OOEhx4nHrbXfr14jI0aOdE6Xg71Y/94K7TFht9MxZO7C1wKwJQL0jlRjiCs/cYLaDddfq7YPdPMtnwwD+wtl7b4MC2cdmYbJ2CNXJmeBsC2Q6XHvVV9Y97OXnLDtVljysNLjumuvdeYKWI2PMCwXXzxa72ooLL3CqNer72w6xxDq5DV5iBOS7gXJFxaETqzLSyZ4cinaFmAfJgrZKmxRZ8rLy9PjlO9FGBdI8+e/J9NmvK6vsVUTO7CQcGACdtBgVxrr9xpL6abDiQgd5s6d6/qOglNVB6odPh06dnQcWboR1p8BalES5KBd2HL67DPPyOfLV2gcp/Gee/4FOmzYhRdeKAcffLBzX0NMutvoVgfVRygi/IfeEyY8KGMvvVS9j3XUh4qyP8lLPdlnhF505qcbsn7qGQQWjNAgnAF50tVINA4pKLT1CFrOjY+y3PJMnchHaPODbtLIlyw0ZZl6eNHt+v3KmHp5ySTdlM1yyON1spDyvaAp1+QhnTTibpA8hOQh7gXJlwr0kp0s3dYlVTl2eVt+UNyWky34zp1/yZw5b6ovOafHTMZ1DEh1UtUDD0zQjjnGhMA9hViQXqlx48Za1ny1Hft65VRBfIkSxUtpdgRevfrqcfK1iquIBBsFtW+28tnjwG6HNkTuj68FYLcZM6arsXVajOPulltvSZvjDkqhXrsPw8btMZEp3Nfo+xAD+rRo0SJOX2eq6agT/zOZ2NZM1hmvrkyNd796wr6vbXnxbJBNeTig6u2339UqY2X+2LGXyl133ZP1jjs0yO4zLxxjiXkcVzZu05lvQ/KFAYPKjuJ4w2mg6UolSux2ZKWrjrDl2n0ZFHfTA/HMzQRZcMI/++yzTqzKnTt3ytb/HVzx7ber5Am1uo11omwY4zNROagf9cJxN2LESOcdBc8dHNIwYcL98vzzE9VmwQFxHXdsO+TVq1df78iaNn263H33XTo2N99RECrovPPPl48//li3ne1PZ9u96qDOOEH2tFOHOe9Rg048UcURLR2z4MiWQZyQ+hPPNGT9bFMQmDUr79i4IBCGB58NYZAg5d34KMstjzLJQ0i6qYtJgyzyJgvj6WPWRfkmLUjZoOXIZ8N0ttGuy26bne+Fm+Vsnng2snmTxePVYermx+dVv185t3zKMusnLVnoVo8pP0r50AUJX95GjDhLf9UBjqXzY8eOkVGjztNfdkBLJuFrGRyCPXocJZdeOlZmz56lnS7cbnuDWr3XoEGDlJ8PyfZVpsrZ/W/Xm4xt97UysCEcd0OGDNVxFdF+BEO/4847XLf9h2kf9hdk2n0ZFs46Mg3DtFO2yoLNkbZs/lO9uPwpRUuU0qsP2LfpahfqxUeQTT9u0FVUqZ6XrqocuWZbN6xdJfvVO0hKlijm5BfWRabHvVd97PN0wcKyb5j1ItbopEkvONu4brvlZhl59jl6i12Y9RSWrKB9zzEEPXnNssQJSfeC5AsLQifW5SUTPGGnb775Rm3D3JGU2LJlyzhzUAqAM+n7779Tv/m7Tw1lXiIQsnEKqZm2bd+etOwKFSqoGM8/m+LScs0+TBRSGcRsZ/rhhx+0swfzciSs2Hp+4nM6ZtyhhzaTcuUryIL582Te/Peljzq88eUpk6WdOnjOTG5jCfnQzy0vVTrrpuNu1aqVmgTH3cUXXSRXXnV1yu8ocPrhUIiham7Jg/dwMMSFF42WB+7/lz7MkfZPRxsh208+Gt3ggAY0h+O0s/UBA2mUSehFZ366Iet3GhHgInTnXToayYYFhV46BC3vxWd2fjwe1G/nu9HIA7leOvvRKcMPxqvfr2yQdnvpSdnpaKNZJ+uxoV+9Nr8pM0i7/eQHybd1SBa3dSeerDy7HOUlA21ZUcfRxpUrV2oHG5ZjI2H7y3NqtV23ELcgIvYNTka6VU3yeaw5HHg4xXnsmEukunIWIiVj82woZ48Du5268bk/nhaAvd54Y7Y6+GSw88IIx92/7r077Y47ji+7D8PG7TGRKdzT6PtQxtZtO+THdatk3tzZ8uEHC6Rt+yPkzFEXqW1D6TPCX3/tkt9/2SCfLH5Ppr8yWcfq+ecNdzvPwHTVDAflmm+/lPfeeVNuvf6fMuvdT6RRkxbqZWBXuqoMJDdT4z1ePfHuaTQCZePxBMkPZIwIM/3552Yda5QhC7B966STT95rHHcwfdA+Nvub44pliROS7gXJFwa06/CSGfYww5jAFsswE2KR1a+/f5giHVnYJpku2U4lKVzY/Zgojn7v0OEIqVtvf/3RHLHeunbtKrVq1dYfjV5//TV55tmJyinUUM3Nb1KO0zXaeYeP7Fu2bFax5Zbrgww5ftAUXtsQujHZeangcDQuUXHqsOKOjjvUM2zYKTL6kktSctyZ+i5atEh+3rSJJA3hyLzi8svlySce1zHw4OxMpS0Q6lWefeuVj91ROECTadWqVdKsWXMnhiHK2TKIE1I28UxD1s82BIG7R1UQ7gA8aDRSmJANCwLj1RukPHT34mOH+vHY+dQpnlyUIV8i0EumSac8k2brGA9H+XhlKd8NspxbXtA2U4YJbXlmntkWm8/GzXJ2HnAz35RLuluZoO0iH2WlAuPpkYpctjmefLYjHgxDB+qSboi24sfq2muvc7524mvWjBkzQnXcoR1I+BG+Sm2XvfiiC3Vga9Duvvtuef6FF9REYavzXAA91X7IdHk/ne1xYeuH8rnkbgFMmOC46937aMdxh6/ED6qtEm4H7bhLSY2K/rL7MGzcHhOJ4OBNhB/WIH9qlsnu0nBY/bxhjcyeOlHGnDtMrvvnxfLxovfUiW3l09Yw1ImVdovemy03XHWxjDpjsLw29UUpp1ZypDNtU6esr171pTz/1ANybPd22nGH+ooUjcZWMo7HwoRe9zRenJAH3bx4gtLT2ceZkP3s00+qF/+ClVU43XvYqac6cXAzUX8m6gjal+Z44LhlWeKEpHtB8vlBtj8en12HFy9l5WA0LWD3YzI4tofeecd4wZxp2rQZMmPaNO0Me/jhB+X+Bx6Qnj26qQPqJuq5VJ06dXSIGzhhv/76G/0RH1uNWa+blTCvX7x4saxfv17wnETyGm/J0H/77TcZN25cjOMOdTzzzLNy1513Cj4mpJomqQP6cPgZnYOILYdFDEgIDTD+jjud5z/rSqYtKOtVjja281nfJ598rOxwjTMH/mLFCv0cJj/4bBnEAckHaNLNcummUwe2KQgM3XmXrkaycX7Qr36/8vHyKduPx85HOZtm4pSbLDRlodNt3K9+tzKmDOpl0swyzPeCKOeVF5Ru122Ws/NM3OSDziZu8tl5Jm7zmbgpzyyTKN2UCTmJ4n71JSrP5veTHy/flhVlHLrBYYYl89zCingPExWOwK/pTHDgwRHD+BI33niTOv1pkR4LtFk8O0O3qORDXxzO8fOPG+PqxHYR2vqn097ZLBuOu3fffVePF7YDk9BHHnlY2rdvT1LaIfqLfZcuaI+JRHAElubEOZFyaTdchCuAE23u7Jfl/rtvkY8XL5RdfxXE8ETA7nQlxLVbv/obue/O62X269Ok9P/8ZnwWpqtetHXKpCfkrluvldVqC1q660umHYmO23Tx2/c3Xk4XLVoo3333nXOPgcfmC4onY5uolNm6dZtcfc21TrzRYacMVTHuwl1pFYW2Bu1LjEHycjzauE1nvg3JFw9iLH722Wf6o2s8vqCyo2DrnA7xLWD3ZaI45lDd1C6aKWoLLGK7/aJWb0199VXBdloc1nCbOqCuZs2aev7aokVLFd/6fnngvn/pGHKYY6G8mez6kTd06D+kb7/j5amnnpQNGzY4z0mWizdWweOVj7oefvghFdZnvhaF3y0sMEDarOLy3X3PPerwittScuAhBAAcdxs2/KDldlErE9GOU9VHCSScov3qq1P1IWlsO+heOidLp2y7POrCIgscDvTUU0/p2HygzVM2gQ2QWFYj6g9lEN+16z/68BHi5M80tPWiPvFg6Ntm0WgoEjZk4+LBoHXCIPHkxMtnHfF4TNnkN2luZcmXLHSTiTopz69+v3zKsesh3Q+inB+PXz7rtvmC6h6vnJ1n46zbDdq8yeJusv3ahvyg9aVbvpceQdqQrG5hl0Mb1q9fJ/ffPwGi9cvc2LGXOKfFamIa/zytjnk/9NBD9ZcufOWbNXOmNDnkEB1slnb0snOU6DDRGaefIUVVkOXLLxujT+OtUKHiHpZjmwjtNuxRIEfQk0Y47rp37+5YAwefPKG2MLRp08ahZeKC/YW62IdhQ9aRKMQL3Z0q7l/FipWUk7OXildZU4oU2b0zAHp6ycyE7aJcR9sOR0mXnifowyIeuOt6wTaqdCY40WrWbSiXXXO7VKpcXlYsWyIvvfRiOqvUsuE07H3sIDl15EWqrSJTJ09ULyVprzahCrzGaKbp9n2NRlx+xZWyZvX3crmKA9vv+BOcl13k2fx+OMpka5o37x1HdZzwjWdzNh4C4DTC48KvD5nPsQkxvLbzbDrzbUi+eBD1DBgwUA5s1FAuuvgiOeyw9o4zg+XAE1Q2eMNOqX4YgLPETqnKpLywZbvJY11hQbsvE8WhBxxwiC2N/4jvhkQ5pnOuVKmS0qVLF+3sQ76Zx/HFcoSQVaZMGX3gxdlnf6RX7o0cOVwGDTpRPyeRj8TyiUB8GH/ggQedjwXXXT9Ox5+7/oab9fZeOvAQY/EatYOodOmCQ/EKavT/C8fd+epgCryDIMFxd8vNN+sPwwceeKD88MMGvbgBK/KwShHPu4oVKzp2SaQtsJcfP3QweYDjw+yE+++XOnXrygknnCAbf1gvi9X2Z8TkW7t2rdRWIYlQBodr4DRh4Ga/YX64ZMli7bA9c/iZess05CKxDzMF2baC2oP9zYqVd2gYkh8Mamg/OfHyWUc8HlNX8AfhpdxkoVcdQes3dXaTRb3sPNL9IMr58fjls26Tj7R40ORHO4Hb/G485A1qGz8Zfvm2TkFxP7nMDyrP5mP5ZKAtK8o4dMOqu9dem+EsE2/dto2OH4ExkImEH1mcEIWDMZCeefb/ZOmST2KqTqYfICDT5UqrQMiIjdGv33HS77j+6ivdq/qLGMeA2SjSbB1Nntx1wWTTzXGHE8VatWqVcROhv9h36YL2mAiK0xhjxoxRk+4e+r7C128kPxksuy9COLQQdLx48WJqspu5eG+ot1TpMqrOzG5ZxWEYaKe1kCIyXe83VjOVb9/fMFDx4kV1aIlzz79AOnfuIvfee49eYYIXIzvZ5W3c5s8mHIdUbNlc4Fzp1aunVK1aNZvUD6yr3WdeOMYk8zg+bdymM9+G5PODcJTMnDVLr0Y/efBgPd/4/fffYtoWVHZMoRAQbDXcvmNrSv+ffPKJGE2w0j5VmSz/0EMPxciGA5p5ycBRo86JkZcOxO7LZHGMK/yHYwf/ids6kwcQifXZOOl2ecQoHD36Ev2cvP328c5zkuWDQsi/U22L/XHjT7qKvuoADTiue/XqrbcBY8s+Ehx4Ex58UK666kp1UErwL1Jujrvb1SpE7uiAE2zEiOH6UDTUs/KblfLKKy/j0klB2xKUD4JNXjjuECt81qzZcouKF450aPMW6veoYMk+bI2+nDx5ssyb965y9LkH6f3+++/lhhtvVG07Qu5TqyrXrVur+5V9mCnItumGBPwTuvMuHY1lw+LBROqNJwd288tHXX48yKdOQXhRL/mTgW51UI5bXpB22uUgz6RRfhDIckF4vWwBGXZ5yvWD8crZeW54ovLdZHi1i3S/OtzyE6nHrbzfOEhEPtthwmTq9NMpXflo68aNG5xVd1iGjlVj+KKUyYQf4S7qKx++qmLJ+vz35sumTT/HBL5OtV/SXd62F5x4AweqCUbPXuqL3SS93B0veNSD48Qul8N3WwA28nLcNWvWzLHl7hLpv0L/se/SBTlGEoVm6/GFmBNnrMaDEw/yKNPkzV3nLBAlC3CMFja072/bRuY9dttttzovp9TbLm/jtrxswbFldurUqU7MpQ4dO0j58umLDVmYdrH7zAtHnzPP7n/ihOTzguTzg6Zd4MTDfKNjxyPloQkPOPMNuw4vmaas3HU0LWD3ZbK41xjwo7M+8hEn9LIanpOXX36FduK5PSdRjjIJKQv4BrUzaObMWc7zpn//E9ThIvU1CxxsiOOHlXJIcOA9+uijcsUVlwdy4Lk57u6+6649dnR06NBR+vY5WtexRh3o97SKswcHoakvr8OCmPt2OKKDjB07Vh/wd+EFF8sD6t7mjp5GakUg02233a75sJOpuXLqNWzY0HkekceEeM/C/LBVq9YCxyriFJofoNin6YK0kamT33Xozrt0N46NtGGi9drlE8FZl18Z8PnxmPmUmyw0ZaHjE60fZWwZJk69SCMeFKJcUN4gfNQjCDTl2fxmHu3mBu1yJh5Uhh+fKdOvP9x0LGz5dv2Jtqcw+fHjs3TpUmfVHezbs2dvgIyn004bJtVrVNP1vqLiSixfviJGB9vOUcNjlDUQHDc/dOhQ/SN84w3XOz+S7HeDNXdpWAD9i8Mp7K2yWHHXtGlT57ltFMnIJfRi36ULJju2YYD58xfIzvzdq8fMifPNN92oVw2ZTuSMGO1/lcBeWG1WsmQRDd3qJg/43BLofjJwIMOCua971uEmNxWaqRPaxnFBmX76ki8RSDuhPjd7mvm2PonUUxi8yY7/sMvRboRetjDvsX3hGY+X1/z8gpUtCOiOUzr9bORlu6jT2S4/aP4ucByyDHFC0r0g+fygm+2wAgerQrt26arjmiFGlvm895LpJitHi5YFvMZLonSvMeBHZz3ko3VIJ06IFXIIb8IU7zlJmYQsA9lvzX1Hn3gLGmR27NhJj2nywIGHlXK2A2/06Iv0ajTy2dDLcdeiRQubVYcEgHys/kTaoLbRIv6p2XbqniqEzG3btqt3syWC9wcc5oeYfg89/IDeKoz6UUdejRrqfa0XUMF9//zzk3R8PjgakU89NIPHH2wTvmbc9crh11zgWMWz3XxesH1hwyC62SqH7rwLu1GUx8a5QfIkAt3kwDhB6agrHi91icfjVh/LJQPNuljepLnVl2g+5KIM5ScCWVciZaCzFz/lBYWUY/KTFgSa5dxsGURGvPagvF8dZn4y9Znl3dpg5icj326fKc+vvsLMR1s3b/5DFi1cCDV0vJTLxl5aaHFrunfv4az4Q7yp5cuXa73C6BMISrccrazxx/yhBxkTlxtvvFV/fRx39dU5J55hK/sS9xAcd8f16+9kYRJIx535hdBhyNAFxlG67/FkxypMsGTJUucLtWkSjj9sp8X44yQtU7bENs0vPl0sZwzqJi0aVJERJ/fTJ56aOqLd332zQp5+RAWfvuFyWbN2neOAgwMMTrmZU1+Qfxx3pLQ7qKY88q9bNI32gqyfN/0qt113qZw3/GSZ8nzstiuzrrCucVosdPrneUO0To2ql5a3Z72iXhp2ObpDjy6tGspVl5wlv//+u0NPVoftO3bKwnmz5d7x10ifTs2lbsW/aXvBPrAT0qcfL9A2Rj7sTnqydWayHPuzsKF9n9s28HvGZ/oes/VLF/7dd986ort37yYVMrxS36k8Axf2GPDCMVaZx3Fr4zad+TYknx80mw+nRoMGBzgkvMxfcflV2omHl/Iff/pJPQN2r/x3GHMXWWMBe5wkiyfbYNZnl/eiD1Zbud+e+7Y+9MIcm5yLIOyAORfheLflz5//nrNFv3fPo1T8vFo2i14pZzvwcArthRde4OrA83LcYUeHV0Is7k6dOujsH9XBdO+otpmJ+qcKsf21TJnScvKQoYKt4yNGjNDxcE8+eahZnX7e3KAWBFx88cWa56mnntDOvGLFijrPopgCHgjiNdKJh5V4+ADF3y62hX0cFqRcD5VcyaE778JqjCmHDfOCJi9aGRT3kheEzjq8eJHvlRePTrnJQspOtn7YjzLcYLJ6sRxk8joV6KZbEN3tconqYJc38URlefGbMuO1yau8Hz3d8s36g9ZV2HywM5aYr/jiC1zq2Ak9juqprwvjDyaWPXp0d4Iur1MBWHH0O+1k2hj6RQ23bdav77Eye+ZreuLCr4/4kcTEZfz4Ox0nHn8kM+VEsfWMGo5+nTFjunbcMQg0HXeYWBW2naAfx2S6YLJjG325c+dOp0vvuutONel7SXr3Kvg6a46/3r2P0RPnb775Rts03XaF86hB4+Yy6uJxeqL43jtvyuQXnnF0xUXx4n+TN2e+KvfdcYMsXbxA/ptfcIIayv75xx9y723jZNQZg+UXtaV+3M13y5AzL9Yx42gvyPhlw7cy762Z+tm2eP6b2okGerrSmu++1ttY+g8Zqer8UztOcWLtli0FuuPwi2uvuFDf998sXyIb165U9k5eG4y5zb/iFL+d0qFjVzlEvVAgfbTgbVn11adSQR3A96Fq97hLR8nnymmHDyFvzJqeUp3Ja5tcSfZnYUM/7dupw3KmTXtV32OMu2TeY3SUf/755xm5x/z0DSv/w0WLnNW9Bx3UWMqouI17awr6jOdYhR3MaxO36V42I58fNMvDUfLWW2/Krbfe4jjxMBbhxMPKGqzEM1eFpvt5b+qWu07OAjhsCuMvqv8xhsz/ditLlCihV4eddsZwHVcbcQYRWxDJ7TnpNhfGFv1p02Y4HyQPaNTI8zAKHF4GBx7nO3i/cXPgxXPc8X632wIcK92wHRUJzq45b8/V1/zjd78GzYc88FatUkVOPHGwel9Qqwq7dBM45cwEHmwfHjdunMODg0ZYj8nrdg2H6pw5c/RqRuSjT9Cu28bfrrfTwrFqzw9pn1RhUB1NvWNbb+YkeY1GQJGwIdRhA02Yaj1ecoPQWbfNS7qpp80TD2f5VGGy9fuVS1UvtD1VGX46BslPVodM9F28OtC2ZHVnuXTLZz1B+sFPl0zkow6coDRt2jRcqhfnEtKyZXIHAJRRBzUwlSxZgpcJww4dOqgXocn6xXvTL5tki1pJUq5cWd33EEYb+8GEK05DgdLqhSZPfSHExKVz127yzttvyaNPPK1P4uLEBUvhX1TtHTRwgAxTx9FzYpAGdbJGJBx3Q9QXR9gICdsUcKpsYcW4sw3HsQd6uu511pEotHWtUSNPjj76GHUS4WGyUK2wRTwU3O+wLV7qMP6wRf1odTLtGWeeKY0bN8ZNZosJDS9Zsrjs37iZHNNvkLw29UV54dlH5eIrboqR/8q/n9UTyPoND5YyZSvoPDi7Hrr3Znni4XsF2/SGnztGevc7SefZB0zU2b+x3HD7AzL9pWdkxJhb1cuF+/bbmEpTQBo3LXhmlilbTvoNGCITn35EOx53bvtDrSAscE4++9JM5ezYKaVVgPm6DQ9VwaR3b2tOtGqMuYpVa0rLdpW143Lr1s0C5xC21yxc8K6UK19JZkydIiefdra0O7yzOpFujex/QGO1zfG/iVaVcX6M96gnOOxwwh9eDPFyWqtWbf2/TZvWsnjxR/okQpz+Zz7jn5v4vBx5ZCc566yznCDofHZEvb1++tVQL7QMmu7Hmw35dJiYunJc+kGzTKavMRbr1asvo0adpwP5z5o1U5566hn9nOfzHi/l/35xspw4aICcdvoZ+jRK6ImVPrkULQv8+eefOm5hsTT/fqXS6jVr8IH9T0dEuXLl1EerLQ7OC7wTNFJON/x291ZzDTwnH1Nx6RCn0XxOYi6Mj94jRo505sI/qxVu/BCGj7jYoh8vwYGHAxmQIJ8OPOB33XWPOtDhpT1OlUWMu6DzS8zRERsccn/77Q+9wACr5Pg8T3TO5sUPfZFgO75TsY6CnN1/zXijXjy7uXdf4cCbbt26CU7TPVW9f+AQIpx4j7YhYX746GOPywh1Mq39fsJ6koVs925t/K9Cd94lq7xfOTbOhn7l/PJteYniMLFdBnXatERxyPXTPV5+ovUlyp+KfqwrWRksnyqMZ794uvnVG69s0Dr96ggqx4sv3fJRr18dUcv/6acf0XU6IYBp+8OPkOJJTBZWr1lDMTqQ9WHtDnPwRC4Qn4UnSmFi8N2330r5cuXVi+eORMQUCi+cn/n5uyfBu3YWxATCD+/BBx8sdevW00682bNnyaTnX9Av2/iRpBPFdOKZMcsKpTGFVClOyhqpJm6cPMBx98gjD+8RPDiT6uGlqESJghO9cP8iEaZTD9aRKLR1wgmqOC2tWrXqyo6t9SSNTjzYGSuzvv12lbyuAkLDiYdJWulK9ZN6Dth12/h//lPgQKpYqZLOwldeM61bvU5NiAtOS2zarIWUqVBFrxhbsWyJdoiBF47Io/oM1MVsxx2IOL21Xcee0rhJS6mWV9OZU+gCafiD+pD+/ve/SdcevWXmtJf0idNTpzwv29SJb1gd17p9B+08M38jUlEFDsmiRctox2Sdhs2kel49tU92mXz4/vtSomQpadT4YDn+pDPVpL+41G2gHLIq8XcxlXrTUfa3bTtl++8/yW/Fou9cLFWqtP6YZDqrdu36j34+wHGSp8YbYgctUivTJk2apB3luMfwf93a9erwnXl7OPHSYdN0y1z04WLn40oVtToEDq+9ISGOH05rLVIk9NfE0M0DHc1V1qwAHzvhiDjggIaOE++5557Xz3nzeU8n3inDhmmnn72qh/JysHAscNNNN8s999yrVlsVKxwFAtTq5qjDc85O/O3BXNh+Tr788iuOwwhz4bVr18jUadPVR47DZPDggg90jK+JWMcV1Pj2S14OvFUrV8mSpcv0x0HIQNiDRBx3KLPffjWlWfOW+jd++7at+sA/OPQ4TwMPr1OFkGUmyjNp9rUfD+aDdjLnh107d1KHcfyf836CZwaceE89/YycrPqDH3lRD5z+gOa8JijOMWHrEg8P/akcVNlE+dg4EyYqw4sfBjLlJoJTJssQT1Yey1FOspBy0gWT1YvlYC9eJwrDaFOiddr87G83aPMmi7vJRtuTlWeXS7f8MPrJS8cw6ZSFbalmWvLJRyaa1DVeyBf9siipsmaht9Xqhe+++15KlSxpkiN9vXxFQZw+U0mOCUyqscUNTryuaiXe22olHiYpWKWBH0g68bASCl8j97VExx0dOi1atpYHJ9zvrFQpLHtcddXVejVNYdWfaL2//lLg/GI5OBf+/vf/6C0X5sQZ26wwcZ42dboef3TizX7zLWnSrLXsqNpO6u9/IMWEAuHgQtq4/gcNux/VV0P8gUPqy+WfaEc9vmwffEgzKVumpJRQM7YF782VL1Z8LpUrV5b2nXtLpcrl465eg6waatWrm3PPqTDkCzgmscKtTJmy+uXg3//3uIy56iZp2uoIx3GHKvk8CKN61AmnbAm1VQZpzhvTpFqVsnLJdfdrx10m259oe7bv2CUfvvaMzFw1VyZWrZYWZ3GiOgXh/0Gd2rxlc+zzGX2K/3CA4EUOW5lat24tOBVxxozX9cspV5jg5faDDxbql9MzzjjDWVUSpO6o8MyfP99RxXRkOsQsvXjggQdlyuSXs0b7b1d9t4euXEWH+QYC78OJh3jC8+a9K7NnzXZWI+F5v27dWpn88lR9iiZODN5XPxruYcQIELCFdG9LfE7iYyiek4hd95vaYfPee++pk7oL5gScC8Nh17nzkepjye5TrOvUqS3F1MfUIMnNgYeVeEx03LkdTkEeN1iqVCkpX7a0zsL9N0hta61YcbeObmUKi4bFBDX3y1MfbVvpVY/QA/ED7YRnBn67MD885dTTnZ1CthNvwoMPykuTp6gP7MNl+PDhUqVKVS2K/QoE10Eg3801c8A/oTvvgiqbCB8bZsNEZMQzoC03URyyWQY68TpVGE/neG1Ptd6g5ZPVz7RXojKC6ubHF89+QXTykx9Ehp8OXnX4lQuaX1jyveotLDr6Ci/1UU74EccEc29JbpPqEuqr6spvVurgsGjn3tbmoH2HGCSXXDLG+SIKx92/7r270B130B9OVfzP9oRnJP5jkoaJMxwMRx55pI4zOV5tp0IsRow/OPBXfL5cOcimyde128g/Ro8LrelwNv2+aYMg3l2J4qWkacuWMbIXvl8QmLpj5x5SI68gKPWW7SKfq8MX4NTFhPugJofGlPFCMu24gm1r1m3oqNOqVStp3OzwtDrRUGfFCiWlEU70myp6gn54l6OlRo3KcZ2bjpKFfPHbhu/1s29veVHlPYY4UNiCjv9Ymfbll186v2XcwohnCuLFZWMynZcID4H27g0J43BvGYvmfAOODDzzkbDyiI4SPFPxHyuI8mpU3xu6cJ9tA+KXHdho9+9PYRiiWPHi6qN0wcdot/r5nEAcuzlz3pCJEyepA7aWqHnH7q232FqLFV7d1EE4hxzSVD755GNHVA01RosXD/4xnw68depjofkugY+At9x8s3Nyq1NBghd4loex4CHBahNmf+utOfqjIgpyC7IthL9d2AKMRQb7799AO/E+VOE4ODfH/BD/77nnX4LVvAy3gi3RSJAR9J0WvImm0H9lgiqbKB+NQZhoeT9+yk0G2rLZEalCW25QPNV6g5YPqo8XH2ztledFD6pbPD4v2YnS442VRGV58dt1ePElS8+0fLu+KODQYV9ICCJevHjoj3xX05VUE5dFKhYSJsNuiRMXTKrfffddHXtj8YcfxfyYYlKBrQITJjzoJmKvpMFxd/nlVzgvFAhofIsKut2pU6e9sr2F3Sg8N5HyVQy2zz//TObOfUdwcpqZMCktWaGdVD+giUlO+Rp1rl29Sq8shfOu8UG75cPZ9vasglWncOoVK1XwNXvj+nWyXsXmRMpTMfyqVKupVtSlrEpaBFQqV1w6deut494VL1NJShdPb7w9NKKYWszY9NAW2nGHGDZV1Uq8qKfif//fNvSda1NWFas0sY0pU8/5DWosYsUF7hE74d7i/YWX0ikqDMCct9+Rn9RJn2YaOHCQHHFEexUovJ9+ETLzsuG6mBrXOwqiQujVsNmgcyZ0hAOlbr26mahKMN94T62AxMu0W+J8Y4fqqLlz31LzjSny4eKPYxwlKIeTKhFruHr16D833Nq5t9JGjTpH2rZtq55rwVaa5eXlqY82NVy3UmfKRpUqVVQx7Y7Z42MnxyJ2+mAsTpnysl59bH4Uxb1z3HH91FbvntK8RUt9OAT0xhyFaadajbdrV/Aff7wTf/XVV3qFKWUAYlXfy1OmqO3lzT0PvzD5s/2aTvog7YDN8BtWunQpvUsIqyLtBOc/HK4IKWPH44vnh4Ac5qMOXtvyvfDQ3+SoQNiQjSNMt3zWExSyI4LyB+Wj3KAwqNyw+ILq5cZHHdzy3PqX/KlCN9lBdTD5/PQweZOt064jWTle5dIp35YdVRz9ZMepwUvQfff9SzDZSyQhSC3j+6AcnC8XXnRhTCDboPJwwiwCpOLHAcFpcZBDLRWvK5mEmHOt2rTN2KoA2GHYKcP22DLMiQvsiiXrCJi74P1Fe3yxwwsdHHcdDm8vjz/2lOvLYTJ2iHIZOu642oGOu24qiG5U0mmnnSZtW7eSIsUKHA5R0ctND2xHOf/8C1xf6DgOOYGeprZsz5v33h4T7cGDT5b6Bx4qK/92kNStVlVKheT8xrNwZ/4W+WL5p47qdes1cK5Xr/pSx7sBAc4obD/Fgp4N67+TrVu3ar5KNerq7bCMnecUjsjFr3/my/rVX2ttli/7SDb9tF5q1cX23fQpuFOFivvs0yU6VuiO/NWyaOEC6aFOF1YLFiOb8v+TLyVLFJGGXc+WLketlaaN66qXhd2HHgVVHM/4GioGUa1atTLynMeWqZenTJYHJjykfqN2O+8wtvEfCU676dOmyuuz3pRlSz+JuRfptDvmmD4Fh8Mo/ijHtNIN8vmDF7i9JaF/EPMp2Wd9/fr1nK1k6bYJ5hsYR7bzjs95rG6aN+8dHYN43rz5MSuPoBue8506HC79B52oHSXff/+dmE7ZdOufkx/fAt26dZcBAwbEZ4pgrtvzDHMOxHqepbatus05RowYoT5kHKs+aBzh3D/4yI1nKuPdoamr16yV7Tt2BGo1yv/73/+Wq68uON0ehfBxHI4s3DPYAop0lcrHFvNkUl7efnLuqLOlWvUayRQPVAa/cRs2/hiI148J8e6WLvtMh3Fw4+WzY8PGjTLz9dd0yAccdGYuSICTtbtaFdlLzTEQfxhhO8yEPsO7tx/k+7lZ1u86dOedn5LJ5rNxQQyRbB0wlllPIjjrTLa8VznKDQq95KSLHlQvLz7Y2CvPpofRBltmqni8MZKqbJZnHcTDhumSH0Z/Ubd0Qzyoq1SpjGp0KqtOSzzttNOJJgThfOGptU0OaaJOCx2SUHky48UHBzfAeYeAtaPOOVuf2Mr8qMPSxqm7fAGg02769Ony9tx3XZ12iElx/PEn7H6hM1Y2RL3Nyern5ri7/obr9OlXycpMR7ljjz02qybRV1xxZcwLXTG1TRbPTxwEgbhHM2fOlLfeUjHkjK3AWAV3Qv/j9ctcn759ZZuUl/snL1MT5eRPRbX7AvHu8nf+JavVSyISXhRxMiwS9PvqiwKnHibYdevtr7ebIt7d7Nen6W28+LhwQMMDpZSKt/zntsS3XOiK0vinZMkiMuGu8boG2BPbaVZ/v0qaNG+btlpR50cfzJd1q1aok3lLyY5ftsnXql9/37xrjzlG2pRIQXCjJm3ksEP6Sp8ujaVylviAli5dqhyNpZ1W8zCbxYsX6xeeOW/PdU6jJROcQvYzHnMFjPtcio4FevTork8Ejo5G8TXBSls7caXd1KlT1fN+T6cdHchY9cmttHB07FTP5lyKjgV2KCcV+hK/33yviI527prQ+cPcP//8Q8013tIf922nHX7Pjz22rzPnQLw1JIxFM+GACKY1q1fLXzt3EvWEpuMO4UCQEHLj1GGnqMMYnnXiTMOBh48Pl469LLADD6frYhsuUrVq1eQ89bG0YsWKGk/XHzjiixRJfRU/fqsw78aJsmZiv21Quxxmzp6tnKxvqIUG82NCCMBphxPTMR/u0LGjszISY5Pjk+/pkE2aFzR5TV3iXYfuvPNSLhU6G0aYiqx4hqT8qMF4Opu2KCy9g+rnxked3fLS0TZTpl+dQfKpvxcMIsNPJ8r240s2Px3yKTNbIPqphtqGhh9RfInCia54eOepILKJpi2bdx8Pv317sC9jbnXgKw9Pm6yEEynViWpI9g+6W9nCpvEHkHps3bpFvvnmG3Wy7EQdFNqOjdFXOUnatW2jAt6e5DjtMJ4xfvb2ZDvusL153NX/1KfjRa3t2TSJtscgJqa//vqLLFiwQMWimSuvvz4zxmmHe79376P1Fr7+/fvrgMWw//JVP0m+2saazMnT8fpv51//kfwtvzos5cqXV/c2HE1/k8nPP6efQ8f0GyTlqtQuWHX34x/y0YK39SrUjp37SovW7UUdTuqbCk5jlYzFfYMT7YN35+rTXk87a7Ry2l2kYwhuVB8htm9Xq8zUqa9YLcjfK98GBGBAG9eu+1k7N1sd3lWvPJs06XnZsW27bPpxw/9WKBZsjwZvFBPG2Hal79Y/fpfK1SpE/jmP+wu/kzzlE8+GDz74QN55Z646CGC2vD//g5gV017PeI6DbHzW4/fZPNhg167wHPyFPUbxm50tDhP7WY+x+Pnnn8sL6pRjHHplxvjCx4SevXqo7bFHqBV3g53nPMYhx2Jh2z5Xv78Fov5uYbcAjrLffvsj5oM1Ps5hVSHCBgxSqz5x0imS21gEbf/966vcgoSwNL///rtThnQTejnurr/uOh2KBTt6rvjnPx0HHk5SRRp9ySWBnHCrVq2KubdwArmb7qZOqV5za2qqclDeXCldpGjBybN473tLhU/BbgzbaQd74VCPgWoXVJcunZ2VkWabOS5B47UfBG+iKXTnnZ+SyeajYYkYI9V6WF8UYNC2cABkGgbVz4sPNvbKIz2MNlFW2DDeGAm7rmyRF0Z/xbNr2PJRV0GMiqOdLzHLv/gyKecdZIWREH+LwZQrq/gZlSpWiplcRnUsuLUdJ8nCYTJbbZ9ifCRMort2PVLHMhl26qnOl2/0LfsXbdybUzY57tz6IZvG4EtqFSuCFdsr7TAha9q0qecEemcaD7MxXzqxLRYf2jerUylwUipS2/ZHSJlSBVuU35jxktoqs0bTO6oTmus2aKzuE7VP1Cdt2PizrF35mbQ5oot2DvqwJ5UNhx10Rxu+/ma1PPXYBOk3YJB07NZHnTr7iHberVGrDBEgumjRCrJk0TwprVbKYCUeHJbJJDolUXb79l0y9YVHtZijjj1Jx0aC8+5HHALx3ddy4IG1ZMln6+Szxe9In/7/cJ4vydSb6TJRu8e82o/fq0VqxZ3ptMMz/vAO7dWKkg7i9Yz3kpcN9J9//tlRE20NY0WIIzCCF1Ebi9THNhVClzz62GPaKcE8fJzpqMZhl65dck47GiWLIeeIUYW2aeeqwyuY4LRDbMWuaiyefNJJznuGOfclrwkrVKio4jHW0B/2sH0TK+lwoIJbguMdYWmwVdZccUfHHcq0b99eH1ZxyZixsmD+PC13/Pg71e9nMTln1CjHOeUmH45BhnhBPrbJYzUbFxfw3gwboi7YKQy5kMX0x++/qVV2M9XKyBfUjoxZzrsX8jlHRCgf02nHtlIGdQJuXvuNUZOXsvxg6M47PyWTzWfjki0ftBzriRpER8ZrQ2Hr66dfvHzq7sXD/FRhPPt51R2E7qdXEBnp0q2w5PrZJGr56CNM7po3a6qddzhBDj+23Qop3hi+6GPbLFODAxrG/DCCXlh9G69e9iv1JjQnLrBzGxV8GC90Zw4/c5/98p3tjrtsG4Nw5pjJ3PrQs2cvZ6sIJ2QYy+lKcLrBKVejbsHJZKjnt9+3S9kyJWXlkg/06bNwcrdo1VaddFtevlq+XP79zMN6Qjnk1JHS65jj1Qq2Ir6r6dasXSeP33eTIObcpVfdJG079AjUJLS9eHG1tVeF/MxXq1jMhO27f6nVa3S6AX7w7jypXLUg3sst11wuBzZpIl16HiflSv9N2h5+uCx8/22Z+8Z0ObxjZ7VSK18+VfHPunbvrZ195s4gOuS2b9u9evlPtboAuvz1VxH1zCtYsQe+r5cvkd/Vc7J23foydcrzsmzJJ3La8FFSt1ZlfQovVrB+9OFieXvOTK3+zBmvSB21HQkrG80P3VyJ5+YIhTNSLXl22mraIVPX8Z630CHT+V7P+EXqJD4mOLKaNz9Uv+jAaccXTOhKfcmbrRDtMGOswUlZVsVe25sT+y5q0LY5w5aADkdJs+bNpbcK/j906D+clUpoA9thl8/h0bcAn0NRhW4WRFy4Fs2bqZWfPeXkIUOd7Zacc7CM3SbS8bGvd++eThzopeodoVOnI/dYJQd5bo67q6+6ao/Dz+DAu/OO8UIHHuYdN954q64yngNv3bq16h1lmeZDu/r06UM1NeS9FVUYo6xC1q1dLyNGnBXjkITTrlGjhnKq+g3r3r27Y2ev/kJb2XfmNWlekDaydYqHh+6881IuVXoihki1LhiMxowK9GtTYevpp59fPmzuxRNG27xkh0WPN2bCqiPb5MSzSRh9Grb8smXLq5OdWkCsXh2GeHOjzjvP+YHVGRn688orLztbZhGfool6GTZTVMcC+9XUldeYRB908CHSvWvnfdppB3vAcYcj57myEodTRHWrLPvPDUZ1HLrpShqcdu3atdNbH9ycduRLJ8R9Uqx4SRUvpau88MyjehxMf+lJwaqxJR9/6FS9Va1UwxbUh++7S37YsEHguDvn/NFSu359X8cdnGqb1q/Sp71C4IypU6TlYdhSGn/bKPr0119/lT9UYO0vl70v77/7ptbnx40/yeL5b+rtumXKVpDSKi5oKXWwAvS657ZxysFWMJ3ECaQ33vmgijtXTtQiQjm0eSu1qrmy/vp/501XSq06DWXAyUP1SkCsmGPS+qotrjjYYsbUyZqMF4kP1VbhZR99KKUq1JDyKph2hQoV1Pzsv/L04w/Kpx9/oGMFrvrqMznnoiukVfvOus4atdVJl3Vq69UEzz7+gG7DQY0PlFOG363Lsk5AnOC7ZfPv8rlycJrOmEXvvyN/K15Wn5JboXI1X7uZMsO8jto9Fu8Zjw8z++/fQBAvDbFe27Rpo01hv+yAyHaFaatMyzJXnrRUc4eSe9GBFW62ZJ9FDbrpCocCPnr263uMnHrKKc7qpr11LLrZYG+m8TkUVQjbM6RAnTp1pU7dejJ08CA56eSTnRVt9ljkfWW3yezHfv366dVhiOn67xcnS++jj3Ges+CDTB5OYa64g+Oum8diBDrwLrzgQsFHmCAOvMWLP1Kn5c7VqiHeXUcV+81MbEtUoakrrtFmPs/htKuvTsoerg4PiTdHZNvYX8Qhz7xmvhc0eVE2SArdeeelXCp0NiwVGTBG0PKsL2rQqw1R0dNLvyB0tsHmJT1VGLTvk+Xz089u196O+9kjavnodyz5PvjgJoIVG1hCjiD2z098Ti6+eDS6K2MJAVkRH4OOne5qaX199bJupmTHabrLsV+ha36+2kenEpx2CLo/4IR+ctrpZzhfvu2Ji2ZWf0wZpO1NcPLkyXs47nA4Ra9evbOumekeT8nI9xo/dNoNGTJYfUU9SgXaL6Xt7TUO090Z2JrStNURMubKG+XpR+6VOTNfVye15ck7b0zVE0k4dD9d+rFeUbbp5/VyxjkXS//BZwhi45lOLy894aRr3LSVXD7uZpk5bbL0PLpvIAcUVqb9snG1rPzmS3nvnX6M5lwAAEAASURBVLdUHLat+pmIU243bNwg8+bOlgMbH6y2wzbWzrv/5m+Wmvvlyccff6wceMXl/idekiqqHQV993c5sGlbfRIbTt7DaXndVVzBLj1PiFEbfbZly++y6uvPdJux0hDtZ3rvnTflgEYH6TrhvMvP3ykVVBgBvBx9+slCuXDsNdrxCd3hBMThQ83adpJFiwpWgzVp1louv/5e9WwpyKdc8GJb7Q/r18is16bF1PmxWi1YvHgJ9exqIEVLlFIOyNiwBZSRbpjMPQCd0lXOvr/QB1hpt3+D+nL00b1l2LBhOi4QdaAetBPL23TmZxPEyhemGjWqq22zob9SUXwkIPssahDGoaMETrs8Fdh/8EkD5VR16FhejYLTL92e89k0FvEsSlfiQTPpkp8Ouey7qEK0GQ4g/O6dPXK4DPnHKYFWbqGcV5tw3+GDSK1atfWpp4jlOGfOm+rj/iF6PoMxnqjjDvUhwYF377/ulSAOPOwMwmm5fEfBymr853MB8ngdVQgd7cSVdueeO0qtUOzsOUdk/7BtJu52TZoXpBxbn3h46L80XsplGx1Go0GjAr1sGHX9vPS26bC5TQujbbbMdOHxxky66oyq3DD6LZ49w5ZPO+LQCnwdg/MO6ZFHHhMzeL0mpvnPs88+I8vUKX5IevuR+qKPE5zMySf1jRpkv0B3vNDji+PIEWfK8JFneU6i7TaYMiAnlYRJBpwKmEAVdoIOCPB7/vnnO8fNw0GRrY472NPuu6jg7GvYHGPwsMMOU06Ff6ivqL21kx755v1E/kxCjHM48PqffIYcdngHQfys1d+tcuI0Hd61t1611rXH0VKnQRO1rR/xZKD37tVqfvpiZdwZo8ZKj97H6a2sQZx+WNVWuUZd5SSsqLbZHiXF1Ql/TDgh968d2zSKlXdI9RseLFePf0zWfPulYMUbHGfUEW0EPvqq8bJxwzqpkVdLqubV0eOGPJABvjJlykqDRk31/wFDz4qpd+vmP8GmnWgaKsfkJVfeIscPGCxFS1eWOrVracckZaINxw48Xdod3ll2/ZUvebUb6C3JzNfCIE/JqX1AU6lTv5Ec0bVPTJ1mW6FbmM8l1h8ERuWeoh6mHeBQwOqmFv2bqi1HIz2ddixLiHbzmjCILaLEAzu8bsRwbdiwkXZeR0nHsHVhX0UNop15ar6BjwPnnTdKO5CrVKmqm28/523dweRG04VD/IMTmLdtK3h2Jiq2nNqO/cWKFTHFtmzZokOr4MTPVBJkr1geK/sPJRNhW5KRDXlr1qxNRaVAZfkciipEIy4dO1aFD2gWeKUdx2G8NmFcDx16straukqvFJ/0wkvSuXMXvZsgWccdDR7UgTdnzhzlNHxLF4PDa8SI4fqaerMdUYZQGAfbIOHD7iGHNJF/qsM7YAMktMXr2WG308ZRnm2nrHjQ5AVfkLR7VhaEOwAPG5HtkMaMGkQXmLaNun62vvFwtoU8xFOFpr0oOx3QT8901JmptiVaj58topbP9pUpU1r6qJNPn5v0orP67qabbpY777zLiYmFfkxX+vLLL2XMmDHO9q2xYy9RgfSPcKqj3ahv1CD1g8LnnHO23H33XZ4r7chrtoE0QqfhSV4sXPiBPkE0yeJpLdaiZWu55dZbPLcypLXykISbfQeRUcDNsdO7dy/p2/dYtSLoGOWoKeo6IYPeLEMIWiYS7KX+Sa36jfV/bJOFwx5bOPoef5I0OLBguzycUUEcb146Q07Q8tAJq9v+jhOurVRG4wV0s6+xRRaHT0BP20EGPK92ff0fxYGzrCkejrRqeTVNknMN+UhmOVw3alIQ5gAyzXqRV7JEsRj7mfmOYHVRvVoVE3Wu3drqZGbwgm2OCjTvkQMPPFCefuoJ18OGYCLymrq70TJozlCqQnsQ84kf+SD0oIMOcj4MhFJJBIWY/Qj1ooJDl8svG6tXJfk57UydMzUWcbhAWxXnN8yELZEtW7YMU6QjC7tO0iXbqSTFC/ZdVCEcP93+t001ESeQX3swfrENHE67JZ98pP/jg//77y+Q+++fEHM4Rbytsl7mj+fAu/Ci0bJy5Tdy/wMPOPXgsK8jjzzSeRZArnmPRRWHncupMBwIS3T7+PHO1mPoTv1pI/YJ6fFwM4/XfpByWV8QGHpEZiiJlO2QxowatO0adf1sfePhbAt5iKcCKSsT0E/PTOgQlXvPzxZRy2ffwH556gVy9MUX4lKnRx99VMUoe06wnTWdadOmn+XSSy+VnfkFK2sOPbSZ9B8wQH+1448/7UZ9owapHycutWvX1l+vqD/sR53JSxyQNMJU7V2sWMFJnanKCbM84kJhxR2CBHNyF6b8TMoy+w71RgHn2MGYe+SRR5Tzrp/WCzjzbF1JJ8ykDVEXHEvbt+fLooULnC2zFapg62mBMyxVvbwcV/HaiTrj/TfLgg91eOmJPP43y9nX8epzk+0nk/luZVm3X53xylJGOmEU7im0j3rQHrifsIWrYcOGut/N+8vmJQ7I8iYtnfZLl+z58xc4ogcOHCR1VUyrvT3ZfRYVHGMPYSfguMM1/jNRR7dx50ZjuRyMtgXYd1GFGHfmWOQ4BKTOpJk4r70geiWvZi25dMxovasA+DMqzM7o0Zc4DjU4pHCqbLLzSzrwGLoCHxNvG3+73HvPXYLFDDyADh+ghw8/w/kwCl2Q2K4oQ/QNPurOefNN/TsGe4NGu5u627R4uJnHaz/IugqsF+xv6M47PyWzIZ+GjCI07Rd1/TAETX2D4GgTyoTVtkTrT5U/nt6pys6m8vHsgHEQtXzYFjoBFlPbxPBQHzXqHKiq09lnn61iSUxKmwMPjrsxYy4VnJKGH0qka64ZJ/iqxX4HjXYjLUqQuhGaExc33clntoE0QpTb29JVV10pk6dMli5dumR908y+Q2OigHPsAHIMQi+T7qarnZ/pzvlr139k1tQXdbVHn3CylChZ2rFnpnXJ1RcdC0ThnoI13O4h8/4CD+8h6mzjpgzyEKJ8tqQtW7bKo4895qjbp8/Re/2WWTSWfRUlyDHGschOIZ262jjobjSWz8FoW4B9F1WYyLhjG8wxSZoNwYP/xx9/gvow2UeF0yjr7NRBjyFmNxx3nTp1SqkDbQfe5s2b5epx18hLLxXMURDLetgpQ7TTPF5boQTzowZpIDw7qBvtTRzQpsXDzTxe+0HWRX2CwNC3zUJJNjabIYxHg0YN0sZR04v6UL9kYVi2T7b+VMvF0z9V2dlSnmMhGyBtSl3Rf4hFdfWVV8qSpZ85W2NOP/0MRS+hV/JguXUYCXX++usv2nH31FNPOSLvuutOfcoRtvrhh4WJOlLnqEHo6aWjTbdxtsWUwXYnCxnrDhONKCRsn+nevYezlTgKOqWiA/ssahBtsscXcUJbZ9IJU7FLMmV/XLdKH5KDsjgQomiR0L+tJqNWrkwhW8Aep4WNwxy8R2xdbLqNkx8yeE0IWjYk/B7PnfuWs/oEOndVK12yMeh/ovZmX0UNoh22TvbYs3Hyu5VN1C5B+FOdgyCeHxwoZkpVJmWFLXvL5m3OR2jWETZkf0YVcnxRP+KEsAevbR7kkWZDlsGBW1dc8c+YdxSU6961s7RuXXDKN/BUEhx4d9x5h5x77nmCwzHMhFNvhw8fqUleOlLXbINolK2zSWN7yWPjJi+ume8FKQe8QVPozjsv5bKNTmPmYHLOWAzAZPs8LJsnW3+q5fz0T8U2qeqWifJ+7Y9aPm1CvYhXrV5DJj73jAwZOsxx4A0dOlTGqq2to9RpRAiEjzLJph078vUPIuJSzFQnNzHdcP11crpyFMJBSMcddSOkjlGC1I3Q1s2m2zj4SSOkTZKF+Pr43//+N9niuXI+FrD7OAo4xw4hdSJOSDoh6YQ+TQ81G9s7P1/2kRPvLq+ect6pGHC5lLMAx2cUIO8NQlsnm27j4HejZVMv//zjRrnr7nsclTEfQKiNfSHZ/R0F3Gs82XQbz+RYhJNt06ZNKQ2RiRMnqoMKhjoyEFZl2bKCg80cYpIXTz31pJ5zsji2Sy5ctJBowhCndU6Y8GDC5RIpwP6MKuS9Qf2Iu407k4fXXpBy8G6AsDST//28nKxOsuVW1gcmTJBNv2ySCy64UBo3bpyISWN4qSfGbqmSJWPyTjvtNLnjjttj3lHAQJ2pYzZCrzaQbkO73cyn/YJA2inGyD5I8m+eHoKhOFK2QxozB1U0bZUStUMq/Z9oXW78qdSP9qZS3k0f04apyE5Vt0yU92t/lPLNvoBeJg5b1apVWzvwsBSdafztt2uH3qRJk9RpXLFfQskTD+JHd+3atXKPih+BIMa24w5BYcuXL+847iDLtpmtZxRwPx2ZT11tHHTSCOPZMZdX+BZgX0YJcuwQUjfihKQTkk6YSevCUde2fSeZMXexvLngc316aibrz9UVXQtwfEYB8t4gtHWy6TYOfjdadK0fqxni3j72+OPOizJyR4wcqUNtxHLunZjd31HAvcaTTbfxbBuL+fkFJ2OmY2ThQ3K2JfZnVCHvDepH3G3cmTy89oKmHLxLIP7ds888ow9eQB9idwccp4MGnahidU9M+B2F9a5fv14fONejx1Gy6MNFzvAYMWKEdtwxviQyqBPLEs9G6NUG0m2INoLGtjKfdNiHNC/IsuANmkJ33nkpl010GjIHk3fEptrfqdo+1fpTLR9P/1RlR7l8vHbjoRS1/Hi2pK504CEGHk6CRMIpc/gK2qN7d8FXy++//855QGsGlz/4of3ggw/k1ltuVqv26sjll18Rw4WtsnDc4cRb6kUdbMj8KEE/HZlPnW0cdNIIYwyUQyJnAfZllCDHDiF1I05IOiHphJk2dtW8OlK3QWP9P9N15+qLrgU4PqMAeW8Q2jrZdBsHvxstutbfrRkcHK+88rKO+0TqQw89JPXr13faRPreCu3+jgLuNZ5suo1n81jcW8dXIu1if0YV8t6gfsTdxp3Jw2svaMqBvfBegRV4Tz35hI7TjRh4SNjmineUdu3ayYT775Mvv/zSea/QDC5/IGvZsmVy2223qoUF7fQhGBs2/KA5sQLv1ltvkVvU+4vpuEMmdaLOxLMVoh227mybDb34QLd5vXDKcOkST1Lo22ahHJXOZmgOSBo2BxNbhZfqWEi2D1KtN6zy8fQPq46oycmme8TPdmwL+hEOvFtvHS8dOnSUs846y4k9gi9SS8/6FCxSq3ZN6d27pyxf8YXG8efzzz/XP4SLF3+sA73S+ecwqIvevXrJNddeKy1btpIiKs4V6qVu1MGGzI8aRLuoq62bTbdx8psycJ1L0bUA+yxqEBazxxdxQltn0gmja/WcZvuSBexxWtg4bM97xNbFpts4+SGD14SgRTVhxd3DDz+oX2apI7aODRkyVJ+0SNreDtlXUYOwu62TPfZsnPxuZff2ftwb2sf+jCrk+KJ+xAnNcWfzII80G7K8CeF0QxgfnASLd5Rbb73NiVH3xRcrZPQllymJl0mlyhXVO0ovOaDB/lJNhQWqX7+efPfd97JO7QT6+puVMn36NNmZvwvVx8QsxOm1l182Vrp06aZXGaM+JFMH6In/Ni1bcbf2gWb2h1/bTF67rIlTDmhBU+jOu6DKRp2PxszBWGdCovbAQEy2rxOti/zJ1hd2OerjBVOxTdi6hiHPq51Rpfu12da7VKmSMmDAQGnSpIlMmTxZ7r7nHu3E4+mwq1atlMcfeyrmRw9fv64Z97VDIy/6HjFLRo++SHqrk22rVqkCkpOom60DceZHCVI3Qls3m27j4CeN0DFI7iKSFrD7OAo4xw4hdSJOSDoh6YSRNHhOqX3OAhyfUYC8NwhtnWy6jYPfjRblTsWqerwUP/roo46aLVq2VlvK7tYxnxziPnBh93cUcK/xZNNtPBvH4j4wxAI3kf0ZVch7g/oRdxt3Jg+vvaApB8Yycay6O/HEE/Vqu0nPT5RHHn1c1qxZ7bx/bNiwTZ6f+IJj42LFizjOOhDN9xPgBx10sFx00YVyXN9jBTHAkdz096KRPxsh7W/qThqhaXuTj3Ty+UHyQ0bQFPq2WSiJlO2QxszBxFbb2fZKZRzYsoLgqdQX9rj10zdKuobRdr/2Rik/iO1tfVGmWLGi0rRpU7l07GXyySefyJNqqfrAgYOc7bT2jx/satKw8g4HVEyd+qpMm/aq+qEdLNWrVQObTrZetg7Ebb4o4NSN0NbJpts4+EkjpF1yMJoWsPs4CjjHDiF1Ik5IOiHphNG0eE6rfc0CHJ9RgLw3CG2dbLqNg9+NFsU+hdNu3NVXq9/7Q+WZp//PUREr7l55+SWpWLGiQ9tXLuz+jgLuNZ5suo1n01jcV8ZXIu1kf0YV8t6gfsTdxp3Jw2svaMqBvdxwbOUffcml8sYbs/U7Cp5ZPJkY7yP8j9OLec33lLy8/fT2W7yjzJz5mpxyyjCprmisB3VSN9IA3Whe+mUD3a09pAGabfdqj8kPHi+cssATNOVW3qlOQDKNyoGYg6mtuqP9bPsmglNGUGj2YyL1pKucn95R0DGMtvu1M2r5Qdps68wy6DPEpWvQoIHUVMFisXLuxhtvkB9//FF95VqjAsT+KR999JEOFNupw+Fglzr16qnJfiXZb7/9pGrVqlKqVGknyDXksi7WQUi6DZkfJeinI/Ops42DThqhNl7uT2QtwL6MEuTYIaRuxAlJJySdMLJGzym2T1mA4zMKkPcGoa2TTbdx8LvRotCh2Br71VdfysKFC2XGjBny4YeL1cr6P50QGdARH95GnXee5NUoWIUSBb0zqYPd31HAvcaTTbfxKI/FTPZpNtbFvsw2CFvznqHuoPHaziPdhqYclrFhyZIlpFGjRno7bd++fVWM7ctl3bp1smHDBnlgwkM6bjcWE9xy640QJw0bNpRq1arr95NKlSpK2bLlY95RwGPrYdfJfPDaedmEsx2EZntIC9Ie8vpBykI9QVPozjs/JbMlHwakQXNwTwdnIvZJtc+D1pVqPekqH0//dNWZabnZdI8EtY3ZJrsM+xQ/kKVL19CT+QMOOEAtVz9Mfv3tVxX0dals2LhBOnftpn4UG4Fd/xBSDsvrDPWHdTGfkHQbMj9q0GyXrRvbQLqNk27KoH1yMJoWYJ9FDZpjiLpxvBGSTkg6YTQtntNqX7MAx2dUoNu9Rd1473jhpEMGrwkz1a+IQ/uhilW7Va06Ka22mc2Y8bp89tlnuvr8/Hz5Tf1+48RGM+Hl99xzR8kRR3Tc57bKmnZgX0UNQkdbp2wYi6Ztc9fBLcC+zTZoj1G02KYRR55X+8jjByGj4B2llD5kAu8o77//vnbcIQ+pRo086du3nxQvXtx5RwEddbN+4KyLeSaNeeQnnq2Q7SBMth0s7wcpHzYNmkJ33vkpmS35NGYOZs/qu6iOLb8xhJs1qroH0cuvfVHLT6ZN8cowD/1YokRx+fqrr2TevPny7ber5J2335JDDjnE6V8GegUvkm0bygK082wc5U3+KOBeOtp0G6fubnTk5VI0LRC18ed231BHe2yRTmjnR9PiOa32NQtwfEYB2veIrRPzSbdx0N1omezTK664QubPn69eVkvoanmaoq0DVqWc0P949WJ7rBx55JFqlX1NrbvNty/h7NcoQa/xZNNtPApjcV8aO2G3lf2ZbRB2iDf2eG/5tYtyvCDLQx7+Fy1aVK8inj5tGorohK2yN9xwoxx//AnOKjuvdxRTZ1M2BLnlkZ5tkG2zYTLtsGV44bBfoikX807t1UaCUU1IY+ZgaqvuaD/bvonglBEPJiLP7OdMlIund6Z1SUd9fu2LUn7Q/jZ1DloGP447duQLfhxxUAXiSUybPkM2rF/nvLDY9jfr8cuLx2uXLSzcS0ebbuO0sU1HO3IpuhZgv0UJ2mOIunnRvfLdrP7TH1vcyDlazgJpswDHZxRg0HuIupKfOKAbLW3GcxG8ZMlSvbIOTjvbcYdDpEaMGCF33XWnvPjSJLn99vE6AHzt2rWddwQXkfsMyexHNDoKuNd4suk2HoWxuM8MnDQ0lP2ZbZD3DPUmbkPme0Gb38ZZDnT8B/7pp5/KhAcfjOkNnEY7Z84bOt8sAyaWs6/B51WfmwyWzwZI/W1otzcIbsvwwikL9gmacivv/ufxNI0KQwLPwXDtgEFp2jkR3K8vkpWbqXJ++idii0zpHKQev3ZFLT+ZNgUpg/5Dmj//PZn95lsFiPq7ZOkymTJlioqTc75DM+XZ9jHzUMDOt3Hw2GUKG7d1DIq7tRe0XIquBQp7rLnVb4838njRvfLdrL7p151u5BwtZ4G0WYDjMwow6D1EXclPHNCNljbjuQg+99xzZPXq1TqnSuUqUqlyJSlRrJjU2K+m1FOxafPy8nTsJ6yiz6VYC5j9iJwo4F7jyabbeBTGYqx1c1hQC7Av9xaIdpv3UtB22eVMnDIgFwsLNm36WS8swKICJBxMwY8XV155tXTqdKSUL19e6+GmC2mmXNZHmg2Zny3Q1t/GE22HXd4Lp20hP2gK3XnnpVy20WFAGjQHw1t9B1smOxa8+iRZeZku56U/6JnWJaz6suneCNpms01By+DHEcvNp0+fLks++QhdqhN+HLH6rv+gE3VcPC5Jp9wgdUGQyWfilBM1aOropbtNZxvMsrjOpehagH0WNQiLcXxRN+KEpBOSbsMqFUvGdMD2HTulZIliMbQckrNAMhZQPxuSv+0v2b5jly5etnQJqVCyiDN2QeT4jAqETrxHbJ1suo2T361doGUiDR8+XHb+VWDvMqXLqMOjSuqX20zUne11sP+iBmFXWyd77Nk4+d3KZns/7e36sy/3FsixSBi0XeT3ghzbgEvVQoLHHn9cD42yKtbntddeI+PH3y6rVq3UO4UWLvxAunfvEeg+suvz0tfmizru1Q7SE9Wf5fwg5erOCfgn9G2zfkpmSz6MiZSD4dkh1b736otU5WaqvJf+oGdKhzDrideeKN47QdputylIGf2gUH/effddeXvuu0QdqFffvfhvB8cF5Aaty+Yz8aD6ZZLP1A9tDYq72QTlcym6FsjkuIIVgtRnjzeW8aJ75YMf/+FMKV9m9yocfrmObq/kNMsWC+Tn/1d++f1PR90K5UpqZ5JDUBccn1GAQe8h6kp+4oBuNLO96b6uUqWq/pCGE2PLlSubc9wlYHCzH1EsCrjXeLLpNh6FsZiA6XOslgXYn3sDNO+jRNpjloN5TNyUg1V3s2bO1OECEMuzd++j5ZRThsnIkcMdq467+hr5/fffHJyyKAe4ec36SHODlJEN0E1/tNGkJ9oOs6wty8QpF7SgKXTnXVBlo85HY+ZgOKvuaMdU+p0yTJiKPNwkmSxv6o26bTyTuoTRdlv/KONBbWu2IWgZ8Nmr7lq0bC29e/WCmfXS9BenvKyXrWOFHlPQukw+lLXxRPRE+XTz2/oFwamTzQt9cym6FmC/RQnaY4i6edG98slfpEgRqVG5lNMJn321zrnOXeQskKwFihYtImt/2CSbt++QfLUSrLjCK5UW7Uzi2OPYjAqkXoS2XjbdxsHvRkvWhrlymbWA3d9RwL3Gk0238dxYzOzYCbs29ufeAnkvJdoelrMh5JC2ePFieebZ/9NdUKZsKTnnnLOldOlSMmDAQKlTp66mL1IncIPPLIfy1Me+RiGTRj4bUoeoQ1tvLzyRdnjJsOmUqTsi4J/QnXe2UtmI05A5GN6qu6A3ut94sfvEjz9q+bb+Jh41XePpY+rNvo0yjNcW6I18u01ByrDNWHX35ptzgErlypXlwgvOlUvHjnV+GJctXSovvTRZ5+NPonXZ/CYeVM9M8Jl6ubXTK5+62fmOwXIXkbQA+y1K0B5D1M2Ljnw7jziMDudd6wOrawcL8C/X/SE/b/rVKQNaLuUskIgFML7+Ug67r1atky1bCz6Q1tuvrOxXvUKMGI7dqEDeF4S2Xjbdxs17zS4b0/AcEkkL2H0WBdxtjMF4Nt3Gc2MxkkMskFLsy70JmuMxkXZ53YO8B/Squ1mz9SICrLrr0KGDPj0b5erXry8jR5zp2PzW28aruc0mBzd1Yj3QjdeE8fQlT5RhPP1pR8JE2hFULmU6hg9wEbrzLqiyUeajIXMw3FV3tGcqfU8ZgKnI4Y2YaWjqj7ptPFvaZOsdZTyoTc02BC0DPpSbPPkl+erLr9Gl0rNnL+nbt6+0b3+4nDz4JE375ZdfZNILL+jVdyyDDNbpVx/5vKBf+Uzle+kXj27qZvNp4+X+RNYCZt9BySjg9hiiTl505Nt5Jl6kyN/lwLoVZL9qBbHvEJ/svaXf6VVTcMBgBRVk8H9kOyunWKFYgOMCEGMF/7ds/lM+/mK9dgT/sSVf63VI/apSvUJJZyyCiDJRguZ94aYX86m3jYPuRtONzP2JvAXYr1GCXuPJptt4to3F4sVLxIyPIkXDi7uabYezsC9zsOAd3e1+JA2r6bhwoFLlinLRRRfFrO4+ZdgwZ5HB3LfflqVLPpGdO/9yfntoY8qzcfM+Yp4NWTaq0NbXDw/aDj85zKe8mBvcB9m9h8uHMWg2lcl2CGOiDTmYHjtgPCU7RtgnyZYv7HLU3wumYptMtM1L76jSg9jE1j1IGfQTys2bN0/9ny878rcJAsF26dJZEFcHqWOnjjpILJx3XH131llnOWOf9carjzx+EPXFk5PufD/9vPJNnW0e6GymXbsKAo2btNx1ei1QvPjueG92TWbfIS8KuD2GqJMX3Svf5M+rVEY6N6sjU95ZpU3w9Zrf1XbHL6Vh/TypW6WClCpT4NgrVayoFFXOvlzKWYAW+GvXTtmmXoaQtm3ZLlu2bJZ1G3+Xpat+JYs0qlNBmtSvoLcyIQQDxx7HZlQg9SK09bLpNg5+N5pjiNxFpC1g93cUcK/xZNNtPJNjMT8/X33gnSw7duxIqn9LlCgh8+e/F1N2088/ybRpU+XPPwtOD43JTABB3Md33nk3pgRWXyUrG/KWr/giRl6qSH5+rN3YlzlY8H7udh/yhNlZatXdmjWrdRe0bdvGWXUHAuyHbbOnnTpMbrjxRs1zz933SPNDD5W8mrX0fI42Nu8X0lCAdZPmBU1elokC9NLXjx6kPX4ymE87QGbQFLrzjspkO6QxczB9q+9g22wfJ8nqjxvUa2wlKzNT5bz0jiI9qE1M3YOWAR/SpEnPO6vuBg4cKMf1PVbT8eeII46Qc0eN0j+McOA98+xzctJJJ+1xJLtfnZBl6uiG+8lId76ffm75tk42D9q5M3+3w+7PP3cHd0deLqXfAivURNzsA7NGu/+igkNHjiXqRJyQdELSveCRzWvKxk1b5aOvf9Im2PTrTvnhp+/0YRaIiVeqeFF12EApKV6qqBT/u7fD07Rf7nrvt0D+9q3y++ZtuqE//bFFjZnt+hox7hDrDo67vkc0kLo1KjhjlmOQYzMqkHoR2nrZdBsnPwzAa0LQdu7cCaDT1q1beJmDGbLAqpUrZbNaFeqV2FdRg9DX1skeezZOfreyxdRHmDATDjnC3DDMBIdMv37HhSnSkYUTSNMl26kkgYty5cqL2SfsyxzcvfIOtjDHNMyLVXevvjpVWxpOunPPHaVX3eEDERLtN+zUU+XRxx7XW2tnzpolH370kRxdvUaMPFM2y5FGaMokDyF5ogapX6IwaDvi2YR1UhZ4g6Zwn1CqViqTzZCGzMH0rLqjXTFIs3mcpKI/beAFU5GdTpt66RtVehBb2LoHKYP+QbkPPvhA3nprrl51h3gS7du311+s+OOIFXgdOnbQK/Iwgftixefyyisvy2mnna7HPuv2q5N8frCwxo2fXl75drttPuTXql1TH2ePtv3ww3p9OIh58AfouZQ+C+gVA2pVKRO2kTLZ/RcF3G0MQV8vOnW2893w/p0bSPFiRWTZdz8KnHdwwGDbI7c+0i45mLOAlwUwZpBKligiiHM3qMsB2nEHmj0WiUcF2veErRfzSbdx0N1oaDtStWrV9Askrn/44Yfcsx6GyGCaOm26ct4VrOQqUayYive5+1kPNdivUYJe48mm23i8sVitWo2YD1bbtu3+/QvSHaYTOgj/3s6zXR3Kk0ji/Jllqlevrp8bpLMvc9B95R1X3U2dOtWZO7do0Vy6d+/h3MO0LWDDhg1l2Cn/kPG3367Jjz76mLRs2Upq167t8POet22OAl558XhZpjChrV+iuNl2t3YElcey2vgB/4TuvAuqbNT5/Doll7/7huXASxRGfQykW794YyjddScrP9E+Lkz+oG00dQxaBnxITzzxhHy76jt9ffKQk6RPnz762vzTpk0buVjFmcCydKy+e/SxJ9UpT4OkTJnSgX/0TB0h2wtPRH/ICIvfS594dK+6zfbheuCA/nLvvfdrB+kmtZ1j167/qK+HyMmldFtgx458MWPtYEsMxz7q9urDwqZDN4496kKckHRC0uNBfP0f0LWRHLyqosxftl7W/ooX3WLOoQOoN5dyFvCyQJnSBb8bZUuWEMS469K8hrNVlmU4HoHzOirQvjdsvZhPuo2T7tY20Hr06C7ffrtKO5C2KidSfv5OvVIEebmUfgsUUw47poqVq8TExgKd/Rc16KabPfZsnG1wK4uTOKvXqOZsN1ypViQ2bdo08FjEoWV5efs5jmjUsa8mfNRu0aJZQs1ft26tuvd3O/zMcQlB7Msc9F55t2DBAr2wAPY66KCDnVh3wDH27XT+BRfI85Ne0GN+2rRpMmLEcDWG8/a4522b8z4ihFybhzh5ogKpV7LQrx1B5VKO3Sfx8NBfgYIqG3U+GjMHc6vv0jVW/cZWvIdgunSKJ9dP36jlx2sLbWvrHKQMyqIcVt3NmfOWdiqB1rnzkTFfqkDDl0KsvuvStasTU2LZ0k90PJEhQ4Z4/siZetg6+uGo1yyfbtxPH698Nx1tXuher24dAJ1WLF8h27ZtlWwLsEz9sw2uWLE8ZhK933419djnF3C3PkQbC5NujyHq4kVHvp3nhYMX/5s0qKb/I97Qqg1bZOvWbbL+l91b/rKtn3P6pt8CpUoWkxoVi0mViqWldrVyjmOE9xLHnDkecY0UFUgdCW29bLqNx2sb2tms2aHqY0HBlvMlyz6VP377RTk3ayErl9JsgS+//FLFYyzYqtygwQEqFlbB7268PrP7vzBwtzEGU9l0G/drF+KAjR9/p57fbVQr/oM6kiG3RYsW8uGHi6Rt23ZSsWLFNPdcdMVjPF188YXq/2j9DEMfBElffLE7Zt7AgYNkv/3yYoqxL3Nwz5V3WHX322+/qXeM6fLFFyu03cqXKydwKH/++ecxdjQRxFU87LDD5MeNP+kxP3HiJPU8bib16tXXfWfeL7bdIYf3vp1n4yYvyxQGtPVKFo/XnqAy2X7ICppCd94FVTbqfDRmDqZ38hj1cZBu/XCjeo2xdNedqHwvPaNID9o2U/egZcCHhFV3P/64UV+PGnWO9O7ZU18jnzyaoP60atVKbrj+Orl63DV6VcG999yrTqTtp2JkFQS696sbckxd4+F+ssLOD6qXyeelg8mDNiK1atNWihUvoiYUIq/PnCVnnHnmPj0hLrBKZv4ueG+eemkpOA1zxIgR+kusWbNXPxY2HTpyLFEX4oSkE5plyGND8tLhgtWzzRuVNU2Su85ZIK4FOKY4hsDMceV1zfzChtSd0NbHpts4+c12mrQWLVo6K33xYeyMM87QYSjAn0vptcD77y9QL/0Fh6gceWQnqWt8NPPqR/ZdYUNYxtbB1tnGye9WFrSDDj7YmXfMm/++9O/fP5AjGXKRsOUQYT5yqeC3mHYJYo9JagXYlv/FCW3erKkOO2OWY1/m4J4r72CnefPeVYsLFjomW6QcyS1btnTwIBeI5T1w4ACpVau2c2952Zv3EiHkB+VlmUxDL/0SpfvpHc8WrIsygvQLeUJ33lGZbIY0ZA6md9Ud7RtkcGfzeIrXPtrAC8Yrm0mbeOkXVXoQ29i6BymD/kA5BIKdqRxJjA+DmBHF1JerDRsLnHngM1MxFefo4CaHOKTlakUTTvMaPHiw/pHzq9vW1Q9HRX4yw8j308Mr36tumx98zZo1V5O3ctrWn366TF57bYY+IQtbW3IpfRbAqrLnJr3ojPHWrVtLhQoVnXGFmr36sbDp9jjywtkGr3ybznaRDpy09PVETvLeagFzHJnXaC9xXHOMFSakPjakfjbdxskHyDyThrZhayLj3iFoPhxKiL2UW2kNS6UvITzCC8phgrAeSFgBWblyVWfcsb8Kc/xBL7f6vXSz6TYOWW401IPUrl07ZxUoHBlDhgyWvuoEzlxK3AKwc9CE1WHPT3zB2dHSXK1itOcd7LccjF15B3tg1d2UKS8L5sqpppdemixt2rR2Vt9BnpfNkcf704uHdJOXZTIJqUdY0Ks9QeWz7ZATNAW/owJKhLJI2QxpyBxM76o72jebx0qqY5028IJRsY2XflGkB7WZqXvQMuR75JFH5NdfCya6GAOjR18iVatWk/1UjAi3/8gzTxuD0w+r77Zs2YriOlG2GzR1BbMf7iYD5cKm++nhlh9PB5sfvHDSjR07xvn6+uSTT8uyZUvRnFxKkwWwKujee+6Sjz5crGtAzJSOHTsKYt6xj+L1IwoVZj519IPU0Y8P+eQFJL9JK+w25+ov3DGXjP3NcWVeR3GMcczbkPeATbdx8nm1DfzY8oUTEbHFC+mRRx6TuXPf0te5P+mzwIQJ98t78+frCrBlto1a7W4+69mXZh+COQq4l2423ca9xiHaBV58kB0wYIAgZhsSgvh/8803+jr3Jz0W0POOe+91hCPcDLZu4rlg9h+vc3D3yjsabeHCD+Srr1fqcVu2bFk9b7YheQntfOJwWi9e/JFm473uZXPmm/dVEF4IN8tmAvfSK1m6l/5B5bG8NnTAP3/7r0oBeR02fJFfvfp7fax7qVKl9CqIkioALxV1GLP4ggMwBzO3+i6Lh0tKqvuNsZSEh1DYT7+o5Qdpsq1zkDLgwSRiyZIl0q/fcU4w46BlbT5MCp+b+Kwcd9xxdpYrbuvsh7sKCZHoV79XfjwV7DLgBe3HDT9Iy9ZtnQDQmNTdPn68esloE09cLi8JC2ACfd99/9IOaRZ/QOGnnHp6zCErzIsqtMdSqrjZTsoyabnrnAUSsYA5hsxrU4YX3eTJxDX1SBWaulKWTcNHsa5duzsrR9qpuGG33HqLdOvWzWTNXadoAbyvoQ8efvhhGTNmjLPCGuE9zhk1SsfqxW8BkltfpVh9aMW9dLPpNu7VLvIBrlixQh2icpQz70DoiCuv/KdeiRRaA3KCtO8AH7KfffpJOff8CxyLTJ36qvTs2VtwUJTpXzD7iON4X4aOwdQFbIP/XgmxLQ866KCY7F27dnmWgV1pez+7m0IT4TXLpfvaT69k8930DiqLZcGP378NGzY6/rWaarUvPqTYybuHbc6AOCpHynbIwZqDudV36R7PfmOssO8lP/2ilB/UVqbOQcuQb8KECTqoq37QpfBnR/42GX/beHUAw3ZHCutwg6bOKOCHu8lAubDofvW75fvVbZcBP2h56gfskUceclZkzH37bRkx8mx56qkn9TYBtCuXUrMA7IwtK2PHjo1x3PXt21f6DzoxZiWGXz9GId8eS6ngdnsoy6bn8L1j/peJfsQYYj3mNWmAURln1CNV6Nc2yMcBT/fcc7dgBRgS4jWde+55MuH++2TTpp9Te8jlSjsWWLVqlYy7+mq58IKLHcdd7169ZPDJQ2IcdyjAfjf7D/Qo4F662XQb97q/yIf2HXLIIXLttdc4845HH31UTjv9DB3yBFuNcyl1C8DeH3/8sQwdOiTGcXf1VVdJp05HxjjuON7YRzkYu/KOYxpOd7f/6C065M2egx3d+EFDXlC7k496oA6vPjJ5wZcp3EufVOlu+geVybKwQ9CUW3nnYikYEkbPwczawaUr9hmS31grLEP46RW1/CB2snUOUsbk2bXrP4IvVW4JWzwxIb7hxht1Nk7KevHFf+vTKN34ixQpIkWKBP+GYuvuh7vVGQbNr16vfL+67XImP1Y9Tpw4Uc4//3wnNg/y8ZJ33HH91GqNLnoVeKVK++7pbqa9glzv3PmX/Pzzz/pUMsRJmTZtWkwxjN877hivgxbHZGQJYo+nZHGzubYMMy93nbNAohbgePIq55fvVS4sOusPC5p6UaZJwzWe9YgJe9FFowWx75jq1KmrDnrqo1bhdVern+qp+HhVmZWDPhbgsx5Ou5dffkWmTZ3uxBVDUTju7rjzTjlYHdTAl072D6FPFYWS7aWbTbdxKOtHY/71110nd99zj+PkRNkWLVtL3z5HC2KyHXDAAZKbd8AqwRLG4sqV38jKr7+WmbPf2GPegQ+GWP2P+51j0ZTMfsnB3R94gtgHz1V8oP1/9q4DXqoa6x/pDxDpIE2KIEXAQhMsgItYAAu6FAuu4q6Ku4p9V7CBZa3wrWB3EQvYUEQRVCwgqIDSe++PjgLS3S//DP8hk3fbzNx5b55Mfr835yY5OS25ebkpJ/AtaoYDBw7oqJs9kemWZ6ebdO08O27i5sazzT/suK1DUPosB/ygO+9Cn7wLKmy649GYGZh7Fkj3NpFq+bwsnWrebvS9ZEq3PDcd7HRTbjsvSNwsbz+jvDl51717Dxkx4m3HAQjLxrNQwDJBYRB94uFPekH5m3gs6wfdyjD9iy8+lxtu+FvMsWX6pcGttJkQvwUO7D8U8yEHCtdee60MGDAg5oZZv7pLt/z4LZGzhK2TjWHnZ+K5u+iX3+2N9uSnQxAcPxqJ5tvtPdm4LYebbkifrPywYded6Xw909cnVwNOfT2Og2LHdc2aNaPEWU/RBPXAtHSDkNGWiXIz3Y6b6XwmtOnt3btPPvroQ7njjjujR2iBk2mLtGpi0KktPq6OyPfu3VtfUgGqrBMbJsbxj1kqqG38Ju/crEP6bvlmOnEJzTz7mTi5BW3+YcdtPYLSN8vl2eRdUGHTHc80ZiIft5nyiQ3g071dpFI+vzaTSt5OtP3kSbd8Jx3sNFtmOz/ZOP45Ok3eOW1Vj5eXLXvQeLx8/PCD8rXx/Ogi368M89etWytfq6Oz99//YMwkXhAeGRxvC2C3Xe/e10nLlq2il4R4l0jPXLaVZKGpnRstEyfznLFAUAuwPfnhB8XzoxNvPvmGDU05SNtMwzPT0dfjZvdB6oKnhQsX2GiZeBIWwA6nXr16Sdu250QnS0xyrANCMy9dnt1ks9PtOOSPJw27xZYuXSIfjvpAhgx9IWYSL11skZ/lwATy1VdfLaeccmog37qsuwzMufvOzSZ+k3du5diu3PLtdOID2nl23MRN5bPNN1VxU4egPFgG+Hk2eRdU2HTHozEzMHctkO7tItXyeVk71bxt+l6ypFueLbtb3JTbDSeZdJT1mrxLhrbT8QFTH7fnZHna5d34eKXbNNziNg0bD/lIQ8Bq+ObNG9UH3UKZP3++vglu/oKF8v3kH3LsItMFMj85LICdA9f0ukpP0jVp0lgd/zlRGjZsoOKlcviayY+LWDkUjjPBqf05kbDxMvHEFu+ONruhLQXVOR7coDT98JzaehhpNl8n3ZgGiL5+/fp1+qgd+/rly5brG1Jxc3smBLMAdlPDtUfz5s11X1+3Xj0pU7pMtK93qheTsp2fLnHIaMtCuZlux810PhM60WMefBSjLS5evEiPO1avXi0Yd0yfNi3mWC35ZWBOCzRu3ERatWoplStVktp1aqtjnI2lVq2aegKZdvaDOake3Sm2vZys4Td551QGaaTtlm+nE5/QzjfjxEk1NHmm8tnWIwgvs0yeTd4FETTdcUxD5scPlvwuf7q3j1TK51d3qeRt0vaTI93yTdndnm2Z3fCSSU/lzjvIZesQNJ6MTmbZoPxsPJOG17NXOeaxPOL4w65GfMAdOhSBu3bt1jc1ES8D3S1QuHBhKVe+vBQuVFCyskpIkSKFtb8p/N9LdLLYnVvu57DNJApNif1omLiZ54wF/CzA9uSHx/x48VkuUUh+qYKmXOTBNKc48tAnYfJk//69Gu7evVvBPSyWgR4WiLevZx3Y0INFnmVRRgrAuBskHiBxmGbHmU6IfPzhwoo9e37LjDtomIAQ7bBo0aJS8thjo+OOYsWKRushyLiDdZSBsYtkrAI3uwSZvHMrG286ZQH0K2vipuLZj3/Y+dQhKF0TP+jkXSEWCgsGFTbd8WAPdiIZmDs3ztLO6d42Ui2fV9tLNW/SZ13kB0iZ/aCpix9uovl+/WiidFnO1MGrndh4LJ8stOkGicfL09TLLos8poE3/hAvVaqUhripMBMSswDrkke8aef8DmEN6hYPtPX2K2vjZ+KxHxYZe8TaA+0pXpugLcdbJlF8v/aebL4tl6kbaRMHebRXiRLF9c3XSMuExCxA+/r19aBOXELWSbpByEqZKKsbJB6hU1nm2RC4sFvhwoXUX2bcAXskE1BH/AMd295uceC61e/Rmk5buekPm/kFt7LxplMWQvB1o0GcVEE3vqlKpx5B6RPfr27M/NAn74IKm+54NGYGxg44c8seXi96uredZOXzs3GqbePHP93yg9jbljlImUTsbHauTs/J8LV1iDeeiD6mvPHyI75JI4gMLEfIMoyTnh1nupPdM2nBLeBmV9o3v0HqEy809Qxalm01A90H6qZdj1Y7sT3FawuWS7XdyCfV0NSDvJDGZz/7ADcTEreAn52Zb0Nw9Kub3M63ZfSLmzq44Zo4fvoANxPitwBsj8A68LMz84mfgbHf6KYtbdtoQ3v82PjJxsEqaH2ZuCwTBkxWh0TLQ5+gZaknygQNkbcmKHYAPAiLkN8hjZmBubvrjvbO7+0nGflpAzeYDO0g76Yb33RMD2oLU/agZeLF0x2fz0+8NE18UwewiTdu0kL5eOPx8gN+vDyAb/MhDaa7xZmegcn9D7btnN/tSX3igbbOQcva5TLx5NriH9V+aE+J6MZ2mEjZePp88kk1NPUgL6Th2cyLR/ZMueDvnGlzJxsz34bpaGNbRr+4qYMbronjZJ9MfvC25mY/0/bx2NMsB9qZeORbHTZ0swXs5BXcyiWabtanHw0TFzKGFffjm6p8r3qweVJXr7qx8yJvnp2aRNwWKj/GacgMTL5jRlNKxI75sd1A17Dk9rJZWDyc6HjxTbQuU1nOSQe7HmydgpSxaQSJA8cvJMvb1iWeeDK84+EDGxA/UZ4sDwgadjwMHonK9kcu52Tn/KyvqY/ZZvzSTZ39cM18sxz4ZeJ5s/iXznZne0lURpRPtGyQcpQvN6AtT6p1y7yTOfskN5t71b9db+kS95LZ7v9tmZ3K2jiZeGr6c9o+XvuyXAYe+VaHDd3sgXfAL7iVTSTdrk8vGjZuWHEvnrBFqvK96sHmSV396sbMD33yzhYqP8ZpyAxMTUcd1K75se2E1Rn42ShVtvHjm075QW1gyhy0TKJ4Zufq9JwoXZYzdQH9eOOkEy+Mlw/w4+Vh4vvxA26yPGA/k2cmnrM95Xf7+LUjp3xbZycctBW3dLt8Jn7kwyLzjkXaTTJtgu0uGRpe9UD6uQVNPcjTTPOSNYOX/LvlZnOmu8F0tL2brG7ppg5BcDJtMTVjJtjerIugdnars0y687c77OoXwradWa9+tE1cyBlG3I9nKvIpd1DaxPerGzM/9Mm7oMKmOx6NmYHJDw4SfQnTvY2kWj6vtpcK3l78Eq3DVJYLYgNbpyBlIHOieCjrFRKli3K2LonEE+GfCB/YIBFeZjkvvsnSzpTPObhzsnd+tpOTPmhffummzn64TvlmebM9Z9JztrmjzT5sL8m2BdBJloZTecqXm9CWI1W6HW1tLR59bZsHqX+73tIlHkR22MbWmWk2TBe9MnLk/P8RT13b9Xo0xqGzV0iFPe1268XDxg0r7sUT9gg7n3IHpUt8r7qx80KfvAsqbLrj0ZgZmLPDRCPKLbukeztJpXx+Ng6btx+/dMoPqrspc9AyieLZnatTPFHaKGfqksw7GK8MifCNl4cTvh9fpzKwSyY9sQUXN3vnV3u66eOVbuvqhev1Dtp0MvHE2uQfzW5oT2HoxHYZBi2zzyTd3IamHuRtppkyZtLDf5dsmzPuB9OxLvxktvNNHew8xk2cTFtMnzEW6ycDg32no+16hVTZ0Xx//HiYuJA1jLgfzzDzTXmD0mUZr7qx80KfvAsqbDrj0ZAZGP4gId6XMZ3bCXRJtXxebTBM3l584q2z3MAPorutU5AyydQpyvqFZGWwdUokHo8MidCHDeLh4YXvxT8sHhk63hMK+dE+Xu0G7c0t39TVDSdIuknHq31n8IJ9dPwR7MR2E5YuoBcWLdChfHkBbT3C1i3zDvr/T6bN46l/u97SJZ6MDk5l00WvjByx/y+c6srr//vRjg/b+IVU2Mhut148bNyw4l48YZOw8k15g9JkGb+6MfNDn7wLKmw649GQGRjbUeaVPdK5rYT50jvp6WdzpzKJyOTHJ53yg+psyhy0TLJ4Zufq9JwsfVMn0E80HlSOROgHpR0Ez49/EBqwUwbPeyHmj2ZnP32c8u024oQTzztn08vEvdvgH90+aE9h6sj2GRZN0ssraOpBGcy0TD+e2v9jtHm8MB3rKBkd3Mrmpp6FChUSvz/Kw/fCD594eQUhbxAZ/XCc9CZtQuiI4FaXuZUOGaAP5QoKUQ4hbDkjVL1/w+ZJetAdAZBpbtDEZZlkoRuvMNNtuYPSZjnoGDQUCooYFC+osOmMx8aVlxD2ho3yUoZ04k97HI3Qrw0kaxM/+umWH6TvsGUOUiZZO6K8X0hGDlunZOOQ1UueROl70fTj6ZTvJ4dTmbBl+CPT87Mv8/OLnSlvvNCs43jLuuHnF5tl5PTuC5O1D9uH2caSpYnypJssLdLJa2jqQVnMtLDtl6EXu0BPm8cL07GOktHBrWxu6Aneq1atlNWr18iOHdtl585dUrRoUbCWffv26ec6depI9erVpEyZsnoM9+uvv8rChQtl+fLlUVzilytXVpqecqqUL1fOc7wH/FS9D6B94MBBWblyhcydOzeqB9KhU+XKlaVGjRpSs2ZNWbp0qWzZskXWrVuHbB2Ac+yxJaVevZOU3jWkWLGiml529lqZN2+ubN26TetNvLPOOltKlSql9XGry9xI37t3n6xYsVzWrl0ju3btpjpRnfbv36efixQpquU/4YQTpFqV46V8xUp60u/gwYM6PyxZYwRwiITFx40OWLKNueEw3cRlmWQhaacK2vIF5cNyDlXimhT65F1QYdMdLxUNhxXkBsETs/QIfGndcI+29HRvL6mWD23Crc6T5e1GNx3Tg+pqyh60TLJ4qCO/EAYPUzfwSzTuJ0sidP1oJprvpWeiNDPlIiugQes5v9grqD4mnq2bmefV9vzwbLqZeKTNHW12YDsJW++w6JJOXkPbPnj37LRMPLXvUCL9XbrWSTy62Do4lbVxUhEHX0zETf5uskyaPFm++fprJOlQtEiWnNGmlXTv1k1Kliwp5cqV1+O/X37ZId9++4289NIragJvGdGlbNmy0qVLF6lUqbKevEuFvOgz/OhCoP379+uJu+eGDInRqXLl4+Waq6+SM886U0/eLVu2VGbOnCmDBv2fZGdviOrSuXNnueGG3kqXSlK8eJYcOnRITYytkJEj35ERb78j+/bv0bjAa9KkiZQuXVrbJq/6tIjO+2TWrFkyefJ3Mnz4G2oCb1dUH0xCQkaE3bt3S5EiRaRu3RP1pGybNmfK2WefLdWqVQtVhyhzl4dU28puJxDDjaeNG1bci6ebLEHS3eQLwo9lgRs0HPM/FYIiEw8rAatXr1Iz3wckKysrOhNOBYmXnyGNmZtw+/Ztsn37Dr3qANvWrVdPKquOihN5uSkL6jLd+OXn9pSs7H51kSh9P7rplh9ET1vmIGW2iTeUAABAAElEQVTCwsHk+/39+8uAgQM1ye7de8iIEW9H3+Fk+di6JRt3kydRum70kk33kydZ+kdreT+72vnpbidb3qBxU6+gZYLimbQzz0efBex2EpYFwqRr08qruGkbymCmZZ5TbwHaPV6Yesni55CMDm5l45ci/hLcxIFJrL63364nuzARd/fdd8k999wbJchvQ+Jj11rdunWj+RMmTJD27dvrOHGjmbn0YNoRz1u3bpFbbvmHmnQboScgX3zxRenZs2dURuoybNh/5Y477pRt27bJzTffJI888mjMhBxo4Q9h4ICHpf/9D8iAhx+Sfv3vj9LCg8k/N79ryZsyXnHFn+X999/TsmGC8bHHHpNGjRrpOGyyYsVKee/dd+WJJ5/Uaddee63ceuutcvLJJ4emA2w7b948TVMzOfyD+QaGVNuLfAD9eJm4YT378Uw030m+oLRYFviYB8rO3hidX6tSparedUocwkjLZywECOYI+R1yIjK3IOw1a9Zsefmll+SMM86QRx95RH7ZsSOmRnJLlnTlk9/bVDLy+9VJorT96KZTflAdTZmDlgkLL+aFdYgky8fUDeSTjbvJkyhdN3rJpvvJkyz9o7W8n13t/HS3ky1vkLitU5Ay8bx7Nv1M/I8xRgxaj3Z7ClrODy9MujatvIqbOlMGMw3vXSae2veHdo8XpmO9JKODW9lU64k2zom2jRuzZeuWrUiSJk2bSqdOnfUz8omDBMY3bDiyU61F8xZy2mmnRfHxkGrZneibdsRzkSLFpEWLZlou7DbDcVikUx/COnVOVLiR48JFixaTvb9Fjp2a9EBk7dq1smz5CoG+3XscmQTUDNSPjZ9bcfAHL/z99tse2bXzV4okp6i6xMQd87GDslmzZvLwgIHyzDNPC3ZYDhs2THoofVauXBktl6zsUUIeD8ny8CtvtpF4cCGyWTbRuB/PRPLd5ApKi+U9qiVHVuiTd0GFTXc8GjO3IDqs9mqFpP257fVWZ2z7xfZghtySI535pHubSbV8XnWTCG8vemh36ZYfREdb5iBloGtYeKDlFZLhY+sWRtxNnkRpu9FLJj2ILMnQR30djeWD2BW2MfHS2U6mnLbcXnFTp0RpeJUz6UOOTDzWz9Yf3R522whL3zDp2rTyKm7ahjKYaZn3J7X9B22eCEzXeopHF1sHp7I2Tphx8kM7R5g/f74sXrREP5dXEzwnnlg3+v9DJxo/hw79LnNmzYymdOx4nhQsWCgGP0xZwSgoPVMvTNjhGC8CjtJOmzotOsbQieoHdLHTsHDhwjoJOwp3qQkwpzBjxs+yctUq6XXNVco+J0YnAckzKDRpBy3jhweawFmzZrX8uus3zQLHhOs3aKCfoSf+OPlatGgR6d37r3Jznxt1/sKFC+SJJ57Q/v2Q4MfPL18T9fjxKx9Gvt1mvGjauGHFvXgmYmc3uYLyYXmPqsmRFfrkXVBh0x2PxswtSHugs0aHVls5JKXDTdRabsmR7nxop6MR+tVNvDbxo5dO+UF1M2UOWiYsvBy9q0NCMrxM3cLsE0yZ8GzGwSdInLIFwQ1Kk3ik7QfD4A0aXn+UyYaJlLFp2HE3mkHwbBzGTZpIQ/Czq50PGghBoMnP6zkoPS88W84gcVuHIGUgQ7x4Np9MPHgb8qrzdLAjZHD7s9uKG14iephtMAhdLxyTFmRGcJLJxgszbstHGex0J7mIm4HO9RbULsnWZzrWTbw6mTq4lTVxgto2CB75gf6+fftl9uw5UV9uZcqUVpcaFIn+7wE9BuDDB9zX305ikrqk4hTtRy2aoB7ikRu4/DNp8Jl5hEjHsxOkXsgrWLBAzKUauoD1Azo7d+7URweZBf3MgCOgcOE1btw49c18ULr16GFmR+1E3m4QhagD5bdxiUMGdr5bnPg//fSTZG9Yr6NnnnmmnH766cyKgZjEK1GiePQYMTJffvllWbBgvsZz4xM0PYaZQyQonWTxaGdAP1omLkQOI+7HM558L3mC0iENhypxTQp98i6osOmOR2PmFqQ9/vvf15WTyur65QZvpueWHOnOh/Y4GqFf3cRjEz9a6ZYfRDdb5iBl0DOGhefayxoZyfCy9QsrTplwG1iif1SRtMKEQfUMg6ef/ljdtvl4lbFxg8a9aFIGQDc84qBewNMNl/UGGLad3WRzSqcckCGojUy8oLLbeGHQsGk6xU0+0DUT/2PsvnNqy2Ya2zWhmWc/2++sXzthOwOeTcuMk46ZZj+DtxnsfMaJQ95hQbf+iXxtSDkAM+9SuO9SMnWarnURj062Dk5lbZyw4iavpUuXqAmfyDFYfSS0e3ez2cc8g/+v6lgmfaohs6k6mlm4cGTnHekGlRPvG26whf+t3bsjO8ZiGKrIof27dP7WX/bo/gf5bvTNsph0K1OmjE46sP+QLFl65IINE2/w4P+T7dsirqMmq4s7tm/fbmbr5ylTvlO72tbKld2v0Jd38MgtMqmzGyQx6AFdoQduh3UK1NW0hRtdppt0cGHFurWRybuKFcvHnKoz8fCM8tWqV5e27dpFs77++qvoM3ESgTFEXCKUP5XQbidevGzcsOJePOOxrZc8QXmQhkuVOCZnbps9/LEAI8OAhDRmbkF0aLgeHLfOnH32WVKhQvmYCsstOdKdD+vnaIVoFG51FK9NvGi58ciL9KB6mbIFLRM2XsxL6xBJll8q6gx9D44lYHUPK5mJhPZtz9HX27Nssnra5YPobZeJNw47TJgwTjlU3kY1csDatWurm8yaSrFiRfWAdeXKFYJVVadQtGhRaaNWWcuXKxfNDiITBpK4bW758uXRcnwAzYoVK2q/qFOn/iibNm1SK/Q5B5yQs1Gjk/UqLnguWjRP33pGOoDwNQP3DLj1DO+O+f4g3y0eRAcM+qdPn+5qS+iBANn3798n9es3UH/11QVYxfXKvM5UP0F4xSO7qZNN28wD/7DjNr9MPHbMlZ/sAVkXLVqk3320Zad3EOn4gMa7iLaEGyG/+eZbR1y0t4YNG0qDBg1jPrhRzs0ubJ+QA/2FkwzlypWVli1byV71ns2aOcPxfUQ/ULt2nagPJnygjhnzMUSKCZUrVxbcgsgJAWRShmQg9ENfsW7dOkcdwMe0MXSCPywcvcvKKoZsHdzslEmP7z1Lpi5REelqb8gWVDdbB6eyNk5YcfBCwK2x69ZHJu8qVa6k2nztSIb1C76YbMP7zXB+x47Ro6lIo95BZCwge2TLtJHS76/3yJuLf5PGfx0mowf/WSpLZIwAGgV+XyWjbrpYer69VEr9aYC8/Z/rpX1tdXPq4XGEGx/IgTwciUXADbGffDJGP/MH+T/88IN8/vn46K5DXFqB/pMBY7XsjRvllVdek53qBtfL1GUQdqDOblDrUWC/LB79tHS77nGZL63l6qeekoevP13rqukpWQ6t+Eqe+dc98sCoeVrX0f+9VVqWj7xTwHGjjzzwgL+7mbPmRnWpUSNyyyzLAc8OhQsVlLrqCDBvGl6zZq1egMWuRQSWjRfafJzi8dJMFB+2QVlCL72IEzb04hlELz95gtCADKSD56Ah9Mm7oMKmOx6NmVsQFYYB2I4d29VHzEmqc4udvMstOdKdT7q3m1TK51c38fL2o5cu+UH0smUNUgbvXNh4oOkVkuFn6xhWHDLhSAY+HHE72ZAhQ2XOnNlaDfjnOP/8jlKxQoWoWgfU1n6sgsKhLsPcuXNjJu+S0RM0zfJB9TTL2DSCxjGBhBu///3vJ/SgcpcaGCJgFfT2vrdJzVq11ORSQZ2GgRT8kuLj/I03hsvQoc/rdPzccMMN8te//lVKFC8RTcODn4zAwQTW8cdXlp+nT5PHn3hK+0tBOmR47NFH1c7saohKjRrV1QTcsVrWD0d9pAeHmIh7+OEHNQ58yyCAZ9WqVWWjGuw+//wLenUeH+sD1A1tFSrE+lUFrp+9g+lQQn9giyzV7WnMmCMDdNy0dtlll2rZli9bLs8OGiSwM2S6smcPuaZXL6lZs6bO9+MVRF43fUzabjhhp0Mpk28mnn/tUb58OT05N23aVOVkfFC0z8SH6YCHHpRz2rXX/SrrOyurhMb/fNxn0v+BB/Utiqh/vNc39O4tlStWiJm4Zjk3iLIIldWH/dq1a+SZZwfLlMmRY3N8v+n0HY7f0beNGzdeBg0arMaaC/RNjz3UUTPcaFiufPlou0S/gUnH7777Tm68MeJ7qW/fvvK3v/1Ny0d5wno3QA99WnklAy5sG/r887o/gG6nnHq6dO92uV5ggPP+KVN+0HJlZ2+Qxo2byJNP/lvOPfdP0T4LZShfBsa/Iy+sOk3HeohXN1MHt7ImTljtDbwQxoz5JNqnlFMLgFWrVou2bY1g/OBIKW6mZWjbrm10nII0yh9IxkIlpGKTC+W2vlPkp75vyk9vjJcx150nNzQtpckXUBNeWya8JgNGLZL9WVfJPbd1lha1jsOLF5XPjQ/lK1mypL5gYqrqO9Hf2Dvmnn76Gd2HDnjkMXXzZmQCE+6kzDDus7GyWvm6u+7666SyGoeRBnX1gxEZi0i9i6+V/n2mym1PfSEff/SNdGpWXS45taKaqlR2O7hCJn40UkaOnS0F6veUAQOvlzMqForyojw2LzN99uxZsvPXX3QS+rPWrdvoZ9qIuF5w8neTdbbNJ964Fw/kxUsvWXzwpB38aJm4LJMs9OPpl+/H368880kHOgYNoU/eUZj8DmnM3IKoMHS+WGHABxhv4GFF5pYc4IO6Q0hXSJscjdCvTuK1iR+9IPmpbJvgzzbpBU0ZgpYJGy+I7ZPlCR6mrmHFjzuutD52AHrYHYLJO9x41aNHd/Vh+ozaERE7cALegAEDpH///noSD5ND1A15fA4Lgqaf3snyAn0MkE84oaZ07NhBcFQDk0qcNGvVqlV00EZZ4Jf01FNPk82bN0Un72A3DD7NXSFBbEIdMSkIGbCavGr1GnniySf1SjU+8E0ZICv+V1x77TWRVepte9SHbHtppyYD8DGMwawpJ3bNYCUXA+c7+t6q/aqYOMT1g352RvkiRQrrSU18kMOPKyfvWrc5S9566+0Y29z7z3+pSeMvpE+fv6vB8UAZ9vpwefbZZ+Tiiy8O3I5ou6DQ1sFP57Dybb6ZeLD+Pd3shHbGPhO7QE466TPdZ2Lirl+/++TmW/4e7SuAi8B3ossll+pJeYz1EPBed1dH4uw2FlRnyIEJLHzc9uw5Q/dZLVq0UCc4zo72A+CDPgULMV9+OUFP3sE9S0e1Qwe3Hpr9APqfk046SfUTkYUH7OK5775/aX1Bh8GWN9E46GFXH+zY8fzzZfgbb0Yn7/rd90/p2rVr1JY333yLYLfz448/rv/vXH75Fep/VA89IYnd0JQhqO0yeLHvH+2XLExXu6KtBdXN1sGprI2TbBw8QGPr1i16ERFxhK1bt8rEiRPVySznkxE4MTHynfcjyOoXE0Tob2xd/eTTBNT/b8mqJLW63C79J01Tu+tGSP9+DaXtu7dJHbVh/n/bZsvgR/4rc/bUlNP7XyvdTq8tJf/3vygv0HDjo+mrn5LFs7Rfd0zeod9at26tHnuhHHbh4vjvgw8+oHbXbYou7q1XuxAxDoXfP9hn1KgP1biojFzcuRPJamjr7BYHss4rVEsu+fv1MmPKHHnsi5fk7ea1pUG9LnJSiYKSPe0rmTB6rNb12ltukR6nHOeop83DFAgLJTt2RHYN1j+pnlqYPd7MDvQMO5nB5hc0btJweg5KJyw8u51AJjfaNm5YcS+ebrIgPSj/IPRJC7hBQ+iTd17KQqj8kk9j5haEbYYNG66PD9WrVw9Rbavc4g8+CDgysTx7t97qqxMyPxkLuFgAg4NypYtLxeOKSXH1z9h8t8NqtyZNiOEUt3k54biVDTMdtPxCsrLZuoYVp9xbtmxRA6ZsHa13Ul31cXeefsYHnRnAFx9cHTp00HWPnR1mSFZPs3xQHc0ykCXeuCk/HEXj6CfCqcrxM3atuAUMPnHsGAETd7feeos+rkr+lJ9xN0g80AFOqWNL6QEu4uCBG8ucAo6P0f67du12QtEDjezs9bJg4SJpqHZYms6dyTcodJOf6SYdHNeDLRFgG/imgUNm4iId/chFF3VS6SXVjsW/6uNCffvertM7d+6icYnvBk2ewPGLm3T8cMPOh84m/0w8/9oDdYddyDi6ilC6dBk577yO+tnpB20pOztbHXM7oLMxmY1dbmxjSORz0DbCMtg5zd22mrjDD3bawueSVwB/HMObPTuy+/o2teMYE4QMlC9sCPqwJY7RI2BiDrYxAycWsXCEMQd2O48YMUKjDB06NG7bBbXx0YCXivpMN7vFqyMaFnVwK2viEDdRqBuy+sExyS1qgooBi19cAGOaF6xbp3b0XQAeZfeTC7jAAX7WcdWlSbfr5dzRd8p4Nak18JNL5Y0rKsncj16UJ7/fJmU79JXHrmwsVUrHjg1JwwkiDaGwcilQo3rkBEEkJfILvlj47N+vn75Zt4yanHPq02CLjdkbI7vuqlSNTu6DCnX1g1G+0LdyWzn34gvlkxmvy/uDPpG6p9SXRzoVkylj3pfX1aa3xlfcINdf3DTHJCXtafOK0lYPL7/y3+jYrVHD+lJFyctyJp75fOAgfAFGxpRIx85nBJaz+QWNayI+P0FphYUXj14mLm2RLExUjyB8g9ImLZ+qickOffIuqLDpjkdj5gaELdauXatn57Eyio9ihlTzB28M1KYv2CiT5m6QjWr3RiZkLBCPBUoULyC1K5WWlo3UFegnRHxZhNVug/YTkJc8g5YJGy+IzZLlSR3DhpQdfodWr4pMEpVTx8LcJq3IH76IsKOrYMHIUVLQSVZHuzx5+UHqQGjT8YtTdsAZahc0j8xWV4PM0qVLR9sX6RN/92+7lb/AhTq5cJGC0l7tfjMD5fbjTzyWhU1xLNYv4LgdA3avuIXJk6fI+g3ZctPNN8Y4dybfoDAePXbt3Kn81/yoRYJtGjc9xdGOQGjfvr3abddF366Gicq33x6pj3KfqHy/YGcQghvvoLIDz6YRT1nIkCy+zT8Tj939k1/sgbaAAN+UdDOAD80TT6wbbSMRjNjfuXPnRCeoWrZoJuWUywIzsH0FtQPKokxJo69YrT7+9+7da5LVOGY/vXbtGlkwf56orW0xeIhgsWD48DcFu+7atnXuzyhnWBB8v/pqguaN56ZNTtbHjvFsBvDDzuKrr75G5qt+F7uJcRx49OjRepce5Qlqvwxe5P2j3cKC6WpXtKWgOto6OJW1cZKNg8ePP/4oyw5f5IBJbOxCw/F4TOrY4aBaCPj4ow+lz9//obOAX6p0ZByOBMpjPjPNhpqA+oF9ChQsKdXbXKqOxY6WsQ98LWOeeUE+PVBbht45XP5X7Ezp+69rIsdljV13Nj07DvqgXbBgIamsXIMwwGVUVXWSAKfPRo4cIXDDgh125sIkXErheDB2sb0z8h29sNmtWzeS0JD8EPGrYxbUeIXKyzm91A7oqTNkwagRMvbdBlJrwRb58IUvZUvDq+SmPr30cVnSRFnyIkSamY+xGPzy8cgsTjzgBmAsOnA8gzJOYataRKe/O+RjDGouoJNPvNCJl50WL81k8Wk/QsjjRpM4YUMvnk6yBOXvVNaJF+khL2hwH+kHpWDhBRU2nfFoyNyEixcvVh+LO5UD8cZ6lZP2gXlTJQc6l4WrtsmX01fLyuydyqlx7D+G/Q7/KKzqzkSPYgsUUU5VEdButm7fLMs37pD6VcvJZefUjjq1Trbt8j3wgjYPL1zIm6p80PYLyfK2dQ07PlUNGuEoGeFYNdjAUSvKjDTwwx8HHy1btkSyHlgQL0yYQz/VZ5nrvOBFfpCD8uEZwZSVeG6Q+NhFt3XLVl0et7w1a9ZcP7Ocjhg/K1es0BNOTGrU6GQtky07yztBJ1wMXrmQg1vZpk//mSyiEOWmqQszuFsFA9+bb75J1xuROIj88MOP1Cp2IYHPOTPYvP3iTvKDHtLNsmgjy5Yt1Uf0kA8dTj+9GR5zBJbt2bOnPtaHyRDo0kJNbmAXHoMTb5Mn6XhBk0a8ZcPChz6mHJl4/rMH3iscV1uu2jgCPs7at2+rPzrZPyLdDp9++pns3hVZJMV4r0y5CtG2AFy2saDtg/jw+8QwZfKk6FEtpgEPx/s3bYrs6MHixLz5kUUHEweLufDjh6Nr06ZNi340kk+qIGw2btzn0UWT2upSCuz4ox0oI+KQoW7dE+WsNm30Ry4m+wcq/1iXXnpp3PYj/aMZpqpOUWfpZtd4dTV1cCtr4iSjL+gjwHUJd9pj4gZH290CLkSAew2Giy66QL2zRxZTKQ/y+ewEqRvpABbMqiJnXN1P+n21WO22e06uuTVLnc4qLE36PSxXNyjjuhPNiX4MXTV5V7RwYTNJv7eDBw9WLgR6qIm8qjoP45/Ch/G2qYvEoNdHaqKysFok6dmzu15UNfta8qUufjAqgOpTjinbQnr940ZZMvceeXXEXXLLB1l6krLJ5ddJrzMifTTpoxyfCckrSlM9LFHf9biEEuFM1VfBzYlXAA0cDcZkphmaqkVPM5BXvNCk4fQcL72w8CGLbUc32iYuyyQL3Xi5pQfl51beTic9pzpxSwt98s4WKr/GU9FAWEE2BC/MsmMwhV0GueHvDgPPWUs2yufT18iqDRE/CpysK1VCrXiUzZKyx/nv+nBrWJn0P64F1AYa+UV9fOzZf1Dv1Px1937BRN7W7Qfkp9826/QrO9SLTuDBEnabDxoP2n+YPIKWCRsvSI0nyzOo3eLFg1xYJcSODQR9UcV5HfQzaQFn79592j8ZjjNi0MTJJY14+CdZHe3yIAsZCqg+Sza8L3f8bZCMWlxIOlzXX+7o01b5Jok4EEa5Asdskx/eHCIPDHhRttXpJr0feUD+dmrp6GSjTZtxU37cussBV8NGDfXFEGY+n1EWAy3sVmTAkVTsCoFtaDdC8nKDoEFc0uPAFbeyYTXeDuBz2223R53fI59H8kxcOHfGrrtrrr4yZtcdcMgzKHSTn+nku2fPXlm2ZImO4sjspZdd4rvqXKtWTTm2lHJ+fThkK5mho0mbz4RB5QYeyxDGUxYihYVP/hmYP3fdod4Qtm3bIsuWr9DPFStWUj7lztfPTj8oA19NeI/xPiPUqHFCjsk+trGgbYP4oFe/QaPopRV4b+zw6aef6t1tTLdxwHPPnt/UYsQrcu2118opaqcIA/mkAoIvjulidw1C7dp1BO5jME61ZUQ+ZChTpqzafVMbUR22blELiGoXZO3aR9KC2vBox0tFnaJS0tWukC2ozrYOTmVtnGTi6CN2HHbZgcmeZs0iC15O7wHej82bN8rgwc9BLB2aqwVH7NKifpSF+TZkPvGZjzjypFoz6fPYQ/LzRTfKWHUy67gWd8m9VzWXyqWIGYGk4weBjR3K1U84QRfEoh7GCdhlN2zYMH1pGhZCEIoXLx6dvMMpD0xoYtdddXVj61lnna1x+EO+iFMXP8iyxKvc6mJ9UccGtbtwgppza3jRRVrXKsoMBw/+TnTXdh1FOPzw7TdfR/u0Buo28co+/u6gw65dv2p/y6RVv34D5T6gCaMaUt54YQwRh0i89MLCZ90RQjQ32sQJG3rxNGWJl28QuqQJ3KAh9Mk7U0kIkR/jNGSy0KwEN1q00Xvvf6Bvz4LfEnxEF1MdFZyhw35uZRNNR4e/dvMvMmn2Bj1xh0k7TL40qVNOqtWuIlVKFdeiZxUOvXmYJsk853ML7FEr9If27ZXVm/fI/OWrZcPmyDGd+au2y6hvl0uP8+pH3/9E22qQ/sOmHaQMTB82XpDqTJanrWtYcciOHWScvKtRvbo+4kid+BH100/T9QUEmLyzA2VJVke7POmqCtO+SS5uNlTeGzdR3v1gvJze4XSpqybngIO/HXO+kE9feVkmrDhWTj3vDOncNHbnhk2bcVOXoeq2Xe4+xM3flStXibYVEw/8MNCadfiWNww4u/foFkWh3ITk5QaJRwhCcICPD1nIA2fVmCzk8QnUyfjx45SvuNgbbenUGnTwh/8ncO5cqmRxufiSS1zlI18/6CY/0s2yv/yyQyZN/l7zw5FZXALiFVC+XLnyencg8TZt3qx9hGFC1Imvyc/m7xQ3acRbNmx86GjKk4nnL3ugPWxQk8vz583XzRXvIcZvXmH69OlRX5o4klqnjvtEU9C2wXYJvme2biWzZ0UurcAuO3zwIx9/cM2Cmw+rVoUbgDK6T9mn/n9j5w4ue0BA/zJp0kR90/bXakGZtHMDzpw5I3pk9uyzz3JcGNJCqh/YBv3fscovqBk2bNigF8CD2i6DF9tnwx5h1zXqJ93sHK+Opg5uZU2cRPUFjfnzF0j24d2xjRo2kIZq0scpQA6838vUje1cDMBET61aR/oUlGOdAp8BafjDO4RAWsy3YaFdK2XOrv/FJJv0kBFUZ+BiDAMftwzblK/Ll19+Sfu5PO2003Qy6OH/Pn3eYRwz/PXX9a67zuqSCrgyMSc0yR9ymbIRh7qCONPIPwoP7ZTFS9fL+kNHbBXNMx7Iy4ZEIf8xYz6NLqyeWLuWlFe3BrMMcQlRBnmo/6FDXmCy3HPPXTE+R009gARdTJ1Bw+ZB2lGiHg/EzW0IkSi3H28Tl2WShX48mR8PH5bxg6TpUS05skKfnfETMr/kJ9o4oB//aG28XGbl8OVDGnCxWrh27Rq5+aab1OAJO1smyJlnnhn1s8SyYUHI9ePcTfqoLCbusNOuacMqckqdqmrSsHBMx0ee1CUDMxaABdBui2dhwF9CSh93QCqXyZI5S9THwbLIccOF67bqI9n1qkcmT9iO4oXggzJ+EDKRth9uqvIhg19Iljd1DBtC7rFqV8aUyZO0CjXUqmgbtc0fgf3VhAlfyr3/7CdPP/WETnf6SVY/t/LgpXVWvknOuuVx6bOgj3Kg/Ly88lozadL/Mu2PZN/2RfLViOFRZ8r33t5F4lkxBW+9k07daoaAyTisYuP4KgLy7QAfNJPUrbQIGGTiiK1b3bjpxnS7HGjixsdGavcfJxO3b90sFSsfr3lAVty++Bd122yrVi2143bs3sZRPg7oQAO77g4oH1ZXX3ON4GgdB642v6BxyusGwRMBkwU4+soAW5IH00yIPNAspuzIgJ2ehw7F7iCy+QKXdL2gXc4LNyjNZPBseTLxYH19OtgJ9Y7w8/RpwpsAsWMUJycQ2GfqiPEzberUaKxtu7YxH2V2ewyqJ8uBsOlHav/+yKUYZAi/WAh/vqKrfDb+S92noF+AHynwQsClNli86NSps951R9qphuA9fvwX+mg9npuffprjkVnkmQGX3TBgx7G96zioDY92PNgwVXWcrraNR2dbB6eyNk68cdBEmDJlsvI7HNnNix1mNWvW1OlOP3jHlxze3Y78Cy44X41DjrwTSIMc69evF7hmWr16lb7tFLv5sFAGFyFTVZ+E3aq4oZptgOUAj9m5UCa+PVrWHIi4Vdo78zl5/M3OcsZ9aoJdjuxGYxnQ8NMd/SMWJhEw8fjSy6/Kpo2bZexnn+hxl85QP4UOH5lF/IMPPtATYXffdZe6Tbc1UXJALPjNnzdPFip/ntjdd8EFF+r+eNWqldo3JvzKV1ULGHaAzDvm/aBvnZ35636dPV+Nicefcqqccee5Ulnl2/Zx0pV0Mf7Zom4JRsBJlvoNG2k5OP4iHiH4Y9flG2+8EZ2MxRHirl2vIIrqq39XlyPNk1mzZqlx3k59ezhc24DmN998o/q//XqnJurW5GPKHSXm8kDc3IZ2m4F4bjLYuGHFvXhClnj5uMlvp5OuS5U4Joc+eWcLlR/jNGS8EB0SXhh0pjhKhR0QzVu0lIoVKmjjgx4+rOBPpE6d2tHz75iww9ZhHBsYOnSIPnqB4xS0XbxyeOFDkM3bd8uGbbsFxx0RGtSqKM3qVVerr0WU/IeifHVm5idjAQcLsG0iC4OFaseX01ibf92tj8/iCO2P8zboCyyA69UmvfLJxwvatL1wIWSq8rUBfH6S4W3rGWYcE0FLDjtIhgpwHH7W2W1V3RZSuyEikyfZG9Yrf0kb1UTRGVEbUl3IgokWOONFSEZPp/KaaCRD/le6mVx6+YUycuxsmT38efnk3MbS6OL6sn/6mzJ2zDTZn9VD3Vp6oVxaq1hUDpZ3kwv50AG+1nhkFhNht93WV3BxB21AOoCwzW/qdtf56pgtQ0O1Us5g148bb6bb+KBTtFiWdlZMmrvULpmKhyOQ9bffflPHUbvK55+PV/JEJr3g/w6DPPw/wmAQx0xKqyNml1xyKcloaPMLGqe8bhB08H8Qi1IMOE580kknxdQH+REHcbTDvWpCwQzwwWUGmy/p+EGznB9ubuVDL1OuTDx/2APvFhynLz18ZBb19tO06dJOXbri1FcgH/0FnNCjX0HAxRZZWUduXrbbXNB2wXKgiXEj+wF8qOPoOtywYNfKWyPfk3PbnSN/6nCeTPj6G6Drdw0X7gAH7x4utflOLUZ88cUXMR+a5JEqiH5qsuLLHUR16tbVt1JrIR1+IAcCxtNeIagNj3a8VNUr6aKO0s3GlC0oNHVwK2PixKsvaCLAt+22bdv0MxbbvC7L2rNnt5q0+VbjwjVFO7UgYAfQXaFOVcAFx+vD39D+fF977VW1A3iHmhB7X7/zp6hbnTF5R71I49A+dZO2ul32trfm6+OyT11SQIY8/qzMfup+GdJ4qNyjxl0lFf14dQX9rKzIWBHPOA4LX7xY4DMD9KfrENgEpxBwIZg9OYUykB1jUFz2gG/vmbPnyAsvvaJ3QxdWp8geeeRRWbN6tV6M/fOfu+vdxpRbu2Q5uELeff4tfbvsn7rdI2eVXC4fvjda3nzrTanVpon8s03kO55l3CBlmTHjZz0+Q7xt27aqb66BR8eA/yfof99RN2cPf/1NjQN7DBjwsO6bORGHxVtM2m3cmC3PPTdU64LJvbfffkvgEgGLR9WqVdf2cWTkk8j6zysI8WhXPxlMXJZJFvrxjJe+Hz3mk65P9cRkhz55R2HyO4ynYQAXH0sTJoyTyd+pAYiajPtuyg/6lpkrr+yhtr3eqxskVjkeeeQRmThxkt4++5Z64bCqUkttc+7X715dMQ3U7DzO8mMwxReWFRsGRCexbO0OwSQLwvEVikmtSlnRiTudmPnJWCAOC6Bd4n2vWK6UNKxdQyb8uFgfw8YFFjiSg8m9RNtu0H4E4pJH0DJh4wUxWbI8TT2pb7IQMmHwxOOWWCVs3ryZPrbEnQw4GobdXzfffJOj3zIMmvr1u0/KlimtbjO9OWZwFVRn2s8Nn7pjoHVC+55y05U/ycBXxqnjFmPltEPzZen742TYonJy+b86SZ8uDQRD4YOqbTJ40SXOT+ryB0yIIbRuc5bUq1uHWTkgdJ63ZZ7+GMfAuX37c2P0tuvFjT/TbXwwLKzcGRxv3D6OY2FYJUcYMmSI3ND7ej0JgJVYhu3qCApui8SOwTFjxuhkHDOxbzmz+QWNU14vuF357Fm4YIHmjR2MHTueFzMZgAzy00jqB/QwODUnP8qWLZ3jxkmbL+l4wUTKmDJ60U4Gz5YrE88fu+9Q51vURyKOzSKgz2yrPtB4/FQnWj8rV63S/SyS4csKN3njHXUb5wVtC2yboIudugy71STh/v1wZVFSRr33rj423+bMNmrnTWU1/iyv0fCu4WMXH8n4HzBy5Ei1eHyB3r1BuYBIHqmA0HPWrNnR48SnnHq6Wtw+UfcHpgxaYOMHH7s7tkV2tiAZH/lwNWOGoDY82vFSUa+oB9JNV/uaMlJWN2jr4FTWxgkaBy3grlK7w+CbFgETVc1bNNfPlElHjJ/s7I3y4aiPdAomvps0aWLkRh5Rtm69elJGHZU/VfmwxJHMt99+W1+OiAWE1q3bRCfSyAeyKO+XsmnmRzLo2dGyXupIj9tvlN5dj5Gyi8dK12Hf6HFXp9Z1pWXFyCViZlk8u+lOAeFmAGMsnvbo0+dmPWFPOqTBMSjK4TZ6+gAkHRMWLFhQX3Zx3HHH6V2FL7/8st6lhoUBjIFwVBeXYQCPfCK67pXFo4fJ6JHjI7fL/v0OubPKHDmwdIos+P4dGTXyArnslK5SN+sYk10OHc3McePGqbHhTp10yilNpHz5SJ9r4mjeytZYhHjllZdk4MBH9AIGJu4efvhhPRln9oEljj1O/d8ooeYHjtW43347US0g75Liaox1ww29Vd9eRf0vqhTVzeQV5Jk2yStotxnI7CaLjRtW3I1novTd6JnppI20oCH0yTs3Q+endBoyKISxcYYfDjfZ2S5fsVLenzxJPh5znNxxx53abw8m7rALD2f64Wuk5OFdKviowgfvATXpV145PQZfvrBBZQiKB1kXrdmhd0fhuUKpElJefSD9/nusPwPkZULGAkEtgPcbk3Q1KmTpiTuU2/3b77Lpl71So1LEnw5wgrZT4gXpN4hLGKQM5AsbDzT9QrI8qWNYkPLikoYlS5bqaP0G9eUudTQBu8jQJyHMmjNHDeIGSZcuXXTc/kHdr1mzVn2AbY+WIU5QnYEPvaibXY70VMVJ0TInyZ9vulKmTvpBPvzhUem3vJJ2PVDy1JukW68LDh+X9d6xRfpRuurhow8/VH115Njs5V0vkR7djviwM/FE3ZaWrSbShg4dqnfrlSiZJRdddEEMCvUgJD83SDxC4BUpUkxNiJbRdDEh95vaJYMwd+5c+eGHH+XO9+/UEwC4OKRIkch7tn1bxOk7dttgpb2uWo01fRSSfqLQTX6mQz6s6uOmSoSSJY+Vtu3a6We/n7XqyPLOX3+JopUrW05PiJq0+QwYVIdEygSlnSwelDXly8TT3x6oIxw3++STyOR4ZfXR9OCDD8hxyg+TWMe8gYsweswn8v3kH/TH2bnYPWJ9zNntKGibYDngY9cF+wEcqSuo+insEMSuu5bq5ua2bdvro7FYxEU4qHbpIqDsd99N0rvfsIMD+akag1JeQvDHaRScPkHorPrRMmoRyCugLPyNZm/cFINWrUrEpQATg9rwaMZjPaQaok7Szc7x6mzq4FbWxAmqL2ghYOfrGrVjFgE74Zwm45CH9xO0saDK3aqNGzfRiwKgxXcXuMDD5DxCO7Uzb/Toj/UfJsFwpJSnJViGsvxvxzyZ8tJgeXPxb9L48nulXyd1GqzAMdL+9n/K9dP/Lm9894m8Orqt1Ol5upQ/sonOt461IOonK6uYXhzF5B38f5511jnRssQBhEuQhQsXaJ/wuE0au+5oVxMPafgOx05FTOLzhtbn1CLnFZddGjMGoq66POw1/zN54z+vyvhdteWyS7uoibqyUjirpVz99+vl59mPypfqhMfAM5vJ691q60Vh8rchbIc/bFqYNGlydJd1pcM7KMGPfS9lnzRpkrz22mvqdu/3NX7fvn3VTbo9tduCGDlVgRIlimv60BETkSiD+uvb93Y90QeakIlykUc8EPKjfF5B6gDoJ4OJS52ThW48E6HrRstOJ23oEzSEPnlnC5Vf4zAgDRoU4mYu3s61Xn2EvP/+e+oDb73MVA7N4QQYE3d977hDdqltrwj0XYQXFB0SAniRH+NhQtDaueeA8GbZ48oeK1nFS8TwBE4mZCyQiAUKFi0m5coUjk4Ob93xm5q8Oy7avti2g8Kg/QdkJc2gZcLGC2KvZHlSx7AgZf5aHaPCAAmhslqEaNGipZ4UYn72ps3qKMd25X/t5KidmQeIAckdd9yuYanSZR1xTHynZ9hm9+7f9AokBiP2wIVlqHvpRl3k7gcXyoYbHpWxC7dJkVJt5c5//kU61Cyag38Qu+Po1jzlLBgBu8XgKLpylapkmwOuXbNG+1BBBj6Y4SzaDJST0MzDsy0T8QiBgyNwpdUEFsPKlau0bpg0hH+bWmrXNgIGqzxegp3fWFke+txz+ojMLX36hLqT25bbjkOe1ep4ytdfT8SjDg0bNcpRJ8wzIf5PblY+axDgE6d+g4hNaRPyYhmme0GWIfTCBd3czqdcGZi3Hw1B7c+PL+ws5RHY+ifV08fC2S6dIC6LYIBPtxLWuMtud0HlYTnQxo4ThjXK5xL8Rb6vLkPDkV18uGOnH/o27GhF2LN3rzqCtVHv2Pv008/04gw+6k2afE4VhBwj33k/OgmBd75kychlbchzC9h1xAUC4MC5P8bUZghqw6MdDzZLVf2SbrraOB7dbR2cyto4fnHQgGsI7Hx9+ZVXortzs9XRyNWr18T4ZyMtTMj/+OMPct99/VFcB/zfhG87vN+87JB5GEuh38KFOqWOK60mfIrr8Q0mfhzHWXs2yrzDx2X3F+8lN97VW04qEdmtVvrkDupG1ovl8xtfl7fVGKN5s2elxynHxRyfpZxuEG0CCwvVq1XTIt7W97YcJwMoO/rKYcOGCU6xnX56M53MNkUcE1LXOnUirqm+URfvfPrJp7p92+VwiqOAOi77ynOvyutTsqVsh39Lz4vbaF3hz7tuu4vk+hunyoSnv5Uxz7wgH7Z4WLo6uGMhf9DHqQOceFi8aAmTtT9P7CauWLGicmWwRx+LxoIFjkgvVReO/Kou92qnFjjPP6+DXHbFn2N8E0eJqAfQxx/qEr77sLOwkeovsZMbwbEuVTrrQSP5/NBGeQUpKyHEdZOFOGFDm2ei9N3kttNJ36dqYrJDn7yzhcqPcRoyXsgXBy9WzZonCI5S7dixXW9Rxk47bIPVk3SHV0GIjxoxn+PlGy++2QKKFCiiOoKCin9k1dPMyzxnLBCvBYoV+F3v5tyweau6/KSgOrYTcZodbxslfpD+g7iEQcpAr7DxgtgqWZ7UMSyIvkr7blJH+hkaNYw9zgUchEpqOz5u/zL7KpZBWqtWrXQUOlJPyIk/BKTxWSeoH9ICDzyPGfOxPPHEU3olkWnEzQELlJA61Y6X46uqD9btWyWrfnMpWaG8lDrmGDl4KLY/ozxuEHLh6BaPaGAghcEWAmUkf+oEB9AYcCNg4qxJk6ZRvYlrQlN3yGHLAlzgMB1xrCTDhQLDOvVBvmjRIuWi4Svtr4ZH0isovRm2q4H9/PnzBDeYY9X6vPM6MisKbT7IsOUjjg0pnxMELo6zwVk0dwRgJydW/m07RoU5zBur1Z+P/zy68xG7PM8++2wTLWobW1Yg2XIybsrJtHSDkN+UMxNPX3ugbrLXrxNMjiHgw6lt23P0s1sbh+853DwYfSeUexTsPPELaKcMbu2D+YBl1UQ/J/F3KX+ca9asleFvvKV93bVt216jYmKspNq1gQD/nvCNl52drSYDftS+Tu1+l++KLnD4x0ku4sUL0YfOnPGTpowxMxZNzOPEJl88kz4+fuGfDwET/biQB3lmHdBmwGE5PDM9AyNuJWibVMN0tH28Ops6uJU1cfzaGN63zz77WN9aj2Ps2EGHgIubvvj8c73bHhPq+HZE2162bJl8oy4nwDgA7y+OmTO8p47HF1eLArhVHjeb2qFYsUifg8l89hMmDvTBcdns2WOjx2VPv+Na6dzUuHiuQFlpeMEF0qv1eBn47TDp3+9kqfOf66V9zVLRd8xPZ/DE5F1VNZ7E0VnsujPfW1OmgoWL6J37ON5rTzbS/iY+n4uqMVm58hWix/EpE/MjukaOyz7/1heyMessufqSttKiacVo/1CgbBNp3flyuUr5Un5zprqo45lmcvLjOD4bO04jzZUrV+oLJ+F+pWnTxnqTzKGDB9QO4Wz5UJ3qgFsZnqTALcG7dv4q7dqerS+Ha9bsdMHlEwhuttCZh39qVI9MfOLILIKtH9JoH6c85NuB+HkNIRdl9pPFxGWZZKHNM1F6Nh23OOnb9eEVj3yVeWHEmecmXH5Lh9o0aFBomgrHF85o00ow6//llxNk0KBno52viedml0T4+8kJmtjZskf9gzADvs3V/4RMyFggKQug/R1TsEjUfwaIHVMgcvOVX9t0y3d7P+x08CINOy+34pDBLyQrC3UMC0Je+OLcum2HFh0DwdZtzoxRA7wwkYXFB6cAnfCHyZcVK5br3WDw/YQ0BEwOYocKPixxmQL4IdSqVVP3iaAPnx+ffz5eOegdKNuVLKuU7xf4lKtTx8XnHGirFdPRo0fL54sisu+aMVpmfHGGLDqli1o5PXLsC7zc7I48hlmzZmr5EG/RvJmjjxLkgRZ0Wr4sogc+OHEzrz2wBC4DBugI0BPBnJCD/vhDIOQzypVWvmoYtiofT6+++qrg2B1W0RlwsQUH4/gQ//e/n5CyarB/mTouYvpPJb7Jh7Kh/lA/OJLBugM+cQm9bIk8+K2jI398VHdRvmb8AspNmPBFdOcjynXo0EFPFpMvaAAPfwjYKYljxV62BC7KE5JWukHKl4Gx9ZWO9kDbw/Fu+LBDgE/Kli1b6me3n2Wqr+BEP/zj1alTW++ecPpI4/uIPPSb2EnDNNB3KoN0tGn0QVyAwNH6l19+Se+6gzsXvCfAgfP2okUjR+xRboHabYwbGtGHweG5TZ/vCnBRH/hzkw04xA8KcVEb+lBMbJ7X8U/qxtzY3XOgaQbwx/8Q7BSEfRDgbxSuAciT+LQb+l34/8MECANw8Qd6GRj7/4d2DBumq63RJoLqauvgVNbG8YqjPHbYw995c3VU1gyYgC+sJq8Y4FsdAT7PsJMWvmTNAHynAP4IEydO1G5tFi5YqH3BNVI74vmO8L3/XS18FitZXE48/wrl466VdLiqub5V1rRPoeM7Sa9710mJ5gtlZYnIO7VLLZqW/F/E/ZKXvqSD0wGYqL/3njs9x05N1WUaddUFNo0bN86hGmmZGdAHY5mv1EUe2GGI4/iLFy+Sk08+OWef+7u6abtEWen21+tkW/WOcnXHRoddrkTsLAWKScUmF8q9T+6SomMWSYm6RWTbbqWj5fvO5F++fHntX69r18vMZNX/7Fd/B/TuO4xvzu1wnhpjRtyCEBH6OOnEfEDoh/5vgxrnISzHJKByIYC+DXZnPSKPtFgfSPMKxM9rSHkJIbObTMQJG5JnsnRJxwuSB3CChtAn79wMnN/Sacx4IQ1fTs2wwzkoJu+wOtK+ffuYl4p0nezCvLAhZNt7MNbhJuXNwIwFkrUA2qtbSLQtO70f4GGm27TNPBs3lXHQ9gvJyGbrmWycss6dOyfqZwXHv+rUqc0sDSEzfG3AJYA5MCASPvxmzZyhL+uZqS5O+M9//k+vIGJyZcoUdXvhpO/UB1ll7RNU77KYOVt2qKMFbdXgs9e1f9G7snB7Fm64xdFdfKzC9wuC0+Qd9Fb3ismWr1+TFz+YJQVrnyltqxSQZd9NlE8+/FjqnlJfBlyiLqxQeH72pg7Aw64v3vJWW01WQg6WJx4hnNXPm79QRytWqiDXXnsNs3JADLYwGfm1+l9QTq2G8zZI+EjFQO84dYwF9nXjhYEeAj5UJ02arD/OR4x4W+/KI7NSxx5x1D7v8OUijz/+mNp1dz5RckDYB4H1hA9c+M47cGC/GvSWULejVVcTruWjO4RoT8ppQzLAEesfp07XUfhlOeOM1sxyhLAPdjK9/PKRI0N9lA9YfpiQD/DQ/uBr7Pvvp+iBPwhiUIyJTExKYBcU8J1kZVq6QuhCXTMwdyYTErEz2g92Vsw+fElM8ZIl1EmLmqg+1zBT9Y+coLrsskv0O++EjDaO9xALGehj8HFLP5dYQIEvuDLq5mjK7UQDO13htxN9Kf7QD+ASNASUA48SSmYEnAx5/4NRepfO8DeG6zS3H+iNAB9Ny9Rk5PGHJ9kwuQCfTvDhh36Il3aAl9+7BnrTpkZ8Y+IZx8bs48RIZ4Ds2Nn7+bjPlMuCz3QyFpzgssFepAAu+pXJ3/+g8XBkbY5aoDmtWXPd71ZRLhEgK215tEO/ugorH5WRbraOVzdTB7eyJo6Xvsjr2NH9/zTp4H8fduLj1nb8eQXQxB/eAYbx48fpBQT8Xx2i3G7wQin4xoWfTrgIAY8CBdWx28Y91IRVDxbNMe77/fcianLvVrnXEBtlD095BapfnBrAMVhAlHUKSD/11NO03rCzGx7Kmrri5MEs5a7qyu5X6AsxsFsR49d58+ZFbadtJEUd9aAsv8MeJY7XOEMO60rbEseEWPzAXzzBiR7blEmH+uH/A06oYMFilLqsBK4DsLMb4zjTbz7oMpjPTHOD5J3XEPJRbj9ZTFyWSRaSZzJ0SMMPkodbnTilR/4bO+UkmAYhEfI7pDHjhTQbboWpfnhbK9LwwtEmiJMu00zIvLAh+GZCxgJ5YYFE27L5XkBup7hN2wnHrWyY6aDlF5KRzdYz2ThlmTLl++iuEPhCqlq1WrR/oj7g5TZwgg/P8Wria8DAgdrXBy4rQMBkEz7MBg9+Tv7739dV3ifaFxqO5cJ/3gP3Pywj1I3bCPgoxWCEoZ66Ha127dqMxkL1P+bAiiny6mvjZMKKY6X8lQPkpWfulz5dT5XfF74jY9/9VH7cpAZdh/8XsTDjhGY6JhWnqkEQAibtqlevrgeDtDFxCeHTDTeYIWDHG4/YMp8QAy74PH3wwYf0ThEeI39c7YzD7jishP+i/J3YMrE8IG6QxNEShDlzZuujsFhFZoCM2HHDACfW+KA955yIjyu3egM+9H7kkUfVDXRD9c2N0AV1eae6ZGnUqFFaNtKlLSgrIfMZB82fpkUm70CvUSNnP4nAh30w6Hx20GA1efqlJtW9ew+5plcvvZJM2YGLj3bY66EHH1QXQX2idyRs3bpNHv/3U/oW9+nTI0fvQMRJVqalK6T9MjB9x5CoG7RJ+K/jRD8uhMFuVbYrvg+ArMt3Rr4TPTLbvHlz9cF6ZNKI+HgX8CGtbx185DE9QZiVlaX60KnqJsG/yUg1Yb9CXYRGmixnw3PVogj6MARM/Ddv3kLLx3cJ6dzNCx3QXzRs1FB/1Jo4wDMD/HJ9+ukn8qi6eI2+5pYtWaL7/cGDB+sFnD17dmv5aAs/qI8Tqx10PE5cR+2w4eKGyRvPsA/o4ZKQ/wx5Xv9/qV27jtz4txu0ywZb9rXqWPMAJSsc1u9Ux9NgS5S74867tcuBX3dsi7El7Xq0Qr+6Cis/He0br26mDm5lTRy0X7c48tB2vf7Ag+W98JhHfOzQwvjjhx9+0P/XMUnYrXt3PcbDQusHH3ygFl2/Uz6qI2M2yIKymLQiLUA7AMfMJw5lDArNExrg4VQOi3JIB083HKTjfcfCAiYpJ0z4UjqpG1svUn9YNIHfT9gAiyIYg5EPyjnpgXQG2xZecti0gsRBj/IQ2jyw4xL1uGjRIv3/AbLh8o7mzZvJTOXuBZcMwc/eSuUjMdlA3nkNaQtAP1lMXOgfRhw8k6XjJzfzySeeugt98o7C5GdIQyYKUQHwIwIn8Ag4xrBs2dJoQ0AaaTvZiXlhQ/DNhIwF8sICibZlp/cD8pvpNm0zz8ZNZRy0/UKystm6JhqHnCiLnQncQYY0rBryIwlxBjc+yEeZu++8Q38oIo4JGwT477jyqqu07w8cM+3YsYPalfec9Ot/v1x3/XX6g+39Dz7SuNjyj+MRCPh4g48X+tDTiYd/IEeB/22R798YKEM+mCElT71YendqLHWanC1de10lV9UrLvPVQObV0bPkV3WEg3KjuG170gXOwoWRXXRI69GjhzrSW4vZMRC4oAOfbpikQqhxQg2984b0zQKYcPrnvfeqScp35J577pauXbtGV9k/VKumO9QxWOy8cypLOjgSW69uHR3FQLSPuoDC1It4kIPhmqt76kkzxm2I8nChgAm6Z599Vjp3ukhuvuXvaofOWdr2U5U/qewN2VLocF2a5SkrIfNAE4tUWPHmx3gjNSnA43rAAw7+0MYAsSMRk4dPPPmkJnP55VdoO6FNmfSBO2PGz3LbbX3VccXV8r7y7dNe7WbHLgL47xk2bJg+jkIehKRBCDrMCjKrJwAAQABJREFUSzdIGTMw8pGWjnZA+8Gx9G2H3Qxg8qht27a6TVFeHTn8gzQsYowbPz6afMopp6o2WzhH+wbCKNWu77//AWl9Rgt54YUX9LuI43Toa7AbGbep+oUKFStFJ8D63narnHbaaTmKRI6hRXxrwcfWnXfemQPHTIDeS5cuUe/f7VJS7a7rr2TERAA+jrdu2SpL1CQBduBlZcVefma/byZNPGOcTH93mHDEIgg+1mE3lMUf+gr84Sgc/EY99NDDekchFijuvvsu+dvf/pbDlvjYfenFF9Vt4M8LLuy5Vu3wxv8U7JCeMnmS7FbHC4up3cVmYP0djdCup1TG09W+8ehs6+BU1sZxizuVRbu001neTveKY5d6n1v+IU8//Yz+X4kd6jVqnKAn6qepBbbXX39dvwI4Pkv6Try9eJj4pBEPBC7pO5VDmhcO+ON9h89OLDoOGzZcL05gLIOxVbt2Z8vIkSP0ja7N1K5b9r3kmSh0kjUsWqRDHjhdABcITz/9tDrN8oP06NZN26y7mojdtWun8hP9pL54CD6pncbvsFGQQL7pAKk7oZdMxEk36CUz6oP5lDtIHREn9Mk7CpOfIQ2ZCMSLg50EWB3EMSmsfO7evUs5EJ9Pm0crDAlOdkqEL2j5lQNOJmQskBcW8GubbvlO7wfkN9PtsmaejZvKOGj7hWRls3VNNE45pqnjX9tUf4XQVl3S0K5de/3MfEI3PkDG6iKOXGA3iR1wsxZuNIQ/pfMvuDBab3BIjlCqZPFokUPWJROgawbKsuXLwfLvQZO0g+HLe3fTzpSRd+KfusiFf75EKu2ZJO+/8o6MmPmL5sdyJi0+o79GwG4zDJAQGqhjZxj02QF08LdJHUmbtyByK632XaJ2uoCOE5+VK1foD/fre18bPU6B/w+/qY9HTHBVOr5KzOSWzZNx7qyrdxJ8vzSJ9vXMBzxfTWThAxj5OCZnHyMzcSHrtm041vyDOip7vHS55FKdjclGTL4htFB+vOD0mnq5QeAyD8efZ82eiyRN96KLLtLPsA/+0I7gyxCTdjj6cafaBYPJQ8hwc58b1YTF0OjxbLY5TUD94Kgsdh6eddaZUd9V2IkE1xQ4LotJEZRhOULKBsi0dIWmrNA7E0+fyVb2FZhExvErBEyYc9GBdYV0PBN/woQJSNIhsqs38oFl4iMT7964z79Q7/Cx+tZX5KMPxPFZhL2qf+LRNp3g8oPL0tAXY6L/nLbtcuy6QzH4gjq2VORmWlxqY3+826QhC3atYJde9+7dpMxhP5zwV4dbLmuecILavddI7wDmuwUafCYkXdrmO7Xrh6GZ2pGIHdim7bDbD/0lds08/tij+iIj9AGd1aTh448NVDsSb4h550lLf+y+8qruDzt16hyVY5zq5xGaqiN0qAtTLtbH0Qhph9yC6WjjeHU3dXAra+Kg3TnF3cra6Sxrp3vF27RprfqCQvKnP52r/m+eoy+CwbgA7zBuK8XkDxYUQYN0wIfP8ULKGC8kH69ybjiwK44Tw8UKFvOwSIzJeuBnZRVX44qb9ckF+KDDhB55kF6ikHRMGBYt0iFt+AfEhWjos/7z3H/0rdrAufDCC+Xyyy+Xiy/uourxctcL5WCjIIF80wVSf0A/mUxc6JoOcT+ZmU9Zg9QRcSJfLoyFAClMfoZsKPFAmA74GGzhQxA3yYwdO1beeOMNfZ3zN998Iz179tQ4v/76q+psCmlfQk52iocvygfFD6F6MyQyFkjIAkHbqI3n9H5AADM9kTI2jTDioOEXTLmBG0/c1jOZOK6zx/HW4cPf1LsYIAsmlLDDAw7D4XfI9MPmxgvlgoZ9e/cERXXFO2bHdBn8yH9l7PaDUuHCTtL93DrawTDsWKBQLWl/ybnSa8I4efL75+SFJytKk0G3Scvy7mtU2Hk4a84cPYFEpjhqsmzZUr2bDoM/7gShzeBvaaQ6BoeAj0Q4DsaRjUIFjokOqkiLE5Bwas8AP4Aog11m/PBnng2hF+oCO9EQnnzy3643MfIo3F/+0kutrNe3SXnGucNu8+ZNMkLphknJqlWr6jJ+bRRtAxNy29QuQtiGH+S4eASXNcFvF3djrlu3TjZuWK8vtHj55Zf1RAXscM01V8lFF3WK/g81hWXbg60h1+mnR27Xwy6/qT98r1HxIWJOVrIMIZCoB9PSFZqyUuYMzNvdeKgT7B7eqI614og5JpAQsDt1ljp+VlndxI1dZ/Shhvdh8+aNamfZGn1sUyOrn4Zq58uSJUv1brwKFbBDLrJLGW2Rixc4gotdbAjr1q3VE1eYiLtCXT4TJMBfJXZj9Ot3r6OTd9DArZNYOMFx/Pvvv1+TZRtz48HFDeTjYxlh3Lhx+oKh6mrHRzHjEgzk2e8X0hhwPHjJ4sXywosvM0mWLV2mj37Vr99Ap8GdwIYNG9T/qe3qyPA7ys5z9C7uvn1vlR49r9S+UiGzk9yHlA8v+P3DQsaePb+pPrO0nnCdrlwjwJbwf8fFBMpJOkcrpB1yC6KS083W8epu6uBW1sRx09etbLLpOP3w9VdfQQRta45HMGGHPwSm6Yj6gYyJ8nXTzy+d/Lzw/HDg0w5/CKCDP/RTuMgGfwimrqSXKHSSNSxapEMe+L+CHcYM1KNUqVLKJc1/mRyjHxJJhzCK6PFA3HSBEJV28JPJxGWZvIR+8jKfMnpUS46s0CfvKEx+h0EbAfTE6iACPvK+//57mT59ur5tBrtNpk+P+FGCvydUECbu3n7zDWl95ln69htdUP3Y9kI6KzQsSF4ZmLFAblsg0TZsvxducehDHm44qU4PYtNkZTD1pL7xQsiACSRM3P3888961xImV5aqCSv4D+vS+ULBbgVzN4YbjyA6h4aj5P59yc8y90BlyWrSQe65rbO0qHWcrnfKV/rkDnJR7xtk6oYXZdP6OfLJlCVyhrq8wrSbKc+Id95RRw6eitoAecOHv6GPxfXs2V3vYMOHH+ijX8eRDOy6wc4WHJmDS4Rx4z7XR7pwzNc+woWPenyMDhn6gr5NDv7rcDFDdXV0pXfv67RfP8puymU/44Mc/M499085BmjEraKO1LVTuyf9dt0RH6u4DeqfpC8KeX3Yf3WdvzNypN4p3q/fffqYGdsryvDZCWLS9zV1Cy580SHQNpjIw0UkDNydec3VV8mL6lgbJi/RzhBgBw5Kic90fGjDdxcuwMARERz7w/HF90Z9qD/Q77vvX9H3n2VMaMts5tH+6QJtWTPxyKp7XtoBvH/88Qf9/uPYNnZ6os/EhN6TTz2jjovv1DtZ8LGMdrReLQoMVU7hcXELbqUm/uo1a+TRRx/Vk/HXX3+9Pr5GvbC7tkH9+vrExieffCL4MJs0aaLyffezdO7SSa5Xfu/YRtF+nQLyMTFVUR2dddt1h3LY4QbfewjV1MSb+d5RHp15+Ad0W7duo/V4RU26n6B22i1Wk2/o+3BDLPxoYdLRpENZCUEKtDGxOfqjj2T4G2+pyc/1UdugL71DHXvDJCFcJ6CvwO3X8IUKNwtYBMCNk+CDYPLSCcYPymJX3vDX35R3VB+PCf8hyvcddjU+9tgj2lE+5LJlQ5z6H22QtsgtmK72RTMKagNbB6eyNo5b3KlsUDnc8NzeETvdlsmNnle6TSPsOHm70bV1gj0R7HSWJ71EIGnYMExakJ30QZe0kc7glM4yhMB1KksaNiRuukDqQWjqY8tInHSBtnxuccpr14VXPPTJOzfh8ls6jekFYVj4DZoy5TttYww68EGMDyLM9KPT4I4JDEIGDx6k8aaqAd211/XWz/wx7ePFE3iJ5pNXBmYskNsWSLTNmu8FZHaK27SdcNzKhpkOWn4hGdlsPRONQwbc4IU/7BYTtQuY4aD6gEKwjxQhzeaHtNwM+uavljfKh5NvjLKFLjE2LVBWWl31gIxXfwz24I3pgJdddpnexWGm4Rm7BOFrDjvvQB8+VeAzqb76uC6qPtpNm+GmtoO//0+ToCykB19+Q4Y8J1dccYU88+xgdcPbPL3i/dhjj+kPd+CZZZxsjA9Z7CzDxysmsdz0wYTZXXfdpf/nmDQpiwlBA7dWwichnM8PHPiIOt77uRRTvD5SH9ZnnHGGRjfp8NkJ4ubGv//jHwIfWzG2MZjiCC6PyxnJrvqYOOB59tlnq2Nztyofgv3U3z8FEyGYBOx7xx16Fw7tYtuQcdCj7ExLV2jKSpkz8HfdJPLKDk3VsezHH8/5/rPPNH1X4ibpW2/9hz5hwV2tWnj1A3zsDOPRfOqDtoi2vFwdBR8xYqTetVqwUGHlE3KAXKBcDtjvvt12Sb98+XLaPxImukibeYTowzqcd17UTyTTAZ3KIK1Fi5Zyba9r9E2VfW7uI4XUBNktt9wc3QXH9w80bNkYBx3sNry4cye10/YiR5+a6E9LlS4bcwkPaCKgvMkHaaSNZwTyuPvuu2Xa9J+1P78mTU+VGuoCORzVpw9A4DGYNJh+NEHqn9uQ9ZVOMF4bmLK7lTVxnNqVW7ncSjdlSpSnScNP33jzbZmcyts4bnHI6ZYXNN1J16BlbTwnWtDPxgsaN+nZZUDXK9j46RKHzNTLTyYTl2XyCvrJynzK51U3dt6RrzY7J8E4hcnvkMb0ghhMffPNV8pp7r3Ro2e4Ke/+Bx7QDQ35WHFFwK1et98eceq+ePEiPYChiW1befFEmUTzyS8DMxbIbQsk2mbtd8MtDn3Iww0n1elBbJqsDKae1DdeCBpVqlTxFZd0gUi58WymIx4k2B9cQcpgwgyBR7TwjAm8I59cSIkNkM1JPspvQ/bPsVSOxEgPMmCyC39eweYNJ+uYaKrfoJG8M/JtvcuF5WET4lMuxk0I3pATu3rc7Ij0Bg0aROuJ5cGLtMmXaVh4Gjv2U7XTZ6KM/niUdkBPHJMPy7tB8CpRorj+Y3k3aNK1cWz6Zj7y4Hwbtxafrm5YmzTxG60XcMDfpEvdbehE38ZJl7gtayaet7vv0M4qVqgA4BnYfiLvQ2Ts51WA+KhfBOxIW7RokboY4h/q4pZ7o0WBZ7ZxZLAsIdPQR7VXl7kg3cwjMdCpqHxMwn8e8k26djtjGaTPnTtX3yzbv18/uV1NMnIHnE2DcjhB0gN/v2DKZeO6yQk85OE0DG7nxWUYM2bMUP6imkT7C5suabEs9GHa0QLZTnIbpqt90RaC2sLWwamsjWPHg/JKBV4Ystg0wo7bervRd7K9W9kguHZZxN14O+H68XCjxXS/8k75LEto4uDZKySiA+iluhx1IfTiSZx0gV6y0m6UFbhBg7szoKAULDwKk58hDIngB6EjVkRxgxV8a2BQ8+ygZ6O+NJBfR92eNeQ//6f9bMDJLm7E4Qcg6du2YnrY0KqqTDRjgVyzQKJt2X43nOI2bSccKJrq9CDGTEYGW89E45AhyB/0IQ/g89mG1Bu7ixFwhIx68kNp3769yg/TbqJq5+yIwAm7HbCDGT7kpk79Mepbijg276BxymND0EWa2x/yycMNx0wHPgPK4fjc/AXz9Q2HN/TuLW+//ba+rAHO6c0AGuTjBJFPW6KcFw5wTRw32vApNXv2HH1xxsVdLpOhyhHyTNwU6yAb6JGuCSkH0oL8mXKxLKFJF3h2gG8x+BqbPWuGXHLJJeo47lcC31ksB3zScoLEI3TC8aORW/mUMQMjbTkd7AAZ/P7YpvzwmI/2xID3+5tvvtVtfMiQ5+UetXMMR/Th2xH4DOThBoELWoBBcECXeORDaPL8+uuv9I7sAQMHCo6p4/3DZRImLun4QZTx+zPlsumRJ6Cdh3L4H/Luex9o8Xv06Kn9TsOXqdm3sRxpIc7nownSDnkB09XO8djC1sGprI1jxp3wvdp+2PhhyGLSgOxhxp30daLvhOdkR5YNim/jsbwJbZygcZOGk92C0jHxTJpmOugHCXaZdIibOkEHL5ls3LyMe8lp6kEZg9QPcUKfvAsqbDrj0ZB+kEa866671UfQLHnwoYf07Xz8yEL5rKxicqM6YrB332/6OFLt2rVzdGy2Lfz4JppPeTMwY4HctkCibdZ+N5ziNm0nHOib6vQgNk1GBlvPROPxyEAeKMNnG8L3GCalGF577TXVH84WfCxNmPCl9gs1efJktfNspJ6UwwcpLjJAWK38R7EsjnvBT9GuXbvUTrPqcqfyf1RNQTPYvIPG3XRmebd8U28vHMho54M2dMEtiriU4TtlgyuvvFJatWqtbyPHzkKzDGVxg0FwnXCQ5kTzl19+0UfTIBtuvu3z93+oo9Snyv39+ykn73ujZjdp2nqSrheOWxmWJfSigQmMQwf2H74RuZ12bH/uuefKqeooI3YE8TguablBk4cbTrqkm7LaNszEc75v6WAvtp1EZNmyaaMcf3xl3caxq+2JJ59UfUUr5Qfudu3fMcw2bsvnJjfaGQLeP/jdRP+MS2OGDn1e+d88V6668io94Q96+CMdP2jzd4u70THxnXBWr16lLhw6Qcu7YvlKufHGG7WfzGHKtyf6NlNW0iIdxo8WSL3zCqajneO1hamDW1kTB+8U4274uZFOGQgT4cmyqYJuMtn83PDMdLOMmY76CBI3yydbh260zPQgMjnJThp2eeD6BbtMusSpE6CfTCYu9M2ruJ+czKd8fnVj5oc+eUdh8jOkIf2gqSNXOp0aCvCYj2ebrknHqTzw8aGHQYf9weeG75SOtEzwt0ChQgVl66ZsWbN2nZp0jfgA8y+VHAbqeM9vu2X18kWaN9tIclSDlcZHPPimMlCfeKH9bjjFbZpOONAt1elB7JeMDLaeicbjkYE8UIbPNsQCBRyCT5w4UU+k3HrrrVK5YgV9o+Ell1wqn302VufBqTl87JUrX14efPABjfvxx6OVL6UWekcEfEA99tijgjTQ+nLCBL0YArvaPOONu+lMOm75pt5eOJDRzn/pheeVn9PByn/VCOU0faTSd44888zT2gl7v3791XGun6N6mXwokw1N+nYe4044Nm3gfvHF56oOHpIuXbrIe++9K1u2bNZ2xw5yTBrQj6uTXm48/HCZT1ltaNIlLiYsNm3eLAMHPCzzFiyQTz/5VEaNGqXbzs0336RvlOzS5WLdfmx6TnGbhxMOeKdDui1rJp4+u/DYPm3IdhNPXaGNT5o0Sf55Xz/tB3PcZ+P0DbMTVP93prr0DLcyP/PMM2ClA3m4QZN3EBwQJZ5ZNsINu9hwkcTtahFmuzz00MNqN/EGfRQV79+48ePlvXffVTfCbovSMOmRrg1tPm5xuxzjJj7TADE+xv+O6/5ynbqZ+0l9aci69at13wY/rpjEQ9+G8ixnPiPNpA1d/shx2iAvYbraNx6b2Do4lbVxEHfCC/L+hFXOlClRmiaNsN8XL5lMvl54pj3NMmZ6ouVBL2hZG8+WxS1ulwsSJy0bFzp7BRs/neLUidBLNuLkNfSSEfXAfMrpVTd2Xsbn3eF/1jAiDEgIQ9GgbpC4NrTxk82HLIcOHZJXXnlJHSWbrnyh3K2vxLb5+MVBJ9Fw8OAhmfHj1/LdxK81iSJFi2q4f98+5dx9r1Q/oaZc1v06mTvje5n64xRBOgLwTJyzz7tMatWsoW4c2y/LF82SUe++pRzDF4vioUy7c8+Xk09rrXZTFEQ01wL47VS3AX/z+WgZ/MRD0rZDJ7mz/xMxbSJsYcATtpjx45fy2gtDZMWy+fL00NelkvZHEza3I/TQJjdt3iofv/OyPPfMo/Ls88OlRu2TjiCE/OTXNt3y7XfHLQ5xScMNJ9XpQUyWrAymntQ3XhivDODJMk78MelG5+vIDxJweYFTAB24IrBDvDra+JTfhsSz0+045LHT3OLAXblypfILdY/2JVemdBkkSdWq1dSFC7frHSy3/qOvLF++XO+s0Znqh7K4QZsfytm4TjhMAz6ecST5qwlf6d1qHTuerxeWYPfzzjtf+9bD7rutW7cBPRpIw4bkb6f7xUGYZQntMmQ+Sk0uwok/JhBwIycWwuDf7+GHH5bjK1eWf6vbZzdv3hT140h6btCJjxtuXqfbsmbiseO0dLMH20s8cqGdw09ywwb11Q7drlK0aBHdxtsrv3XY5QbXAri1loE83KDNG+VsXBuH+XY6ymLxZdbMWXL//fdrv5bAPfnkk9VFPENlyvdTZbu6cffA4fEe8BFIzw3afNziQcuDJ2hsVxOMgwYN0rfT4kZqlOf/lLFjx0qHP3XU7hvsRXCbj5s8f7R0W++8iqerXYO0ZdrM1sGprI3DsnkBw5DFphF23M8u5OeHh3zi2tCpnpzo2eUYd8L1o8myQaEfPad80jbz8OwVEtEF9HKrHHUi9OJNnLyGXjLSbpQRuEFDZuedeqkRaERAGBLBD5plgM+4XY7pbrT98kG7YMGCsn3bdhk5coT+uP3rX/+qj6Zh1ZbHKYBnBsphpiX6jEmmeic31xNr30/8Ul4Y9KSa4HpYVq1YLp0vvUJP3GWpYxWntmwn1914hxowHScfvjNc43w9/mM5sd5J0qnrNVK9WlU1MD2kJ+Zqn9RUrrzhdi0SaL32/P/Jac1aSq2TmuTqxB10w+6zka8/L90ubCW33niN+rBelqipApVj3cyaPln+/pfL5cqu58uEL8YEKpss0pbsNfKfpx6U1o0qyLOPD5AD+w8lS9K3PPWNF5rvBpg4xW2aTjhuZcNMBy2/kKxstq6JxOORgfRRhs829NM5mXybV6JxN51Jzy3f1NsLBzoyH8/7sKihjqLiw7Fw4cgaGXnh+Oc1va7St8cCl4H5bpD0TZlsXCccEx+89qrFlgNqAgy3LyKABv4waVBe7YpEaNiwoYb8MekijXHyZzwIZBkb2mXJe+nyFbJ02XI59thjdRLK4a9IkWJStkwZwU2S1apV0zLZNJ3iNh8nHDBKh3Rb1kw853gNdZUOdjHbS1B5IDv8sO3Y8at6/9QipmrTCKSF3WIt1C3Xl3e9RKebecSxocnbzmPcxDFp2ulkul+N2bDDGuX5h7xDBw9oP3jF1NjPDOTjBm0+bvEg5YkD/rjJd+XKVbovQzr/MEbGRGiDRg3VxT8n6D7Z5kk6gHbeHzFu6gvb5WU8Xe0bj01sHZzKmjhO+blZD2HIYtKA7GHGg9gH/ILgecmWTPmgZW28eO1klw8Sd7IN7OAXgtAGjbzAs+3mJYONmxdxL/lMG1I2v7ox80OfvAsqbDrj0ZB+0E0Hu5yJZ+cxThzGbWhWWnb2Bhn++pvqyNPF8pe//EWmT5+uJ/DsSTzSMMsm84wJufpNW8n5nbvqD1PQaq78N9Wu11hKlIx8WGEirEzZUtKy9dnq4zDir6pq9ROlxRnnSLlysTc1Ahc7Jxqrjy+Evvf2lzbtLtITfzohF34gAybQPnjrRalQsbKc1vIsPRhNJWvw3LR+lXz83uuyYN5s+X/2vgNOq+Jq/+DCwrL0ukiTJqBIUcAIElFjB2PBL9iwh6hRo4kajeWL5vuSaGz/REw09v7FjlHRCEhTKdK7FEGa0llY2AX9zzOv52V2uP2de9+7MPf32z13Zs6c85xn5o7uYe6dY48/QR54Ap+FhYWxuUbSdMbk8fTPxx6mzl0OI5yMjARDEhfPxbCSnwsvqdv00kWscbUH4TFX33qsUctBcbB96PO9LoPaiqKn+4pS9vILe17tGFP26afH7ejTrl17+Z27G66/QXyEfqzcZbd69WrCN5fGT/xUPHtD5e4Vtq364Tpdsn1IvY3LTjq6fvPmJfL1PHwcH98bBC7sAsQH6LEzEK/2du1aOXmn2gVWLjv5VdtZT5XcR5eqDmzwdcEFF4gdd7Xpl9ddJ7+vBbz4buLzzz5NI8VrtM8+85QrH7oPLqu+uC6tUsUKTmw52D+uJs2TPn+C+EcfJM2vuvwSmjhhonjN82/yW6GY45999pl87ROJ9mHDhvHj4DvXVb86Ji6rOjDsVo+2Hj16yCTdYyNGyOdu5coVcr246847acCA/hIbvtGHHbF8sT03qft3Kwfpr+rgH0suvPB8+sXwa2nUqA8kTuDFPT4TcMP114q1rwvDlJJ9q3bQwPX7q9TjzXc5jTyH5USNwa0v67i1J1HPGFhG8cl945JRMOG5dernhdFJX7fj1j9I36C23HygPoof3S/KQS5TvuKyo/Lk50PVRexJl/3wcTvjCjI+rGP8tVkGU5UliAR+P+kWo95P1dPbuMw6XFYlD5YqkXTB/5S8/NKr4qPwo8XHg0+g4cOHZ1/Dgj22qfbL9b5WzRrU4uDMjg03W/h/OHzcuHph5tXash2baWfZdpFgFP8yuvf/7yS/FeXbaeGCedSlS1f66ZBhie64A34ktDp0PYpatesqXgmpQ02aNqN5s6bRjOnT3MLLuR4+GzQ5mI47+SwqFLtytm5cQ4sXzt/nZM2cHWkGkDTs3O1Ian1IJ6otkq0YI+zkTOJS5zPmZdAyz2Evqdvy0kWscbUH4TEX33qcuZaDcME+gJvvdZlLTGEw6H6DlnPBp/vww8v6hYU16K/i9NYp4sTcTZs2yR/0bdGiBd0rvt/WunUbVz7Zhi7VOPQ2LjvpcB3rYAcNXs/D7rqVK1fKE9CBrU6dYvEH7t3Upk1bsdN7b4IE/dmGLtmmXu9V5j66VPtwG+p69uwpE3Tzxam98+bNE8mOzH9XjujRk04+9TRSD4FCHNzXT0KXffrp5rtdxcqYrUzPLjy3+RF03C69/Erx1kEfWrVqFeFUZVxYQ5C4btfuELmDl5Njbr64Xp0XXKdLVQe+uF2vRxvWqueee5aWLFlCCxYsQJXEdtLJJ1OnDu2pSbPmoZ8j3Y9bmXHpUtfndqxtV4pTvbFm4NX/0tIMl+raBh3uj1hwz/11ye37m9TjTEs5jTyH5UaNIWzfpPR5/nvNfT8sqg01ZhP1fr7Dtvth8rPn1N+vj1u7ky0//txsha2HH68rrL186SMG5tEPg6rLfZKSfti4nfF4jY3eZjx5x2Cqugwy4G4x8kCw1PWcbLMO91El2twuNYk3btx4+vGPB2STeLpNNxth67scdgTVLCySu7aQdCqv2E2VX5ogqtegKRXVbiBNb9u6hbZsrvwNJfa59uul9Pw//0a3//5+aix2vuXjQkKydlFD8T+k1WRCq1AkueK+kEhrKF75Okh8wH9H6ba43WXt49XmuvXqyaRl7dp1svVx36jzGb6ClnkO+0nVpp9uXO1BOMzVtxpnUA7d9MJicbIT1kZU/ahxR/XH/fSYud5Nsj7aS5o3l9+RKy3dmp0aeC2uuLi2LLNuUKn7dOLESYfr2A/KDRs2omOOOUbs+D1CfE818y8qBQXV5a5j1lftc50uVZu419vdyqptNxusAxtI0B0svgNaJv4RiK+iomKxXme+gYc69sX2/CTrs4QNvz75ameMVgb7h9WkeXKbF0FxYB73Fq/HdunSpdLzWFRUW+7M0xN3XnNV9+mkq+swfr0eZfx0796dOnToKA6vyJxCjbUC2PiTANw/qHTyg756vZs9Nz3EirXtxBN/Ij6FshlFeTmtu7oNKOr+dJ39pazHmZZyWvl1mhtunOkxhOnrZtNkvY4vim3dhulyFExuPAfFFrZ/FIxBseh6UXw5xYM6r8uUn7jt6PwgJjefum7SZS9sjJkxeY2N3uaeFdI1A5YZTFWXXuGCaFxuMXI7S10PfbmNJeugDRfXs8zU7v3ds9dR9MEH79Oll14qv+WBJB6+04adeBdeeJF8nRYnmKE/Xqd1s7PXYvC7gurer3Zih93K5Ytpw/rV0mhB9Rr7GAeeHWW7aNKEsdRAfND9pDOG7KMTpQJ2a9UqCL2DD/yruwLD+s7wXODIM7fpNvUx19v9ymwXiUD94jZI/cLOP/xUVGQOFdHb01RmjvykitlPN652FYPbfa6+eTxNyDBY3PyFsQFOouq7+ferj+oP/Zxs+9njPtDDH9z44xZ/TPIPEndoc7MPjtiGLlXfehuXnXS4TtVh//VEIp+x4R4X6+Ne7aO2sY5fO+upkvvoUtXRfaOtVq2aWazAjDInNRibbtOr7ObPq4+KK0k9Hastp2vXndu8CDpOmMeYT/rziPUj7BxXfbrNUVVHxa7Xo8w/WLvUtQLYuM3Nj1u9kx9+hlUZtL+qB9soM1ZIp3VXx6DaYE50nf2h7BQnx5tvmVZ+w3CmxxCmbxL8q/iiYlNtALPJclRMbv2CYgvT303Xrz4oFl3Pz27QdoyV3xXUVj71wvCj6yZZDsoRY/IbG7V937/s1dYI90HBRtWLAMl4FybaLQZuZ+kEgNtY6jpcz1JvL2nWhHBSIF5zwneUrrnm6n2SeD//+XDCwRZI4uEC3lrVv9dNhS43Ldn72uwHI1+jirKtwna1rJ3y8u/prddfzr56ildQcQJtTWWfJ+JaMPMzcUjFQ3Tltb+Wu8GyBiLeIImFV9RGjXxTfscOSby4L/ioX6eAtovdc0sXzcu+Hsd+6xZl2tatXiUTZjxnuD2KZJ9IfsIn22Zb4AFtqAcup+Qe61oZnAGMHRLhXj9+1nj8o0peD0zJoDic/AXta0LPyT+49qrP1a+bbS+73Id1UNZ/eI6wblDJNiHd+jjpcB33UcuoU3+Ajdsh0aaWw7br+igzDlU6+eB2bkNZ/9Htc5+gkm1DBu2TLz0Vqx63LVeet0ny4Tcfgo4b7Dj96LGE8eemq2NiPb1eLXth4/5BpGpTj00vO9lz6u+khzr1h22zrm6H63Wp61X1sh5f2spp5DcsR2oMYfvGqa/iwvMQxZduw3Q5Cia3WMJgc/Lr1t9J1w0D17vZClIfxR/7VSXu/S5TvuK2o/Lm50vVRfxJlf1wcTvj8RsbtV1Jp6jV0e8ZjCkJJHwQQ5QAo0cSrCdj0mWw3sG18FFjfAOFr53l5fK2bdtD5DdJevU6kk499VSxG+8D8R2zV2njxo3i+yTzadnS5eLDx5+Lb+EdTRdffDF1Ed88KyqsTng1FCeIRblwOAUfdAA/Zbv35oCRWPps3FhptqSkBeFwDVzfrlsrxlHeClkgv0cy5uMPxM6UGnTSoJ+J/4jkllRkmzh44pnH/0rtxSset9/zAB3Wo49MmmU8m/uN8UZi7P233qZPx75PCxYukpx2PKwn3Xr3/eKV4WK5A/DN11+l/3v+H7R2zVq6/pa7aeDJZ8tx5OcjCqLRH7xL48b8h+Z88akcQ5z4ds/9I6hH7/6S46+XL5eHUoz96F0aPORCuuiKG+RhIdhtl9SF+VVcWyS7ahbJhZKfj6T8x+EHOyC2b9/habpu3TrypFE3JR73KBIcop9pCaxeeNz8efXxsxml3Q2HW30u+Nxscr0bfm5n31w2JVW/bjaddFDH+n7YuD0OyRh06eSLdbiNy7rkdpZ6u1/ZiS+/PvlqV7FyvFbmbxde0HngN25+dvQx9tNX/bnpso7ezvW61PW4zNi47CdZP6jU7Tn103XcytyX2zlGLrtJ1qvq0i2+tNWnkeewHKkxhO0blz7Pf8ioPlQbaowm6qNicusXFpNux6m/rhO07GQrKH9BffjpwZ/X5dc/be2IhXn1w6bqcp+4pR8mbmccXmOjtxlP3jEYExJgt27dSl988YXc0aQmrziQN954k2/3ezlt2hf7xMivW7Rq1YrwgyTeCSecKE7XGkUjR74rk2ezZ8+ShyEgiYfTwbZWtKFdB3emBrUzr0ntY9SnAhOtX/8BNGliZkff7h0bxQOUOVkWr54+888R1EkcQHH4Eb2F/5FZa9szn0sRut/TojlTxA651+jiK39pLLFUsfs7WvHVchlzSYuDqZb4JlJcFz9stcUhF8cMPE26weEPM2fOpsuH30CHio/BYwfghE9Gi+/E7JaJ1B3b936vKRdcSHj2PvoYaia+qfXQn+6VidQZX0yhI47sR4u/XEkfvfMyfSVOj9y8eROtWjpfHoqRi78ofb/ZuokWz1tC9bYvpDULm2RN4IPzCxYszJar0k1p6XaRmPthErsAr1mzFs2ZMyfbunlT5W895rouwjDPPVPSD5OTH78+cbUHjT9X/04xq77d7KOf3qb287Pr1x7EtpOOXsdlJ2zcFpfUfbr5YS64ncuq5DZd6j68yrn0VbF4+TClp2O15Xj+QSMor0HH1c+elx23vl7zTe/jpMs6um+u16Wuh7Ku4+RH7afrBy2zXTd91QfrOknuz/p6met1yXpVXepxpbWcVp6d5pQbh3oMYfq62cylXscTxZZuw3Q5CiY3XqNiY3tu/aNgdLMVtD6KT45Dlbj3ukz5ScqOzh9ic/Ot6yZV9sLEWBmL19jobcaTdwzGhMSOO3x09vXXXxM7yj4UO5Yqf2sNSQwkpg70C1zjBxOAk3gnnngiDRw4kP70pz9nOeIkXp06dajjUedQh94/FtQdGom+Hr370bQpU2XiaMvmzdI/dt1N+2wi7di2nnod2YeaNy+h6dMmyl2A3+3aJk7+Khe70QrlrrsJ48ZIv4POHSb65rbrDoawq6xB/Xp01rnnCx/i488iudWmfedYdt0xYTXEx+f79j+RGjaqR4d3P0qe3IodicuWZJJTH//7X3TiGedRi2FXiqTiUurc/Ri565CfDbYTVnbrdYz0iX7jPn5fJlFXiqTlVytW0rgP35DmfvnrW2nH9lJCchG7AJPcdQcA35VupKlv/pG+HIODQDLPLZ7XZcuWinlQKjHuz7+w6/TUU0+Ru13VOHnso0pe5E1LYHTC5ObHSdfNhsl6Nzx6fS74dFtuZT0u1tN9c70pqfp1s+mko9YxxiD9WdeU1H062dV13MpOfRGnm75bvcqNm05a6lWsbvHb+vh344WdD27j5mfHbSz9+qn+/HT1drUv/OvtXNaxcb2b1PWDltmekz63xS11TqpaOW5+TNtPI79hY1RjCNvXtL767ES1rdpQYzNRHxWTW7+omNieU39uCyudbIXhL6w/N3349Lvc+qa1HvEwv34YVV3uE6f0w8PtjMFvbNR248k7BpOrZJAV4iTTpUuWysMYuM5KZwbAOa5du8pFwm42TZ06VbzmV3m3V+vWbahh8x7URCQXDqrTyNlQgNpmIjHH144dpTI5tHt3AT0x4hHq2r0v9er7Y6ox/VNq2bKVTN5hh+DuPZn/oZ47fRKNGfWO3HXXvHkj2rnTzOuc2JnZs+8A6oxXg0XCiucg4zQt8apuYWFdib9Zy/bipLiucofdpxM+ISTuuvcZQP2PP0Oc4FhIR/XuQ2UVmSRjrjjw2jI4Q7K0T//jZRIVO+1efOJBuRvvjDPPobYdO2fdmOI3azDgDV6pxs+BeNWuXZuGDv2Z2AV7gng2Mqd5ggeek1ElL/KmpRseJz9uuknVg0cnXFyfKw4v2+wDUveDfnodl9V+Qe276bFNlk62uY2lE161TffFbXFJxuxmX8fjVHbry/XsI4jkPiyD9HHClEQ/xmhl1dh1x/PEbby43Um69eF6r/nGOiy9dHXf3Iel3o4yt+nSzY+uZ6rshM0NQy71pvDmy05SPJnyky+e/PyGmUO6rTB9TfEIOzqOKLZ1G6bLUTC58WkaG9uLgpH75irdYg1TD12/K0qMsJmvfjqvXlh03bjLQTlhHH5jo7YbT94FBeunxyDr1K1LgwedQSUtWnBVYhI7hRo2aODpr2bNmuIV1Q9p8pTJWT0kcc4bcq7nt6+yygFv4Gf8xIk0dkxmx5rajb8JuGNHGU2bNpXefPNNmjhhYiVM7dt3oCOPPJLOOOM0mrO9I+3ctSfyN+/gu7lI/vG1/ttv5I6yeTOn0OqVS2nQWedSs8b1xPfsalJRrVpSbYf4RN/3e8rFrrsd9PmnE8QrrbXpnKGXi1dKc991xzh4TtUVpyZipxmXuT0OyT6qFxxEx59ypkzeffTem3T00UfLb/khoYjkmffLluGQsU/khLod0VPswmsgdziW7dhMp55xD7U8pLOxhGg4ZHu1kRju3nswtTq4FjVrZP71ZTyb2EFagz+kuNd13u8qxMC0bo3X2DOvkquAeOyiSF7g45LAqeJy86Pq6H2SKLvh4vpc8LGNoJLjZX0339xuSrJfSDebTjpqHWMN0p91TUn26WSP2/ykU181Pr/+ensufXVbcZdVrH482Hbzu/Cijq8+bn52/MbOr7/qz09Xb+e+ej2X3bBxuy7d9HOp133EXWZOqpqMm5e47KeR57CxqjGE7WtKX33GotpUbagxmaiPismtnwlMeoxuvvzqTWDx8xG0HTF5XUHtpE0PMTHPfthUXe4Tl/TDwu3s32ts9DbjyTsGY0Jix0qTxo3p4ksuo0svv1LHHnsZiRdOjPk5U5N3PXv2pHvuvdevS+h2nCqrJ++Ab9u2UpoxYzq9O3IkjR37yT5Ju8MPP0zsAhoqTqc9WSQ86tET786jWUs2hPavdqhff29Sc9u2rSIZWEEvPPEQHSZeH8XrobgaNWlGdRs0l/d4lXb9xs208stZNG3SGLpMfBcOCb5tZWZ23UknP/xK+hVR9t2l6+HyduXKFfTAo89S/fr1swsK65iW7Tp0JuzywsEg2IWHXYdpuPA9xQHn30RDj2tBR3ZtYxxSQUEB4RCXtF9VYdcd/4dDX7O5XpW6Tr7KGHcVF5dzxeNkk207SfaHfnzvJp36h/XH+roPJ9tOOnodl4P0Z924JcfoJYNicIrLza5uM0xfN5tx1etYbTnZXXhRx1UfJy87uq5b2Wue6n28dHUs3FevR5nb3KTux00v13onbLpvk+Vc8earf9I8mfKXL778/IaZU7qtMH1N8Kj7j2JTt2G6HAWTG4+msbG9KBi5b64yim8nflDndZnyk7QdnV/E6IZB14277IWFMTIGr7HR24wn7xiMKQnAxcW15f8s6ODjLiMG9Y9vJ39InpVqr6ZyH5ZO/cLWwc8Oh2+FjR8/nj768MN9dv81atSI+vbpQxcPGyaTdo0bZw4NQKKvTBygkOvVpGlzqlFYIL55J17T3VlGC2Z+RpMnT6ZrbrydWrdqKV8RrVZYJ+umoHod2rB6qdx1h8rjTzuPtu9y33WHyXzQQdXkDjo2gtdU85WYYwxuEtg6dOqSba5dbH63Wdb4Dzfg4uA2HcXzkfHFuxxNfENQ9xWlXKtmAVUXc6B27aIo3T374NnkH0/FFDXmsiby4h63BF3A6eYnlxjYtgkZBz43m0Hr/bgJaieonsqjWx8nHbWOMQfpz7pxSjccen1QDHo/v7LKjZ9uvttVrEH5sHq578LLddx53PzsBB0rPzvsD9JPN2i7Hzbdjp9+lHbdR1Jllc8ouJPunxQvcflJmq8g/sLGqtoM2zdXfXWORrWl2lBjMVEfFZNbPxOY9BjdfPnVm8Li5ydoO+Lyu4LaSpse4mK+/bCputwnDumHg9vZt9/YqO2Zj6SpNTneAwwukxKBIRGW9E8UQnOkL3D3tWvW0kMPPUjX33Aj3fuHP2R32yFph5Ngb7nlZnrhxRfoggsuEKe5NpHcIZ6du6sF9uGlWK9B02zzLLHr7x9/fZD69hXfujvmJ/IVWjTWq1uHGtbPvDa7bfM6+uDfb9Eicdrofw0bTs0b18o+aFlD4gbzBkmp7aXb5MEW3Ibk2IYNG2Ub16VJAjMOpeBryeIFsWMFJ2vWrs1+1xAn7W7fulFwaGaMOZZcZRzPL2zy82lyrUGsabTHscYtOXYnP9yWBhkHPiebmA9B6oNwEsROUH/QU3262XbSUevYTpD+rBundMOh1jvhd8Ok9oOOX1m17aeb73YVq1v8tr7yc2KCj1zHncfNyw7rBJFedvR4/XSDtIfFFERfxxmkHAQr7JjWiyueuOyajj9pe3HxkovdsByovsL2zUVf9Rv1WdBtmC7nEp8ek2lsbC8KRu5rQkbxr3ODcpDLlK+k7ag8+/lWdcFJXGU/HNzO/oOMD+sYT94xGNOSg0ubZCLdpCm8uv0FC+bTTTf9mmZMnyabMjvt+sqk3UsvPke33vrbbNLO5A5AxlFcvzHf0uzpn9PHH42kH5/8U2pRUiKTVtj9VSxOOi0sbij15s2fR//34pPy/qQzhtC2Hc677jZt2kRLF86kf7/5Ir3w5CPitOEt8sHC9/SeGnEfTZ7woXxFl3nNgsjzzeoVX9K7b70uvnWWeUV0phiXivKd2UUhDng7d5bTa8+PyO68++Lz8bRu7SqRPI3DW+42ecxMS9NrTVrtmebNyR5id6rH6KeNFx1nLvh0W2HLQX2Hteulr/t00nXS0eu4HKQ/68Yhnfxj3un1YX3r/b3Kum0vXSdsSerrWG059111GFMvHk2ML+z72fHC4ITRy55uy0s3yJzW7bmV2Y9bey71bDsfMhfcTmMXp7188BNkDoXBFSc/uYxHLjGE6ZsLnyp3UX2qNnLhy8lOVExu/Zx85IrZzZdfvUksfr6CtoMLryuonTTq6Xx7YdR14yp7YcA4cDv79xobvc148o7BmJYcXNqkTqheNoVXt8tlJO169jpKJu1ef+N1mbRr2/YQkUDL7FRkPdOyTnEtatgwc1otvvF24kmDqVfvY8UJqHu/Q6bel4pXfuuIU1LPPPc8KmlWL/s/yDqujetWEHatffzB+/TIfffQsoWzaMmCmfTSc/+kd994mcaN+Q+VblorJr377jKee7rtuMpIML7+6nPUSRxUcvWvfivdTPrkQ/Ga87YszrId243uxMOuu7defZK2bN5EV177m+xJt0sWL5T+wQG+Q4gftwsHiiR5mXoWdDs83vu71ONOspxGbtX4c8Wn2sIzEaYcxncYu0FwqL7dbDvpqHXwg3KQ/qwbh3Tzr9Y74fbDovaHrl9Z9eGnm+92FasfD7Z97/8sR+UtifGOgs0Pl2rTT9erXbXjN59gJ4y+nz213Qsj9OJujysu03bj5iEp+6Z5MWEvbOyqz7B9o+ir/qI+E7oN0+UocbnFYhob24uCkfuaklEwOPGEOq/LlJ982VH59sOg6oKTOMp+GLidfXuNjd5mPHnHYExLDi5tUidUL5vCq9vFSZuctHv/3bdl0q5Vq1axJ+1UHANOOJVqFma+ZzZ02GVUv1HTbIIK419ffPKufoPMzjv0O7LvsTRQ7M7b7nH0aqfDetLZQy+m4dfdJG1/MfVTevbJx+hyccDFqE8X02/uvI+alLTO+lHxgGskyZZ/OZ82fIMEn/HprbqTrwfD36Qx/5avAw+//nfUsVNXiRs7I9euXi7+J/J7WjT3C1o45wvxemtpzpiQtMOFnYj/7/576bzzh0lOcXovrpUrv6LNW3bK146XzJ9G36xamn2NWSoovyoqdimleG95LOKQpteaNNqLgzeMeFC7aeRExZ8LvqAcuOmF9e1mJ0q97tvJhpOOXsflIP1Z16R08quOL7dH9cn9g0jdR5A+TliT6KdjteX4dt8lMZ6YR1HH0AufbtNL12su63byUY6K3WS/fMQddm6YjNdrTiThJ618h4ldjyFM3yj8q/6i+lJthJ1/fvpRMbn1iwOrmy+/etNY/PwFbceY+F1BbaVRT+fdC6OuG0fZyz/GgdvZt9/YqO3GsxsMxrTk4NImVTKd7k3hVW0fcUR3uuOO39H77/9bJu1KDm6ZaNKOsbQRO/x2lZfJXXfdevSttOsOOmLzHxXWzOzuAuYLL7mCGjaq55h4Y5v4dtzOnXuo9SGd5IEYzzz+Vzqy99HUrGV7aZ+TV6yvSnA9ffI4uuvmX9BfH7hHJrDUdq97zFe8brr+23VUtnNvdnH3HvzrceVdfuvXrqQpE/9D61avkv5eff4Juvf+/yeTZK06dJO44Wvs6A9p9heT6JnH7qcdO0rla8Q8HxgLfH7/3d7dceXl4gQQcemvviJJOGOyeC1W+EQy8I7fXC18PipOl+0jdzI2aFBP9psycQzNnvoJvfHKU/T5pHFUv3GJrFd/MYdbtmzOVu8QiUVc/NxmGwzdcNxxSca9v8q4eAtiN82cAn+u+IJwgMfASS+Kbyc7bvaD1KsY3Gw76ah18INykP6sa1K6+VXrnfAGxaDaQR+/surLTzff7SrWoHxYvb3/rQvKXxLjHBSLk54fPrWPn65Tu9o/n/PHCRvwJF2fFj7ccCTNR9z+3OLMZ33YmFWsYfuG0Vf9RH02dBumy2Hi8YvBNDa2FwUj9zUpo+Bw4gx1fpcpX/myo/Luh0HVBS+my37+uZ39+o2N2m48ecdgTEsOLm1SJdPp3hRe2O7QqRPdeccd9OFHH8qkXbOm2OlW+fVYN39O2HKpw46ymrWK5C4zfdcd290lknd9j+5HSNx17tyZeh19PJWXO3/rjvuwbNmmpXzNdu3aNdTzqB8RXtNFYs/tQkJq5der6MP3R9KkieNp/OgPaPLEj113nel2cEDGqhWraOS/nqVFCxfL5qWLZslTdLdt3SpfP4WP9Rs20T8fe5guPPdUuvCs4+jxv95HP7/uFippdYjsU9K8CR19zPHyHq/9/vqaS+jwI/vR4b367ZPcxCut69ZtpBlffE74Xh2uHTt20Py5s2jTxq1yFyHqEPec6Z/Sf515vPT5m2svoeNOOoP69j+RCgtrEHg+eZB4HbmkhYz9uqsuoIWzJtOxx/2EmjdvVIk32MLBH/iu4LgP34Z5mYB989WnJX/gwYtn2SHiL7e5aaLe9HqTJnsm+MGQRbWTJi4Qh0k8UTnhflGxcH8TUsfgZNNJR6/jcpD+rGtCOvlzmq+5+grqB3q6rzB9nbDH2V/Hasvmd9/FOX7qfMl17Lxw6ra9dFVMrKf3z0eZsaRB5iN+jEsQv2ngx2kO5YIrSNxB+TGpFyYmPYYwfcPwqfqJ6kO1YZIv2I2Kya1fHFjdfPnVpwmLjhXj6HXp+lWxrPPvFYOua7rs5RvjwO3s12ts9DbjyTsGY1pycGmTOqF62RReJOlOOeVUuufee4mTdmwbPplvrtOljstEuV37jnTiqYNEcmrAPokptl9RUUFHHPkjGjRkmEjGFWb/x4Pb3SRe/Rw4cKBs3rj+G9+EEhJO7Q5pQxcMu5KGDj2fLrzsF3TiaWf79gNv+Gbdy888Smef3IfefOMtuXMOryV/OvEzuuuWa+iPt/+CJnz8NhXVIBFDHep99DHyG3NItF10xbV0guCAE16QSGbiW4S4Bg+5kM4Zerk4PGRvEg0+kbj7fNz7dO1Fp9E1lw+lr79eKW2XiuTZX/7nDrr64kESE5KFSBqWtO0qTxFe9fVqOvLoAcLvDVRUu1jyiR2ORx93BrXv0FH67Cjk4PMuocN69JG7GGWl+AU7OJ32brEzcdCJfWWsiAc/U6dMoV9fdQ498ue7CIdvcDzc14TU56TpMj8D+5s0zVMYe/sbl3o8YbjAM6Dq67bClFU7ut0oZdW3m20nHbUOflEO0p91TUg3f2q9E86wvlV76OtXVn366ea7XcUalherv/f/n9x4TGJ83XyHqffDqdry01Xb1X75nC8qJuDIdzktvOg48s1LXP71ONNQDhurijls3yD6qv2oz4huw3Q5SBxBsZvGxvaiYOS+pmUULE78oc7rMuUn33ZU/v2wqLrgxmTZzze3s0+vsdHbqn0vLr3Sr7xtWymtWPEVITFTVFQkT9isVatm9j+kfv2jtCM4BJo2WV2833jTTTfRQw89lA1ryJDz6F//+j+RABFZFXGZwpx14GAzqJ8NW8romQ/m0+KVW6S5E48+lPr1bF0pyaP68brHTrfvy0vp4DYdHXe4IVmE1zy3l26hpiWtqFgcWMGT1csu2t5/6yXC66jYRTfiqVfEd93OdvThZAeJseoFeA028304Jx29DmOkvx6r6mCnIWNHYgvfr6vY/R1hp52e6IKtr1aspNqFBdS42b6vrbLdMD7RB0nGreLZa92qJZvIStjCSb1ob9KoAdWt5/56shcvapxZ4wFvgGFH2S6aPOcr+nzO11SvuJCG/Lg99T28hbSQxPMbEGqVUUcbw7QAAEAASURBVAOnSfDm5qfKEBUBqFvMQesjuKzUJaifoHqqcbc+TjpqHd8H6c+6uUg3P3p9Lj7Uvrpdv3Iuff1sm25Xsdp7cwyYHic3e6YQu9nnetUP1/lJtU++7v0w5qs9X3y4+c0XD0n5dYs7n/VhY1exhu3rp2/CtmrD9L0f/rDtpvHBXlgMrB8HllzwMC6WyFfMnTuXunXrVgkqcjl8sW5VlxwPpF8sqq7Jez+/3M4+Ud60aSOtXbsum187WHwWrW5dcYCAdtmddyIhiIsTM2GlxqdjMaxNN30MLC51wFnXqY7bWDqCy6ESSaQ27Tu7JsmQ1ELyCjq8SyyIuxVLF9Lnn06g2+95QO4KW7hgHlWU7yTUI4HFPLjZqlWzhismtz7gCHjdflQOkfyqX78+NWnccJ/EHexDF9x4Je5Yz80f6lWf0IdPp8Qd2+J2cI3+blcYn242wtZzLHFLnhv7i4ybLy/7+wuHbnF4xY757dXuZjNMvZd9P/9O7apvN9tOOmod7KIcpD/r5iLd/Kj1Tvii+lTtwoZfWfXtp5vvdhVrVH5sv8z8V3lIYlxNjp0fXtWXny7aVX2Vl6Trg2AFvqT1kubBz1/S8Sftzy/+fLSH5UDFGLavl75qN+qzoNswXfbCHxazaWxsLwpG7huHjILHiUvU+V2mfOXbjjoOflhUXfBjquznl9vZn9/YqO3Gk3cMxrTk4NImVTLd7k1hVjnVbaJNr9PLbvjSUI8DGT756B1atmg2/fHu39IV1/2ODj38SPFNt0Ia+dqL9NG/X6P/fPA2bdmAU2QrHyCRBvwWgz8D+nyMo6w+I0BUlctx8ANOgtqtytz5jX1QDtz0THHjZj9KvY7JyYaTjl7H5SD9WTeKdLLvND+j2PYa/6B+oaf7DtPXKZY4++tYbTm3f5gFf3GOlzo/TI+VF27dl5eu13Ok24mz7Icxn+1xxh2W/3zyoM7nOHGkiW91fMLErMcQpq8Xz6rdqDZVG2p8JuqjYnLrZwKTHqObL7/6OLAwNj/fQdthz+sKaqcq6Onj4YVZ1zVV9vKJceB29uc1Nnqb8eQdgzEtObi0SZ1Qp7IpzCqnuk206XV62QlbGuqwEwwHMlx18Tl0yo970fDrbqIWJSVy99zFV/6Sli5dIk5PfUYewIBdfF67ytIQj8XgzIA+H+Mqq88JkFTVclz8BLFbVTkLijsIB5g7TnpBfQTRc7Lv5jdIverTzbaTjloHPygH6c+6UaSbfbXeCVcUX6od1T5s+ZVz6etn23S7ijVXnmx//7lhYvziGDM/XKpPL11VL5/zwQsjcOW73fKUe6I8zDimhW8VR9g5mEtfJ1+qvTBcqrZ0G6bLqq+oGLmfaWxsLwpG7huXjIKJeVIl7r0uU37SYkcdDz9Mqi44MlH288nt7MtrbPQ248k7BmNacnBpkzqhTmVTmFVOdZto0+v0shO2NNThNdQjeh9Hb34wgUaNm07dxOmsqEOSDgczoP7eR16g9p17pAGuxRCBAX0uxllWnxNArYrlOPkBJ372qyJnQcfaL3a/dtPc+PkL065jc+rrpKPXcTlIf9YNI53sOs3LMDaDjr+THy88OgYv3bC2TevrWG05elIhqXGOa4y88Os+3XR1vXyU3bClqT4fvOjrXZr4ML2u6fbSwLfOv47Rr6zHkOv4qfai2lJtOMWXS3tUTG79csHiFpubL7/6OLCoGP38B22HTb8rqK2qoKePixdmXddE2csfxoHb2Zff2KjtxpN3DMa05ODSJlUy3e5NYVY51W2iTa/Ty2740lCP79Qd3vNH1O7QIyp9rw7fcevcrY/81hsSevaqmgzoczHusvqsgLGqVo6bHy/7VY2rsHi9Ysdc8WoP6yuIvpc/PzxO7apPN9tOOmod7KIcpD/rhpFudtV6JzxhfHj1V/3Apl9ZteWnm+92Faspvg5EO0mMY5xj5Ydf9e2kq7bnc/ydsAFP2urzzVfa+IgbT775dvIfNmbVRti+qr5qJ+qzodswXVbxRsXI/UxjY3tRMHLfOGUUXMyVKnHvd5nylRY76rj4YVJ1wVOuZT9/3M5+/MZGbTeevGMwpiUHlzapkul2bwqzyqluE216nV52w5f2epu0S/sIBcOnz8c4y+qzAnRVqRwnL+DCz35V4irs2PrF7tceFzd+fsO06xid+jrp6HVcDtKfdYNIJ3tO8zKIrbDjr+oHxQE9HUuYvk6xxdlfx2rL4XffxTk+6nyIe2y84tB967p6ez7KOqY0l/PBD69naeZFne8mceaTb+bdSYaJUY8hTF+VV9WOCRtOcak+wrZHxeTWLxcsbtjdfPnVx4FFx+iHIWg77HpdQe1UJT19fLyw67q5lr18YRy4nf14jY3eZjx5x2BMSw4ubVIn1KlsCrPKqW4TbXqdXnbCZussA0kxoM/HuMvq84IYq0o5bl687FcVjqLi9Iodc8SrParPIP28/PrhcmpXfbrZdtJR62AX5SD9WTeIdLOn1jvhCGI7TD/VH2z7lVXbfrr5blexmubtQLCXxPglMUZ+cagYVF21Pp/jrWICjrSX88Vb2nmJC1+++PbyGzZW1VbYvtBX+0d9RnQbpstR4nKLxTQ2thcFI/eNW0bB5sQf6rwuU37SZkcdHz9sqi64yqXs54vb2YfX2OhtxpN3DMa05ODSJnVCncqmMKuc6jbRptfpZSdsts4ykAQD+lxMoqw+L4ixKpST4AVcuPmpChxFHUu3mIPWx81NUBxB9HSsTn2cdPQ6Lgfpz7pe0smO03z0shF1/J36BcUDPR1TmL5OMcbZX8dqy8F338U5Luo8SGpMvOLRMbCuXp+PMmOpStLy5P7/FnGMYz74dvrviI4jTKy59NWxhPGb1FoUFZNbP50vE2U3X371JnzrY+hU9sMRtB22/a6gtqqSnj5OXth13VzKXn4wDtzOPvzGRm03nrxjMKYlB5c2qZLpdm8Ks8qpbhNtep1edsNn6y0DcTOgz8WkyuozgxjTXk6KFyc/aecmV3xOMWNOBKnP1XeQ/kFwBMULPdWnm20nHbWO7QTpz7pe0s2OWu/k38tmLvqqX/jwK6u+/HTz3a5ijYu//dFuEuOW5Nj4xaNiga5azuf4+uFOa3vS/KWVh6RwJc13EH9hY1dthumr9sOzGqYv6+s2TJejYGJsujSNje1Fwch9k5BR8OncoRzkMuUrbXbUcfLDpuqCs6hlPz/czvaDjA/rGE/eMRjTkoNLm2QivaQpzCqnuk206XV62QujbbMMxM2APh+TKKvPDOJLczkJPsCBm580c5Pr2LnFHLQ+KW6C4gmip2N26uOko9dxOUh/1nWSTv2d5qNT31zH36t/UFzQ07GF6esUa5z9day27L/7Ls7xUMc/6bHwiitpLEH8eeFVeUyjXpD4vNajMP3TGH/S4xOGL1O8B7ETZmz0GIL2VfsF7aPrqTaCxBVGX/eVazmM76CxRMUUBxY3zFEx6v1g3+vS9fensj5eXrHpulHLXj4wDtzO9r3GRm8znrxjMKYlB5c2qRPqVDaFWeVUt4k2vU4vO2GzdZaBpBjQ52NSZfW5QaxpLSfFh5OftHJiCpdTzJgLQepNYQhiJwieoLihp/p0s+2ko9axnSD9WddJuvVX6538Otkyqaf6hy+/surbTzff7SrWuHncH+wnMV75GBO/uPKByWu++OFNe3tSfKadh6TwJcV3GD9hY1dtB+mr6uNZCtJH19NtmC5HwaRj5LJpbGwvCkbum5SMgpF5UyXuvS5TftJqRx0vP4yqLjiLUvbzwe1s22ts9DbjyTsGY1pycGmTOqFOZVOYVU51m2jT6/SyEzZbZxlIggF9LiZZVp8bxJrGcpJ8gAPdXxo5MTVWeqxhy0lzExafl76O3UnXSUev43KQ/qyrSqd+aZqHQfFBT43LKYYwtuLur2O1Zffdd0mNW77GwCu+fGFy8uuFM+7nxZR9p7hg22T9/sBTVeI7yviFGSN9bvj1VfX9dN3aVRtR4vPq7+Yzar2Xr6jY04TFK4aoOPV+8OF36X32p7I+h7xi03WjlL3sYxy4nW37jY3abjx5x2BMSw4ubVIl0+3eFGaVU90m2vQ6vQx89WrXoKLC6m5Qbb1lIGcGvivfuY8NfS4mXVafHYBLWzlpPlR/aePCNB41Vox9mLJpLEHshcEXJB7Vp5ttJx21Dn5QDtKfdVXp1k+td/Kn2oizXcUBn35lFYufbr7bVaxJ8VkV/SQxTvkcC7/48olNnS9+OKtKe9x8VhUeksIZN99R7IeNXfXh1VfVw7PjpevWrtswXY6CKWmsUTCa5imIvSg4nbhEnd9lylda7ah8+2FUdcFb2LKffW5nu35jo7YbT94xGNOSg0ubVMl0uzeFWeVUt4k2vU4vQ6dmzcJKMMu/K6fy8u8r1dmCZSAqA2UVu2lzWUW2+/ff7b3X52OSZfXZAbg0lZPkAbHr/tLEhemx0WMNW84XN2FxeunrMTjpOunodVwO0p91IZ300zgPg+KEnhqfUyxhbMXdX8dqy/vuvktqvPLNvVec+cYG/1744n5OTNuPk8/9iSdTvMfJNzBGtR9mrHQfbn1VPTcdv3rVRi7xOdnx8x223clHrpjDYmD9OLD4xcK+c5Xw43Xlar8q9NfHzwuzrhu27GUb48DtbNdrbPQ248k7BmNacnBpkzqhTmVTmFVOdZto0+v0MvevXXPvzrvyst20o2xXdhI54bd1loEwDKzbWEaF1Qtkl9q1i7Jd9fmYdJnnf9pk0jyo/tLGhWk8aqyYiGHKprGEsRcGZ5C4VN9utp101Dr4QTlIf9YNgg32nPyoNpJod4vLrV7F5KaTlnoVa9K8VgV/SYxTGsbAL858Y/TDV9Xa4+KzqvGQFN64+M7FbtjYVV9OfdX2oP991fV0G6bLTrh1DEHLprGxvSgYuW/SMgpWJ35R53WZ8pN2O+r4+WFVdcFdmLKfbW5nm15jo7cZT94xGNOSg0ub1Al1KpvCrHKq20SbXqeXuX9J4zpUrzizA2/jlm20a+cO0beaE3RbZxkIzADmV9n2nbR1e3m2T/uSYvnHvj4X81Hm+Z8mmQ8eMDjsN01cAJdJPBxjVGkSS5TYouJ26qfHElRH78flIP2h66QHLvR6tptvqePyKutYvXSdYk5SX8dqy3t33yU1Dmnh3CvefGL0wpXv5yeq/zj43B95isqv3i8OvuEjV7thxkz3pfdV2/W2oGXVhon4VHtBMQTVU22bwhrUt64XB5YgMek4opbhy++Karsq9dPH0Qu7rhum7GUX48DtbNNvbNR248k7BmNacnBpkyqZbvemMKuc6jbRptfpZe5/SPNiKq6dGXrsklqyZrvoa1+ddRs/W+/PAOZW2Y7tNHvx11nl5o2KqG7dOrKsz8V8lfkZSIvMFw/wmxYO4sKRC7dxYQpjNxf8eOj0/qpvvY3LTjpqHeyizPq61HX1dqey3iefZSd8TlyynoqV69IqVaw8jlbu+5zEMX5p4t4vvnxh9cNVVdtN81lVeUgKt2m+TdgLG7vqU+2r1nv9d0nto+vpNkyXvXzrWPzKprGxvSgYuW8+ZBS8Ttyizu8y5SvtdtRx9MOq6oK/oGU/u9zO9vzGRm03nrxjMKYlB5c2qZLpdm8Ks8qpbhNtep1ehg5+OrSsT22b1pevNmKX1IrV6+jrNRskfO7jFouttwzoDGDOlJdX0PwVW2jBV5vlvKpVs4AGdGuR/SMffXhu5VOqzxAw5bOcTx7yHXvc/nPlNp/zQuUm1zjU/npMaht8ouyko9dx2a+/Uzv7USXbS4sMituNLzW2MLbi7pcWftOEI6nxSVPMfvMsH1iTGod8+DHJZz7w+82XtLWb5BuxmbIXZux0n9xXree6sFK1YTI+2A2LxU8/Dqx+Pt3a48ASlH83TGHr4c/rCmuvKuvr4+kVi64btOxlE+PA7WzPa2z0NuPJOwZjWnJwaZM6oU5lU5hVTnWbaNPr9DLr4NCKHh0aUuOGNSTcr9aU0uhpC2nx0pXy+3e7d+/JhoE+9sdyoM8BTBDME/xs2LqdZn25jqbMWZ6dN9h11+vQptk5iQZ9PuarjFhw5VvmK374zXfscfvPhdu4sYWxn0scmON6f9W33sZlJx21jp8d1tcl6+r1TmXWTZN0wunEJeup2LkurVLFyuN4IMskximNnPvFnTRmPzxVvd0Un1Wdh6Twm+LbpJ2wsau+0Vcte/33yMuPbsN02ct3WMymsbG9KBi5b75kFMxOfKPO6zLlp6rYUcfTD7OqCw6DlP1scjvb8hobvW3vyQV6S8QygzEtERxspk0GockUZpVT3WYQbtT+PTo1p3WbK2j0jpW0c5dIwGyqoPc+XS4SeqvosPZtqGmd76mgRm0qKq4VJESrc4AxgG/bbd9eKhJ3u+jL1etpzbc7s4dUICl8cu/W8mTj3bt3S2b0+ZrvMkCpz0PS5XzHn8/Y4+Y6V27Txk2u8ej9Vf71Ni476ah1zBHrR5VsJ20ybDwqN2H7Jq2vYk0b70niSYr3JGMKM7Z+8YexlUuMfjj2l/Zc+dxfeEgqjlz5jqN/2NjdMIS1w/q5PKduWLiefZiScWCNii0OLMxbEBkVt94Pvvwuvc/+XgYfPL5+saq63MdL+tnjdrbhNzZqu/HkHYMxLTm4tEmVTLd7U5h1TuGPbXObWsdtLFkHZdyf3KeVhDz6i0wCDwUk8T7+fJGst78sA0EYwMmyfLosEnen9T6EkBzmxB1s8BxMi+RnIV8ynzzkK+ak/ObCbVIYw/ox+Qzpvp1sO+nodVx26h9kDLh/WmWYuPQYwvQNwpVJezrWA7WcBO9p59ZrXiWFPYlx8IozKf+58pkUzv3FT658x9U/zFx0wxBljNxsmaqPgsmNC1OYdDtRMOo28lV24ypMPXT9rigcwWZV7aePp1csuq5fOSgnbMdvbNR248m7oGDD6nFwaZMqmW73pjCrnOk20abX6WXur9afenQbat6gBo2esYZweIW9LANhGcD37XB1blmPTut/CLUS31NUE3fqfAsyT5PSB2Z+JpKUScXn5ifJWJPm2C3moPVp5SYo/qB66ri49XHSUeuYK7f+fvXcP63SD7/ernKjt6WtrGJNK/9x4kpqPOKMwcQY+vFgwocXB37+97f2qHzubzwkFU9UvuPsFzZ2HUvY/qzv9RzqPsKW2YcpGQfWqNjiwJIvfuHX64rKUVXvB054nP1iUXW5j5v0s8Xt3N9rbPQ248k7BmNacnBpkzqhTmVTmHVO4Yttc5tax20sWYfLLHt1bkHd2jelZWtLae7SDbR07RbCd/A4KeMUk607sBnAq9bYZde+eQNq3bwuHdqmvkzaYU5x4s5tvvG8y7dkfEnLfMaddKxJ+8uF26SxhvXntbaHjVv37WTbSUev47JTfy9M3C/tMkxceixh+npxFYcdHeuBVk6C76rCqdf8ijuGJMbBK76k/UflM2mc+4u/qHzH3S/MnNSxRBkb3YbpchRMbhyYxsb2omDkvvmWUbA78Ys6r8uUn6pmRx9fcOQWg67rV/ayxT7YhtfY6G3Gk3cMxrTk4NImdUL1smm8sA9udbtOdWF0CgoOoo5i59ShrRvoIdiyZcCXAcw/p6SdPgfTVkZgptcqL3v5jt8LW9JcmPaXK7dp5ybX+PT+Kv96G5eddNQ65oz1g0rul3YZNB7WU7nhurRKFWvax8EkvqTGwyTmOMfKj4+4fPv53V/bw/K5v/KQVFxh+U5CP2zsjClsP9aPcy1iH6ZkHFijYosDC49lGBkVv94PPv0uvc+BUgYvPN5+Mau63MdJ+tnhdu7rNzZquz1tViQdgg6Ek55KptM9D4opicHWcTjVhdVRbQCr/bEchJkDmG/qHOKyqXkflx3GnJSMK44gdpOKMV9+gnCgr4tczhfmMH5ziY/jVKXq2822k45aB3sou/V3qnfqz3bSJp3wA6NbvRqbm05a6lWsaeM9TjxJ8F+VuPXjI65Y/Pzur+1h+dxfeUgqrrB8J6EfNnbGFLYf9LlvXDIKJrf/hqYJY1xYotg1xTF497tM+apqdtRx8cOu6oJPt7KfHW7n/n5jo7YbT94xGNOSg0ubVMl0uzeJGbzq9pzqnHSAT6/nchAbrGtl5rGxPFTmgZ955kUvc32aJGNMQuY77iRixBqTDz+5cpsPzFG4yjVOtb8es9oGbCg76eh1XHbqz3ZUyfpVRQaNy40vNfYwtuLuV1X4N4kzKf5NYsY8iNueFy9x+PbyF/e8z7f9MHweyDyZGqcwfMNnUvphxhaYwuir3MUZT1RMbv3iwOrmy68+DixR55cf1qDt8O91BbWzP+rp4+0Vo67rVvaygXHgdu7vNTZ6m/HkHYMxLTm4tEmdUKdynJiZZy8frAPppMftTm2Ix9bntjvzQOCP5xDPMb2c5nmkYgXOuMr5nAdxxZQWu7lwm5YYguDIJU6nZ1D16WbbSUet42fGrb9a79SP+6dVqvidONTb1Rj1trSVVaxp5d8kriT4r4qc+vFiOiY/f/t7e1A+93cekoovKN9J6iURe9zxmIwhLqxRMMaFJardKDE4/b8K6rwuU36qqh11fPxiUHXBqVPZzwa3c1+vsdHbjCfvGIxpycGlTeqE6uW48YJnPx/6WOj6QWzofWy58q6zA50PfY7p5TTzo2ONo5zv+OOICWtdGuzmym0aYgjDZa7xqv312NU2YELZSUev47JTf7YTJka2lxbpF5farmNW21Qu0lCvY92fy0nxXVU59OLHZExeftL2fMSFJwiflidz/48dhO98/Pcp7jGOM27T2OPAGhVjHFhymV9R49D7AYPfpfc5kMr6uHvFrus6lb36Yxy4nfv6jY3abjx5x2BMSw4ubVIl0+k+TrzMsZcP1lGlqs/1ah3isGW72y7oPOA55CXTPp+8sIOHXNvzGX+u2NPePxdu0x6bE75c4nV6plUfbraddNQ6fkbc+qPeSZ/7pV16xRWV07A249KvyuMSZt7ExZ9qtypzqcbhN6fD8K5z4ufnQGnXedHLBwoPScWp85uGcpyxxx2fSexxYY2CMS4sudiNEofTGo46v8uUr6pqRx0nvxhUXfCql/36czv38xsbtd148o7BmJYcXNqkSqbbfVyYwbGfbbdx4H5BbLCuleb+JRBzZX/h022O6fVpjlfHarKc77hNxoJ5myZ7uXKbpljCcJtr3Gp/nQO1DZhQdtLR67js1D9MbGwnbdItLqd6HbuTDnObb6lj3R/LSfFf1bnz4slEbF728/0cJO3fi0/Lk/n/1/biG2Ofr/a4xjrOeExjjgNrVIxxYMl1fkWNRe8HHF6Xrn8glvXx9+JA19XLXn0xDtzO/bzGRm8znrxjMKYlB5c2qRPqVI4DM/PrZZt1nCT6cb2XDcRj2+0uPLd5wHMoiEz7PAoSA3gIq5fPuMNirWr6uXBb1WJV8eYSt9OzHMS2k45ax8+GEzYnPdavKtIpLicuWU+NmevSKlWsVWU8wuBMgvf9gUM/nnKN0c/+gdbuxueBxkNS8brxnc/6OGKPOx6TmOPCGgVjXFhytRslFqf/N0Gd12XKT1W3o46XXyyqLrhVy359uZ37eI2N3lZdr8i1zGBMSwQHm2mTTnxVr56hlaWTjom6IAPOOn7SBB5r48BkwG9u6e1pZknHaqqcz5hNxZBWO7lwm9aYguLKJXa9r+5Tb0fZSUev47Len+urutTj8irrsXrp5rtNx7q/lZPgd3/hzIurXGP0sn0gtrnxeSBykUTMbnznu9507HHHYxJvXFijYIwLS652o8Ti1KdxwwZO1dk64ExjriVpXCCE81h+vlVd7hOGQ+6THYQAN8aTd35BRm3n4NImnTieOHEinX/+BbR7926nZltnGbAMWAYsA5YBy4BlwDJgGbAMWAYsA5YBy4BlIFYGsKFo86aNnj7SlmPJFx49VwXS3LDoulx209frWd9zYLRG48k7HZSpMgeXNgk+S0tLK9G6cuUKeuWVFZXqbMEyYBmwDFgGLAOWAcuAZcAyYBmwDFgGLAOWActAWhhIW34l33gwLpzD8sOi6gbtwzZZP8w8MJ68YzCmJQeXNgmyhw4dSl27dqExY8bSyJEjw/BvdS0DlgHLgGXAMmAZsAxYBiwDlgHLgGXAMmAZsAzEykCdOnXonnt+X8lH2vIr+caj57FAlhsmXZfLXn3YlqpbaUA8CsaTdwzGtOTg0ibxauwJJ5wgf8CzTd55zDbbZBmwDFgGLAOWAcuAZcAyYBmwDFgGLAOWActA4gxUlO+hG2+8SfpVP/GVthxLvvGAIM5n+WFRddHHT5/b2b4cjIC/ck7eYdDLy3dRrVo1pUsGY1pycGmTCBoc4F3yHj160lVXXUXIaNvLMmAZsAxYBiwDlgHLgGXAMmAZsAxYBiwDlgHLQBoYqFNcLGFw4o5zNmnLseQbD/PCEqS5YWIdlm56ej3r6/OioKCA8ON05Zy8g9E9e/YezKCDMlXm4NIq8QCoO/CcyLZ1lgHLgGXAMmAZsAxYBiwDlgHLgGXAMmAZsAxYBvLBACfu4Bu5mrTmV/KNi/mB9MMSRpdtcZ4MfdWrRo3q5pN32GlWUVGh+pH3DMa05ODSKhG8+iDsQ4ytsAxYBiwDlgHLgGXAMmAZsAxYBiwDlgHLgGXAMpBnBjhfk9b8Sr5xMT8sMVxumFiHpZcu21B1K3bvCTQbDgqkpSkVFhZmX5NFk+qMwZiWCA6XlZYHOw/sc2DXAbsO2HXArgN2HbDrgF0H7Dpg1wG7Dth1wK4Ddh2Itg4gX2O5c+dOz2d5caXqeump65XK/66dZY4b46CvXtW+F5daEeR+165yWrt2NW3atFmqN2zYgFq3bpPNRAIwgzEpg2CzOpYBy4BlwDJgGbAMWAYsA5YBy4BlwDJgGbAMWAYsA/sywPmafVtsjcoA88RSbdPvg+iofVgfcuXKFdncWkmzptSkWXN5poKqj/tMqlGv9SkXFBwk3sOt/Lk8OOVLzTyizlSZfVjpniEG35Yfy4+dB/Y5sOuAXQfsOmDXAbsO2HXArgN2HbDrgF0H7Dpg1wF9HeANVnZueM8NPY+l86iWWVet8+JX1d+5cxdU5VWjZs1sPofrWEbaeQdH33z7La1ds0baKSoqok6dOmWTdAAMHdOSQVtpGbAMWAYsA5YBy4BlwDJgGbAMWAYsA5YBy4BlwDIQnAHO0QTvcWBrMl8svdgIosP9WRdy/vz52ddmW7duRY0bN2G1SjLzTxGVqvwLcFCjeuXjaysq4j1xFj5xWWl5sPPAPgd2HbDrgF0H7Dpg1wG7Dth1wK4Ddh2w64BdB+w6YNeBcOsAb7Kyz06wZ4d3yLH0mm9huGXd7dt3YCiyV2Fhrey9fhNp5x2MbN68mZYvXy7t1ahRg9q0aUvFxbVj2XEHgpgs6dD+sgxYBiwDlgHLgGXAMmAZsAxYBiwDlgHLgGXAMmAZCMSAzasEomkfJeaN5T4KESpgC9emTRvFeRLr5M47vNGKsyRq1y5ytJjp4djkXVlYWJPq1KmTVSov35m950SbScnBmZZZ0DncmMZkyl4OIbl2NYUtqh1XYDE2RMVqql/Y0Ez5tXbC/SuW5cvyhWfVzgM7D+w8sM+BXQfsOmDXAbsO2HXArgNpXAd4t1casaX5mVHzWqZwss2ysp3ZV2YLCgrE2RKV33DFWPEVeedd0ifOMmBTEqTjw4CrV6+iXbv2fiAwqP2KigoqadGCmjRunP22X9C+SeghvsWLF9Pu3XtfZ9b9Nm7SJIsfXHz77ToqLd2uq8ly9erVZRa4sLCGY3sSlYgJ31rcsH69o7ua4uOOzZuXyAm/bNlSRx1UYpdoUVEtOW5Oc0CO7Q+nvMAnP1iuBmNuWL9hg2vM7BqYsQO2pKQ51a/fgKuttAxYBiwDlgHLgGXAMmAZsAxYBiwDloEDnIE0/F1blYfANH+wh2vp0qUiB1Mq771OmoVCpodUDferRo3qVLPW3u18SIIwAFjihIcpybZNSWAsL98lPg44j5588kkaMuQ86tatW+CfXr160bPPPE179nwHU9nLFL5c7QDQokULacSIR+lHP/pRpbguuvgSevON1+WBI8APX+BiyZKlkovTTjs9q3/UkX3ol9ddR++992+pA7u5YsulPxJ3GK+f/OSkLEaMG2KaPHmywLiTysq205Qpk+kvf/lLJZ3LL7ucPhkzmrbv2Jug3LNnj5wDt912W5an88+/gCZ++lk2znzGjPFBzBMmTCBgdJujmI9oa9KkKQ0eNIjefvttsf12bfaI6Vw4z2f8Frf9V0s7//K75lr+Lf92HbbrsF0H7Dpg1wG7Dth1oOqvA8jL2Gc5+rPMeS1THMIezo1QN5LVql2c/fsdz5x+Rd55B0PbtpXSwoULpIO4v3unA8+1DNJ5ALZs2UzPPfcc3XTTr7Nmp0+fTh06dKy0bXHlyhW0atUqeuyxv9Nrr/2L/v73v9Pw4cOlHbaVNZCSG8R5229/SyMee0xmdPv1H0AP/OU+6t279z4IoYt3rh8bMYLuvOtu2Y53rqdPn5aq3VzYBTjib3+le//njyJBtYYGDx5MDz74ILVv3z47pogFWewLL7iQJotEXs3CIvroP6Oob9+jxZhmHlomAPY+++wzuvDCi8R3G4vp4YcfooEDB8rmtIwrknhffrmYkEzdVV4msWH+DRlyrthFWCzn6fLly+jjjz6kvz76GC1YMJ+OOKI73X33XXT22WenKhYJxv6yDFgGLAOWAcuAZcAyYBmwDFgGLAOWgdgZUHMfsTvbjx2Y5BG2tm7dKvNL/BZdu3btXb93B1orZzFCEo33cevWrSt7weH2bVuyFjjpYUoiOFymJONC4qagoLrYsVWexX7ppZfKXUw4gKNWrZrZnw4dOtAJJ5xAV1/9C7lT75BD2so+bMsUNlN2mK/XXn8juxXzwqHn0eGHd3PM6LJfJGVxNWrUiK699mp5VDG3sc18SPjkq0OnTuK15YO5KF4ZrZ6dG6gE3oYNG1DvPkdldTZv3rRP4o4bkZT95pt1IoF3vtiBd4ysTsu4AgwSjtu2bWO4UiLBiGOkMUcRP+bnL665lh599G/Us9dRNHv2LLrllltFYvrZfbiBAR5TK82uLZZPy6d9vuz6YtcBuw7YdcCuA3YdsOuAXQfsOpCWdQB/16YFS1XGYZJHrA94XRZ5NFz4BJjX9+6gk1lVcRfhwvfPsFOJry0i6cODgTq+NyE5kWJKMibg3Cleo5w69Qvcyh1aJ510ksQOX+qPVBC/sMuwa5fOMnHCdZCmsJmyA0z45t2OHXuPH27dtq1IuNbJYoWOeq1fv4HmL1ggqxo0aEjHHTdQ3jMm8Mb3SUsVZ6tWramkWZNsFV7bVi9gwzHLHTt2VKtd7+/783106qmn0VlnnS2z3RwbOvB9viQ4x867mTNnZnfdXXXVVeIV2cYSG3AxNuA9QSSY7/jdbdSlS1ex+3CJ2En5dxo/fnw2Ycu6VmZeebc8WB7S8JzbeWjnoZ2H+f/vrX0O7XNon0P7HNp1wK4D+9s6wHkPO7fTN7e3bNm7+a2O2BSnvyGIuaheOSXvsGsNJ87yoQiZRFHmlT44MTlBeNKZkowNONd+8618DRb3uPr375fFnqnZm4hEuYU4qOL0M86gdu0OEaW9V2hsgj9wyD/cny2izG2Q3B5GzpkzJ/utur59+opXSztI82r87A9y2rRpNHLkSFlVWFhInTp1rMQF9wuCwQk7+0L/g5TYocuXm21uh0RmuobAh2ubyFjru9Jkg/il7qj88ssvuTor4Xfu3Lk0T3z78Cc/OVHE2ykbrxsOp3qvWOFMj1XGLziQbT5SKolfY8d+wrfUr98x8nXZbMUPNzw+/Y89VuwgPFrW4rXhESMek/dO2NFg64ONheXJ8mSfF7te2HXArgN2HbDrgF0H7Dpg1wG7DlSVdQB/H1YVrAcSTnXXHdaTenXrZTfboOx0ZVZep5aAdYWFNSu9Ortx44ZYJgcnJUxJTAz84NRcfMuOr66HHyZPVeUyJBIzOOUUu5/gH9+B6969h/wOHCcuoRcW29bZL9OVRzShdl0G0u/emk/rBRZ1wh703Vc09qGf0ymdD6ZTrvwLvflVucQS1A9szZgxPZvAGjjwOHkaKbDqlxMXOAABr2WyP/RhfFznJJGoqrZ5Kj1+zSDq2vUwGvKbJ+nz9d9lJyNsHERlxPH36HMm/XHit762VcxNxEm5xcV1ZNXmzVtpw4bKJ9DCx5IlX9Ldd92T7bZp46bsPd8A/yOPPEKDBg2mgQMHSgxOMUHfqV7yUbZOjhNibXbGAzR6+VZpnrkCH9/Ne5N+feaxcqzvfnoirVU2vTrZ1f2Vlm6ld9/NJFXR1q3bEWJnYY0sJunwh1+YkyXNm1PrVq2y1StWfk1ff/21L8dBsMCo1Uvfv9zYcbHz0j6X9rm064BdB+w6YNcBuw7YdcCuA3Yd4HWA/x61cyJdcwLjg3MX+MKGOL9XZqFrIHlXg+qL1zD5wta/OCYHTzxTEhhhC0mRmTNmSPggbejPhmQTHKiEzubNm+nee35P3377jSzj+2L4zhhfYTFxv6JWR9LpvQ+m5Qs/oSeeeI9mrdkJh9IHbK4f8xS98NQb9PGyutT20F50TNtaWW5hw80v24ccNeojqijfI6u6HtZV7JSsV8kG68LWpg3f0ooVmURmSUkLOuOM07g5K3lsPX0Lbqs1bE/9ejenWquX0MgnXqARY1YQHhnu9/3muTT6wT/Sk3M20Jpmx9HATg2zPviGdVlyPTAUFWW+R4i6nWU7xDjuPUEWyVZ8t2/MmNHZ10yhh2SXekFv4sSJ9PLLL4tDLwbJb8b5xcdYWEr9wmLqIna59a/+DW386HF65eMltHVPZich9A7avYzeuf9u+tcHn9H2DoOpV0/xvT7lyWNbbhKYZ86clf1uIQ6iaNW6dZZLNSb1vn2H9vK7hajbtnWL2GE4R23O9nfza+szg2R5sDzgwbHzwM4DOw/sc2DXAbsO2HXArgN2HbDrQFVaB8L+bWvndzLzG5/8UvMX+FY/ckx+Vwadn5ZHOxIgxXXrZzXwwb31G8zvvuOJZ0ryxMR2xYkTJ0n8eE2Uv/GGuPADvZdeeJ7qiF1e1cW37nABA+PgchgJXVw16neis/73LrrjuJYy6XPbi7Np8fY90uf3GyfTk099QC8s2kG9ht9Ll116HB0sRiuI34x1krvRkJzC6aQ4fKKPeG22Zs1CaZ/jY4k+X69eQzNmZhI8DRo0oJ49e7EpKZkzSMahSyii7rtqTajT2bfQndeeQM3LxtOo596kN5ftzPwBLHaqzX3rH/SrF+dRtfqX071/uIKObiZ2p4l+uNgPl1nKxh9+IY7atYtkCSerTv78c7VZJqr+9rcRdOONN8p6cPD0M89V0kHht7f9jo7t31+cQts31K5GFdN31WpT455n0a9u/CkdTEvoqZtH0L/mbZbxIBYkYZ98ez6tKxpAV111Op3QsylIysbLtpwk+mPH54J5c7PY8XpvsThG2u/CackdxQ+u7du3i/mwsVIXJ39QsPXp+pcZOx52POxzadcluw7YdcCuA3YdsOuAXQfsOmDXgTDrAP9NDRmmn51n8c+zrdu2Zg+qwHkK2GDF4wX+3a6ck3cwXFRUS377jp1sETvVTE8QDsaUZKxLliylD0aNkkV8Hw2njk6dOlV+4P+ll16iu+68k+68+7/p2AHHUkNxgAPHxf2BhxNgLNU23OuYuV22NT+NfjbsFJn0mfbAM/TZ5G9E9U6Z3HrlvVlUq+cv6ZfnDKiU3OL+ul0uS7sCF3ZrbdqUSdjg8IkPPxxFiOmZZ57e5+f111+np59+iiZNHC/N1xI72w49tHOleDl2SPalS8YmOlLNhp2p3+AhdHLnBjI5+eqz79Nq8d/d7776jF59bhStpg50+f3X0Pk9RfL3h8Qd+vvZZxwtSkqy7jaJOYcLY4Cdkl9MnUJt2rah4cOHZ3VweAPjhd5nn30m47142DD5KjTbRQfW85NsvFqN+nT4WcPpkn4lVFj2Mt3y2DhasqsaIQn7yP88TaNK29NPb7yehp10KNWrVq0Sr17+0LZnzx564KFH2JX4JmN/sYsw872/bKXDzbx588QcmJ1tKS/fe6iHX1y2PbM0Wh4sD3iA7Dyw88DOA/sc2HXArgN2HbDrgF0H7DpQldYB/tuWpZ2/6Zi/mEMb1u/95Ff9+vV9D6pAH1z+e/Myep6/MRHwDTLsYsNVVlYm7/EaKi60Y9LkKmGLJ1+uErZ27CijxYsX41ZezZo1lzu48Brtrl27aMKkz2jalKnUsFED+e02bGVkv+iAeLZu3UrLly+ndevW0sQJE4VuQ7Hb6yapx7q6zHj7IZbqxTLpc+1Hs+juN16mv71xCnXaXkHvi+TWPOpHF1/5MzrpuBYyucV2mEcu65LtTxEHFfArsyUtDqZZs2aL7ZiZk2RZhyV2TE6bljlxF+PW75i+cmeb+k0/9ssSfXXf3CbrBT8lfU6giy4/h6b997P07pvvUJ/OranD7Mfp4WlbqNFJN9IVP+1Bdb7/PmuH8eh2ucztkF0PO1wewIGkHB+xjPrZs2fTE089S/f8/i55IiviwdysWVgkdqDtkMlm6N12++3iddnB8oAS7ORTY2V/fhJ2+KrW4HC64XeX0btD7qN5rz5Ez53eiU5a9k96d/q3MtafDzueOhUXVIq1El/CkJO/1atXyVNj2U+PHj3kA866XK/LVeIbd9hxiAvJvsaNG2dVuK+V9l9xMSnsPLDzwM4D+xzYdcCuA3YdsOuAXQfsOmDXgf1jHeC/MXVpxzf/44u3VNXcRaNGjeUGJIyN35VJP/pp+bRjUiBBwsk6qK9bty7by8R/COADl0mJ7YpLlyyRdoH9wgvOp0EimTPw+OOlvOrKy+jQzp3o/POHyuSkVNR+4cAOXO+88w499PDD4vCLrytpuOHNKomkZrVGfemKy0+lE4sraPo/7qRf3H4f3f/pRjpMnGiL5Jbb67J+tl959bVs8ubCoefR5ZdfThdffPE+P6g/6aSTqHGTTHIHScwTTjgxC5H9qOPIdbpkHdkZu+mqt6P+Zw2load3p+8WvEojfv8buvfR0VR+UG+68fZhdIzyuiz66Pb0chaUuKlTp5jq1W8gq/DeOJJvSMhOFbvuateuLb7ZN0i2HS/Gk6+NG9dLH9hdOWvmTLr22muoZctW2eQF9HSffmW2Lb7ER02Ov1y+Klxt5+f00m+vphtF0hJJWLwu27ddZoehyhHuvezjldmZAidf/foPoObNS7J9uF6VsAcuSsWrsnxhJ2ULkcBVLy+/0LPt5tccy6udV/a5ss+VXQfsOmDXAbsO2HXArgN2HbDrQJzrAP+9qUo75/I/58rLKyrtusO37tSzFDAnvC4jO+/gAJNB332HrGKTH3b7oJ0TFVGkOvHgL9cybKxds4Zee/0N3IpEUF0659xzxXfeesoyfg0YMEAe+HDKKSfLAxKyDT/cAAO+u4Zvi23cuFnaOP74gbLVDx/bYr0mP7mBbr5zHa0WyZ4Zs8upqPuldNFlZ9LhTZ13ajGfsMM2WKIOJ+jOmD4Nt/J7dyefehp17Jj5/pms1H7hMI4F8zO78jBmXbp0yWqwXfbJEgrcxtKprUa7fnTJ9b+gxXNuFQdUfEIFNQ6lc26/ni45pmm2PztjO26S9SAbN25CDRrUk1VIVuFhmDZtKr0z8l269ppfZJNPJcrrtUjywfadd9xB54rx7t27t8x0oz8uJ/xuWLhedhS/ZPmgtjT4qpvp5kmz6Q+ffCJ3+3X/+dU0qF8n+brsbvEKLF/si+3oEnp4lVv9nt+wiy/0fWUWdjH+aiIZPOnjr/uzZfuvrZhzdh7YeWDngX0O7Dpg1wG7Dth1wK4Ddh2w60DVXAf4b0xd2mc6/8/0xo2Vd901bdo8m7PA8+Z3ZdKPfloB2jE59N13eJcXO4dw5TJZYBuXaYlvguGVS766desmcSKRw8mcFWInHRJZ+iuz3Ady+7Yt4nXMUmovknj4Tpx6uWFWdeS9OOChW7fm1Kwks/utTqtudEjHNvt8H03l0cv2rFmzZOIIts8880xCVhcXx8aS7U2ZPIXWrl0jdWqLHW2dO+/93h37YV2WUOY2lmqbNCZ/1aLGJe2oU7d2slRQdDDV7LrvjkK24SfZLg7VqCt2TOIqFbsoly1bSpMmTRTZ7A10+umny/qCgupU0ry5vMevTZs20QzxWvQEcZDH0KFDqb7YuadiVu8ZB3fmsi65nWWN1u2oV7tGkv/d37emHt07UOf6lV+5hi770u1xGTrbd2yXyUjc4wr6yizGf86czOEjeF24r0hSgi+e1+zDynjWFsur5RXPq50Hdh7YeWCfA7sO2HXArgN2HbDrgF0HklwH+G9MXdp5mN95iI1GW7ZswVSQV9hdd+iUiSDTP+ffmBB4pQ8nZuDCu7zY0aVeUSaNPvFyLQMDDjVYuuRLCQ3JjWOPPVbuwGLbaMD9mYNPJ2REva7lK1aK7959RQe3KJEHH6i6bE+Xqo68372Mxr30Ns1fluFry4R36f3/zJUHPDBn3IfLuk0uQw/JOL6OO+7HYudgcTZZxPWQsLVhw3pa+8NrzuCil9h9iAMd2B4k9FCn/rAd1KGdcXF9Vn6/nqaJgzDGjZohq/BK6YIJU+nTb3ZLe6yn+kOdW5n164hdj8XiFGC+cCDH2DFj6bLLLpGJKvTHa80tW7WSKvj+G06mveeee2jIkCF05JFHSszsh+1wrCwRH19qrHo/1tkzbZQ8XRb+9lQsonfeGktfrNoMsitxxHyxHSf59cqVEjNs48TgQ9plEqDsS5fAt2tXOY0RPCBWXD16HEHnX3BBVhV+OTYVA8cG6YQFBmx97v8YYXm088g+R/Y5suuAXQfsOmDXAbsO2HXArgN2HTC9DvDfdk7Szrf8zrdvv12X/dYd8mVhd91hrhhP3hUX1xa7mcS3vX641ovdd3yQBaqiTBqnyQdbUevRd8uWzbRk6TLcygMphg27SN6rv4D11lt/K99DZtxqO9/jZNNVq76m9u0Oka/RqrpuGLkv2g86qJwWvf2MTPgUtD+Wzup3FCHB9do/X6WPPhG74bSkD+x72S0r20kj//1+9nt3eK23sDCTUGW/qly2bDkt/jKTyMQ3/gYNynwrTtWpqNhNX321nEaPHi1PqsU9LmAZP368rMfJtowLbZnYRKJ0zkf0738+QbO3NSd8s61rrT0067nHRLwzaas4rELtw/28JNpwNWzcVCS0MjsKFy3+kp57/iXx+vImkai6MKPww++6detmy2+88SaNHDlSfv9P/UYjKwALDrVYuHCheGX6A/mDWJHQAgf4Vh44wL0T7mqbp9Lbfx8hT5c98aTB1LNeoTxp9/HnxtDi7Xsq9fGbJ8jOz5mz97TYk08+Rb6GrvtVseN+7NjRNGbsOFmNGM8592z5Ojj7wzghDo4P9hAf4hw58h36Whx0oV7sz8r8/muN5d/yj+fSzgM7D+w8sM+BXQfsOmDXAbsO2HXArgNO6wD/vecm7bzJz7xB7mnTJrGZ54ersTjsFZ9fC3tl0Ift5aGPCdG0abPs7juo4vAKJCL4Cjtp3CZf1HrgWCF2y40bN15CQuaza9fDGF4lidcM2Y8b7vETP5U7vI4dcKzsy/oo8L0us04EX9+teZee/+uTMuFz7O+foqf//mu6+ZhGVDr9bXH67Hj6XOxQY9/cT7fHZbQvETsK+Xt3JSUtqE2b1jI5o+qwHUgkiPh7dzi04rAulV/9hQ6+vbZgwQIa9cEHYmfb5fTGG2/IV6I//vg/NGLEY/SwOKxj7dp1lXGK2HZtWkijX36Onp20lnaefCP99eVn6JFf95fJyZf+9jf6aPmuyn2EL8bpJoEHbQUFe6cvXn9e8dUyumTYRfI1WX49tKCggNRv3iFxN2TIeSKZ1Uv6ZR+wiQs84+FatGghvfLKq3TNNb+UscLe5Mmf0+OPP06PPfZ3caLyjkwH5fdB1TbS3Lf+Qb96cR7V6fVT+u3fn6PnH7qIjihaTq89/C69O2mJY7ISJhgHS+AoL99FU6bs3UE5eHAmqco6imuJG32QgHvmmefk+GMX5TVXX03Dh/8iq4rX2DFOkz/7lP705/tkfEjmYeflvwU3f/rzX2j69C/k2MIeLvZnZX7/tcbyb/m3z6Ndj+w6YNcBuw7YdcCuA3YdsOuAXQec1gH+281LOvWz8yne+YSNVfj7m6+iInHI5Q/nQnBdULk3+xG0RwC9mjULRcKkeTaBt23bNrEjakOk7995TT5AidKOSat+7651m7byY/6c8OEQddv6ZEc7diltFsmPnj2675MA1PtzWbV/kHhd9i2RuMPpso1O+jld0qcRNTj8TPrZsFPolDpLae6492nSzKWOSR/dHttd8sMJuihfdeUVYndak2wChnUguf+sWbOz37s7pG1bKjm45T76RUW16PDDu9GNv7pBftsQh0IgyYNTdpFUwvfjMOZ8wfZB322nr0a/RE/+/T+0rmgAnTJM7ABr3Z66n32VTE6Wz59Ef3phyj6vBjMuNwkfGAvsFqujvDbbv39/OueccxiClEjw4eRZvvDq6fXXXydeI661T4zQgV3sVjv55FPlqbyFhYX04agP6f3335Pf0+vX7xgR68/YXCWJHYYPP/Q2raYONOTKn9GRLRvQ4WcNlyftFpa9TK+8M4PmfpvZfcexwYB6rxpEEnH06LGyCom4ww7bN8GMvuAB8kuxe/KRR/4fvfnGW7LPFVdeStddf332W3c8f1u2bElnnnU2nSgOV0HSE7vw3n7rLaot4sZBH+qptIzNysxSaXmwPODhsvPAzgM7D+xzYNcBuw7YdcCuA3YdsOtAmtYB/lvPS9o5m+ycxcaZdevWio0/ZZgqMj/WXHyPH3+/R7mi9QrgqWFDsXOstFRuDwQ4vD5bXexwU7OMmDyYXH4S7rwmYZh2+NqwYb343l3moAokc0475ScyIh2H7lNvR6dFixYRXtn88Y8H0MEi6aVeen8us85BVEbrxzxF9z46mr6v1Y9u/dVg6ttOvHJcrZpM+vx06joa9/xr9OeHcXjFtXRuu1qyK9thmbUnYsPrnO+++y5XUQ/x/TokoPQLseAHO7VWrsy8Jtm6dRvC9/Fw6bZR16pVK3ngwbEiSfbBqFH01FNP0S233JI9xRR9kABl27vnfZjdUdhr+NV0x6C28j3tBt1Ooouvu4Lenf4nmvWXu+jZE/6Pbu3fFE7hJuubMehSKv3wq1HjRvIO43jqySfJxCMnYdEPWHAKMl9IvB11VG8u7iPRp169erLfoYceKg4R6UYTJkygCeMn0KDBg+UJxOgEPcaF8q7NYofhg38Up+luoKan30a/GnIoNajxHVVr1JeuuPxUGv3FKhqLV4XF4RVtrziKStDph0u1gypgRgzY6cjfrUM9Xn/WH3Tobd26lb744gu69w9/EN/8GyO/jXfDFb+kW269RZ7Iy3zABpKZiA8Jyn79MztFX3/9Dblb8a67787aRx8VF99bGWyOWp4sT3je7Dyw88DOA/sc2HXArgN2HbDrgF0H7DoQ9zqAvx8xz/yknYvJzEWMN65NG76VZy3gb3i87YnPy+EQyahXJvUYtbdHP0ycli1biR1Oe9/lxemzUb5/B1u4cpWwgY/5Y6fRh/8ZjaK8GjVsKOuR+MLFk1r3x/UsoTtlymRa9fVqai0SW3hvWU2U6P25jH64Kr76nB75n6dpxtZyqvWzG+mU3i2yp8si6XPmxWfTzw6pKb+Z9uqz79NC8c00rwvfasNuuGeeeSarhm/d4RVPFTMad+7cRdu2ldIHH4xk1ZTEAAATG0lEQVSSiR/U8UEj4IhPCUY9Xxzb4EFnyKquXbvIAzpgu1KyB+MldhS+88Lj8nXZwq796Jyhx1Pn4oKMnjhZt+Vx/0V3ntOZyreOpT/fdD+NXro59PgCRE+RnOzSpSv17dNH7iZjrCzBeZ0fvnmHBN8111y7z/f/9HFBPPjB67atW7eSuxKRJBwwYIDEr8aKvt9XbKFl7zwoX5ctrDeQbrx9GHWpm5n3sNPk+MtpeL8m1LxsvOt3DBkvJObh8uXLxTfpPsxW4/CLFSu+kjs9sdtz7epVNHfuXHr77bfpwQceoAsvvIimildsB4sE40svvUj/87//u0/ijo0BE3BjBx6uJ554gm6+5VZZh9h4nJkXK82sP5ZHyyOeNzsP7Dyw88A+B3YdsOuAXQfsOmDXAbsOmFwH8PcdLj9p510y8w7jgLfovl69Jrs5pmbNmmKz18FynKL+im3nHQAhw4jdaEg64ORZ/KxatUp8g62tfG0ROphAnEzwktD1m4xe7fCD5NakSRPo0UdH0Py58+QOJZxWOuaT8dShUyexs6y1ePW1q6sfxqrinjhxkjjN9GAaePzxqK50ueFhpS1fjqHJa76j+n1vpmeu/hG1aVBH+uZ+JX1OoNP/6yxa+cJ7tGzyOBq7SCTAemUytayTtSUmx6RJk8T32d6UcXH9Sy+9Ir832P/YY7OHHWCnFpJDkyaMp2efe4G++WZdts8nn4wTSZ/G8hXgjh07ZhM5bA+yQaPGsoiThd2u3Ytm0OJl6+XrslddcgldckzTLK/ihoobHUL9fn4DXTH1Vvp4y2R65eMl1PfKIwkvuHJsfhK+a9QopE6dOlL//v2yOwNVTLBRo3qBSO71FbsQe4hXfw/PxsTjyX70fpi/dYqL5S41bG91u77buZ4WjRffpitpSd2vukfGKmZ1Ng6q3o7OvPn3NHHDA/S3T6bQxCnz6Ed9m8lkpuobeDKJu2X04gsv0EMPPSQSiC3kt+9wau5tt92W3eVYQ2B77vkXRDJ8m4Q1bNjF4nXe8+W3/OrWzcwjTsI54Yav+iLrD15mzpwtTu2tncWr88IYrQz2H0XLk+UJz5ydB3Ye2HlgnwO7Dth1wK4Ddh2w64BdB+JeB/hvt6AybjzWfuZw1JUrv84m7rBJCnkxjFEuV7XvxZWLgSB98TF87LpD8g4XduMBvJow8LMTdDK66SERgx1Lc+fOka6Q9OGroqJcHsiA10tPOeXUfZI7bJP1IWEPr5xecOEwaixOPH3wwQcrfTeP+7hJ2DhI2FCHD4s7L/CyXQwu+quXW0JmvUjATZk2Tb4i6xRb9+7d5U5I4MaurXkLFopkZmklffCAC4dTNGjQMLvTTPWPDy7+4d576L7776c777hD7thyGscgsYngKsXPsblxptcjlhkzZsjvF/boUTkxx5jRB0nbRx5+ULz2eqZ8DZbbWLJdLkMyT3f99+/lzjQccvGvf/1fdny8xkkfR9jz40PqCKzYEYnDMlauXCGejzqozl48PqjAGLVv30FuvcXrzHw5+eY2logXSUKcSnvqqacRvqc37Ysp1Llz58DJdObMymD/+GB5sjzh2bTzwM4DOw/sc2DXAbsO2HXArgN2HbDrgMl1gP/GCyLt3It/7mGjFDasce4LiTu88ZbL67I8tokk7+AMia7S0u3ZIPQEnt9EYsC5SPjAj9fFCSQnHcaINiR3Ro8eTVdd9XORADmZ7rnnHvE9seoiGVaTatWqmU3yONlBnWrLTcetnvuyZHsou11YIPATRBc6uj7qkFh66603xeu22+iG62+ko/r0pnfefkMkkBrI12zV01+hn8SFmJkHjs/JL8ZLj8lJnzlErP/4x2PyEIilS5bSTpEse/nll+XuRZycHGSMnXDodYydJdpxzzh0fbXM+Fmqbbhnmyy5DnL+/PlyJx92LP72t7fRa6+9Rj/96U9FUrBCzOEaULGXZcAyYBmwDFgGLAOWAcuAZcAyYBmwDKSUAf47L6hMaRj7BSyMATYNrRYbpdQDKhqL7++XeLzFFyZ492xPGCsBdNu2PUS8flic/a4aAkJgCJAnG8xwIkKVaMeVq4RNJOe8frz8MCYJRvyaOXOGPK2zTZs2YvfXfHrvvfdEEqvyd+ncMKu23HTc6rkvJOvg3isu7gPsfrqwo+pjlxaSWdOmTRW7tcaKU1iHiYMqfk2TJo6nxeKwjnHjxtHEiRPk9wwZD/zwfZySY2G8br70mKCv6wIzYkXbM0/9k2qKLPltt91O7Tu0pxVfraCZM6bTxx//h/70x//dp69uK2iZcbNEP9x7jSW3QQ8/br7YJkt8xxDxrV69mj78cBRde+01NGjQYIQtxm+iHL/f//fdYrHZKW262bX1ZtYjy6PlEc+enQd2Hth5YJ8Duw7YdcCuA3YdsOuAXQeirAP8d15QaedZfPPMKXGH/JepxB3mR2I77+AMkwqvA3rtwIMeJhV0WaLOxMX2/KSbL7Uf7u+68055wucRR3QXBwacLxMh6jfV3OygXrXFD5uXvtrm1FevM1GGDbxqfPPNt9DmTRtpa+kOevWVl+RBDu+//x6dN2QoHdq5E/3oR0fTPSLpUyJehUZi6f+3dzbLbRxXFG4YJAEQkEy6JJoiJa8SR0urIss75hVkJxvFXqTsZJVkEy/sVHmRZbxwVqnkhfwE8T7WQi6REmlRFEQAlCilT8sHbtzMADPDwQCgT1dBd2737b9vZlo1l/1TdbB9Tarf2lCnLWbmYXbo7fd/4478/oEf/vaO+/Cjj8JS0i+//HuYnYYTWu/cueO++uofuZZ8s44kyXZQ0oZ6Vsl8sWRe9O34uBdmEv718y/cJ7//nd938i332Wefh9NvdnZ+5b755j/unRu/dP/+1z/dzZvpp/HG5etaBERABERABERABERABERABESgegL81ssrq2/p+a4R/LFUds9vFRfPuMPJslev/ri9VRkU6n/zoYyCspRRq9XcxYsX/SyuXpihBqcVnD3Qm82WazRWHLbg4zZ8lACC67NKljdJptUT54MNZmTBCXLjxjvu9u33/amn14fOq7QyGG/Lgs60STIpbxyHe1GWjv3zOp1VfxrvwH366V+GByZsbFx2p8+fuZ/7Qy0Qv3llKzhcUfek9pedHvc1rezYJuZDe8Q1Gk13wff1+vVfuA8++HU4vATxOHV2e3vL7ezs+GXSf3BXrmwOZ1gyf1Fp28VybPw4nXmsZB68Z1hrv7q66p2OLffurVvu448/8fep5n919/bbP3OXL2+4P//pj+7WrfdCPPqNYMuUXs5YJI7iiPdTz4GeAz0Heg80Dmgc0DigcUDjgMaBIuMA8iDkkXrWyn/WHvlJTvfv3w/+EtwPfHfDcYeTZeH/KjNUOvOODYczwc7AQyc3N9906+tvjMy6wwOWd2Ya67GSZU2SNh91mw/xWIqIkHe/t6SyQkEZ/knKa+PK0tEc9BHLge1eaNgfDSGOZ70hoaJ/WCdlUrVMs9Lapt3PtHibP6+e1h4bP0lPqtfmgQ3uWb1eH3leeX9tPPMnla04ERABERABERABERABERABERCB6gnwOy2vrL6l57dGsH/w8OHIwayx4w7pZYfyS8zQQnTk2rW3gkeS5jiNY3d3zz3Yvc+oIOm4Y+fPIlnWJJlWh82HBi4vL4Vf3Oi0/HG8LStOQ1nj9KS8Nq4sHe2AYxIHNNiAOBvPese1f1L/8qazTsqkuplmpbVNup9oT1K8zVtEj9sT54/jUf84Pc4HW+o2D9Jwv9CXOPD+0gFt81OXnN4eCbgf4iu+eg70Hmgc0DigcUDjgMYBjQMaBzQOTBoH7HdeFn1SmUrPN/ZgH/ldP+OOp8riveWMO7JEXJlhJjPv2AEsmd1/sOcOHh2OdHp9fc0v43szOBr4IDLPWSVAosxJ0taTZh/b0SaOG3dNe8pxtjaNeSiRzuuyZVy3LZtpafFMn7bMUr+1oZ7WNqZT0s7qjC8q08pj/CSZVG9antjW2iCNcfY6zqdrERABERABERABERABERABERCB6gnwey2vrL6l569G7iWPg1e73e6wg/EqUtyXaYXplZyhxej8xuaVsFwWHWZ45J15WFaL9cPoPAGUIekMnCRtXUn2STY2bpxuyxxnCzZxelJeG1eGHteJNtgymR7HM65KGddvWVG3NtTT2sl0StpB53UZMq081jtOptWflMfaxjZMYxx0XDNeMt9fYsRLvDjuSI7+3yUe4qHxUeOjxgGNAxoHNA5oHCg+DvB7La/Ue1f8vSO7XX8oxbff/nfEcddqtfz++Nth+zfa4fmeRpjpzDt2CA8ejtbd29sdAQGHHo7XxSy81dVWcCbwIWXeIhJQUc4kybLT7JgOSZs4Lss181FmyUMb5qFEPK/LkqwrT9lxniqvbZ+T6rY21K0t49OktZ+WnlY/45PqZZqVsW1aGuNjW12LgAiIgAiIgAiIgAiIgAiIgAjMlgC/1YrK2bZ+8WoHZ/yePOm677/f976qp6krRmE37TD9GjL0AB1tt1f9iRzb7tKlS8McWD/MWXjwcj579jzAgwHhFJF0AE6SLDvJjmmUdAbmbZstm+VlkUl5bdxZdNuGLGXZPFXqtn1JdVsb6taW8UnS2k5TT6ofzxji0+pNymNtY5s4bVy5sV3e51z2ZxuzxE/89P4V/2up3h+9P3p/9P5oHNA4oHFA48B5GAfibzj0J6+u9yD7e4BVovA/3bt3z2GZLPxS3N8uLJPduOxXkG6FSWbkinsyzTAXM+/iDmIfvMePD93+/oH3cD5xgIYAQI1Gw09HXPMbAa4NHRd8YOMyslwDMB0VRWRcB8uK4/JcMz/lWfOynLPKuB1Zy4rzzOLatjOpDdaGOm2pp0naVSXztCOLrbWpqh+qRwREQAREQAREQAREQAREQAREID8B+w1XVM9f808nB5giwGn36OCh6x73RlaGIq3T6YQJZ5D0VSG+ivCqdVXUlLEOAFhffyPMwtvc3AxOO2SFlxObAuJE2rt374ZjeQEV9oBM0FklnX5FpK2DZdj4rDrzQ2bNQ7ukvHEc2BXRWT5l1jJoPysZtzOtDbFNzIf2aemMp11VkvXGMq3u2IZ9s7axjU2Tnv2vMeArXuKl50DvgcYBjQMaBzQOaBzQOKBxQOPAtMeB+BsOz1sRfdptXMTy0Wb++v1B8DPh/AUcqvp/h1L42XZYLbq2tla54w73fO5m3qFRDJiFB2CYiYdpinHgTLyO3wuvfeF112o1hx/SsOPDHOeJr3GDYFNUJpUVx+W5tm04a15bXlE9bkfWMuI8s7i27Uxqg7WhTlvqaZJ2Vck87chia22q6ofqEQEREAEREAEREAEREAEREAERyE/AfsMV1fPXfP5ygB0DfELwOeHX7/dHHHa04erPWcy2Yxsgf2x1HDsn15hVB68m1hJfu3Y1LJll0zAT7/Dw0O0+eBjWIH/33b3gJcXBF9wbL56VxxtESedeEckyKFkG9byS+SHLyBuXB15FdNuOrGXYfFXrcTvT6o5tYj60T0tnPO2qkqw3lml1xzbsm7WNbWyadP3lGM+NngM9B3oO9B5oHNA4oHFA44DGAY0DGgfmZxyIv+FwX4roP8V3Gn3mj/4h+IuOjo6C/wh+pD1/vsL+Pg6k6ALtMMBpBz/U9vbVmc22GzbGX8z1zLu4obg+9muOj54cua7fCw+z8gaDgXv58mUwg46bgaN6m82Ga/g98pb9HnkrK01Xr9e9XB7eND7otnzpIiACIiACIiACIiACIiACIiACIiACIiACi0sADjv4iE5PX/jfqTs5GXj53D3zPqSBnwiGJbK9Xi/YwI/EgBWenU477G3X6Vz05y6sMGnmcqGcd6Q1GJy4Ws25g4MDv6T2cbgZPPkDNrhJCHDk4UbAmVevL7ml12rBoYc06JRw7imIgAiIgAiIgAiIgAiIgAiIgAiIgAiIgAgsFgE46OCcQ6Ckow4z7ZBOZx1srMMOervdDtuxzZvTDu1FWCjnHWfZvWr6q6mi3e5Td9w7dieDfvCewnEXO/JgS2cernFT4E1lwAm2CiIgAiIgAiIgAiIgAiIgAiIgAiIgAiIgAotHAM45+n3gD+I1exI76xDHMxSWl5dco+nPUVhtuwsXOjSfS7kQzjs47fjD9Mcapt35gOWviKeO/e6eHj91g34v7Htnb2DSHcBNxY20NzfJVnEiIAIiIAIiIAIiIAIiIAIiIAIiIAIiIALzQYD+HOugY+s4eYsTt+Cww+ETrVY7rNKEj2kRwsI47+CIg7Ou9vKFW3I1V/thxtwLfyLIae2Fqy+PnjYLZ1yv1/drm/vDdc2YLsmA8hREQAREQAREQAREQAREQAREQAREQAREQATOB4F4W7Qws+6H8xDgrMNZCGlOvnnv/dw77zjjDlMfsUZ58PXXrumvmzdvupWtLVfDfnVw7PnZeJyBR5kEH049bFp4cnIyXAudZKc4ERABERABERABERABERABERABERABERCBxSCAsw1WVlb8GQevLayTLo30/wCZfYQAtoz1ZgAAAABJRU5ErkJggg==;" vertex="1" parent="1">
                    <mxGeometry x="120" y="400" width="569.24" height="160" as="geometry"/>
                </mxCell>
                <mxCell id="3" value="" style="group" vertex="1" connectable="0" parent="1">
                    <mxGeometry x="379" y="650" width="35" height="35" as="geometry"/>
                </mxCell>
                <mxCell id="4" value="" style="ellipse;whiteSpace=wrap;html=1;fillColor=#f8cecc;strokeColor=#b85450;" vertex="1" parent="3">
                    <mxGeometry width="35" height="35" as="geometry"/>
                </mxCell>
                <mxCell id="5" value="" style="curved=1;endArrow=none;html=1;sketch=0;endFill=0;entryX=1;entryY=0;entryDx=0;entryDy=0;" edge="1" parent="3" target="4">
                    <mxGeometry width="50" height="50" relative="1" as="geometry">
                        <mxPoint x="4.375" y="28.437499999999996" as="sourcePoint"/>
                        <mxPoint x="26.25" y="6.5625" as="targetPoint"/>
                        <Array as="points">
                            <mxPoint x="19.6875" y="26.25"/>
                            <mxPoint x="15.3125" y="8.75"/>
                        </Array>
                    </mxGeometry>
                </mxCell>
                <mxCell id="7" value="" style="endArrow=none;dashed=1;html=1;strokeColor=#F10909;" edge="1" parent="1">
                    <mxGeometry width="50" height="50" relative="1" as="geometry">
                        <mxPoint x="420" y="670" as="sourcePoint"/>
                        <mxPoint x="689.24" y="560" as="targetPoint"/>
                    </mxGeometry>
                </mxCell>
                <mxCell id="8" value="" style="endArrow=none;dashed=1;html=1;entryX=0;entryY=1;entryDx=0;entryDy=0;strokeColor=#F10909;" edge="1" parent="1" target="2">
                    <mxGeometry width="50" height="50" relative="1" as="geometry">
                        <mxPoint x="370" y="670" as="sourcePoint"/>
                        <mxPoint x="119" y="560" as="targetPoint"/>
                    </mxGeometry>
                </mxCell>
            </root>
        </mxGraphModel>
    </diagram>
</mxfile>